<svg id="Layer_1" data-name="Layer 1" xmlns="http://www.w3.org/2000/svg" viewBox="0 0 77.15 85.3"><defs><style>.cls-1{fill:#1f2726;}.cls-2{fill:#2d2c2c;}.cls-3{fill:#2e413d;}.cls-4{fill:#156056;}.cls-5{fill:#148b7b;}.cls-6{fill:#655c5f;}.cls-7{fill:#82507d;}.cls-8{fill:#737574;}.cls-9{fill:#c567bb;}.cls-10{fill:#cc78c9;}.cls-11{fill:#74d7c7;}.cls-12{fill:#d087d2;}.cls-13{fill:#96dfd1;}.cls-14{fill:#b2ebdc;}.cls-15{fill:#b6ece5;}</style></defs><title>Fuzzle-buzzle</title><g id="layer102"><path class="cls-1" d="M92.1,130.8l.3-6.3-3,.3a8.27,8.27,0,0,1-5.6-1.7c-3.2-2.6-3.8-1.6-3.8,7V136H66V100.5c0-38.1,0-38.4,5.2-43.2,3.4-3.2,9.1-5.3,14.3-5.3H90V67H87.2c-3.1,0-7.2,3.6-7.2,6.3,0,1.1,1.1,1.7,3.8,1.9l3.7.3.3,7.3c.3,7.8.6,7.4-5.5,7.5-1.8.1-2.3.7-2.3,2.8,0,1.5-.6,2.9-1.4,3.2s-1.2,1.4-.9,2.6a4.43,4.43,0,0,1-.7,3.6c-1.1,1.3-1,1.4.4.9,1-.4,1.6-1.7,1.6-3.5,0-2.4.4-2.9,2.5-2.9,2.3,0,2.5.3,2.5,5.1,0,4.3.3,5,1.8,4.7,1.3-.3,1.7-1.3,1.7-4.8V97.5l6-.6c5.8-.5,6.8-1.3,1.3-.9l-2.8.2V52h17.3c19.8,0,22,.7,27.2,7.9,5.6,7.9,4.4,21.3-2.4,27.5l-2.2,2,4,4c5.9,6.2,7.1,9.3,7.1,18.6,0,10.8-3.1,16.9-11.4,22.4-3.8,2.6-4.2,2.6-21.8,2.6H91.9Zm33.9-6.2c0-.3-.5-.8-1.2-1.2s-.8-.3-.4.4C125.1,125,126,125.4,126,124.6Zm7.5-.6c.3-.5.4-1,.1-1s-.8.5-1.1,1-.4,1-.1,1S133.2,124.6,133.5,124Zm-26.8-2.7c-.4-.3-.7,0-.7.7s.3,1,.7.7A1.2,1.2,0,0,0,106.7,121.3Zm16,0c-.4-.3-.7,0-.7.7s.3,1,.7.7A1.2,1.2,0,0,0,122.7,121.3ZM77.5,120c.3-.5.4-1,.1-1s-.8.5-1.1,1-.4,1-.1,1S77.2,120.6,77.5,120Zm25.2-.7c-.4-.3-.7,0-.7.7s.3,1,.7.7A1.2,1.2,0,0,0,102.7,119.3Zm11,0c-.4-.3-.7,0-.7.7s.3,1,.7.7A1.2,1.2,0,0,0,113.7,119.3Zm3,1a1.2,1.2,0,0,0-1.4,0c-.3.4,0,.7.7.7S117,120.7,116.7,120.3Zm13,0a1.2,1.2,0,0,0-1.4,0c-.3.4,0,.7.7.7S130,120.7,129.7,120.3Zm-61-9.5c-.2-1.8-.4-.4-.4,3.2s.2,5,.4,3.3A35.28,35.28,0,0,0,68.7,110.8ZM90,115.5c0-4,.3-4.5,2.2-4.5,1.6,0,1.9-.3,1.1-1.1s-1.8-.6-3.7.7c-1.9,1.5-2.5,2.8-2.6,5.7,0,2.6.4,3.7,1.5,3.7S90,118.8,90,115.5Zm9,.5a1.1,1.1,0,0,0-1.1-1c-.5,0-.7.5-.4,1s.8,1,1.1,1S99,116.6,99,116Zm-17.5-4.8c-.5-1.3-.8-1.4-1.5-.3a3.59,3.59,0,0,0,.3,3.3c1,1.6,1.2,1.6,1.5.3A6.24,6.24,0,0,0,81.5,111.2Zm48.8,4.1a5.28,5.28,0,0,0-2.5,0c-.7.3-.2.5,1.2.5S130.9,115.6,130.3,115.3Zm-24.6-2c-.4-.3-.7,0-.7.7s.3,1,.7.7A1.2,1.2,0,0,0,105.7,113.3Zm11,0c-.4-.3-.7,0-.7.7s.3,1,.7.7A1.2,1.2,0,0,0,116.7,113.3Zm6,0c-.4-.3-.7,0-.7.7s.3,1,.7.7A1.2,1.2,0,0,0,122.7,113.3Zm11.7-.8c-.4-.8-1.1-1.5-1.6-1.5s-.5.6.2,1.5a6,6,0,0,0,1.6,1.5C134.8,114,134.7,113.3,134.4,112.5ZM78,111.6c0-.3-.5-.8-1.2-1.2s-.8-.3-.4.4C77.1,112,78,112.4,78,111.6Zm47.7-1.3c-.4-.3-.7,0-.7.7s.3,1,.7.7A1.2,1.2,0,0,0,125.7,110.3Zm-40,.1a2,2,0,0,0-1.9-.1c-.8.3-.5.6.6.6S86.1,110.7,85.7,110.4Zm20.3-1.1c0-1.2-.3-1.4-.8-.6-.4.6-2.8,1.3-5.2,1.6l-4.5.4,5.3.1C105.2,111,106,110.7,106,109.3Zm8.8,1a25.28,25.28,0,0,0-5.5,0c-1.6.2-.3.4,2.7.4S116.3,110.5,114.8,110.3Zm14.9.1a2,2,0,0,0-1.9-.1c-.8.3-.5.6.6.6S130.1,110.7,129.7,110.4Zm-6.3-2.9c-.4-.8-1-1.2-1.5-.9-1.1.6-.2,2.4,1.1,2.4C123.5,109,123.7,108.3,123.4,107.5Zm-5.7-1.2c-.4-.3-.7,0-.7.7s.3,1,.7.7A1.2,1.2,0,0,0,117.7,106.3Zm20,0a1.2,1.2,0,0,0-1.4,0c-.3.4,0,.7.7.7S138,106.7,137.7,106.3ZM123.3,101c.3-1.1.1-1.8-.4-1.4a2.53,2.53,0,0,0-.9,2C122,103.6,122.7,103.3,123.3,101Zm9.2,1a2.5,2.5,0,0,0-4,0c-.4.6.5,1,2,1S132.9,102.6,132.5,102Zm-35.8-.7a1.2,1.2,0,0,0-1.4,0c-.3.4,0,.7.7.7S97,101.7,96.7,101.3Zm12.6,0a5.28,5.28,0,0,0-2.5,0c-.7.3-.2.5,1.2.5S109.9,101.6,109.3,101.3Zm8.1-1.9c.3-.8.2-1.2-.4-.9a1.9,1.9,0,0,0-1,1.6C116,101.5,116.7,101.2,117.4,99.4Zm18.6-.8c0-.3-.5-.8-1.2-1.2s-.8-.3-.4.4C135.1,99,136,99.4,136,98.6Zm-4.3-2.8a4.07,4.07,0,0,0-3.7.2c-2.8,1.5-2.5,1.7,1.6,1.2C132.5,96.8,132.9,96.5,131.7,95.8Zm-30,.5a1.2,1.2,0,0,0-1.4,0c-.3.4,0,.7.7.7S102,96.7,101.7,96.3Zm4.6,0a5.28,5.28,0,0,0-2.5,0c-.7.3-.2.5,1.2.5S106.9,96.6,106.3,96.3Zm8.2-.3c-.3-.5-1.7-1-3-1s-2.7.5-3,1,.8,1,3,1S114.9,96.6,114.5,96Zm6.8-3.7a5.28,5.28,0,0,0-2.5,0c-.7.3-.2.5,1.2.5S121.9,92.6,121.3,92.3Zm-1-11c2.3-2.6,3-6.8,1.6-9.5-1.7-3.3-2.8-3.8-8.1-3.8H109V83h4.8C117.2,83,119.2,82.5,120.3,81.3Z" transform="translate(-66 -51.9)"/></g><g id="layer103"><path class="cls-2" d="M92.6,130.7c.1-6.5.9-9.2,2.5-8.2.5.3.6,0,.3-.8-.4-1.2-1-1-2.9.9-1.3,1.3-3.3,2.4-4.3,2.4-2.2,0-5.2-3-5.2-5.1,0-.8-.9-.3-2.3,1.3A14.87,14.87,0,0,1,76,125c-2.3.9-2.2,1,.8.4l3.3-.6-.3,5.4-.3,5.3-6.7.3-6.8.3V100.8c0-40-.1-39.6,7.9-45.3,3.5-2.4,5.2-3,9.9-3h5.7l.3,7.3.3,7.2H87.2c-3.1,0-7.2,3.6-7.2,6.3,0,1.1,1.1,1.7,3.8,1.9l3.7.3.3,7.3.3,7.2H84c-3.7,0-4,.2-4,2.7s-.1,2.6-1.4.7c-.8-1-1.8-1.6-2.2-1.1s-.2.7.4.7,1,1.9,1,4.5-.4,4.5-.9,4.5-.9,2.3-.9,5,.3,5,.8,5,.6-2,.4-4.5c-.3-2.8,0-4.5.7-4.5s1.1-1.3,1.1-3c0-2.3.5-3,1.9-3,1.7,0,2,.8,2.3,4.8s.6,4.7,2.6,5,2.2,0,2.2-4.7c0-4.4.3-5.1,1.9-5.1,1.3,0,2.1.8,2.3,2.3.2,1.7,1,2.2,3.3,2.4,2,.1,2.3,0,.8-.4A2.55,2.55,0,0,1,94,98.9c0-1.6.7-1.9,5.5-1.9,5.3,0,5.4.1,4.5,2.4-.6,1.6-.5,2.3.3,2.3,4.1-.1,4.8.3,3.7,2.2-1.5,3-1.1,3.9.5,1.1,1.9-3.4,1.8-4-.5-4a1.8,1.8,0,0,1-2-2c0-1.8.7-2,5.5-2,5.9,0,6,.1,4.5,3-.8,1.6-.8,1.8.5,1.4q1.5-.6,1.5-4.5c0-3.2.4-3.9,1.9-3.9a2.58,2.58,0,0,1,2.4,1.8q.45,2,.3-.3c-.1-2.7-4.6-3.4-5.2-.8-.5,1.6-1.7,1.8-12.5,1.8-7.5.1-11.9-.3-12-1,0-.5-.1-10.3-.2-21.8L92.5,52h16.8c18.2,0,19.9.4,24.9,5.7,7.8,8.2,7.8,21.4-.1,28.8-3.3,3.2-3.9,4.5-1.8,4.5,1.6,0,5.8,4.4,8.6,9,3,4.9,3,17.2,0,23.5-2.3,4.8-8.4,11-12.5,12.5-1.4.6-10,1-19.2,1H92.5Zm28.9-5.8c.3-.4-.4-.5-1.5-.2-2,.5-2.3-.3-2.2-6.2.1-1.8,0-1.8-.5-.2-.3,1.3-1.1,1.7-2.4,1.4-1-.3-1.9-.1-1.9.4s.9.9,2.1.9c1.4,0,1.9.5,1.7,1.8s-1.5,1.8-5,2c-4.1.3-4.7.1-5-1.9s-4.8-4.8-4.8-2.9c0,.6.9,1,2.1,1,1.4,0,1.9.5,1.7,1.8s-1.4,1.7-5.6,1.7c-2.8,0-5.2.3-5.2.7C95,126.2,120.9,125.9,121.5,124.9Zm8.2.4a1.2,1.2,0,0,0-1.4,0c-.3.4,0,.7.7.7S130,125.7,129.7,125.3Zm-58.8-2.4c-1.8-1.8-2-3-1.7-9,.2-3.8,0-6.9-.4-6.9s-.8,3-.8,6.8c0,6.5,1.7,11.2,4.1,11.2C72.6,125,72.1,124.1,70.9,122.9Zm53.8-.1c-1.2-1.3-2.4-1.9-2.6-1.5s.5,1.5,1.5,2.2C126.5,125.7,127.2,125.2,124.7,122.8Zm8.8,1.2c.3-.6-.1-.7-.9-.4-1.8.7-2.1,1.4-.7,1.4A1.9,1.9,0,0,0,133.5,124Zm1.5-3.5c1.1-1.3,1-1.4-.4-.9-.9.3-1.6,1-1.6,1.5C133,122.4,133.6,122.2,135,120.5ZM77.7,118c.1-2.2.1-2.2-.4-.2-.5,2.3-2.7,3-3.9,1-.4-.6.1-1.7,1.1-2.5s1.4-1.3.8-1.3a4.12,4.12,0,0,0-2.3,1.5c-1,1.2-1,1.8,0,3C74.9,121.8,77.5,120.9,77.7,118ZM90,115.9c.4-3.6.9-4.4,2.5-4.4,1.3,0,2.1.8,2.3,2.3.2,1.2,1,2.2,1.8,2.2,1.7,0,1.7.4.3,3.3-1,2.1-1,2.1.5.3,2-2.5,2-4.6.1-4.6-.8,0-1.5-.9-1.5-2,0-1.7.7-2,5-2,5.4,0,5.5.1,3.9,3.2-.7,1.2-.7,1.8-.1,1.4a2.46,2.46,0,0,1,3.7,2.8c-.5,1.7-.4,1.8.4.6,1.6-2.3,1.3-3.7-.9-4.3-1.3-.3-1.8-1-1.4-2.1s2-1.6,5.5-1.6c5.3,0,5.4.1,3.7,3.3-1,2-1,2.1.5.9a6.34,6.34,0,0,0,1.5-4.1,8.65,8.65,0,0,1,.4-3.7,3.89,3.89,0,0,0-.3-2.9c-.7-1.8-.8-1.8-.9.5a16.83,16.83,0,0,0-.1,3.8c.3,2-9.9,1.6-11.5-.5-1.3-1.7-1.4-1.7-.8,0,.5,1.5-.1,1.7-5,1.7s-5.8-.3-6.6-2.2c-.6-1.7-.9-1.8-.9-.6-.1,2.3-4.2,5.1-5.5,3.8a5.19,5.19,0,0,0-3.3-1,3.91,3.91,0,0,1-3.1-1.7c-.8-1.3-.9-1-.7,1.3a16.85,16.85,0,0,0,1.1,4.9c.8,1.9.8,1.9,1.4-.5a3.76,3.76,0,0,1,2.3-2.8c1.3-.3,1.7.4,1.7,3.1C86,122,89.2,123.3,90,115.9Zm40.3,4.4a5.28,5.28,0,0,0-2.5,0c-.7.3-.2.5,1.2.5S130.9,120.6,130.3,120.3Zm-5.7-11.2a8.43,8.43,0,0,1-1.6-4.9c0-6.2,6.6-9.3,11.9-5.5,1.4.9,2.1,1.1,1.7.5a12.44,12.44,0,0,0-3.7-2.8c-2.8-1.4-3.2-1.3-6.8.7s-4,2.6-4.3,6.6c-.3,4.5.2,6.6,1.8,6.3s1.6,2,0,2.6a2.47,2.47,0,0,0-1.6,2.1c0,1,.7.7,2.1-1.1C126.1,111.1,126.1,110.8,124.6,109.1Zm5.7,6.2a5.28,5.28,0,0,0-2.5,0c-.7.3-.2.5,1.2.5S130.9,115.6,130.3,115.3Zm4.6-1.9c-1.1-1.3-1.1-1.8-.1-2.1A2.76,2.76,0,0,0,136,109a2.49,2.49,0,0,1,1.3-2.3c.6-.3-1.2-.6-4.2-.6s-5.1.2-4.7.7a6.63,6.63,0,0,0,3.4.7c1.7,0,2.7.5,2.7,1.5s-1,1.4-4,1.3l-4-.2,3.3,1a8.12,8.12,0,0,1,4.4,2.9c.7,1,1.4,1.7,1.7,1.5S135.7,114.3,134.9,113.4ZM73,107.6c0-.3-.5-.8-1.2-1.2s-.8-.3-.4.4C72.1,108,73,108.4,73,107.6Zm29.3-2.6c.3-1.1.1-1.8-.4-1.4a2.53,2.53,0,0,0-.9,2C101,107.6,101.7,107.3,102.3,105Zm12.7,1.6c0-.3-.4-.8-1-1.1s-1-.1-1,.4a1.1,1.1,0,0,0,1,1.1C114.6,107,115,106.8,115,106.6Zm-22.3-3.3c-.4-.3-.7,0-.7.7s.3,1,.7.7A1.2,1.2,0,0,0,92.7,103.3Zm39.8-1.3a3.5,3.5,0,0,0-2.6-1c-1,0-1.9.5-1.9,1s1.2,1,2.6,1S132.9,102.6,132.5,102Zm5.2-.7c-.4-.3-.7,0-.7.7s.3,1,.7.7A1.2,1.2,0,0,0,137.7,101.3Zm-63.6-7c1.3-1.6,1.2-1.7-.3-.4A5.73,5.73,0,0,0,72,95.6C72,96.4,72.8,95.9,74.1,94.3Zm44.2-11.2c3.4-1.3,5.2-6.3,4.1-10.9l-.9-3.7-6.2-.3-6.3-.3V84h3.4A20.33,20.33,0,0,0,118.3,83.1Z" transform="translate(-66 -51.9)"/></g><g id="layer104"><path class="cls-3" d="M93,130.1c0-3.9.5-7.3,1-7.6s1,.3,1,1.4c0,2,.5,2.1,13,2,7.2-.1,13.2-.5,13.5-.9s-.4-.6-1.5-.3c-2.2.6-2.3.3-2.1-10.6,0-4,.6-6.8,1.3-7.3,1-.6,1-.8.1-.8s-1.3-2-1.3-6.5c0-5.9.2-6.5,2.1-6.5s2.1.5,1.9,7.3c-.3,10.7-.2,12.5,1,10.7.5-.8,1.3-1.1,1.7-.6s0,1.3-1,2A4.36,4.36,0,0,0,122,115c0,.7.9.1,2.1-1.4,2.6-3.3,6.2-3.4,9.4-.1,2.5,2.4,3.6,2.1,1.3-.4-1-1.1-1-1.4,0-1.8A2.76,2.76,0,0,0,136,109a2.49,2.49,0,0,1,1.3-2.3c.6-.3-1.2-.6-4.1-.6-3.4-.1-5.1.3-4.7.9s1.9.9,3.3.8c1.9-.2,2.7.2,2.7,1.2,0,1.2-1,1.4-4.5,1.2-2.5-.2-5-.8-5.7-1.4s-1.2-3.6-1.1-7.8c0-3.7-.3-7.3-.6-7.9-1.1-1.7-4.7-1.3-5.2.7-.4,1.5-1.9,1.7-12.5,1.7L93,95.6V52h16.5c17.9,0,19.7.4,24.7,5.7A21.89,21.89,0,0,1,140,72.4c0,6-1.4,9.3-5.8,14-2.5,2.5-3.3,4-2.4,4.3a26.91,26.91,0,0,1,4.2,2.9c9.4,7.9,9.5,26.9.2,36.7-5.6,6-8.5,6.7-26.7,6.7H93Zm40.1-6.1c1.3-1,2-1.9,1.5-2s-.1-.9.9-2c1.7-1.9,1.7-1.9-.8-.7-1.8.8-2.3,1.5-1.6,2.4s.4,1.5-1,2.2c-3,1.7-5,1.3-7.6-1.4-1.4-1.3-2.5-1.9-2.5-1.2,0,1.5,4.8,4.6,7.1,4.7A8.27,8.27,0,0,0,133.1,124Zm-2.8-3.7a5.28,5.28,0,0,0-2.5,0c-.7.3-.2.5,1.2.5S130.9,120.6,130.3,120.3Zm0-5a5.28,5.28,0,0,0-2.5,0c-.7.3-.2.5,1.2.5S130.9,115.6,130.3,115.3Zm2.2-13.3a3.63,3.63,0,0,0-5,0c-.4.6.7,1,2.5,1S132.9,102.6,132.5,102Zm4.6-1.9a12.22,12.22,0,0,0-4.1-3.6c-2.7-1.4-3.3-1.4-6.1,0-1.7.9-2.8,1.9-2.5,2.3s1.2,0,1.8-.6m-5-17.2c2-2.5,2.3-6.5.8-10.4-.9-2.4-1.4-2.6-7.3-2.6h-6.3l.2,7.8c.2,4.2.3,7.9.3,8.1s2.4.1,5.3-.1C118,83.4,119.9,82.6,121.2,81Z" transform="translate(-66 -51.9)"/><path class="cls-3" d="M66,101.4c0-33.2.1-35,2.1-39.1a19.24,19.24,0,0,1,4.7-6.1c3.7-2.5,10.2-4.4,13.7-4l3,.3V66.4l-3.5.7c-3.8.8-6,3.2-6,6.6,0,1.6.4,2.1,1.5,1.7a7.66,7.66,0,0,1,4,0c2.4.6,2.5,1,2.5,7.6v7H84c-3.7,0-4,.2-4,2.8-.1,2.3-.2,2.4-1.1,1-1.4-2.4-2.5-2.3-5.4.7-1.9,1.8-2.5,3.5-2.5,7,0,3.1-.5,4.7-1.5,5.1-2.1.9-2.1,13.1.1,16.2.8,1.2,2,2.2,2.6,2.2s.2-.9-1.1-2.1c-1.9-1.8-2.2-2.9-1.9-8.7.2-5.2.6-6.7,1.8-6.6s1.4-1,1.2-5.2,0-5.6,1.7-7.3c3.1-3.1,3.9-2.6,3.9,2.4-.1,2.5-.5,4.5-.9,4.5s-.9,2.1-1.1,4.6c-.3,4.1-.1,4.7,2,5.5a5.76,5.76,0,0,1,2.9,2.6c.6,1.5.8,1.4,1.3-.7a3.67,3.67,0,0,1,2.2-2.8c1.4-.3,1.7.6,2,4.5.2,3.5.7,4.8,1.8,4.8s1.7-1.4,2-4.5c.4-3.7.9-4.5,2.5-4.5,1.3,0,2.1.8,2.3,2.3.2,1.2,1,2.2,1.8,2.2,1.7,0,1.7.4.3,3.3-1,2.1-1,2.1.5.3,2-2.5,2-4.6.1-4.6-.8,0-1.5-.9-1.5-2,0-1.7.7-2,5-2,5.4,0,5.5.1,4,3-.8,1.5-.7,1.8.2,1.5a3.33,3.33,0,0,1,2.7.4c1,.7,1.1,1.3.2,2.9-.9,1.8-1.6,2-3.6,1.2-1.6-.6-2.5-.6-2.5,0s.9,1,2.1,1c1.4,0,1.9.5,1.7,1.8s-1.5,1.8-4.9,2c-4.2.3-4.7.1-5.3-2.2l-.6-2.5-2.5,2.5c-1.3,1.3-3.3,2.4-4.3,2.4-2.2,0-5.2-3-5.2-5.1,0-.8-.9-.3-2.3,1.3A14.87,14.87,0,0,1,76,125c-2.3.9-2.2,1,.8.4l3.3-.6-.3,5.4-.3,5.3-6.7.3-6.8.3Zm11.8,17a2.57,2.57,0,0,0-4.5-2.1,3,3,0,0,0-.7,3.1C73.5,121.8,77.4,121.1,77.8,118.4ZM74,111c0-.5-.2-1-.4-1s-.8.5-1.1,1-.1,1,.4,1A1,1,0,0,0,74,111Z" transform="translate(-66 -51.9)"/><path class="cls-3" d="M73.4,118.9a1.88,1.88,0,0,1,.4-2.1c1.3-1.3,3.2-.2,3.2,1.8C77,120.2,74.4,120.5,73.4,118.9Z" transform="translate(-66 -51.9)"/><path class="cls-3" d="M107,123.3a7.28,7.28,0,0,1,1.5-3.7c2-2.7,1.9-4.3-.5-4.9-1.3-.3-1.8-1-1.4-2.1s2-1.6,5.5-1.6c5.3,0,5.4.1,3.9,3.1-.7,1.3-.7,1.9,0,1.9.5,0,1,1,1,2.1,0,1.6-.5,2-2,1.6-1.1-.3-2-.1-2,.4s.9.9,2.1.9c1.4,0,1.9.5,1.7,1.8s-1.5,1.8-5.1,2C107.7,125.1,107,124.8,107,123.3Z" transform="translate(-66 -51.9)"/><path class="cls-3" d="M78.2,110.8c-1.5-1.5-1.6-8.2-.2-7.3.6.4,1-.8,1-2.9,0-2.9.4-3.6,2-3.6s2,.7,2,4.3c0,4.6,1.4,6.9,3.6,6,.9-.3,1.4-2.2,1.4-5.4,0-4.2.3-4.9,2-4.9s2,.7,2,5.4c0,6.9-1.7,8.9-6.8,8a9,9,0,0,1-5-2.3c-1.2-1.4-1.2-1.2-.7,1.2C80.3,112.3,80,112.6,78.2,110.8Z" transform="translate(-66 -51.9)"/><path class="cls-3" d="M93.7,109.3c-.4-.3-.7-2.1-.7-4,0-2.4.5-3.3,1.6-3.3,1.6,0,1.6.6,0,5.5-.4,1.1.2.4,1.3-1.5,2.5-4.4,2.6-5,.1-5a1.8,1.8,0,0,1-2-2c0-1.8.7-2,5.5-2H105l-2.5,4.9-2.5,5,2.2.3a3.58,3.58,0,0,1,2.6,1.6c.3.8-1.2,1.2-5,1.2C96.8,110,94,109.7,93.7,109.3Z" transform="translate(-66 -51.9)"/><path class="cls-3" d="M106.4,109.2c.3-.5-.6-1.5-1.9-2.2-2.9-1.5-3-2-1.2-4.3a2.94,2.94,0,0,1,3.4-1.1c1.8.5,2.1,1,1.3,2.4-1.6,2.9-1.1,3.8.5,1,1.9-3.4,1.8-4-.5-4a1.8,1.8,0,0,1-2-2c0-1.8.7-2,5.5-2,5.9,0,6.1.1,4.4,3.2-.8,1.4-.8,1.8,0,1.4s1,.8.9,3.9l-.2,4.5h-5.4C108.3,110,106.1,109.6,106.4,109.2Zm8.6-2.6c0-.3-.4-.8-1-1.1s-1-.1-1,.4a1.1,1.1,0,0,0,1,1.1C114.6,107,115,106.8,115,106.6Z" transform="translate(-66 -51.9)"/></g><g id="layer105"><path class="cls-4" d="M66,101.2V66.3l2.6-4.6c3.1-5.6,11.1-10,17.2-9.5l3.7.3.3,6.8c.3,7.1.4,6.9-5.1,8.2-2,.4-3.3,1.6-4.3,4A24.21,24.21,0,0,0,79,75.4c0,.3,1.9.6,4.1.8l4.1.3v13l-3.6.3c-2.8.3-3.6.8-3.6,2.3s-.3,1.7-1.9.8C74.2,90.4,71,94.4,71,102c0,2.4-.5,4-1.5,4.4s-1.5,2.2-1.5,7.4c0,5.6.4,7.5,2.2,9.7,1.8,2.4,2.6,2.6,6,2.1l3.9-.6-.3,5.2-.3,5.3-6.7.3-6.8.3Z" transform="translate(-66 -51.9)"/><path class="cls-4" d="M71.6,122.9c-2.5-2-2.7-2.6-2.4-8.7.2-4.1.8-6.7,1.6-7s1.2.6,1.2,2.2c0,2.3.4,2.6,3.4,2.6,3.7,0,5.1,1.2,6.1,5.2.5,2.1.1,3.3-1.9,5.2C76.5,125.5,75.1,125.6,71.6,122.9Zm6.2-4.5a2.57,2.57,0,0,0-4.5-2.1,3,3,0,0,0-.7,3.1C73.5,121.8,77.4,121.1,77.8,118.4Z" transform="translate(-66 -51.9)"/><path class="cls-4" d="M73.4,118.9c-.7-1.2,1.5-3.1,2.8-2.3a2.85,2.85,0,0,1,.8,2C77,120.3,74.4,120.5,73.4,118.9Z" transform="translate(-66 -51.9)"/><path class="cls-4" d="M85.2,123.3c-2.8-2.4-3.6-11.6-1-12.1,1.4-.3,1.7.6,2,4.5s.6,4.8,2.3,4.8,2-.8,2.3-4.7c.2-3.4.7-4.8,1.8-4.8,1.4,0,1.8,1.8,1.4,7.5-.1,3-3.1,6.5-5.5,6.5A7.39,7.39,0,0,1,85.2,123.3Z" transform="translate(-66 -51.9)"/><path class="cls-4" d="M96,124a19.61,19.61,0,0,1,2-5l2-4H98a1.8,1.8,0,0,1-2-2c0-1.7.7-2,5-2s4.9.2,4.3,1.8a14.29,14.29,0,0,1-1.6,3c-.5.7-.7,1.5-.4,1.9s.9-.2,1.3-1.1c.7-1.8,1.3-1.9,3.3-.7,1,.7,1.1,1.3.2,3s-1.6,1.9-3.1,1.1c-2.4-1.3-3-1.3-3,0,0,.6.9,1,2.1,1,1.4,0,1.9.5,1.7,1.8s-1.5,1.8-5.1,2C97.8,125,96,124.7,96,124Z" transform="translate(-66 -51.9)"/><path class="cls-4" d="M107,124a19.61,19.61,0,0,1,2-5l2-4h-2a1.8,1.8,0,0,1-2-2c0-1.7.7-2,5-2,2.8,0,5,.2,5,.5a30.84,30.84,0,0,1-2,4.5c-2.5,4.9-2.5,5,.1,5,1.4,0,1.9.5,1.7,1.8s-1.5,1.8-5.1,2C108.8,125,107,124.7,107,124Z" transform="translate(-66 -51.9)"/><path class="cls-4" d="M95,118.8c0-1.8.5-2.8,1.5-2.8,1.9,0,1.9,1.1,0,3.6C95.1,121.4,95.1,121.4,95,118.8Z" transform="translate(-66 -51.9)"/><path class="cls-4" d="M115,118.5c0-.8.5-1.5,1-1.5s1,.7,1,1.5-.4,1.5-1,1.5S115,119.3,115,118.5Z" transform="translate(-66 -51.9)"/><path class="cls-4" d="M73,108.5C71.3,104,71.8,97.2,74,95c3-3,3.8-2.5,3.8,2.5-.1,2.5-.5,4.5-1,4.5s-.8,1.8-.8,3.9C76,110.7,74.4,112.1,73,108.5Z" transform="translate(-66 -51.9)"/><path class="cls-4" d="M77.8,110.4a4.07,4.07,0,0,1-.8-2.8c0-1.4.3-1.7,1.1-.9a3.43,3.43,0,0,1,.7,2.8C78.7,110.4,78.2,110.8,77.8,110.4Z" transform="translate(-66 -51.9)"/><path class="cls-4" d="M84.5,110.3c-4.1-.6-5.5-2.8-5.5-8.5,0-4.1.3-4.8,2-4.8s2,.7,2,4.3c0,4.6,1.4,6.9,3.6,6,.9-.3,1.4-2.2,1.4-5.4,0-4.2.3-4.9,2-4.9s2,.7,2,5.4c0,5.1-1.7,8.9-3.8,8.5C87.8,110.8,86.2,110.5,84.5,110.3Z" transform="translate(-66 -51.9)"/><path class="cls-4" d="M96,106c2.5-4.8,2.5-5,0-5a1.8,1.8,0,0,1-2-2c0-1.8.7-2,5.5-2H105l-2.5,4.9-2.5,5,2.2.3a3.58,3.58,0,0,1,2.6,1.6c.3.9-1.2,1.2-5.2,1.2H94Z" transform="translate(-66 -51.9)"/><path class="cls-4" d="M108,106c2.5-4.8,2.5-5,0-5a1.8,1.8,0,0,1-2-2c0-1.8.7-2,5.5-2,3,0,5.5.2,5.5.5a30.84,30.84,0,0,1-2,4.5,42.42,42.42,0,0,0-2,4.3c0,.3.9.7,2,1,4.1,1.1,2,2.7-3.5,2.7H106Z" transform="translate(-66 -51.9)"/><path class="cls-4" d="M93,105.2c0-2.2.5-3.2,1.6-3.2s1.4.6.9,2.3C94.3,108.1,93,108.6,93,105.2Z" transform="translate(-66 -51.9)"/><path class="cls-4" d="M103.1,106.1c-1.9-1.2.4-5.5,2.6-4.7a9.27,9.27,0,0,0,2.4.6c.5,0,.3,1.1-.3,2.5C106.6,107.1,105.4,107.5,103.1,106.1Z" transform="translate(-66 -51.9)"/><path class="cls-4" d="M119.3,106.3c-.9-.3-1.3-2.7-1.3-6.9,0-5.7.2-6.4,2-6.4s2,.7,2,6.4C122,105.9,121.5,107.1,119.3,106.3Z" transform="translate(-66 -51.9)"/><path class="cls-4" d="M114.6,104.5c.4-.8,1-1.5,1.5-1.5s.9.7.9,1.5a1.54,1.54,0,0,1-1.5,1.5C114.6,106,114.3,105.4,114.6,104.5Z" transform="translate(-66 -51.9)"/><path class="cls-4" d="M77,104c0-.7.3-1,.7-.7a1.2,1.2,0,0,1,0,1.4C77.3,105,77,104.7,77,104Z" transform="translate(-66 -51.9)"/></g><g id="layer107"><path class="cls-5" d="M93,130c0-4,.4-7,1-7s1,.7,1,1.5c0,2.3,25.5,2.2,26.8-.1.7-1.3,1.2-1.3,4,.3s3.4,1.7,5.9.2c1.6-.9,2.7-2.1,2.5-2.7s.2-1.2.7-1.2c1.7,0,2.1-3.3.7-6.1-.8-1.6-1-3.1-.5-3.5a2.6,2.6,0,0,0,.9-2.1,3.92,3.92,0,0,1,1.5-2.7c1.2-.9,1.3-1.8.4-4.9s-1.8-4.2-4.5-5.3c-3-1.3-3.8-1.3-6.4.1-3.8,2-3.8,2-4.2-1.2-.4-3.4-4.6-4.6-5.4-1.6-.5,1.6-1.7,1.8-12.5,1.8L93,95.6V52h15.3c8.3,0,16.8.5,18.9,1a18.23,18.23,0,0,1,7.1,4.9c7.8,8.6,7.5,19.9-.8,29-2.1,2.4-2.6,3.5-1.7,3.8,2.7,1,6.2,4.9,8.7,9.7,6.2,11.9,1,28.7-10.6,34.6-3.3,1.8-5.9,2-20.4,2H93Zm27.9-48.6c2.3-2.9,2.7-6.8,1.1-10.8-.9-2.4-1.4-2.6-7.5-2.6H108v7.3c0,4.1.3,7.7.7,8s2.8.7,5.4.7C118,84,119.2,83.6,120.9,81.4Z" transform="translate(-66 -51.9)"/><path class="cls-5" d="M66,101.2V66.3l2.6-4.6c3.1-5.6,11.1-10,17.2-9.5l3.7.3.3,6.8c.3,7.1.4,6.9-5.1,8.2-2,.4-3.3,1.6-4.3,4A24.21,24.21,0,0,0,79,75.4c0,.3,1.9.6,4.1.8l4.1.3v13l-3.6.3c-2.8.3-3.6.8-3.6,2.3s-.3,1.7-1.9.8C74.2,90.4,71,94.4,71,102c0,2.4-.5,4-1.5,4.4s-1.5,2.2-1.5,7.4c0,5.6.4,7.5,2.2,9.7,1.8,2.4,2.6,2.6,6,2.1l3.9-.6-.3,5.2-.3,5.3-6.7.3-6.8.3Z" transform="translate(-66 -51.9)"/><path class="cls-5" d="M71.6,122.9c-2.3-1.8-2.6-2.7-2.6-8.5,0-5,.3-6.4,1.5-6.4.8,0,1.5.9,1.5,2,0,1.5.7,2,2.8,2,3.3,0,4.5.8,6.1,3.7,1.4,2.7,0,6.7-2.8,8.2S74.6,125.3,71.6,122.9Zm6.2-4.3c.5-2.5-1.2-3.9-3.7-3.1a3.12,3.12,0,0,0-1.4,4.9C74,121.7,77.5,120.5,77.8,118.6Z" transform="translate(-66 -51.9)"/><path class="cls-5" d="M73.4,118.9c-.7-1.2,1.5-3.1,2.8-2.3a2.85,2.85,0,0,1,.8,2C77,120.3,74.4,120.5,73.4,118.9Z" transform="translate(-66 -51.9)"/><path class="cls-5" d="M85.2,123.4c-1.8-1.2-2.2-2.5-2.2-7,0-4,.4-5.4,1.4-5.4s1.6,1.4,1.8,4.8c.3,3.9.6,4.7,2.3,4.7s2-.8,2.3-4.7c.2-3.4.7-4.8,1.8-4.8s1.4,1.4,1.4,5.4c0,4.5-.4,5.8-2.2,7a8,8,0,0,1-3.3,1.6A8,8,0,0,1,85.2,123.4Z" transform="translate(-66 -51.9)"/><path class="cls-5" d="M96,124a19.61,19.61,0,0,1,2-5l2-4H98a1.8,1.8,0,0,1-2-2c0-1.7.7-2,4.5-2,4.9,0,5.4.8,3,5-1.9,3.3-1.9,5,0,5,.8,0,1.5.9,1.5,2,0,1.7-.7,2-4.5,2C98,125,96,124.5,96,124Z" transform="translate(-66 -51.9)"/><path class="cls-5" d="M107,124a19.61,19.61,0,0,1,2-5l2-4h-2a1.8,1.8,0,0,1-2-2c0-1.7.7-2,4.5-2,4.9,0,5.4.8,3,5-1.8,3.2-1.9,5-.1,5,1.5,0,2.8,2.4,1.9,3.4C115.2,125.4,107,125,107,124Z" transform="translate(-66 -51.9)"/><path class="cls-5" d="M118.7,124.3c-.4-.3-.7-4.2-.7-8.5,0-6.3.3-7.8,1.5-7.8s1.5,1.6,1.5,8.5C121,124.3,120.5,126.1,118.7,124.3Z" transform="translate(-66 -51.9)"/><path class="cls-5" d="M126,123.7c-2-1-2.6-2.1-2.8-5.4-.3-3.6.1-4.4,2.2-5.9,4.4-2.8,8.7-.6,9.7,5.1.4,1.7-.1,1.9-3.8,1.6-2.8-.2-4.3.2-4.3.9s1,1,2.5.8c3.2-.7,4.4,1.1,2,2.9C129.2,125.3,129.1,125.3,126,123.7Zm5-7.7c0-.5-.9-1-1.9-1a3.5,3.5,0,0,0-2.6,1c-.4.6.5,1,1.9,1S131,116.6,131,116Z" transform="translate(-66 -51.9)"/><path class="cls-5" d="M95,118.8c0-1.8.5-2.8,1.5-2.8,1.9,0,1.9,1.1,0,3.6C95.1,121.4,95.1,121.4,95,118.8Z" transform="translate(-66 -51.9)"/><path class="cls-5" d="M105.3,119.9c-1.1-1.1-.6-4.9.6-4.9a6.12,6.12,0,0,1,2,.9c1,.7,1.1,1.3.2,3C106.7,121.3,106.7,121.3,105.3,119.9Z" transform="translate(-66 -51.9)"/><path class="cls-5" d="M115,119.1a2.14,2.14,0,0,1,1-1.6c.6-.3,1,.1,1,.9s-.4,1.6-1,1.6A1,1,0,0,1,115,119.1Z" transform="translate(-66 -51.9)"/><path class="cls-5" d="M123,111.6c0-.9.5-1.6,1-1.6a.92.92,0,0,1,1,.9,1.9,1.9,0,0,1-1,1.6C123.5,112.8,123,112.4,123,111.6Z" transform="translate(-66 -51.9)"/><path class="cls-5" d="M77.8,110.4a4.07,4.07,0,0,1-.8-2.8c0-1.4.3-1.7,1.1-.9a3.43,3.43,0,0,1,.7,2.8C78.7,110.4,78.2,110.8,77.8,110.4Z" transform="translate(-66 -51.9)"/><path class="cls-5" d="M84.2,110.3c-2.4-.3-3.6-1.1-4.3-3.1-1.5-3.9-.7-9.6,1.4-10,1.4-.3,1.7.4,1.7,4.6,0,3.6.4,5.2,1.6,5.6,2.6,1,3.4-.3,3.4-5.5,0-4.2.3-4.9,2-4.9s2,.7,2,5.3c0,4-.5,5.8-1.8,7-1,1-2,1.6-2.3,1.5S86,110.5,84.2,110.3Z" transform="translate(-66 -51.9)"/><path class="cls-5" d="M129,110.3c-6-.7-7.8-5.7-3.9-10.7a6,6,0,0,1,4.8-2.6c3.3,0,7.1,3.7,7.1,6.8,0,2-.5,2.2-5.1,2.2-3.2,0-4.8.4-4.4,1.1.4.5,2.1.9,3.8.7,2.2-.2,3.2.1,3.2,1.1C134.5,110.6,133.7,110.8,129,110.3Zm3.5-8.3a3.63,3.63,0,0,0-5,0c-.4.6.7,1,2.5,1S132.9,102.6,132.5,102Z" transform="translate(-66 -51.9)"/><path class="cls-5" d="M73.1,107.3c-2.2-5.7.7-15.8,4-13.7,1.2.7,1.1,3.4-.1,3.4-.6,0-.5.9.2,2.1,1,1.7,1,2.3.1,2.6s-1.3,2.2-1.3,4.4C76,110.6,74.7,111.2,73.1,107.3Z" transform="translate(-66 -51.9)"/><path class="cls-5" d="M96,106c2.5-4.8,2.5-5,0-5a1.8,1.8,0,0,1-2-2c0-1.7.7-2,5-2,2.8,0,5,.5,5,1a21.15,21.15,0,0,1-2,5,30.84,30.84,0,0,0-2,4.5c0,.3.9.5,2,.5s2,.5,2,1-2.3,1-5,1H94Z" transform="translate(-66 -51.9)"/><path class="cls-5" d="M107,109.5a32.94,32.94,0,0,1,1.5-4.2c1.9-4.4,1.9-4.3-.5-4.3a1.8,1.8,0,0,1-2-2c0-1.8.7-2,5.5-2H117l-2.4,4.9c-2.6,5.1-2.5,6.1.6,6.1,1.1,0,1.6.5,1.3,1C115.9,110,107,110.4,107,109.5Z" transform="translate(-66 -51.9)"/><path class="cls-5" d="M93,105.2c0-2.2.5-3.2,1.6-3.2s1.4.6.9,2.3C94.3,108.1,93,108.6,93,105.2Z" transform="translate(-66 -51.9)"/><path class="cls-5" d="M103.1,106.1c-1.9-1.2.4-5.5,2.6-4.7a9.27,9.27,0,0,0,2.4.6c.5,0,.3,1.1-.3,2.5C106.6,107.1,105.4,107.5,103.1,106.1Z" transform="translate(-66 -51.9)"/><path class="cls-5" d="M115,105.1a2.14,2.14,0,0,1,1-1.6c.6-.3,1,.1,1,.9s-.4,1.6-1,1.6A1,1,0,0,1,115,105.1Z" transform="translate(-66 -51.9)"/><path class="cls-5" d="M118,99.5c0-4.9.3-6.5,1.4-6.5,1.9,0,2.6,2.2,2.6,8.1,0,4.2-.3,4.9-2,4.9S118,105.3,118,99.5Z" transform="translate(-66 -51.9)"/><path class="cls-5" d="M77,104c0-.7.3-1,.7-.7a1.2,1.2,0,0,1,0,1.4C77.3,105,77,104.7,77,104Z" transform="translate(-66 -51.9)"/></g><g id="layer108"><path class="cls-6" d="M122.8,95.3c-.4-3.4-4.6-4.6-5.4-1.6-.5,1.6-1.7,1.8-12.5,1.8L93,95.6V52h15.3c8.3,0,16.8.5,18.9,1a18.23,18.23,0,0,1,7.1,4.9c7.8,8.6,7.5,19.9-.8,29-2.1,2.4-2.6,3.5-1.7,3.8,2.7,1,6.2,4.9,8.7,9.7,6.2,11.9,1,28.7-10.6,34.6-3.3,1.8-5.9,2-20.4,2H93v-7c0-4,.4-7,1-7s1,.7,1,1.5c0,2.3,25.5,2.2,26.8-.1.7-1.3,1.2-1.3,4,.3s3.4,1.7,5.9.2c1.6-.9,2.7-2.1,2.5-2.7s.2-1.2.7-1.2c1.7,0,2.1-3.3.7-6.1-.8-1.6-1-3.1-.5-3.5a2.6,2.6,0,0,0,.9-2.1,3.92,3.92,0,0,1,1.5-2.7c1.2-.9,1.3-1.8.4-4.9m-17-20.3c2.3-2.9,2.7-6.8,1.1-10.8-.9-2.4-1.4-2.6-7.5-2.6H108v7.3c0,4.1.3,7.7.7,8s2.8.7,5.4.7C118,84,119.2,83.6,120.9,81.4Z" transform="translate(-66 -51.9)"/><path class="cls-6" d="M66,101.2V66.3l2.6-4.6c3.1-5.6,11.1-10,17.2-9.5l3.7.3.3,6.8c.3,7.1.4,6.9-5.1,8.2-2,.4-3.3,1.6-4.3,4A24.21,24.21,0,0,0,79,75.4c0,.3,1.9.6,4.1.8l4.1.3v13l-3.6.3c-2.8.3-3.6.8-3.6,2.3s-.3,1.7-1.9.8C74.2,90.4,71,94.4,71,102c0,2.4-.5,4-1.5,4.4s-1.5,2.2-1.5,7.4c0,5.6.4,7.5,2.2,9.7,1.8,2.4,2.6,2.6,6,2.1l3.9-.6-.3,5.2-.3,5.3-6.7.3-6.8.3Z" transform="translate(-66 -51.9)"/><path class="cls-6" d="M70.6,121.8c-2.2-3.1-2.2-13.8-.1-13.8.9,0,1.5.9,1.5,2.4,0,1.9.4,2.2,2.5,1.8,5.2-1,8.7,6.4,4.9,10.2C77.1,124.8,72.4,124.4,70.6,121.8Zm6.9-1.4c1.8-1.8,1.6-3.3-.7-4.7-3.5-2.2-6.6,2.1-3.6,5.1C74.8,122.4,75.5,122.3,77.5,120.4Z" transform="translate(-66 -51.9)"/><path class="cls-6" d="M73.4,118.9c-.7-1.2,1.5-3.1,2.8-2.3a2.85,2.85,0,0,1,.8,2C77,120.3,74.4,120.5,73.4,118.9Z" transform="translate(-66 -51.9)"/><path class="cls-6" d="M84,122.1a20.78,20.78,0,0,1-1-6.6c0-6.1,2.3-5.6,3,.6.4,3.6.9,4.4,2.5,4.4s2-.8,2.3-4.8c.4-6,2.6-5.9,3,.2.2,3-.2,4.9-1.4,6.2C90.1,124.6,85.4,124.6,84,122.1Z" transform="translate(-66 -51.9)"/><path class="cls-6" d="M98,120c2.5-4.9,2.5-6,0-6-1.1,0-2-.7-2-1.5,0-1.1,1.1-1.5,3.8-1.5a12.3,12.3,0,0,1,4.5.6c.3.4-.3,2.4-1.3,4.5-2.5,4.7-2.5,4.9,0,4.9,1.1,0,2,.7,2,1.5,0,1.1-1.2,1.5-4.5,1.5H96Z" transform="translate(-66 -51.9)"/><path class="cls-6" d="M109,120c2.5-5,2.5-6-.1-6-3.9,0-1.3-2.5,2.9-2.8,4.8-.4,5,.3,2.2,5.3a32.68,32.68,0,0,0-2,4c0,.3.9.5,2,.5s2,.7,2,1.5c0,1.1-1.2,1.5-4.5,1.5H107Z" transform="translate(-66 -51.9)"/><path class="cls-6" d="M118,116c0-6.4.3-8,1.5-8s1.5,1.6,1.5,8-.3,8-1.5,8S118,122.4,118,116Z" transform="translate(-66 -51.9)"/><path class="cls-6" d="M124.8,122.3c-1.8-2-2.2-12.3-.5-12.3.5,0,.6.7.3,1.6-.4,1.2-.2,1.5.9,1,.8-.3,2.1-.8,2.8-1.1,1.9-.8,6.7,3.3,6.7,5.6,0,1.6-.7,1.9-4.5,1.9-2.5,0-4.5.5-4.5,1s1.6,1,3.6,1c2.4,0,3.4.4,3.2,1.3C132.1,124.3,126.6,124.3,124.8,122.3Zm7.2-6.2c0-1.3-2.7-2.1-4.5-1.5-2.5,1-1.7,2.4,1.5,2.4C130.7,117,132,116.6,132,116.1Z" transform="translate(-66 -51.9)"/><path class="cls-6" d="M95,118.8c0-1.8.5-2.8,1.5-2.8,1.9,0,1.9,1.1,0,3.6C95.1,121.4,95.1,121.4,95,118.8Z" transform="translate(-66 -51.9)"/><path class="cls-6" d="M105.3,119.9c-1.1-1.1-.6-4.9.6-4.9a6.12,6.12,0,0,1,2,.9c1,.7,1.1,1.3.2,3C106.7,121.3,106.7,121.3,105.3,119.9Z" transform="translate(-66 -51.9)"/><path class="cls-6" d="M115,119.1a2.14,2.14,0,0,1,1-1.6c.6-.3,1,.1,1,.9s-.4,1.6-1,1.6A1,1,0,0,1,115,119.1Z" transform="translate(-66 -51.9)"/><path class="cls-6" d="M77.8,110.4a4.07,4.07,0,0,1-.8-2.8c0-1.4.3-1.7,1.1-.9a3.43,3.43,0,0,1,.7,2.8C78.7,110.4,78.2,110.8,77.8,110.4Z" transform="translate(-66 -51.9)"/><path class="cls-6" d="M84.2,110.3c-2.4-.3-3.6-1.1-4.3-3.1-1.5-3.9-.7-9.6,1.4-10,1.4-.3,1.7.4,1.7,4.6,0,3.6.4,5.2,1.6,5.6,2.6,1,3.4-.3,3.4-5.5,0-4.2.3-4.9,2-4.9s2,.7,2,5.3c0,4-.5,5.8-1.8,7-1,1-2,1.6-2.3,1.5S86,110.5,84.2,110.3Z" transform="translate(-66 -51.9)"/><path class="cls-6" d="M129,110.3c-6-.7-7.8-5.7-3.9-10.7a6,6,0,0,1,4.8-2.6c3.3,0,7.1,3.7,7.1,6.8,0,2-.5,2.2-5.1,2.2-3.2,0-4.8.4-4.4,1.1.4.5,2.1.9,3.8.7,2.2-.2,3.2.1,3.2,1.1C134.5,110.6,133.7,110.8,129,110.3Zm3.5-8.3a3.63,3.63,0,0,0-5,0c-.4.6.7,1,2.5,1S132.9,102.6,132.5,102Z" transform="translate(-66 -51.9)"/><path class="cls-6" d="M73.1,107.3c-2.2-5.7.7-15.8,4-13.7,1.2.7,1.1,3.4-.1,3.4-.6,0-.5.9.2,2.1,1,1.7,1,2.3.1,2.6s-1.3,2.2-1.3,4.4C76,110.6,74.7,111.2,73.1,107.3Z" transform="translate(-66 -51.9)"/><path class="cls-6" d="M96,106c2.5-4.8,2.5-5,0-5a1.8,1.8,0,0,1-2-2c0-1.7.7-2,5-2,2.8,0,5,.5,5,1a21.15,21.15,0,0,1-2,5,30.84,30.84,0,0,0-2,4.5c0,.3.9.5,2,.5s2,.5,2,1-2.3,1-5,1H94Z" transform="translate(-66 -51.9)"/><path class="cls-6" d="M107,109.5a32.94,32.94,0,0,1,1.5-4.2c1.9-4.4,1.9-4.3-.5-4.3a1.8,1.8,0,0,1-2-2c0-1.8.7-2,5.5-2H117l-2.4,4.9c-2.6,5.1-2.5,6.1.6,6.1,1.1,0,1.6.5,1.3,1C115.9,110,107,110.4,107,109.5Z" transform="translate(-66 -51.9)"/><path class="cls-6" d="M93,105.2c0-2.2.5-3.2,1.6-3.2s1.4.6.9,2.3C94.3,108.1,93,108.6,93,105.2Z" transform="translate(-66 -51.9)"/><path class="cls-6" d="M103.1,106.1c-1.9-1.2.4-5.5,2.6-4.7a9.27,9.27,0,0,0,2.4.6c.5,0,.3,1.1-.3,2.5C106.6,107.1,105.4,107.5,103.1,106.1Z" transform="translate(-66 -51.9)"/><path class="cls-6" d="M115,105.1a2.14,2.14,0,0,1,1-1.6c.6-.3,1,.1,1,.9s-.4,1.6-1,1.6A1,1,0,0,1,115,105.1Z" transform="translate(-66 -51.9)"/><path class="cls-6" d="M118,99.5c0-4.9.3-6.5,1.4-6.5,1.9,0,2.6,2.2,2.6,8.1,0,4.2-.3,4.9-2,4.9S118,105.3,118,99.5Z" transform="translate(-66 -51.9)"/><path class="cls-6" d="M77,104c0-.7.3-1,.7-.7a1.2,1.2,0,0,1,0,1.4C77.3,105,77,104.7,77,104Z" transform="translate(-66 -51.9)"/></g><g id="layer109"><path class="cls-7" d="M93,131.3v-5.8l14.2.3c11.8.3,14.3.1,15-1.2s1.2-1.3,3.8.2,3.2,1.5,5.6.2c4.2-2.5,6.1-6.4,4.7-10.1-1-2.6-.9-3.6.8-6.6,2.8-4.9,1.2-9.9-3.8-11.9-3-1.3-3.8-1.3-6.5.1-3.9,1.9-3.6,2-4-1.2a3.52,3.52,0,0,0-6.4-1.8c-1,1.3-3.4,1.7-12.3,1.9L93,95.7V52h14.9c8.2,0,16.3.3,18,.6,5.3,1.1,11.5,8.2,13.1,14.9,1.2,5.2,1.2,6.3-.4,10.9a26.11,26.11,0,0,1-4.8,8.2l-3,3.2,4.4,4c11.6,10.7,9.7,31-3.9,40.2-3.5,2.4-4.4,2.5-21,2.8l-17.3.4Zm27.7-49.5c1.7-1.6,2.3-3.2,2.3-6.5,0-6.2-2.4-8.3-9.5-8.3H108V84h5.2C117.1,84,118.9,83.5,120.7,81.8Z" transform="translate(-66 -51.9)"/><path class="cls-7" d="M66,101.5c0-36.5.2-38,5.8-43.8C74.4,55,82.2,52,86.7,52c2.3,0,2.4.2,2.1,7.3s-.4,7.2-3,7.5c-3,.4-6.8,4.4-6.8,7.3,0,1.5.8,1.9,4,1.9h4V90H83.5c-2.5,0-3.5.4-3.5,1.5s-.7,1.4-2.5.9c-4.2-1-6.5,1.9-6.5,8.1,0,3.8-.4,5.5-1.5,5.9s-1.5,2.2-1.5,7.4c0,5.6.4,7.5,2.2,9.7,1.8,2.4,2.6,2.7,6,2.2l3.9-.5-.3,4.6-.3,4.7-6.7.3-6.8.3Z" transform="translate(-66 -51.9)"/><path class="cls-7" d="M70.6,121.8c-2.2-3.1-2.2-13.8-.1-13.8.9,0,1.5.9,1.5,2.4,0,1.9.4,2.2,2.5,1.8,5.2-1,8.7,6.4,4.9,10.2C77.1,124.8,72.4,124.4,70.6,121.8Zm6.9-1.4c1.8-1.8,1.6-3.3-.7-4.7-3.5-2.2-6.6,2.1-3.6,5.1C74.8,122.4,75.5,122.3,77.5,120.4Z" transform="translate(-66 -51.9)"/><path class="cls-7" d="M73.6,119.1c-.7-1.1,1.8-3.3,2.7-2.4a2.82,2.82,0,0,1,.7,2C77,120.2,74.4,120.5,73.6,119.1Z" transform="translate(-66 -51.9)"/><path class="cls-7" d="M84,122.1a20.78,20.78,0,0,1-1-6.6c0-6.1,2.3-5.6,3,.6.4,3.6.9,4.4,2.5,4.4s2-.8,2.3-4.8c.4-6,2.6-5.9,3,.2.2,3-.2,4.9-1.4,6.2C90.1,124.6,85.4,124.6,84,122.1Z" transform="translate(-66 -51.9)"/><path class="cls-7" d="M98,120c2.5-4.9,2.5-6,0-6-1.1,0-2-.7-2-1.5,0-1.1,1.1-1.5,3.8-1.5a12.3,12.3,0,0,1,4.5.6c.3.4-.3,2.4-1.3,4.5-2.5,4.7-2.5,4.9,0,4.9,1.1,0,2,.7,2,1.5,0,1.1-1.2,1.5-4.5,1.5H96Z" transform="translate(-66 -51.9)"/><path class="cls-7" d="M109,120c2.5-5,2.5-6-.1-6-3.9,0-1.3-2.5,2.9-2.8,4.8-.4,5,.3,2.2,5.3a32.68,32.68,0,0,0-2,4c0,.3.9.5,2,.5s2,.7,2,1.5c0,1.1-1.2,1.5-4.5,1.5H107Z" transform="translate(-66 -51.9)"/><path class="cls-7" d="M118,116c0-6.4.3-8,1.5-8s1.5,1.6,1.5,8-.3,8-1.5,8S118,122.4,118,116Z" transform="translate(-66 -51.9)"/><path class="cls-7" d="M124.7,122.2c-1.8-1.9-2.2-5.9-.9-7.8a10.71,10.71,0,0,1,3.1-2.4c2-1,2.7-.9,5,.7a8.45,8.45,0,0,1,2.9,4.2c.3,1.9-.1,2.1-4.2,2.1-2.5,0-4.6.5-4.6,1s1.6,1,3.6,1c2.4,0,3.4.4,3.2,1.3C132.1,124.3,126.6,124.3,124.7,122.2Zm7.3-6.1c0-1.3-2.7-2.1-4.5-1.5-2.5,1-1.7,2.4,1.5,2.4C130.7,117,132,116.6,132,116.1Z" transform="translate(-66 -51.9)"/><path class="cls-7" d="M104.8,119.4c-1.1-1,.3-3.4,1.9-3.4.8,0,1.3.7,1.1,1.7C107.5,119.5,105.8,120.4,104.8,119.4Z" transform="translate(-66 -51.9)"/><path class="cls-7" d="M96.1,117.4c0-1.1.3-1.4.6-.6a2,2,0,0,1-.1,1.9C96.3,119.1,96,118.5,96.1,117.4Z" transform="translate(-66 -51.9)"/><path class="cls-7" d="M115.5,118c.3-.5.8-1,1.1-1s.2.5-.1,1-.8,1-1.1,1S115.2,118.6,115.5,118Z" transform="translate(-66 -51.9)"/><path class="cls-7" d="M77.8,110.4a4.07,4.07,0,0,1-.8-2.8c0-1.4.3-1.7,1.1-.9a3.43,3.43,0,0,1,.7,2.8C78.7,110.4,78.2,110.8,77.8,110.4Z" transform="translate(-66 -51.9)"/><path class="cls-7" d="M84.2,110.3c-2.4-.3-3.6-1.1-4.3-3.1-1.5-3.9-.7-9.6,1.4-10,1.4-.3,1.7.4,1.7,4.6,0,3.6.4,5.2,1.6,5.6,2.6,1,3.4-.3,3.4-5.5,0-4.2.3-4.9,2-4.9s2,.7,2,5.3c0,4-.5,5.8-1.8,7-1,1-2,1.6-2.3,1.5S86,110.5,84.2,110.3Z" transform="translate(-66 -51.9)"/><path class="cls-7" d="M129,110.3c-6-.7-7.8-5.7-3.9-10.7a6,6,0,0,1,4.8-2.6c3.3,0,7.1,3.7,7.1,6.8,0,2-.5,2.2-5.1,2.2-3.2,0-4.8.4-4.4,1.1.4.5,2.1.9,3.8.7,2.2-.2,3.2.1,3.2,1.1C134.5,110.6,133.7,110.8,129,110.3Zm3.5-8.3a3.63,3.63,0,0,0-5,0c-.4.6.7,1,2.5,1S132.9,102.6,132.5,102Z" transform="translate(-66 -51.9)"/><path class="cls-7" d="M73.1,107.3c-2.2-5.7.7-15.8,4-13.7,1.2.7,1.1,3.4-.1,3.4-.6,0-.5.9.2,2.1,1,1.7,1,2.3.1,2.6s-1.3,2.2-1.3,4.4C76,110.6,74.7,111.2,73.1,107.3Z" transform="translate(-66 -51.9)"/><path class="cls-7" d="M96,106c2.5-4.8,2.5-5,0-5a1.8,1.8,0,0,1-2-2c0-1.7.7-2,5-2,2.8,0,5,.5,5,1a21.15,21.15,0,0,1-2,5,30.84,30.84,0,0,0-2,4.5c0,.3.9.5,2,.5s2,.5,2,1-2.3,1-5,1H94Z" transform="translate(-66 -51.9)"/><path class="cls-7" d="M107,109.5a32.94,32.94,0,0,1,1.5-4.2c1.9-4.4,1.9-4.3-.5-4.3a1.8,1.8,0,0,1-2-2c0-1.8.7-2,5.5-2H117l-2.4,4.9c-2.6,5.1-2.5,6.1.6,6.1,1.1,0,1.6.5,1.3,1C115.9,110,107,110.4,107,109.5Z" transform="translate(-66 -51.9)"/><path class="cls-7" d="M103.3,106.4c-.9-.4-.9-1.1-.1-3,1.2-2.6,1.6-2.8,3.7-1.5.8.5,1.1,1.6.6,3C106.9,106.9,105.7,107.3,103.3,106.4Z" transform="translate(-66 -51.9)"/><path class="cls-7" d="M93.7,105.3c-1.2-1.2-.7-3.3.8-3.3,1.7,0,1.9.9.7,2.8C94.7,105.5,94.1,105.7,93.7,105.3Z" transform="translate(-66 -51.9)"/><path class="cls-7" d="M115,105.1a2.14,2.14,0,0,1,1-1.6c.6-.3,1,.1,1,.9s-.4,1.6-1,1.6A1,1,0,0,1,115,105.1Z" transform="translate(-66 -51.9)"/><path class="cls-7" d="M118,99.5c0-4.9.3-6.5,1.4-6.5,1.9,0,2.6,2.2,2.6,8.1,0,4.2-.3,4.9-2,4.9S118,105.3,118,99.5Z" transform="translate(-66 -51.9)"/></g><g id="layer110"><path class="cls-8" d="M93,131.3v-5.8l14.2.3c11.8.3,14.3.1,15-1.2s1.2-1.3,3.8.2,3.2,1.5,5.6.2c4.2-2.5,6.1-6.4,4.7-10.1-1-2.6-.9-3.6.8-6.6,2.8-4.9,1.2-9.9-3.8-11.9-3-1.3-3.8-1.3-6.5.1-3.9,1.9-3.6,2-4-1.2a3.52,3.52,0,0,0-6.4-1.8c-1,1.3-3.4,1.7-12.3,1.9L93,95.7V52h14.9c8.2,0,16.3.3,18,.6,5.3,1.1,11.5,8.2,13.1,14.9,1.2,5.2,1.2,6.3-.4,10.9a26.11,26.11,0,0,1-4.8,8.2l-3,3.2,4.4,4c11.6,10.7,9.7,31-3.9,40.2-3.5,2.4-4.4,2.5-21,2.8l-17.3.4Zm27.7-49.5c1.7-1.6,2.3-3.2,2.3-6.5,0-6.2-2.4-8.3-9.5-8.3H108V84h5.2C117.1,84,118.9,83.5,120.7,81.8Z" transform="translate(-66 -51.9)"/><path class="cls-8" d="M66,101.5c0-36.5.2-38,5.8-43.8C74.4,55,82.2,52,86.7,52c2.3,0,2.4.2,2.1,7.3s-.4,7.2-3,7.5c-3,.4-6.8,4.4-6.8,7.3,0,1.5.8,1.9,4,1.9h4V90H83.5c-2.5,0-3.5.4-3.5,1.5s-.7,1.4-2.5.9c-4.2-1-6.5,1.9-6.5,8.1,0,3.8-.4,5.5-1.5,5.9s-1.5,2.2-1.5,7.4c0,5.6.4,7.5,2.2,9.7,1.8,2.4,2.6,2.7,6,2.2l3.9-.5-.3,4.6-.3,4.7-6.7.3-6.8.3Z" transform="translate(-66 -51.9)"/><path class="cls-8" d="M70.6,121.8c-2.2-3.1-2.2-13.8-.1-13.8.9,0,1.5.9,1.5,2.4,0,1.9.4,2.2,2.5,1.8,5.2-1,8.7,6.4,4.9,10.2C77.1,124.8,72.4,124.4,70.6,121.8Zm6.9-1.4c1.8-1.8,1.6-3.3-.7-4.7-3.5-2.2-6.6,2.1-3.6,5.1C74.8,122.4,75.5,122.3,77.5,120.4Z" transform="translate(-66 -51.9)"/><path class="cls-8" d="M73.6,119.1c-.7-1.1,1.8-3.3,2.7-2.4a2.82,2.82,0,0,1,.7,2C77,120.2,74.4,120.5,73.6,119.1Z" transform="translate(-66 -51.9)"/><path class="cls-8" d="M84,122.1a20.78,20.78,0,0,1-1-6.6c0-6.1,2.3-5.6,3,.6.4,3.6.9,4.4,2.5,4.4s2-.8,2.3-4.8c.4-6,2.6-5.9,3,.2.2,3-.2,4.9-1.4,6.2C90.1,124.6,85.4,124.6,84,122.1Z" transform="translate(-66 -51.9)"/><path class="cls-8" d="M98,120c2.5-4.9,2.5-6,0-6-1.1,0-2-.7-2-1.5,0-1.1,1.1-1.5,3.8-1.5a12.3,12.3,0,0,1,4.5.6c.3.4-.3,2.4-1.3,4.5-2.5,4.7-2.5,4.9,0,4.9,1.1,0,2,.7,2,1.5,0,1.1-1.2,1.5-4.5,1.5H96Z" transform="translate(-66 -51.9)"/><path class="cls-8" d="M109,120c2.5-5,2.5-6-.1-6-3.9,0-1.3-2.5,2.9-2.8,4.8-.4,5,.3,2.2,5.3a32.68,32.68,0,0,0-2,4c0,.3.9.5,2,.5s2,.7,2,1.5c0,1.1-1.2,1.5-4.5,1.5H107Z" transform="translate(-66 -51.9)"/><path class="cls-8" d="M118,116c0-6.4.3-8,1.5-8s1.5,1.6,1.5,8-.3,8-1.5,8S118,122.4,118,116Z" transform="translate(-66 -51.9)"/><path class="cls-8" d="M124.7,122.2c-1.8-1.9-2.2-5.9-.9-7.8a10.71,10.71,0,0,1,3.1-2.4c2-1,2.7-.9,5,.7a8.45,8.45,0,0,1,2.9,4.2c.3,1.9-.1,2.1-4.2,2.1-2.5,0-4.6.5-4.6,1s1.6,1,3.6,1c2.4,0,3.4.4,3.2,1.3C132.1,124.3,126.6,124.3,124.7,122.2Zm7.3-6.1c0-1.3-2.7-2.1-4.5-1.5-2.5,1-1.7,2.4,1.5,2.4C130.7,117,132,116.6,132,116.1Z" transform="translate(-66 -51.9)"/><path class="cls-8" d="M104.8,119.4c-1.1-1,.3-3.4,1.9-3.4.8,0,1.3.7,1.1,1.7C107.5,119.5,105.8,120.4,104.8,119.4Z" transform="translate(-66 -51.9)"/><path class="cls-8" d="M96.1,117.4c0-1.1.3-1.4.6-.6a2,2,0,0,1-.1,1.9C96.3,119.1,96,118.5,96.1,117.4Z" transform="translate(-66 -51.9)"/><path class="cls-8" d="M115.5,118c.3-.5.8-1,1.1-1s.2.5-.1,1-.8,1-1.1,1S115.2,118.6,115.5,118Z" transform="translate(-66 -51.9)"/><path class="cls-8" d="M77.8,110.4a4.07,4.07,0,0,1-.8-2.8c0-1.4.3-1.7,1.1-.9a3.43,3.43,0,0,1,.7,2.8C78.7,110.4,78.2,110.8,77.8,110.4Z" transform="translate(-66 -51.9)"/><path class="cls-8" d="M84,110.1l-3.5-.6-.3-6.2c-.2-5.1,0-6.3,1.2-6.3s1.6,1.4,1.8,5.3c.3,4.4.6,5.2,2.3,5.2s2.1-.8,2.5-5c.4-3.7.9-5.1,2.3-5.3,2.6-.5,2.5,9.8-.1,12.1a5.72,5.72,0,0,1-2.3,1.6C87.7,110.8,85.9,110.5,84,110.1Z" transform="translate(-66 -51.9)"/><path class="cls-8" d="M129,110.3c-3.9-.5-6-2.5-6-6,0-3.1,4.2-7.3,7.3-7.3,2.9,0,6.7,3.9,6.7,6.8,0,2-.5,2.2-5.1,2.2-3.2,0-4.8.4-4.4,1.1.4.5,2.1.9,3.8.7,2.2-.2,3.2.1,3.2,1.1C134.5,110.6,133.7,110.8,129,110.3Zm4-8.3c0-.5-1.1-1-2.4-1s-2.8.5-3.1,1,.7,1,2.4,1S133,102.6,133,102Z" transform="translate(-66 -51.9)"/><path class="cls-8" d="M73.5,107.7a29.89,29.89,0,0,1-.3-7.8c.3-4.7.6-5.4,2.6-5.7,1.5-.2,2.2.2,2.2,1.2s-.4,1.6-.9,1.6-.9,1-.9,2.3C76.7,108,74.9,113.5,73.5,107.7Z" transform="translate(-66 -51.9)"/><path class="cls-8" d="M96,106c2.5-4.8,2.5-5,0-5a1.8,1.8,0,0,1-2-2c0-1.7.7-2,5-2,2.8,0,5,.2,5,.4s-.9,2.5-2,5.1-2,4.9-2,5.1.9.4,2,.4,2,.5,2,1-2.3,1-5,1H94Z" transform="translate(-66 -51.9)"/><path class="cls-8" d="M107,109.5a26.56,26.56,0,0,1,2-4.5c1.1-2.2,1.7-4.1,1.3-4.1s-1.5-.2-2.3-.3-1.6-.9-1.8-1.8c-.3-1.5.4-1.8,4.7-1.8,2.9,0,5.1.5,5.1,1a21.15,21.15,0,0,1-2,5,30.84,30.84,0,0,0-2,4.5c0,.3.9.5,2,.5s2,.5,2,1-2,1-4.5,1S107,109.8,107,109.5Z" transform="translate(-66 -51.9)"/><path class="cls-8" d="M103.3,106.4c-.9-.4-.9-1.1-.1-3,1.2-2.6,1.6-2.8,3.7-1.5.8.5,1.1,1.6.6,3C106.9,106.9,105.7,107.3,103.3,106.4Z" transform="translate(-66 -51.9)"/><path class="cls-8" d="M93.7,105.3c-1.2-1.2-.7-3.3.8-3.3,1.7,0,1.9.9.7,2.8C94.7,105.5,94.1,105.7,93.7,105.3Z" transform="translate(-66 -51.9)"/><path class="cls-8" d="M115,105.1a2.14,2.14,0,0,1,1-1.6c.6-.3,1,.1,1,.9s-.4,1.6-1,1.6A1,1,0,0,1,115,105.1Z" transform="translate(-66 -51.9)"/><path class="cls-8" d="M118,100.1c0-5.9,1.4-8.6,3.1-6,.5.8.9,3.8.9,6.7,0,4.5-.3,5.2-2,5.2S118,105.3,118,100.1Z" transform="translate(-66 -51.9)"/></g><g id="layer111"><path class="cls-9" d="M93,131.3v-5.8l14.1.3c8.2.2,14.5,0,15.1-.6s2-.6,3.7.1c4.3,1.6,7.8.2,9.7-3.9,1.4-3,1.5-4.2.6-6.7s-.8-3.4.8-5.7c2.4-3.4,2.5-6.3.4-9.5a8.43,8.43,0,0,0-10.7-3c-3.9,1.9-3.7,2-3.7-1.5,0-2.7-.3-3-3-3-1.6,0-3.3.7-3.7,1.5-.7,1.2-3.3,1.6-12.1,1.8L93,95.5V51.9l16.8.3c16.4.3,17,.4,20.9,3,5.2,3.4,8.6,10.2,8.6,17.2,0,5.5-1.6,9.4-5.8,14.5l-2.6,3,3.5,3.1a34.63,34.63,0,0,1,6.2,8.6c2.2,4.5,2.6,6.4,2.2,11.2-.7,10.4-7.9,21-15.7,23.2-2,.5-10.5,1-18.8,1H93Zm27.7-49.5c2.9-3.3,3.5-5.7,2.2-9.5-1.3-4.2-3.4-5.3-9.8-5.3H108V84h5.3C117.6,84,119.1,83.5,120.7,81.8Z" transform="translate(-66 -51.9)"/><path class="cls-9" d="M66,101.5c0-36.5.2-38,5.8-43.8,2.9-3.1,12-6.2,15.2-5.2,1.7.5,2,1.5,2,7.1,0,5.8-.2,6.4-2.1,6.4-2.7,0-7.9,5.2-7.9,7.9,0,1.8.6,2.1,4,2.1h4V90H83.6c-1.9,0-3.8.5-4.1,1s-1.6,1-2.9,1c-3.7,0-5.6,3-5.6,8.7,0,3.6-.4,5.3-1.5,5.7s-1.5,2.3-1.5,7.9c0,6.3.3,7.6,2.3,9.5a11.77,11.77,0,0,0,5.7,2.4c3.4.3,3.5.5,3.5,4.3v4l-6.7.3-6.8.3Z" transform="translate(-66 -51.9)"/><path class="cls-9" d="M70.6,121.8c-2.2-3.1-2.2-13.8-.1-13.8.9,0,1.5.9,1.5,2.4,0,1.9.4,2.2,2.5,1.8,5.2-1,8.7,6.4,4.9,10.2C77.1,124.8,72.4,124.4,70.6,121.8Zm6.9-1.4c1.8-1.8,1.6-3.3-.7-4.7-3.5-2.2-6.6,2.1-3.6,5.1C74.8,122.4,75.5,122.3,77.5,120.4Z" transform="translate(-66 -51.9)"/><path class="cls-9" d="M74,118.6a1.58,1.58,0,0,1,1.6-1.6c1.7,0,1.4,2.2-.4,2.8C74.5,120,74,119.5,74,118.6Z" transform="translate(-66 -51.9)"/><path class="cls-9" d="M84,122.1a20.78,20.78,0,0,1-1-6.6c0-6.1,2.3-5.6,3,.6.4,3.6.9,4.4,2.5,4.4s2-.8,2.3-4.8c.4-6,2.6-5.9,3,.2.2,3-.2,4.9-1.4,6.2C90.1,124.6,85.4,124.6,84,122.1Z" transform="translate(-66 -51.9)"/><path class="cls-9" d="M98,120c2.5-4.9,2.5-6,0-6-1.1,0-2-.7-2-1.5,0-1.1,1.1-1.5,3.8-1.5a12.3,12.3,0,0,1,4.5.6c.3.4-.3,2.4-1.3,4.5-2.5,4.7-2.5,4.9,0,4.9,1.1,0,2,.7,2,1.5,0,1.1-1.2,1.5-4.5,1.5H96Z" transform="translate(-66 -51.9)"/><path class="cls-9" d="M109,120c2.5-5,2.5-6-.1-6-3.9,0-1.3-2.5,2.9-2.8,4.8-.4,5,.3,2.2,5.3a32.68,32.68,0,0,0-2,4c0,.3.9.5,2,.5s2,.7,2,1.5c0,1.1-1.2,1.5-4.5,1.5H107Z" transform="translate(-66 -51.9)"/><path class="cls-9" d="M118,116c0-6.4.3-8,1.5-8s1.5,1.6,1.5,8-.3,8-1.5,8S118,122.4,118,116Z" transform="translate(-66 -51.9)"/><path class="cls-9" d="M124.7,122.2c-1.8-1.9-2.2-5.9-.9-7.8a10.71,10.71,0,0,1,3.1-2.4c2-1,2.7-.9,5,.7a8.45,8.45,0,0,1,2.9,4.2c.3,1.9-.1,2.1-4.2,2.1-2.5,0-4.6.5-4.6,1s1.6,1,3.6,1c2.4,0,3.4.4,3.2,1.3C132.1,124.3,126.6,124.3,124.7,122.2Zm7.3-6.1c0-1.3-2.7-2.1-4.5-1.5-2.5,1-1.7,2.4,1.5,2.4C130.7,117,132,116.6,132,116.1Z" transform="translate(-66 -51.9)"/><path class="cls-9" d="M104.8,119.4c-1.1-1,.3-3.4,1.9-3.4.8,0,1.3.7,1.1,1.7C107.5,119.5,105.8,120.4,104.8,119.4Z" transform="translate(-66 -51.9)"/><path class="cls-9" d="M96.1,117.4c0-1.1.3-1.4.6-.6a2,2,0,0,1-.1,1.9C96.3,119.1,96,118.5,96.1,117.4Z" transform="translate(-66 -51.9)"/><path class="cls-9" d="M115.5,118c.3-.5.8-1,1.1-1s.2.5-.1,1-.8,1-1.1,1S115.2,118.6,115.5,118Z" transform="translate(-66 -51.9)"/><path class="cls-9" d="M77.5,110.1a1.22,1.22,0,0,1,.5-1.6c.5-.3,1,.1,1,.9C79,111.2,78.4,111.5,77.5,110.1Z" transform="translate(-66 -51.9)"/><path class="cls-9" d="M84,110.1l-3.5-.6-.3-6.2c-.2-5.1,0-6.3,1.2-6.3s1.6,1.4,1.8,5.3c.3,4.4.6,5.2,2.3,5.2s2.1-.8,2.5-5c.4-3.7.9-5.1,2.3-5.3,2.6-.5,2.5,9.8-.1,12.1a5.72,5.72,0,0,1-2.3,1.6C87.7,110.8,85.9,110.5,84,110.1Z" transform="translate(-66 -51.9)"/><path class="cls-9" d="M129,110.3c-3.9-.5-6-2.5-6-6,0-3.1,4.2-7.3,7.3-7.3,2.9,0,6.7,3.9,6.7,6.8,0,2-.5,2.2-5.1,2.2-3.2,0-4.8.4-4.4,1.1.4.5,2.1.9,3.8.7,2.2-.2,3.2.1,3.2,1.1C134.5,110.6,133.7,110.8,129,110.3Zm4-8.3c0-.5-1.1-1-2.4-1s-2.8.5-3.1,1,.7,1,2.4,1S133,102.6,133,102Z" transform="translate(-66 -51.9)"/><path class="cls-9" d="M73.5,107.7a29.89,29.89,0,0,1-.3-7.8c.3-4.7.6-5.4,2.6-5.7,1.5-.2,2.2.2,2.2,1.2s-.4,1.6-.9,1.6-.9,1-.9,2.3C76.7,108,74.9,113.5,73.5,107.7Z" transform="translate(-66 -51.9)"/><path class="cls-9" d="M96,106c2.5-4.8,2.5-5,0-5a1.8,1.8,0,0,1-2-2c0-1.7.7-2,5-2,2.8,0,5,.2,5,.4s-.9,2.5-2,5.1-2,4.9-2,5.1.9.4,2,.4,2,.5,2,1-2.3,1-5,1H94Z" transform="translate(-66 -51.9)"/><path class="cls-9" d="M107,109.5a26.56,26.56,0,0,1,2-4.5c1.1-2.2,1.7-4.1,1.3-4.1s-1.5-.2-2.3-.3-1.6-.9-1.8-1.8c-.3-1.5.4-1.8,4.7-1.8,2.9,0,5.1.5,5.1,1a21.15,21.15,0,0,1-2,5,30.84,30.84,0,0,0-2,4.5c0,.3.9.5,2,.5s2,.5,2,1-2,1-4.5,1S107,109.8,107,109.5Z" transform="translate(-66 -51.9)"/><path class="cls-9" d="M103.8,106.3c-1.4-.4-1.5-.8-.6-2.7.7-1.6,1.6-2.2,2.9-1.9,1,.3,1.9.8,1.9,1.2C108,104.5,105.4,106.6,103.8,106.3Z" transform="translate(-66 -51.9)"/><path class="cls-9" d="M94,104.3c0-1.3.5-2.3,1-2.3,1.3,0,1.3,1.1,0,3C94.2,106.2,94,106.1,94,104.3Z" transform="translate(-66 -51.9)"/><path class="cls-9" d="M115,105.1a2.14,2.14,0,0,1,1-1.6c.6-.3,1,.1,1,.9s-.4,1.6-1,1.6A1,1,0,0,1,115,105.1Z" transform="translate(-66 -51.9)"/><path class="cls-9" d="M118,100.1c0-5.9,1.4-8.6,3.1-6,.5.8.9,3.8.9,6.7,0,4.5-.3,5.2-2,5.2S118,105.3,118,100.1Z" transform="translate(-66 -51.9)"/></g><g id="layer112"><path class="cls-10" d="M93,131.3v-5.8l14.1.3c8.2.2,14.5,0,15.1-.6s2-.6,3.7.1c4.3,1.6,7.8.2,9.7-3.9,1.4-3,1.5-4.2.6-6.7s-.8-3.4.8-5.7c2.4-3.4,2.5-6.3.4-9.5a8.43,8.43,0,0,0-10.7-3c-3.9,1.9-3.7,2-3.7-1.5,0-2.7-.3-3-3-3-1.6,0-3.3.7-3.7,1.5-.7,1.2-3.3,1.6-12.1,1.8L93,95.5V51.9l16.8.3c16.4.3,17,.4,20.9,3,5.2,3.4,8.6,10.2,8.6,17.2,0,5.5-1.6,9.4-5.8,14.5l-2.6,3,3.5,3.1a34.63,34.63,0,0,1,6.2,8.6c2.2,4.5,2.6,6.4,2.2,11.2-.7,10.4-7.9,21-15.7,23.2-2,.5-10.5,1-18.8,1H93Zm27.7-49.5c2.9-3.3,3.5-5.7,2.2-9.5-1.3-4.2-3.4-5.3-9.8-5.3H108V84h5.3C117.6,84,119.1,83.5,120.7,81.8Z" transform="translate(-66 -51.9)"/><path class="cls-10" d="M66,101.5c0-36.5.2-38,5.8-43.8,2.9-3.1,12-6.2,15.2-5.2,1.7.5,2,1.5,2,7.1,0,5.8-.2,6.4-2.1,6.4-2.7,0-7.9,5.2-7.9,7.9,0,1.8.6,2.1,4,2.1h4V90H83.6c-1.9,0-3.8.5-4.1,1s-1.6,1-2.9,1c-3.7,0-5.6,3-5.6,8.7,0,3.6-.4,5.3-1.5,5.7s-1.5,2.3-1.5,7.9c0,6.3.3,7.6,2.3,9.5a11.77,11.77,0,0,0,5.7,2.4c3.4.3,3.5.5,3.5,4.3v4l-6.7.3-6.8.3Z" transform="translate(-66 -51.9)"/><path class="cls-10" d="M70.6,121.8c-2.2-3.1-2.2-13.8-.1-13.8.9,0,1.5.9,1.5,2.4,0,1.9.4,2.2,2.5,1.8,5.2-1,8.7,6.4,4.9,10.2C77.1,124.8,72.4,124.4,70.6,121.8Zm6.9-1.4c1.8-1.8,1.6-3.3-.7-4.7-3.5-2.2-6.6,2.1-3.6,5.1C74.8,122.4,75.5,122.3,77.5,120.4Z" transform="translate(-66 -51.9)"/><path class="cls-10" d="M74,118.6a1.58,1.58,0,0,1,1.6-1.6c1.7,0,1.4,2.2-.4,2.8C74.5,120,74,119.5,74,118.6Z" transform="translate(-66 -51.9)"/><path class="cls-10" d="M84,122.1a20.78,20.78,0,0,1-1-6.6c0-6.1,2.3-5.6,3,.6.4,3.6.9,4.4,2.5,4.4s2-.8,2.3-4.8c.4-6,2.6-5.9,3,.2.2,3-.2,4.9-1.4,6.2C90.1,124.6,85.4,124.6,84,122.1Z" transform="translate(-66 -51.9)"/><path class="cls-10" d="M98,120c2.5-4.9,2.5-6,0-6-1.1,0-2-.7-2-1.5,0-1.1,1.1-1.5,3.8-1.5a12.3,12.3,0,0,1,4.5.6c.3.4-.3,2.4-1.3,4.5-2.5,4.7-2.5,4.9,0,4.9,1.1,0,2,.7,2,1.5,0,1.1-1.2,1.5-4.5,1.5H96Z" transform="translate(-66 -51.9)"/><path class="cls-10" d="M109,120c2.5-5,2.5-6-.1-6-3.9,0-1.3-2.5,2.9-2.8,4.8-.4,5,.3,2.2,5.3a32.68,32.68,0,0,0-2,4c0,.3.9.5,2,.5s2,.7,2,1.5c0,1.1-1.2,1.5-4.5,1.5H107Z" transform="translate(-66 -51.9)"/><path class="cls-10" d="M118,116c0-6.4.3-8,1.5-8s1.5,1.6,1.5,8-.3,8-1.5,8S118,122.4,118,116Z" transform="translate(-66 -51.9)"/><path class="cls-10" d="M124.7,122.2c-1.8-1.9-2.2-5.9-.9-7.8a10.71,10.71,0,0,1,3.1-2.4c2-1,2.7-.9,5,.7a8.45,8.45,0,0,1,2.9,4.2c.3,1.9-.1,2.1-4.2,2.1-2.5,0-4.6.5-4.6,1s1.6,1,3.6,1c2.4,0,3.4.4,3.2,1.3C132.1,124.3,126.6,124.3,124.7,122.2Zm7.3-6.1c0-1.3-2.7-2.1-4.5-1.5-2.5,1-1.7,2.4,1.5,2.4C130.7,117,132,116.6,132,116.1Z" transform="translate(-66 -51.9)"/><path class="cls-10" d="M104.8,119.4c-1.1-1,.3-3.4,1.9-3.4.8,0,1.3.7,1.1,1.7C107.5,119.5,105.8,120.4,104.8,119.4Z" transform="translate(-66 -51.9)"/><path class="cls-10" d="M96.1,117.4c0-1.1.3-1.4.6-.6a2,2,0,0,1-.1,1.9C96.3,119.1,96,118.5,96.1,117.4Z" transform="translate(-66 -51.9)"/><path class="cls-10" d="M115.5,118c.3-.5.8-1,1.1-1s.2.5-.1,1-.8,1-1.1,1S115.2,118.6,115.5,118Z" transform="translate(-66 -51.9)"/><path class="cls-10" d="M77.5,110.1a1.22,1.22,0,0,1,.5-1.6c.5-.3,1,.1,1,.9C79,111.2,78.4,111.5,77.5,110.1Z" transform="translate(-66 -51.9)"/><path class="cls-10" d="M86.5,109.9c-.4-.6-1.7-.8-3-.5-2.8.7-3.5-.8-3.5-7.5,0-5.4,1.9-6.9,2.1-1.6a29.72,29.72,0,0,1,0,4.3c-.2,1.7,2.6,3.6,4.6,3.2,1.4-.3,1.8-1.3,1.8-4.8,0-6.4,1.9-6.1,2.3.4.2,4.6,0,5.6-1.7,6.5C87.7,110.7,86.9,110.7,86.5,109.9Z" transform="translate(-66 -51.9)"/><path class="cls-10" d="M73.8,108.7c-1.2-2.9-.9-12.2.4-13.5,2-2,2.5-1.4,2.5,2.8,0,2.2-.3,4-.8,4s-.9,1.9-1.1,4.3C74.6,109.3,74.3,110,73.8,108.7Z" transform="translate(-66 -51.9)"/><path class="cls-10" d="M96.3,105.6a55,55,0,0,0,2.7-5.2c0-.3-1.1-.2-2.5.2-2.1.5-2.5.3-2.5-1.5s.6-2.1,5-2.1h5l-2.5,5a39.61,39.61,0,0,0-2.5,5.4c0,.3,1.2.7,2.8.9,2.2.3,2.1.4-1,.6a18.12,18.12,0,0,0-5.4.8C93.9,110.2,94.1,109.5,96.3,105.6Z" transform="translate(-66 -51.9)"/><path class="cls-10" d="M124.6,108.2c-1-1-1.1-2.4-.6-4.9,1.1-4.5,2.2-5.6,6-5.6,3.6,0,5.6,1.7,6.6,5.7l.7,2.8-5.2-.3c-3.7-.3-5.1,0-5.1.9s1.1,1.3,3.7,1c2.2-.2,3.8.2,4,.9C135.3,110.5,126.4,110,124.6,108.2Zm8.8-5.1c.3-.5,0-1.4-.8-2-1.5-1.3-6.6.1-6.6,1.9C126,104.2,132.7,104.4,133.4,103.1Z" transform="translate(-66 -51.9)"/><path class="cls-10" d="M108.3,106.7c2.2-3.4,2.5-6.2.7-6.2a2.11,2.11,0,0,1-1.8-1.7c-.3-1.5.4-1.8,4.2-1.8,5.2,0,5.6.8,2.6,5.8-2.6,4.2-2.5,5,.3,5.5,1.2.2,0,.5-2.7.6l-4.8.1Z" transform="translate(-66 -51.9)"/><path class="cls-10" d="M103.8,106.3c-1.4-.4-1.5-.8-.6-2.7.7-1.6,1.6-2.2,2.9-1.9,1,.3,1.9.8,1.9,1.2C108,104.5,105.4,106.6,103.8,106.3Z" transform="translate(-66 -51.9)"/><path class="cls-10" d="M94,104.3c0-1.3.5-2.3,1-2.3,1.3,0,1.3,1.1,0,3C94.2,106.2,94,106.1,94,104.3Z" transform="translate(-66 -51.9)"/><path class="cls-10" d="M115,105.1a2.14,2.14,0,0,1,1-1.6c.6-.3,1,.1,1,.9s-.4,1.6-1,1.6A1,1,0,0,1,115,105.1Z" transform="translate(-66 -51.9)"/><path class="cls-10" d="M118.5,99.9c.2-3.3.6-6.4,1-6.7,1.2-1.3,2.5,2.4,2.5,7.6,0,4.5-.3,5.2-2,5.2S118.1,105.4,118.5,99.9Z" transform="translate(-66 -51.9)"/></g><g id="layer113"><path class="cls-11" d="M93,131.3v-5.8l14.1.3c8.2.2,14.5,0,15.1-.6s2-.6,3.7.1c4.3,1.6,7.8.2,9.7-3.9,1.4-3,1.5-4.2.6-6.7s-.8-3.4.8-5.7c2.4-3.4,2.5-6.3.4-9.5a8.43,8.43,0,0,0-10.7-3c-3.9,1.9-3.7,2-3.7-1.5,0-2.7-.3-3-3-3-1.6,0-3.3.7-3.7,1.5-.7,1.2-3.3,1.6-12.1,1.8L93,95.5V51.9l16.8.3c16.4.3,17,.4,20.9,3,5.2,3.4,8.6,10.2,8.6,17.2,0,5.5-1.6,9.4-5.8,14.5l-2.6,3,3.5,3.1a34.63,34.63,0,0,1,6.2,8.6c2.2,4.5,2.6,6.4,2.2,11.2-.7,10.4-7.9,21-15.7,23.2-2,.5-10.5,1-18.8,1H93Zm27.7-49.5c2.9-3.3,3.5-5.7,2.2-9.5-1.3-4.2-3.4-5.3-9.8-5.3H108V84h5.3C117.6,84,119.1,83.5,120.7,81.8Z" transform="translate(-66 -51.9)"/><path class="cls-11" d="M66,101.5c0-36.5.2-38,5.8-43.8,2.9-3.1,12-6.2,15.2-5.2,1.7.5,2,1.5,2,7.1,0,5.8-.2,6.4-2.1,6.4-2.7,0-7.9,5.2-7.9,7.9,0,1.8.6,2.1,4,2.1h4V90H83.6c-1.9,0-3.8.5-4.1,1s-1.6,1-2.9,1c-3.7,0-5.6,3-5.6,8.7,0,3.6-.4,5.3-1.5,5.7s-1.5,2.3-1.5,7.9c0,6.3.3,7.6,2.3,9.5a11.77,11.77,0,0,0,5.7,2.4c3.4.3,3.5.5,3.5,4.3v4l-6.7.3-6.8.3Z" transform="translate(-66 -51.9)"/><path class="cls-11" d="M70.6,121.8c-2.2-3.1-2.2-13.8-.1-13.8.9,0,1.5.9,1.5,2.4,0,1.9.4,2.2,2.5,1.8,5.2-1,8.7,6.4,4.9,10.2C77.1,124.8,72.4,124.4,70.6,121.8Zm6.9-1.4c1.8-1.8,1.6-3.3-.7-4.7-3.5-2.2-6.6,2.1-3.6,5.1C74.8,122.4,75.5,122.3,77.5,120.4Z" transform="translate(-66 -51.9)"/><path class="cls-11" d="M74,118.6a1.58,1.58,0,0,1,1.6-1.6c1.7,0,1.4,2.2-.4,2.8C74.5,120,74,119.5,74,118.6Z" transform="translate(-66 -51.9)"/><path class="cls-11" d="M84,122.1a20.78,20.78,0,0,1-1-6.6c0-6.1,2.3-5.6,3,.6.4,3.6.9,4.4,2.5,4.4s2-.8,2.3-4.8c.4-6,2.6-5.9,3,.2.2,3-.2,4.9-1.4,6.2C90.1,124.6,85.4,124.6,84,122.1Z" transform="translate(-66 -51.9)"/><path class="cls-11" d="M98,120c2.5-4.9,2.5-6,0-6-1.1,0-2-.7-2-1.5,0-1.1,1.1-1.5,3.8-1.5a12.3,12.3,0,0,1,4.5.6c.3.4-.3,2.4-1.3,4.5-2.5,4.7-2.5,4.9,0,4.9,1.1,0,2,.7,2,1.5,0,1.1-1.2,1.5-4.5,1.5H96Z" transform="translate(-66 -51.9)"/><path class="cls-11" d="M109,120c2.5-5,2.5-6-.1-6-3.9,0-1.3-2.5,2.9-2.8,4.8-.4,5,.3,2.2,5.3a32.68,32.68,0,0,0-2,4c0,.3.9.5,2,.5s2,.7,2,1.5c0,1.1-1.2,1.5-4.5,1.5H107Z" transform="translate(-66 -51.9)"/><path class="cls-11" d="M118,116c0-6.4.3-8,1.5-8s1.5,1.6,1.5,8-.3,8-1.5,8S118,122.4,118,116Z" transform="translate(-66 -51.9)"/><path class="cls-11" d="M124.7,122.2c-1.8-1.9-2.2-5.9-.9-7.8a10.71,10.71,0,0,1,3.1-2.4c2-1,2.7-.9,5,.7a8.45,8.45,0,0,1,2.9,4.2c.3,1.9-.1,2.1-4.2,2.1-2.5,0-4.6.5-4.6,1s1.6,1,3.6,1c2.4,0,3.4.4,3.2,1.3C132.1,124.3,126.6,124.3,124.7,122.2Zm7.3-6.1c0-1.3-2.7-2.1-4.5-1.5-2.5,1-1.7,2.4,1.5,2.4C130.7,117,132,116.6,132,116.1Z" transform="translate(-66 -51.9)"/><path class="cls-11" d="M104.8,119.4c-1.1-1,.3-3.4,1.9-3.4.8,0,1.3.7,1.1,1.7C107.5,119.5,105.8,120.4,104.8,119.4Z" transform="translate(-66 -51.9)"/><path class="cls-11" d="M96.1,117.4c0-1.1.3-1.4.6-.6a2,2,0,0,1-.1,1.9C96.3,119.1,96,118.5,96.1,117.4Z" transform="translate(-66 -51.9)"/><path class="cls-11" d="M115.5,118c.3-.5.8-1,1.1-1s.2.5-.1,1-.8,1-1.1,1S115.2,118.6,115.5,118Z" transform="translate(-66 -51.9)"/><path class="cls-11" d="M77.5,110.1a1.22,1.22,0,0,1,.5-1.6c.5-.3,1,.1,1,.9C79,111.2,78.4,111.5,77.5,110.1Z" transform="translate(-66 -51.9)"/><path class="cls-11" d="M73.6,107.8c-1-3.9-.7-11.3.6-12.6,1.7-1.7,2.8-1.5,2.8.6,0,1.4-.2,1.5-.9.3-1.4-2.3-2.3,2.4-1.7,8.7C75,110.3,74.6,111.5,73.6,107.8Z" transform="translate(-66 -51.9)"/><path class="cls-11" d="M85.5,109c-1.6-.7-1.7-.9-.3-.9a2.74,2.74,0,0,1,2.3.9C88.2,110.1,88.2,110.1,85.5,109Z" transform="translate(-66 -51.9)"/><path class="cls-11" d="M97,104.6c1.8-3.1,2.7-5.6,2.2-5.6a2.33,2.33,0,0,0-1.7,1c-.9,1.5-3.5,1.2-3.5-.4q0-1.35,3.3-1.2c2.2.2,3.1.7,2.9,1.7s.3.7,1.3-.5c1.9-2.5,1.9-1.3,0,2.5-.9,1.6-2,2.7-2.5,2.4s-1-.3-1,.2c0,1.7,1.6,3.1,4,3.6,1.9.4,1.6.5-1,.5a15.44,15.44,0,0,0-5.3.7C94.2,110.1,94.4,109.2,97,104.6Zm.7,1.7c-.4-.3-.7,0-.7.7s.3,1,.7.7A1.2,1.2,0,0,0,97.7,106.3Z" transform="translate(-66 -51.9)"/><path class="cls-11" d="M125,108.1c-1.5-3-1.2-6.6.8-8.4,1.5-1.4,1.9-1.5,1.9-.2,0,.8-.4,1.2-.8,1-.9-.6-1.9,4.7-1.1,6s1.2,3.5.6,3.5C126.2,110,125.6,109.1,125,108.1Z" transform="translate(-66 -51.9)"/><path class="cls-11" d="M132.5,109.1a1.22,1.22,0,0,1,.5-1.6c.5-.3,1,.1,1,.9C134,110.2,133.4,110.5,132.5,109.1Z" transform="translate(-66 -51.9)"/><path class="cls-11" d="M80.7,108.3c-1-.9-.9-10.3.1-10.3.5,0,.8,2.5.8,5.5s-.1,5.5-.1,5.5A2.07,2.07,0,0,1,80.7,108.3Z" transform="translate(-66 -51.9)"/><path class="cls-11" d="M88.8,108.3c-1-1.9-.2-9.7,1-10,1.5-.6,1.7,7.3.2,8.2a1.22,1.22,0,0,0-.5,1.6c.4.5.4.9.1.9S89,108.7,88.8,108.3Z" transform="translate(-66 -51.9)"/><path class="cls-11" d="M108.1,108.5a11.09,11.09,0,0,1,1.4-3.5c1.9-3.3,1.9-5.2-.1-4.8a1.9,1.9,0,0,1-2.1-.7c-.2-.6.6-1.1,1.7-1.1,2.3,0,4.3,4.5,2.9,6.7s-1.1,2.9,1.9,3c2.4.2,2.4.2.4.6a4.58,4.58,0,0,1-3.7-.7c-1-.8-1.4-.8-1.8.2C108.4,108.9,108.1,109.1,108.1,108.5Z" transform="translate(-66 -51.9)"/><path class="cls-11" d="M103.8,106.3c-1.4-.4-1.5-.8-.6-2.7.7-1.6,1.6-2.2,2.9-1.9,1,.3,1.9.8,1.9,1.2C108,104.5,105.4,106.6,103.8,106.3Z" transform="translate(-66 -51.9)"/><path class="cls-11" d="M94,104.3c0-1.3.5-2.3,1-2.3,1.3,0,1.3,1.1,0,3C94.2,106.2,94,106.1,94,104.3Z" transform="translate(-66 -51.9)"/><path class="cls-11" d="M115,105.1a2.14,2.14,0,0,1,1-1.6c.6-.3,1,.1,1,.9s-.4,1.6-1,1.6A1,1,0,0,1,115,105.1Z" transform="translate(-66 -51.9)"/><path class="cls-11" d="M118.6,100.3c.7-6.5.8-6.8,2.3-5.8,1.4.8,1.4,5.2,0,6.1-.8.4-.8.9,0,1.7,1.8,1.8,1.3,3.7-1,3.7C118,106,117.9,105.6,118.6,100.3Z" transform="translate(-66 -51.9)"/><path class="cls-11" d="M129.3,104.3a10.28,10.28,0,0,1,3.5,0c.9.3.1.5-1.8.5S128.3,104.6,129.3,104.3Z" transform="translate(-66 -51.9)"/><path class="cls-11" d="M134.4,102.5c-.3-1.4-1.1-2.2-1.7-1.8s-.7.1-.2-.7.2-1-1.4-.5c-1.1.3-2.1.2-2.1-.3,0-.8,2.2-.9,5.2-.3,1,.2,2.8,6.1,1.8,6.1C135.5,105,134.8,103.9,134.4,102.5Z" transform="translate(-66 -51.9)"/><path class="cls-11" d="M113,101.5a6.8,6.8,0,0,1,1-2.5c.5-.8,1-1,1-.5a6.21,6.21,0,0,1-1,2.5C113.5,101.8,113,102.1,113,101.5Z" transform="translate(-66 -51.9)"/><path class="cls-11" d="M76,100c0-.7.3-1,.7-.7a1.2,1.2,0,0,1,0,1.4C76.3,101,76,100.7,76,100Z" transform="translate(-66 -51.9)"/></g><g id="layer114"><path class="cls-12" d="M93,131.3v-5.8l14.1.3c8.2.2,14.5,0,15.1-.6s2-.6,3.7.1c4.3,1.6,7.8.2,9.7-3.9,1.4-3,1.5-4.2.6-6.7s-.8-3.4.8-5.7c2.4-3.4,2.5-6.3.4-9.5a8.43,8.43,0,0,0-10.7-3c-3.9,1.9-3.7,2-3.7-1.5,0-2.7-.3-3-3-3-1.6,0-3.3.7-3.7,1.5-.7,1.2-3.3,1.6-12.1,1.8L93,95.5V51.9l16.8.3c16.4.3,17,.4,20.9,3,5.2,3.4,8.6,10.2,8.6,17.2,0,5.5-1.6,9.4-5.8,14.5l-2.6,3,3.5,3.1a34.63,34.63,0,0,1,6.2,8.6c2.2,4.5,2.6,6.4,2.2,11.2-.7,10.4-7.9,21-15.7,23.2-2,.5-10.5,1-18.8,1H93Zm27.7-49.5c2.9-3.3,3.5-5.7,2.2-9.5-1.3-4.2-3.4-5.3-9.8-5.3H108V84h5.3C117.6,84,119.1,83.5,120.7,81.8Z" transform="translate(-66 -51.9)"/><path class="cls-12" d="M66,101.5c0-36.5.2-38,5.8-43.8,2.9-3.1,12-6.2,15.2-5.2,1.7.5,2,1.5,2,7.1,0,5.8-.2,6.4-2.1,6.4-2.7,0-7.9,5.2-7.9,7.9,0,1.8.6,2.1,4,2.1h4V90H83.6c-1.9,0-3.8.5-4.1,1s-1.6,1-2.9,1c-3.7,0-5.6,3-5.6,8.7,0,3.6-.4,5.3-1.5,5.7s-1.5,2.3-1.5,7.9c0,6.3.3,7.6,2.3,9.5a11.77,11.77,0,0,0,5.7,2.4c3.4.3,3.5.5,3.5,4.3v4l-6.7.3-6.8.3Z" transform="translate(-66 -51.9)"/><path class="cls-12" d="M71.8,122.9c-1.5-.8-1.8-2.4-1.8-7.9,0-4,.4-7,1-7s1,2.8,1,6.4c0,5.7.3,6.5,2.1,7.1a3.39,3.39,0,0,0,3.6-.8,3.28,3.28,0,0,0-2.4-5.7c-1.5,0-2.3-.5-2.1-1.2.7-2.1,3.6-2,5.7.1C84.1,119.1,78.1,126.6,71.8,122.9Z" transform="translate(-66 -51.9)"/><path class="cls-12" d="M84.7,122.2c-1.8-2-2.4-10.2-.8-10.2,1.2,0,2.1,2.6,2.1,6.1,0,2.4.4,2.9,2.5,2.9,2.3,0,2.5-.4,2.5-4.5,0-3.3.4-4.5,1.5-4.5,2,0,2,6.8-.1,9.8A4.78,4.78,0,0,1,84.7,122.2Z" transform="translate(-66 -51.9)"/><path class="cls-12" d="M98,120c2.5-4.9,2.5-6,0-6-1.1,0-2-.4-2-1s2-1,4.5-1H105l-2,4c-2.5,4.8-2.5,5,0,5,1.1,0,2,.7,2,1.5,0,1.1-1.2,1.5-4.5,1.5H96Z" transform="translate(-66 -51.9)"/><path class="cls-12" d="M109,120c2.5-4.9,2.5-6,0-6-1.1,0-2-.4-2-1s2-1,4.5-1H116l-2,4c-2.5,4.8-2.5,5,0,5,1.1,0,2,.7,2,1.5,0,1.1-1.2,1.5-4.5,1.5H107Z" transform="translate(-66 -51.9)"/><path class="cls-12" d="M118.7,117.8c.1-3.5.2-7.1.2-8s.5-1.8,1-1.8.8,3.6.8,8c0,5-.4,8-1.1,8S118.6,121.7,118.7,117.8Z" transform="translate(-66 -51.9)"/><path class="cls-12" d="M124.6,121.8c-2.1-3-2-6.1.2-8.1,2.6-2.4,6.8-2.1,8.6.5,2.7,3.8,2,4.8-2.9,4.8-2.5,0-4.5.5-4.5,1,0,1,.6,1.2,4.2,1.4,3.1.2,2.4,2.1-.9,2.4C127,124,125.8,123.5,124.6,121.8Zm7.2-6c-.7-1.9-4.3-2.1-5.8-.3-1.1,1.3-.8,1.5,2.5,1.5C131,117,132,116.6,131.8,115.8Z" transform="translate(-66 -51.9)"/><path class="cls-12" d="M74,118.6a1.58,1.58,0,0,1,1.6-1.6c1.7,0,1.4,2.2-.4,2.8C74.5,120,74,119.5,74,118.6Z" transform="translate(-66 -51.9)"/><path class="cls-12" d="M104.8,119.4c-1.1-1,.3-3.4,1.9-3.4.8,0,1.3.7,1.1,1.7C107.5,119.5,105.8,120.4,104.8,119.4Z" transform="translate(-66 -51.9)"/><path class="cls-12" d="M96.1,117.4c0-1.1.3-1.4.6-.6a2,2,0,0,1-.1,1.9C96.3,119.1,96,118.5,96.1,117.4Z" transform="translate(-66 -51.9)"/><path class="cls-12" d="M115.5,118c.3-.5.8-1,1.1-1s.2.5-.1,1-.8,1-1.1,1S115.2,118.6,115.5,118Z" transform="translate(-66 -51.9)"/><path class="cls-12" d="M77.5,110.1a1.22,1.22,0,0,1,.5-1.6c.5-.3,1,.1,1,.9C79,111.2,78.4,111.5,77.5,110.1Z" transform="translate(-66 -51.9)"/><path class="cls-12" d="M73.6,107.8c-1-3.9-.7-11.3.6-12.6,1.7-1.7,2.8-1.5,2.8.6,0,1.4-.2,1.5-.9.3-1.4-2.3-2.3,2.4-1.7,8.7C75,110.3,74.6,111.5,73.6,107.8Z" transform="translate(-66 -51.9)"/><path class="cls-12" d="M85.5,109c-1.6-.7-1.7-.9-.3-.9a2.74,2.74,0,0,1,2.3.9C88.2,110.1,88.2,110.1,85.5,109Z" transform="translate(-66 -51.9)"/><path class="cls-12" d="M97,104.6c1.8-3.1,2.7-5.6,2.2-5.6a2.33,2.33,0,0,0-1.7,1c-.9,1.5-3.5,1.2-3.5-.4q0-1.35,3.3-1.2c2.2.2,3.1.7,2.9,1.7s.3.7,1.3-.5c1.9-2.5,1.9-1.3,0,2.5-.9,1.6-2,2.7-2.5,2.4s-1-.3-1,.2c0,1.7,1.6,3.1,4,3.6,1.9.4,1.6.5-1,.5a15.44,15.44,0,0,0-5.3.7C94.2,110.1,94.4,109.2,97,104.6Zm.7,1.7c-.4-.3-.7,0-.7.7s.3,1,.7.7A1.2,1.2,0,0,0,97.7,106.3Z" transform="translate(-66 -51.9)"/><path class="cls-12" d="M125,108.1c-1.5-3-1.2-6.6.8-8.4,1.5-1.4,1.9-1.5,1.9-.2,0,.8-.4,1.2-.8,1-.9-.6-1.9,4.7-1.1,6s1.2,3.5.6,3.5C126.2,110,125.6,109.1,125,108.1Z" transform="translate(-66 -51.9)"/><path class="cls-12" d="M132.5,109.1a1.22,1.22,0,0,1,.5-1.6c.5-.3,1,.1,1,.9C134,110.2,133.4,110.5,132.5,109.1Z" transform="translate(-66 -51.9)"/><path class="cls-12" d="M80.7,108.3c-1-.9-.9-10.3.1-10.3.5,0,.8,2.5.8,5.5s-.1,5.5-.1,5.5A2.07,2.07,0,0,1,80.7,108.3Z" transform="translate(-66 -51.9)"/><path class="cls-12" d="M88.8,108.3c-1-1.9-.2-9.7,1-10,1.5-.6,1.7,7.3.2,8.2a1.22,1.22,0,0,0-.5,1.6c.4.5.4.9.1.9S89,108.7,88.8,108.3Z" transform="translate(-66 -51.9)"/><path class="cls-12" d="M108.1,108.5a11.09,11.09,0,0,1,1.4-3.5c1.9-3.3,1.9-5.2-.1-4.8a1.9,1.9,0,0,1-2.1-.7c-.2-.6.6-1.1,1.7-1.1,2.3,0,4.3,4.5,2.9,6.7s-1.1,2.9,1.9,3c2.4.2,2.4.2.4.6a4.58,4.58,0,0,1-3.7-.7c-1-.8-1.4-.8-1.8.2C108.4,108.9,108.1,109.1,108.1,108.5Z" transform="translate(-66 -51.9)"/><path class="cls-12" d="M103.8,106.3c-1.4-.4-1.5-.8-.6-2.7.7-1.6,1.6-2.2,2.9-1.9,1,.3,1.9.8,1.9,1.2C108,104.5,105.4,106.6,103.8,106.3Z" transform="translate(-66 -51.9)"/><path class="cls-12" d="M94,104.3c0-1.3.5-2.3,1-2.3,1.3,0,1.3,1.1,0,3C94.2,106.2,94,106.1,94,104.3Z" transform="translate(-66 -51.9)"/><path class="cls-12" d="M115,105.1a2.14,2.14,0,0,1,1-1.6c.6-.3,1,.1,1,.9s-.4,1.6-1,1.6A1,1,0,0,1,115,105.1Z" transform="translate(-66 -51.9)"/><path class="cls-12" d="M118.6,100.3c.7-6.5.8-6.8,2.3-5.8,1.4.8,1.4,5.2,0,6.1-.8.4-.8.9,0,1.7,1.8,1.8,1.3,3.7-1,3.7C118,106,117.9,105.6,118.6,100.3Z" transform="translate(-66 -51.9)"/><path class="cls-12" d="M129.3,104.3a10.28,10.28,0,0,1,3.5,0c.9.3.1.5-1.8.5S128.3,104.6,129.3,104.3Z" transform="translate(-66 -51.9)"/><path class="cls-12" d="M134.4,102.5c-.3-1.4-1.1-2.2-1.7-1.8s-.7.1-.2-.7.2-1-1.4-.5c-1.1.3-2.1.2-2.1-.3,0-.8,2.2-.9,5.2-.3,1,.2,2.8,6.1,1.8,6.1C135.5,105,134.8,103.9,134.4,102.5Z" transform="translate(-66 -51.9)"/><path class="cls-12" d="M113,101.5a6.8,6.8,0,0,1,1-2.5c.5-.8,1-1,1-.5a6.21,6.21,0,0,1-1,2.5C113.5,101.8,113,102.1,113,101.5Z" transform="translate(-66 -51.9)"/><path class="cls-12" d="M76,100c0-.7.3-1,.7-.7a1.2,1.2,0,0,1,0,1.4C76.3,101,76,100.7,76,100Z" transform="translate(-66 -51.9)"/></g><g id="layer115"><path class="cls-13" d="M93,131.3v-5.8l14.1.3c8.2.2,14.5,0,15.1-.6s2-.6,3.7.1c4.3,1.6,7.8.2,9.7-3.9,1.4-3,1.5-4.2.6-6.7s-.8-3.4.8-5.7c2.4-3.4,2.5-6.3.4-9.5a8.43,8.43,0,0,0-10.7-3c-3.9,1.9-3.7,2-3.7-1.5,0-2.7-.3-3-3-3-1.6,0-3.3.7-3.7,1.5-.7,1.2-3.3,1.6-12.1,1.8L93,95.5V51.9l16.8.3c16.4.3,17,.4,20.9,3,5.2,3.4,8.6,10.2,8.6,17.2,0,5.5-1.6,9.4-5.8,14.5l-2.6,3,3.5,3.1a34.63,34.63,0,0,1,6.2,8.6c2.2,4.5,2.6,6.4,2.2,11.2-.7,10.4-7.9,21-15.7,23.2-2,.5-10.5,1-18.8,1H93Zm27.7-49.5c2.9-3.3,3.5-5.7,2.2-9.5-1.3-4.2-3.4-5.3-9.8-5.3H108V84h5.3C117.6,84,119.1,83.5,120.7,81.8Z" transform="translate(-66 -51.9)"/><path class="cls-13" d="M66,101.5c0-36.5.2-38,5.8-43.8,2.9-3.1,12-6.2,15.2-5.2,1.7.5,2,1.5,2,7.1,0,5.8-.2,6.4-2.1,6.4-2.7,0-7.9,5.2-7.9,7.9,0,1.8.6,2.1,4,2.1h4V90H83.6c-1.9,0-3.8.5-4.1,1s-1.6,1-2.9,1c-3.7,0-5.6,3-5.6,8.7,0,3.6-.4,5.3-1.5,5.7s-1.5,2.3-1.5,7.9c0,6.3.3,7.6,2.3,9.5a11.77,11.77,0,0,0,5.7,2.4c3.4.3,3.5.5,3.5,4.3v4l-6.7.3-6.8.3Z" transform="translate(-66 -51.9)"/><path class="cls-13" d="M71.8,122.9c-1.5-.8-1.8-2.4-1.8-7.9,0-4,.4-7,1-7s1,2.8,1,6.4c0,5.7.3,6.5,2.1,7.1a3.39,3.39,0,0,0,3.6-.8,3.28,3.28,0,0,0-2.4-5.7c-1.5,0-2.3-.5-2.1-1.2.7-2.1,3.6-2,5.7.1C84.1,119.1,78.1,126.6,71.8,122.9Z" transform="translate(-66 -51.9)"/><path class="cls-13" d="M84.7,122.2c-1.8-2-2.4-10.2-.8-10.2,1.2,0,2.1,2.6,2.1,6.1,0,2.4.4,2.9,2.5,2.9,2.3,0,2.5-.4,2.5-4.5,0-3.3.4-4.5,1.5-4.5,2,0,2,6.8-.1,9.8A4.78,4.78,0,0,1,84.7,122.2Z" transform="translate(-66 -51.9)"/><path class="cls-13" d="M98,120c2.5-4.9,2.5-6,0-6-1.1,0-2-.4-2-1s2-1,4.5-1H105l-2,4c-2.5,4.8-2.5,5,0,5,1.1,0,2,.7,2,1.5,0,1.1-1.2,1.5-4.5,1.5H96Z" transform="translate(-66 -51.9)"/><path class="cls-13" d="M109,120c2.5-4.9,2.5-6,0-6-1.1,0-2-.4-2-1s2-1,4.5-1H116l-2,4c-2.5,4.8-2.5,5,0,5,1.1,0,2,.7,2,1.5,0,1.1-1.2,1.5-4.5,1.5H107Z" transform="translate(-66 -51.9)"/><path class="cls-13" d="M118.7,117.8c.1-3.5.2-7.1.2-8s.5-1.8,1-1.8.8,3.6.8,8c0,5-.4,8-1.1,8S118.6,121.7,118.7,117.8Z" transform="translate(-66 -51.9)"/><path class="cls-13" d="M124.6,121.8c-2.1-3-2-6.1.2-8.1,2.6-2.4,6.8-2.1,8.6.5,2.7,3.8,2,4.8-2.9,4.8-2.5,0-4.5.5-4.5,1,0,1,.6,1.2,4.2,1.4,3.1.2,2.4,2.1-.9,2.4C127,124,125.8,123.5,124.6,121.8Zm7.2-6c-.7-1.9-4.3-2.1-5.8-.3-1.1,1.3-.8,1.5,2.5,1.5C131,117,132,116.6,131.8,115.8Z" transform="translate(-66 -51.9)"/><path class="cls-13" d="M74,118.6a1.58,1.58,0,0,1,1.6-1.6c1.7,0,1.4,2.2-.4,2.8C74.5,120,74,119.5,74,118.6Z" transform="translate(-66 -51.9)"/><path class="cls-13" d="M104.8,119.4c-1.1-1,.3-3.4,1.9-3.4.8,0,1.3.7,1.1,1.7C107.5,119.5,105.8,120.4,104.8,119.4Z" transform="translate(-66 -51.9)"/><path class="cls-13" d="M96.1,117.4c0-1.1.3-1.4.6-.6a2,2,0,0,1-.1,1.9C96.3,119.1,96,118.5,96.1,117.4Z" transform="translate(-66 -51.9)"/><path class="cls-13" d="M115.5,118c.3-.5.8-1,1.1-1s.2.5-.1,1-.8,1-1.1,1S115.2,118.6,115.5,118Z" transform="translate(-66 -51.9)"/><path class="cls-13" d="M77.5,110.1a1.22,1.22,0,0,1,.5-1.6c.5-.3,1,.1,1,.9C79,111.2,78.4,111.5,77.5,110.1Z" transform="translate(-66 -51.9)"/><path class="cls-13" d="M103.8,106.3c-1.4-.4-1.5-.8-.6-2.7.7-1.6,1.6-2.2,2.9-1.9,1,.3,1.9.8,1.9,1.2C108,104.5,105.4,106.6,103.8,106.3Z" transform="translate(-66 -51.9)"/><path class="cls-13" d="M94,104.3c0-1.3.5-2.3,1-2.3,1.3,0,1.3,1.1,0,3C94.2,106.2,94,106.1,94,104.3Z" transform="translate(-66 -51.9)"/><path class="cls-13" d="M115,105.1a2.14,2.14,0,0,1,1-1.6c.6-.3,1,.1,1,.9s-.4,1.6-1,1.6A1,1,0,0,1,115,105.1Z" transform="translate(-66 -51.9)"/></g><g id="layer116"><path class="cls-14" d="M93,131.3v-5.8l14.1.3c8.2.2,14.5,0,15.1-.6s2-.6,3.7.1c4.3,1.6,7.8.2,9.7-3.9,1.4-3,1.5-4.2.6-6.7s-.8-3.4.8-5.7c2.4-3.4,2.5-6.3.4-9.5a8.43,8.43,0,0,0-10.7-3c-3.9,1.9-3.7,2-3.7-1.5,0-2.7-.3-3-3-3-1.6,0-3.3.7-3.7,1.5-.7,1.2-3.3,1.6-12.1,1.8L93,95.5V51.9l16.8.3c16.4.3,17,.4,20.9,3,5.2,3.4,8.6,10.2,8.6,17.2,0,5.5-1.6,9.4-5.8,14.5l-2.6,3,3.5,3.1a34.63,34.63,0,0,1,6.2,8.6c2.2,4.5,2.6,6.4,2.2,11.2-.7,10.4-7.9,21-15.7,23.2-2,.5-10.5,1-18.8,1H93Zm27.7-49.5c2.9-3.3,3.5-5.7,2.2-9.5-1.3-4.2-3.4-5.3-9.8-5.3H108V84h5.3C117.6,84,119.1,83.5,120.7,81.8Z" transform="translate(-66 -51.9)"/><path class="cls-14" d="M66,101.5c0-36.5.2-38,5.8-43.8,2.9-3.1,12-6.2,15.2-5.2,1.7.5,2,1.5,2,7.1,0,5.8-.2,6.4-2.1,6.4-2.7,0-7.9,5.2-7.9,7.9,0,1.8.6,2.1,4,2.1h4V90H83.6c-1.9,0-3.8.5-4.1,1s-1.6,1-2.9,1c-3.7,0-5.6,3-5.6,8.7,0,3.6-.4,5.3-1.5,5.7s-1.5,2.3-1.5,7.9c0,6.3.3,7.6,2.3,9.5a11.77,11.77,0,0,0,5.7,2.4c3.4.3,3.5.5,3.5,4.3v4l-6.7.3-6.8.3Z" transform="translate(-66 -51.9)"/><path class="cls-14" d="M71.6,122.4c-1.2-1.1-1.5-3.3-1.4-8.2l.2-6.7.3,6.3c.4,5.5.7,6.4,2.8,7.4,2.9,1.3,5.5-.3,5.5-3.3,0-2.1-2.8-3.9-4.9-3.1-.8.3-1.2-.1-.9-.9.7-2,3-2.2,5.2-.6s2.6,6.8.6,9.1C77.4,124.4,73.6,124.4,71.6,122.4Z" transform="translate(-66 -51.9)"/><path class="cls-14" d="M84.7,122.2c-1.9-2-2.4-10.2-.7-10.2.6,0,1,1.8,1,4,0,2.7.5,4.2,1.8,4.8,3,1.6,4.2.3,4.2-4.4,0-2.4.5-4.4,1-4.4s1,2.2,1,5c0,3.8-.4,5.2-1.9,6C88.3,124.5,86.5,124.2,84.7,122.2Z" transform="translate(-66 -51.9)"/><path class="cls-14" d="M98.5,119l2.5-5H98.5c-1.4,0-2.5-.4-2.5-1s1.8-1,4-1c4.4,0,4.6.3,2.5,4-1.9,3.3-1.9,6.4-.1,5.7a1.55,1.55,0,0,1,2,.9c.4,1.1-.5,1.4-3.9,1.4H96Z" transform="translate(-66 -51.9)"/><path class="cls-14" d="M109.5,119.8c3-5.2,3-5.8.6-5.8-1.1,0-2.3-.4-2.6-1s1-1,3.4-1c4.5,0,4.7.3,2.6,4s-1.9,6,.5,6c1.1,0,2,.5,2,1s-2,1-4.4,1h-4.5Z" transform="translate(-66 -51.9)"/><path class="cls-14" d="M119.3,116c0-4.7.2-6.6.4-4.2a60.28,60.28,0,0,1,0,8.5C119.5,122.6,119.3,120.7,119.3,116Z" transform="translate(-66 -51.9)"/><path class="cls-14" d="M124.6,121.8c-2-2.8-2-4.8,0-7.6,2.9-4.2,10.4-1.7,10.4,3.5,0,.9-1.5,1.3-4.5,1.3-2.5,0-4.5-.4-4.5-1s1.6-1,3.6-1c3.2,0,3.5-.2,2.4-1.5-1.6-2-4.9-1.6-6.4.8s.5,5.2,4,5.2c3.9.1,3.7,1.9-.3,2.3C127,124,125.8,123.5,124.6,121.8Z" transform="translate(-66 -51.9)"/><path class="cls-14" d="M74,118.6a1.58,1.58,0,0,1,1.6-1.6c1.7,0,1.4,2.2-.4,2.8C74.5,120,74,119.5,74,118.6Z" transform="translate(-66 -51.9)"/><path class="cls-14" d="M104.8,119.4c-1.1-1,.3-3.4,1.9-3.4.8,0,1.3.7,1.1,1.7C107.5,119.5,105.8,120.4,104.8,119.4Z" transform="translate(-66 -51.9)"/><path class="cls-14" d="M96.1,117.4c0-1.1.3-1.4.6-.6a2,2,0,0,1-.1,1.9C96.3,119.1,96,118.5,96.1,117.4Z" transform="translate(-66 -51.9)"/><path class="cls-14" d="M115.5,118c.3-.5.8-1,1.1-1s.2.5-.1,1-.8,1-1.1,1S115.2,118.6,115.5,118Z" transform="translate(-66 -51.9)"/><path class="cls-14" d="M77.5,110.1a1.22,1.22,0,0,1,.5-1.6c.5-.3,1,.1,1,.9C79,111.2,78.4,111.5,77.5,110.1Z" transform="translate(-66 -51.9)"/><path class="cls-14" d="M103.8,106.3c-1.4-.4-1.5-.8-.6-2.7.7-1.6,1.6-2.2,2.9-1.9,1,.3,1.9.8,1.9,1.2C108,104.5,105.4,106.6,103.8,106.3Z" transform="translate(-66 -51.9)"/><path class="cls-14" d="M94,104.3c0-1.3.5-2.3,1-2.3,1.3,0,1.3,1.1,0,3C94.2,106.2,94,106.1,94,104.3Z" transform="translate(-66 -51.9)"/><path class="cls-14" d="M115,105.1a2.14,2.14,0,0,1,1-1.6c.6-.3,1,.1,1,.9s-.4,1.6-1,1.6A1,1,0,0,1,115,105.1Z" transform="translate(-66 -51.9)"/></g><g id="layer117"><path class="cls-15" d="M93,131.3v-5.8l14.1.3c8.2.2,14.5,0,15.1-.6s2-.6,3.7.1c4.3,1.6,7.8.2,9.7-3.9,1.4-3,1.5-4.2.6-6.7s-.8-3.4.8-5.7c2.4-3.4,2.5-6.3.4-9.5a8.43,8.43,0,0,0-10.7-3c-3.9,1.9-3.7,2-3.7-1.5,0-2.7-.3-3-3-3-1.6,0-3.3.7-3.7,1.5-.7,1.2-3.3,1.6-12.1,1.8L93,95.5V51.9l16.8.3c16.4.3,17,.4,20.9,3,5.2,3.4,8.6,10.2,8.6,17.2,0,5.5-1.6,9.4-5.8,14.5l-2.6,3,3.5,3.1a34.63,34.63,0,0,1,6.2,8.6c2.2,4.5,2.6,6.4,2.2,11.2-.7,10.4-7.9,21-15.7,23.2-2,.5-10.5,1-18.8,1H93Zm27.7-49.5c2.9-3.3,3.5-5.7,2.2-9.5-1.3-4.2-3.4-5.3-9.8-5.3H108V84h5.3C117.6,84,119.1,83.5,120.7,81.8Z" transform="translate(-66 -51.9)"/><path class="cls-15" d="M66,101.5c0-36.5.2-38,5.8-43.8,2.9-3.1,12-6.2,15.2-5.2,1.7.5,2,1.5,2,7.1,0,5.8-.2,6.4-2.1,6.4-2.7,0-7.9,5.2-7.9,7.9,0,1.8.6,2.1,4,2.1h4V90H83.6c-1.9,0-3.8.5-4.1,1s-1.6,1-2.9,1c-3.7,0-5.6,3-5.6,8.7,0,3.6-.4,5.3-1.5,5.7s-1.5,2.3-1.5,7.9c0,6.3.3,7.6,2.3,9.5a11.77,11.77,0,0,0,5.7,2.4c3.4.3,3.5.5,3.5,4.3v4l-6.7.3-6.8.3Z" transform="translate(-66 -51.9)"/><path class="cls-15" d="M72.1,123.1c-.9-.6-.5-.8,1.3-.8,1.5,0,2.9.3,3.2.8C77.3,124.2,73.9,124.2,72.1,123.1Z" transform="translate(-66 -51.9)"/><path class="cls-15" d="M85.3,122.8c-1.2-1.6-2.4-4.8-1.7-4.8a5.83,5.83,0,0,1,1.4,2.4,4.85,4.85,0,0,0,3.2,2.9c2.1.4,2.2.4.2.6A4.61,4.61,0,0,1,85.3,122.8Z" transform="translate(-66 -51.9)"/><path class="cls-15" d="M96.3,123.3c.9-.8,7.7-1.1,7.7-.3,0,.4-1.9.7-4.2.8S96,123.7,96.3,123.3Z" transform="translate(-66 -51.9)"/><path class="cls-15" d="M108,123.7a25.71,25.71,0,0,1,2-4.7c1.1-2.1,1.7-4.6,1.4-5.4s-.1-1.6.6-1.6.8.5.5,1-.1,1,.4,1a1.13,1.13,0,0,0,1.1-1.2c0-.6.3-.9.6-.5s-1,3.2-3,6.4S108,124.1,108,123.7Z" transform="translate(-66 -51.9)"/><path class="cls-15" d="M110,123.5c0-.7,3.9-1.2,4.9-.5.7.4-.1.7-1.8.8S110,123.7,110,123.5Z" transform="translate(-66 -51.9)"/><path class="cls-15" d="M119.3,116c0-4.7.2-6.6.4-4.2a60.28,60.28,0,0,1,0,8.5C119.5,122.6,119.3,120.7,119.3,116Z" transform="translate(-66 -51.9)"/><path class="cls-15" d="M127.4,123.1a2.89,2.89,0,0,0-1.7-.6c-.6,0-1.6-1.2-2.1-2.7-2.2-6.2,5.3-10.2,9.4-5,2.9,3.6,2.5,4.3-2.4,4.1-2.5-.2-4.3-.6-4-1s2-.6,4-.4c3.2.5,3.4.3,2.4-1.5a4.92,4.92,0,0,0-1.8-2.1,19.76,19.76,0,0,1-3-.5c-1.6-.3-2.1,0-1.6.8.4.6.3.8-.4.4s-1.3.3-1.7,1.4c-.8,2.4.3,6.2,1.5,5.5a1.08,1.08,0,0,1,1.4.3c.3.5,1.7.7,3.1.4s2.5-.2,2.5.1C133,123,128.1,123.8,127.4,123.1Z" transform="translate(-66 -51.9)"/><path class="cls-15" d="M70.3,115.5c0-3.3.2-4.5.4-2.7a30,30,0,0,1,0,6C70.5,120.3,70.3,118.8,70.3,115.5Z" transform="translate(-66 -51.9)"/><path class="cls-15" d="M91.8,118.3c.5-2.1.7-2.3,1-.9a3.31,3.31,0,0,1-.6,2.8C91.6,120.8,91.5,120.2,91.8,118.3Z" transform="translate(-66 -51.9)"/><path class="cls-15" d="M98,120.3c.1-1.5,3-4.7,3.7-3.9.4.4.2,1.1-.6,1.5s-1.2,1.2-1.1,1.7a1.15,1.15,0,0,1-.9,1.2C98.5,121,98,120.8,98,120.3Z" transform="translate(-66 -51.9)"/><path class="cls-15" d="M74,118.6a1.58,1.58,0,0,1,1.6-1.6c1.7,0,1.4,2.2-.4,2.8C74.5,120,74,119.5,74,118.6Z" transform="translate(-66 -51.9)"/><path class="cls-15" d="M79.1,118.4c0-1.1.3-1.4.6-.6a2,2,0,0,1-.1,1.9C79.3,120.1,79,119.5,79.1,118.4Z" transform="translate(-66 -51.9)"/><path class="cls-15" d="M104.8,119.4c-1.1-1,.3-3.4,1.9-3.4.8,0,1.3.7,1.1,1.7C107.5,119.5,105.8,120.4,104.8,119.4Z" transform="translate(-66 -51.9)"/><path class="cls-15" d="M96.1,117.4c0-1.1.3-1.4.6-.6a2,2,0,0,1-.1,1.9C96.3,119.1,96,118.5,96.1,117.4Z" transform="translate(-66 -51.9)"/><path class="cls-15" d="M115.5,118c.3-.5.8-1,1.1-1s.2.5-.1,1-.8,1-1.1,1S115.2,118.6,115.5,118Z" transform="translate(-66 -51.9)"/><path class="cls-15" d="M83.2,114.6c.1-1.5.6-2.6,1-2.6,1.2,0,1,3.8-.2,4.5C83.4,116.9,83.1,116,83.2,114.6Z" transform="translate(-66 -51.9)"/><path class="cls-15" d="M77.1,115.1c-.7-.5-.9-1.1-.5-1.4s1.5.1,2.2.9C80.2,116.2,79.3,116.4,77.1,115.1Z" transform="translate(-66 -51.9)"/><path class="cls-15" d="M73,114.1c0-1,1.9-2.5,2.5-2,.1.2-.3,1-1.1,1.7S73,114.6,73,114.1Z" transform="translate(-66 -51.9)"/><path class="cls-15" d="M91.6,113.5c-.3-.8-.1-1.5.4-1.5s1,.7,1,1.5-.2,1.5-.4,1.5S92,114.3,91.6,113.5Z" transform="translate(-66 -51.9)"/><path class="cls-15" d="M101.1,114.4c-.1-.6-1.2-.9-2.6-.6s-2.5,0-2.5-.5,1.8-.9,4-.9,4,.4,4,.8-.4.7-.9.4-1.2,0-1.4.6C101.4,115,101.1,115.1,101.1,114.4Z" transform="translate(-66 -51.9)"/><path class="cls-15" d="M108,113a1.08,1.08,0,0,1,1-1,1,1,0,0,1,1,1,.94.94,0,0,1-1,1A1,1,0,0,1,108,113Z" transform="translate(-66 -51.9)"/><path class="cls-15" d="M77.5,110.1a1.22,1.22,0,0,1,.5-1.6c.5-.3,1,.1,1,.9C79,111.2,78.4,111.5,77.5,110.1Z" transform="translate(-66 -51.9)"/><path class="cls-15" d="M103.8,106.3c-1.4-.4-1.5-.8-.6-2.7.7-1.6,1.6-2.2,2.9-1.9,1,.3,1.9.8,1.9,1.2C108,104.5,105.4,106.6,103.8,106.3Z" transform="translate(-66 -51.9)"/><path class="cls-15" d="M94,104.3c0-1.3.5-2.3,1-2.3,1.3,0,1.3,1.1,0,3C94.2,106.2,94,106.1,94,104.3Z" transform="translate(-66 -51.9)"/><path class="cls-15" d="M115,105.1a2.14,2.14,0,0,1,1-1.6c.6-.3,1,.1,1,.9s-.4,1.6-1,1.6A1,1,0,0,1,115,105.1Z" transform="translate(-66 -51.9)"/></g><g id="layer118"><path d="M93,131.3v-5.8l14.1.3c8.2.2,14.5,0,15.1-.6s2-.6,3.7.1c4.3,1.6,7.8.2,9.7-3.9,1.4-3,1.5-4.2.6-6.7s-.8-3.4.8-5.7c2.4-3.4,2.5-6.3.4-9.5a8.43,8.43,0,0,0-10.7-3c-3.9,1.9-3.7,2-3.7-1.5,0-2.7-.3-3-3-3-1.6,0-3.3.7-3.7,1.5-.7,1.2-3.3,1.6-12.1,1.8L93,95.5V51.9l16.8.3c16.4.3,17,.4,20.9,3,5.2,3.4,8.6,10.2,8.6,17.2,0,5.5-1.6,9.4-5.8,14.5l-2.6,3,3.5,3.1a34.63,34.63,0,0,1,6.2,8.6c2.2,4.5,2.6,6.4,2.2,11.2-.7,10.4-7.9,21-15.7,23.2-2,.5-10.5,1-18.8,1H93Zm27.7-49.5c2.9-3.3,3.5-5.7,2.2-9.5-1.3-4.2-3.4-5.3-9.8-5.3H108V84h5.3C117.6,84,119.1,83.5,120.7,81.8Z" transform="translate(-66 -51.9)"/><path d="M66,101.5c0-36.5.2-38,5.8-43.8,2.9-3.1,12-6.2,15.2-5.2,1.7.5,2,1.5,2,7.1,0,5.8-.2,6.4-2.1,6.4-2.7,0-7.9,5.2-7.9,7.9,0,1.8.6,2.1,4,2.1h4V90H83.6c-1.9,0-3.8.5-4.1,1s-1.6,1-2.9,1c-3.7,0-5.6,3-5.6,8.7,0,3.6-.4,5.3-1.5,5.7s-1.5,2.3-1.5,7.9c0,6.3.3,7.6,2.3,9.5a11.77,11.77,0,0,0,5.7,2.4c3.4.3,3.5.5,3.5,4.3v4l-6.7.3-6.8.3Z" transform="translate(-66 -51.9)"/><path d="M74,118.6a1.58,1.58,0,0,1,1.6-1.6c1.7,0,1.4,2.2-.4,2.8C74.5,120,74,119.5,74,118.6Z" transform="translate(-66 -51.9)"/><path d="M104.8,119.4c-1.1-1,.3-3.4,1.9-3.4.8,0,1.3.7,1.1,1.7C107.5,119.5,105.8,120.4,104.8,119.4Z" transform="translate(-66 -51.9)"/><path d="M96.1,117.4c0-1.1.3-1.4.6-.6a2,2,0,0,1-.1,1.9C96.3,119.1,96,118.5,96.1,117.4Z" transform="translate(-66 -51.9)"/><path d="M115.5,118c.3-.5.8-1,1.1-1s.2.5-.1,1-.8,1-1.1,1S115.2,118.6,115.5,118Z" transform="translate(-66 -51.9)"/><path d="M77.5,110.1a1.22,1.22,0,0,1,.5-1.6c.5-.3,1,.1,1,.9C79,111.2,78.4,111.5,77.5,110.1Z" transform="translate(-66 -51.9)"/><path d="M103.8,105.81c-1.4-.4-1.5-.8-.6-2.7.7-1.6,1.6-2.2,2.9-1.9,1,.3,1.9.8,1.9,1.2C108,104,105.4,106.11,103.8,105.81Z" transform="translate(-66 -51.9)"/><path d="M94,104.3c0-1.3.5-2.3,1-2.3,1.3,0,1.3,1.1,0,3C94.2,106.2,94,106.1,94,104.3Z" transform="translate(-66 -51.9)"/><path d="M115,105.1a2.14,2.14,0,0,1,1-1.6c.6-.3,1,.1,1,.9s-.4,1.6-1,1.6A1,1,0,0,1,115,105.1Z" transform="translate(-66 -51.9)"/></g></svg>