<!DOCTYPE svg PUBLIC "-//W3C//DTD SVG 20010904//EN" "http://www.w3.org/TR/2001/REC-SVG-20010904/DTD/svg10.dtd">
<svg version="1.0" xmlns="http://www.w3.org/2000/svg" width="200px" height="200px" viewBox="0 0 2000 2000" preserveAspectRatio="xMidYMid meet">
<g id="layer101" fill="#000000" stroke="none">
 <path d="M0 1000 l0 -1000 1000 0 1000 0 0 1000 0 1000 -1000 0 -1000 0 0 -1000z"/>
 </g>
<g id="layer102" fill="#a59622" stroke="none">
 <path d="M925 1264 c-68 -18 -85 -27 -85 -45 0 -18 9 -19 155 -19 146 0 155 1 155 19 0 12 -11 23 -32 31 -37 13 -162 22 -193 14z m178 -25 c52 -14 47 -31 -10 -27 -36 2 -49 7 -51 21 -4 20 8 21 61 6z"/>
 <path d="M591 1219 c-25 -24 -31 -39 -31 -72 0 -74 47 -362 64 -395 27 -53 70 -74 140 -69 57 3 62 6 101 50 l41 47 89 0 89 0 41 -47 c38 -42 45 -46 96 -51 65 -5 106 12 139 58 17 24 27 69 46 198 32 226 32 247 -7 283 -58 54 -105 39 -179 -59 -24 -31 -27 -32 -59 -21 -47 17 -95 -7 -112 -55 -12 -33 -16 -36 -54 -36 -37 0 -42 3 -50 32 -6 20 -23 40 -44 52 -30 17 -37 18 -69 6 -35 -13 -37 -12 -62 21 -51 69 -77 89 -113 89 -26 0 -44 -8 -66 -31z m315 -134 c19 -29 11 -60 -22 -81 -22 -15 -26 -15 -48 0 -33 21 -41 52 -22 81 11 17 26 25 46 25 20 0 35 -8 46 -25z m270 0 c21 -32 12 -68 -21 -83 -60 -27 -104 41 -62 96 17 22 65 14 83 -13z m-191 -125 c0 -10 -12 -16 -32 -18 -32 -3 -45 13 -26 32 13 12 58 2 58 -14z m85 0 c0 -16 -7 -20 -30 -20 -23 0 -30 4 -30 20 0 16 7 20 30 20 23 0 30 -4 30 -20z m-263 -7 c25 -12 41 -29 55 -61 26 -58 17 -105 -27 -149 -27 -27 -41 -33 -74 -33 -80 0 -131 49 -131 125 0 48 24 92 63 115 39 24 68 25 114 3z m484 2 c64 -34 89 -129 50 -189 -26 -39 -57 -55 -107 -56 -53 0 -97 38 -114 99 -10 37 -9 48 10 86 32 67 99 92 161 60z m-307 -53 c2 -4 1 -14 -3 -21 -12 -18 -55 -10 -59 12 -3 13 3 17 27 17 16 0 32 -4 35 -8z m84 -9 c-2 -11 -14 -19 -31 -21 -22 -3 -27 1 -27 17 0 17 6 21 31 21 24 0 30 -4 27 -17z"/>
 <path d="M720 906 c0 -33 -2 -36 -29 -36 -35 0 -45 -12 -37 -46 5 -18 13 -24 36 -24 25 0 29 -4 32 -32 2 -28 7 -33 28 -33 20 0 26 6 30 30 4 24 11 31 35 35 25 4 31 10 33 38 3 30 1 32 -27 32 -30 0 -45 21 -39 51 2 9 -9 15 -29 17 -32 3 -33 2 -33 -32z"/>
 <path d="M1213 933 c-17 -6 -16 -38 2 -53 31 -26 82 13 56 44 -13 16 -34 19 -58 9z"/>
 <path d="M1158 869 c-20 -11 -24 -54 -7 -64 5 -4 21 -4 35 -1 26 7 33 43 12 64 -14 14 -18 14 -40 1z"/>
 <path d="M1288 869 c-20 -11 -24 -54 -7 -64 5 -4 21 -4 35 -1 26 7 33 43 12 64 -14 14 -18 14 -40 1z"/>
 <path d="M1212 798 c-25 -25 -6 -68 30 -68 9 0 22 9 28 21 9 16 8 25 -6 40 -20 22 -35 24 -52 7z"/>
 </g>
<g id="layer103" fill="#ccb922" stroke="none">
 <path d="M925 1264 c-68 -18 -85 -27 -85 -45 0 -18 9 -19 155 -19 146 0 155 1 155 19 0 12 -11 23 -32 31 -37 13 -162 22 -193 14z m178 -25 c55 -15 45 -29 -22 -29 -54 0 -59 2 -54 20 6 23 21 24 76 9z"/>
 <path d="M591 1219 c-25 -24 -31 -39 -31 -72 0 -74 47 -362 64 -395 27 -53 70 -74 140 -69 57 3 62 6 101 50 l41 47 89 0 89 0 41 -47 c38 -42 45 -46 96 -51 65 -5 106 12 139 58 17 24 27 69 46 198 32 226 32 247 -7 283 -58 54 -105 39 -179 -59 -24 -31 -27 -32 -59 -21 -47 17 -95 -7 -112 -55 -12 -33 -16 -36 -54 -36 -37 0 -42 3 -50 32 -6 20 -23 40 -44 52 -30 17 -37 18 -69 6 -35 -13 -37 -12 -62 21 -51 69 -77 89 -113 89 -26 0 -44 -8 -66 -31z m315 -134 c19 -29 11 -60 -22 -81 -22 -15 -26 -15 -48 0 -33 21 -41 52 -22 81 11 17 26 25 46 25 20 0 35 -8 46 -25z m270 0 c21 -32 12 -68 -21 -83 -60 -27 -104 41 -62 96 17 22 65 14 83 -13z m-191 -125 c0 -10 -12 -16 -32 -18 -32 -3 -45 13 -26 32 13 12 58 2 58 -14z m85 0 c0 -16 -7 -20 -30 -20 -23 0 -30 4 -30 20 0 16 7 20 30 20 23 0 30 -4 30 -20z m-263 -7 c25 -12 41 -29 55 -61 26 -58 17 -105 -27 -149 -27 -27 -41 -33 -74 -33 -80 0 -131 49 -131 125 0 48 24 92 63 115 39 24 68 25 114 3z m484 2 c64 -34 89 -129 50 -189 -26 -39 -57 -55 -107 -56 -53 0 -97 38 -114 99 -10 37 -9 48 10 86 32 67 99 92 161 60z m-307 -53 c2 -4 1 -14 -3 -21 -12 -18 -55 -10 -59 12 -3 13 3 17 27 17 16 0 32 -4 35 -8z m84 -9 c-2 -11 -14 -19 -31 -21 -22 -3 -27 1 -27 17 0 17 6 21 31 21 24 0 30 -4 27 -17z"/>
 <path d="M720 906 c0 -33 -2 -36 -30 -36 -23 0 -30 -4 -30 -20 0 -11 -1 -23 -2 -27 -2 -4 10 -10 27 -13 24 -4 31 -11 35 -35 4 -23 11 -31 32 -33 24 -3 27 1 30 30 3 29 7 33 36 36 28 3 32 7 32 33 0 26 -3 29 -34 29 -32 0 -35 3 -38 33 -2 27 -8 33 -30 35 -26 3 -28 1 -28 -32z"/>
 <path d="M1214 926 c-11 -28 1 -51 25 -51 32 0 49 28 32 49 -17 20 -50 21 -57 2z"/>
 <path d="M1156 867 c-25 -18 -18 -61 11 -65 14 -2 26 4 33 19 10 18 9 25 -7 40 -16 16 -21 17 -37 6z"/>
 <path d="M1288 869 c-21 -12 -23 -40 -6 -57 18 -18 36 -15 49 9 15 29 -16 63 -43 48z"/>
 <path d="M1217 793 c-4 -3 -7 -16 -7 -29 0 -31 29 -39 54 -15 16 17 17 22 6 35 -13 16 -42 21 -53 9z"/>
 </g>
<g id="layer104" fill="#ebd625" stroke="none">
 <path d="M925 1264 c-68 -18 -85 -27 -85 -45 0 -18 9 -19 155 -19 146 0 155 1 155 19 0 12 -11 23 -32 31 -37 13 -162 22 -193 14z m43 -21 c-10 -2 -28 -2 -40 0 -13 2 -5 4 17 4 22 1 32 -1 23 -4z m135 -4 c55 -15 45 -29 -21 -29 -51 0 -58 2 -58 20 0 23 21 25 79 9z"/>
 <path d="M591 1219 c-25 -24 -31 -39 -31 -72 0 -74 47 -362 64 -395 27 -53 70 -74 140 -69 57 3 62 6 101 50 l41 47 89 0 89 0 41 -47 c38 -42 45 -46 96 -51 65 -5 106 12 139 58 17 24 27 69 46 198 32 226 32 247 -7 283 -58 54 -105 39 -179 -59 -24 -31 -27 -32 -59 -21 -47 17 -95 -7 -112 -55 -12 -33 -16 -36 -54 -36 -37 0 -42 3 -50 32 -6 20 -23 40 -44 52 -30 17 -37 18 -69 6 -35 -13 -37 -12 -62 21 -51 69 -77 89 -113 89 -26 0 -44 -8 -66 -31z m315 -134 c19 -29 11 -60 -22 -81 -22 -15 -26 -15 -48 0 -33 21 -41 52 -22 81 11 17 26 25 46 25 20 0 35 -8 46 -25z m270 0 c21 -32 12 -68 -21 -83 -60 -27 -104 41 -62 96 17 22 65 14 83 -13z m-191 -125 c0 -10 -12 -16 -32 -18 -32 -3 -45 13 -26 32 13 12 58 2 58 -14z m85 0 c0 -16 -7 -20 -30 -20 -23 0 -30 4 -30 20 0 16 7 20 30 20 23 0 30 -4 30 -20z m-263 -7 c25 -12 41 -29 55 -61 26 -58 17 -105 -27 -149 -27 -27 -41 -33 -74 -33 -80 0 -131 49 -131 125 0 48 24 92 63 115 39 24 68 25 114 3z m484 2 c64 -34 89 -129 50 -189 -26 -39 -57 -55 -107 -56 -53 0 -97 38 -114 99 -10 37 -9 48 10 86 32 67 99 92 161 60z m-307 -53 c2 -4 1 -14 -3 -21 -12 -18 -55 -10 -59 12 -3 13 3 17 27 17 16 0 32 -4 35 -8z m84 -9 c-2 -11 -14 -19 -31 -21 -22 -3 -27 1 -27 17 0 17 6 21 31 21 24 0 30 -4 27 -17z"/>
 <path d="M729 928 c-1 -7 -2 -22 -3 -33 -1 -13 -10 -21 -30 -25 -17 -3 -32 -13 -36 -25 -10 -27 -4 -35 30 -35 28 0 40 -15 40 -51 0 -13 7 -19 24 -19 21 0 25 6 28 33 2 26 8 33 28 35 34 5 43 16 35 41 -4 15 -15 21 -35 21 -25 0 -29 4 -32 33 -2 24 -8 33 -25 35 -14 2 -23 -2 -24 -10z"/>
 <path d="M1217 933 c-13 -12 -7 -54 8 -60 9 -3 24 2 35 12 15 14 17 20 7 36 -12 19 -38 25 -50 12z"/>
 <path d="M1156 865 c-18 -18 -21 -51 -6 -60 20 -12 50 6 50 29 0 35 -24 51 -44 31z"/>
 <path d="M1286 865 c-20 -20 -20 -39 -2 -54 19 -16 46 -3 46 24 0 34 -24 50 -44 30z"/>
 <path d="M1217 793 c-12 -11 -8 -40 7 -52 10 -9 19 -7 37 8 20 16 21 21 10 35 -14 16 -42 21 -54 9z"/>
 </g>
<g id="layer105" fill="#fad824" stroke="none">
 <path d="M925 1264 c-68 -18 -85 -27 -85 -45 0 -18 9 -19 155 -19 146 0 155 1 155 19 0 12 -11 23 -32 31 -37 13 -162 22 -193 14z m63 -21 c-16 -2 -40 -2 -55 0 -16 2 -3 4 27 4 30 0 43 -2 28 -4z m115 -4 c55 -15 45 -29 -21 -29 -51 0 -58 2 -58 20 0 23 21 25 79 9z m-206 -5 c-3 -3 -12 -4 -19 -1 -8 3 -5 6 6 6 11 1 17 -2 13 -5z m10 -20 c-3 -3 -12 -4 -19 -1 -8 3 -5 6 6 6 11 1 17 -2 13 -5z"/>
 <path d="M591 1219 c-25 -24 -31 -39 -31 -72 0 -74 47 -362 64 -395 27 -53 70 -74 140 -69 57 3 62 6 101 50 l41 47 89 0 89 0 41 -47 c38 -42 45 -46 96 -51 65 -5 106 12 139 58 17 24 27 69 46 198 32 226 32 247 -7 283 -58 54 -105 39 -179 -59 -24 -31 -27 -32 -59 -21 -47 17 -95 -7 -112 -55 -12 -33 -16 -36 -54 -36 -37 0 -42 3 -50 32 -6 20 -23 40 -44 52 -30 17 -37 18 -69 6 -35 -13 -37 -12 -62 21 -51 69 -77 89 -113 89 -26 0 -44 -8 -66 -31z m315 -134 c19 -29 11 -60 -22 -81 -22 -15 -26 -15 -48 0 -33 21 -41 52 -22 81 11 17 26 25 46 25 20 0 35 -8 46 -25z m270 0 c21 -32 12 -68 -21 -83 -60 -27 -104 41 -62 96 17 22 65 14 83 -13z m-191 -125 c0 -10 -12 -16 -32 -18 -32 -3 -45 13 -26 32 13 12 58 2 58 -14z m85 0 c0 -16 -7 -20 -30 -20 -23 0 -30 4 -30 20 0 16 7 20 30 20 23 0 30 -4 30 -20z m-263 -7 c25 -12 41 -29 55 -61 26 -58 17 -105 -27 -149 -27 -27 -41 -33 -74 -33 -80 0 -131 49 -131 125 0 48 24 92 63 115 39 24 68 25 114 3z m484 2 c64 -34 89 -129 50 -189 -26 -39 -57 -55 -107 -56 -53 0 -97 38 -114 99 -10 37 -9 48 10 86 32 67 99 92 161 60z m-307 -53 c2 -4 1 -14 -3 -21 -12 -18 -55 -10 -59 12 -3 13 3 17 27 17 16 0 32 -4 35 -8z m84 -9 c-2 -11 -14 -19 -31 -21 -22 -3 -27 1 -27 17 0 17 6 21 31 21 24 0 30 -4 27 -17z"/>
 <path d="M728 908 c-2 -27 -8 -34 -32 -38 -18 -3 -32 -13 -37 -28 -9 -24 -4 -29 41 -34 20 -2 26 -9 28 -35 3 -27 7 -33 28 -33 21 0 24 5 24 35 0 32 3 35 29 35 19 0 30 6 33 18 8 29 -2 42 -32 42 -25 0 -29 4 -32 33 -2 24 -8 33 -25 35 -18 3 -22 -2 -25 -30z"/>
 <path d="M1213 924 c-3 -9 -2 -24 4 -33 12 -19 39 -22 36 -3 -2 6 0 11 5 11 21 -4 23 3 7 21 -22 24 -43 26 -52 4z"/>
 <path d="M1157 862 c-30 -33 -17 -70 21 -58 21 7 27 50 8 65 -10 8 -17 6 -29 -7z"/>
 <path d="M1293 868 c-21 -28 -23 -37 -8 -52 20 -20 45 -10 45 19 0 30 -23 50 -37 33z"/>
 <path d="M1214 785 c-9 -23 3 -45 25 -45 21 0 33 22 25 45 -4 8 -15 15 -25 15 -11 0 -22 -7 -25 -15z"/>
 </g>
<g id="layer106" fill="#cac8b8" stroke="none">
 <path d="M925 1264 c-68 -18 -85 -27 -85 -45 0 -18 9 -19 155 -19 146 0 155 1 155 19 0 12 -11 23 -32 31 -37 13 -162 22 -193 14z m178 -25 c72 -20 38 -29 -109 -29 -112 0 -145 3 -142 13 3 6 18 15 34 18 48 11 176 10 217 -2z"/>
 <path d="M591 1219 c-25 -24 -31 -39 -31 -72 0 -74 47 -362 64 -395 27 -53 70 -74 140 -69 57 3 62 6 101 50 l41 47 89 0 89 0 41 -47 c38 -42 45 -46 96 -51 65 -5 106 12 139 58 17 24 27 69 46 198 32 226 32 247 -7 283 -58 54 -105 39 -179 -59 -24 -31 -27 -32 -59 -21 -47 17 -95 -7 -112 -55 -12 -33 -16 -36 -54 -36 -37 0 -42 3 -50 32 -6 20 -23 40 -44 52 -30 17 -37 18 -69 6 -35 -13 -37 -12 -62 21 -51 69 -77 89 -113 89 -26 0 -44 -8 -66 -31z m315 -134 c19 -29 11 -60 -22 -81 -22 -15 -26 -15 -48 0 -33 21 -41 52 -22 81 11 17 26 25 46 25 20 0 35 -8 46 -25z m270 0 c21 -32 12 -68 -21 -83 -60 -27 -104 41 -62 96 17 22 65 14 83 -13z m-191 -125 c0 -10 -12 -16 -32 -18 -32 -3 -45 13 -26 32 13 12 58 2 58 -14z m85 0 c0 -16 -7 -20 -30 -20 -23 0 -30 4 -30 20 0 16 7 20 30 20 23 0 30 -4 30 -20z m-263 -7 c25 -12 41 -29 55 -61 26 -58 17 -105 -27 -149 -27 -27 -41 -33 -74 -33 -80 0 -131 49 -131 125 0 48 24 92 63 115 39 24 68 25 114 3z m484 2 c64 -34 89 -129 50 -189 -26 -39 -57 -55 -107 -56 -53 0 -97 38 -114 99 -10 37 -9 48 10 86 32 67 99 92 161 60z m-307 -53 c2 -4 1 -14 -3 -21 -12 -18 -55 -10 -59 12 -3 13 3 17 27 17 16 0 32 -4 35 -8z m84 -9 c-2 -11 -14 -19 -31 -21 -22 -3 -27 1 -27 17 0 17 6 21 31 21 24 0 30 -4 27 -17z"/>
 </g>
<g id="layer107" fill="#d5d4cc" stroke="none">
 <path d="M918 1253 c6 -2 18 -2 25 0 6 3 1 5 -13 5 -14 0 -19 -2 -12 -5z"/>
 <path d="M1048 1253 c6 -2 18 -2 25 0 6 3 1 5 -13 5 -14 0 -19 -2 -12 -5z"/>
 <path d="M590 1218 c-32 -32 -32 -32 -26 -110 3 -42 10 -97 15 -120 5 -24 12 -69 15 -101 15 -142 63 -207 152 -207 62 0 90 14 120 60 l27 40 98 0 c97 0 98 0 118 -29 49 -68 142 -91 207 -52 49 30 70 89 93 257 32 236 28 262 -49 285 -52 16 -79 2 -126 -63 -20 -26 -37 -48 -38 -48 -2 0 -17 5 -35 11 -24 8 -39 8 -62 -1 -30 -13 -61 -58 -57 -82 2 -7 -3 -13 -9 -12 -7 1 -28 2 -46 3 -28 1 -34 6 -42 33 -6 20 -23 40 -44 52 -30 17 -37 18 -69 6 -35 -13 -37 -12 -62 21 -73 98 -123 114 -180 57z m573 -110 c46 -35 19 -128 -34 -115 -13 3 -33 12 -43 20 -17 12 -18 20 -10 48 6 20 20 39 34 46 31 16 32 16 53 1z m-266 -6 c6 -4 14 -19 18 -34 5 -21 1 -33 -19 -52 -35 -36 -63 -33 -83 8 -15 32 -15 37 1 60 16 26 57 35 83 18z m88 -147 c0 -13 -8 -21 -24 -23 -28 -4 -46 11 -37 33 9 25 61 16 61 -10z m85 5 c0 -16 -7 -20 -30 -20 -16 0 -30 2 -30 4 0 2 -3 11 -6 20 -5 13 1 16 30 16 29 0 36 -4 36 -20z m-233 -25 c61 -69 48 -177 -26 -215 -55 -27 -136 -6 -162 42 -39 72 -20 156 43 190 46 25 115 17 145 -17z m453 22 c46 -20 80 -83 71 -134 -9 -44 -35 -88 -59 -98 -53 -22 -85 -23 -122 -4 -31 16 -40 29 -55 74 -16 54 -16 56 4 99 33 67 94 91 161 63z m-215 -47 c10 -16 -15 -40 -41 -40 -32 0 -33 37 -1 43 12 2 25 5 29 6 4 0 10 -4 13 -9z m-87 -23 c3 -15 -2 -18 -30 -15 -22 2 -34 9 -36 21 -3 15 2 18 30 15 22 -2 34 -9 36 -21z"/>
 <path d="M1120 1235 c14 -7 27 -11 30 -9 6 7 -22 24 -40 23 -9 0 -5 -6 10 -14z"/>
 <path d="M943 1203 c32 -2 81 -2 110 0 29 2 3 3 -58 3 -60 0 -84 -1 -52 -3z"/>
 </g>
<g id="layer108" fill="#e0e1db" stroke="none">
 <path d="M918 1253 c6 -2 18 -2 25 0 6 3 1 5 -13 5 -14 0 -19 -2 -12 -5z"/>
 <path d="M1048 1253 c6 -2 18 -2 25 0 6 3 1 5 -13 5 -14 0 -19 -2 -12 -5z"/>
 <path d="M615 1236 c-61 -26 -65 -61 -31 -273 3 -21 9 -60 12 -87 14 -132 64 -196 151 -196 54 0 91 20 122 66 l24 34 98 0 c82 0 100 -3 111 -17 7 -10 30 -33 51 -50 31 -27 46 -33 85 -33 90 0 145 62 156 176 7 71 14 128 21 169 3 17 8 60 11 97 5 62 4 69 -19 92 -38 38 -89 44 -126 15 -16 -13 -30 -28 -31 -34 0 -5 -13 -22 -29 -38 -25 -24 -31 -26 -60 -16 -55 19 -115 -22 -116 -81 0 -8 -6 -15 -13 -14 -6 1 -27 2 -45 3 -28 1 -35 6 -47 37 -9 23 -26 41 -48 51 -31 15 -36 15 -67 0 l-33 -16 -32 45 c-61 86 -84 97 -145 70z m277 -130 c28 -20 34 -73 13 -96 -23 -26 -67 -26 -90 0 -13 14 -16 28 -11 54 10 51 51 71 88 42z m276 -2 c26 -18 29 -59 6 -92 -18 -26 -34 -27 -75 -6 -28 14 -30 19 -24 52 11 57 49 77 93 46z m-183 -149 c0 -14 -8 -21 -25 -23 -33 -3 -55 12 -47 33 10 25 72 17 72 -10z m89 9 c9 -24 0 -32 -35 -30 -25 1 -33 7 -35 24 -3 19 1 22 30 22 22 0 36 -6 40 -16z m-255 -10 c27 -20 60 -88 61 -126 0 -39 -36 -94 -73 -111 -117 -53 -232 90 -160 199 32 49 126 69 172 38z m480 -2 c34 -17 42 -27 57 -67 31 -86 -40 -187 -128 -180 -116 10 -154 150 -64 240 30 30 83 33 135 7z m-316 -49 c4 -2 7 -11 7 -19 0 -9 -11 -14 -34 -14 -37 0 -51 12 -42 36 5 13 42 12 69 -3z m92 7 c11 -18 -15 -40 -46 -40 -55 0 -29 38 33 49 4 0 10 -4 13 -9z"/>
 <path d="M948 1203 c29 -2 74 -2 100 0 26 2 2 3 -53 3 -55 0 -76 -1 -47 -3z"/>
 </g>
<g id="layer109" fill="#e7e7db" stroke="none">
 <path d="M923 1253 c4 -3 10 -3 14 0 3 4 0 7 -7 7 -7 0 -10 -3 -7 -7z"/>
 <path d="M1048 1253 c6 -2 18 -2 25 0 6 3 1 5 -13 5 -14 0 -19 -2 -12 -5z"/>
 <path d="M615 1236 c-44 -19 -58 -53 -51 -122 7 -70 12 -103 20 -141 3 -15 8 -54 11 -86 8 -80 36 -157 66 -179 14 -11 50 -22 83 -25 l57 -6 49 52 50 51 94 0 c79 0 97 -3 108 -17 7 -10 31 -33 52 -52 37 -31 43 -33 94 -28 29 3 64 13 77 21 29 19 56 70 62 116 2 19 6 46 8 60 2 14 6 43 9 65 3 22 8 58 12 80 4 22 7 71 8 109 0 60 -2 71 -23 87 -39 32 -86 35 -120 8 -16 -13 -30 -29 -30 -36 -1 -7 -7 -16 -14 -20 -8 -4 -16 -16 -20 -25 -7 -21 -39 -23 -66 -6 -15 9 -26 8 -54 -5 -34 -16 -51 -43 -52 -77 0 -8 -6 -15 -13 -14 -6 1 -27 2 -45 3 -28 1 -35 6 -47 37 -19 48 -69 73 -108 53 -15 -7 -30 -14 -33 -16 -3 -1 -21 18 -39 43 -61 86 -84 97 -145 70z m275 -126 c28 -15 37 -76 15 -100 -39 -43 -105 -13 -105 46 0 50 46 77 90 54z m278 -6 c44 -31 17 -114 -37 -114 -41 0 -64 30 -56 74 11 54 50 71 93 40z m-183 -149 c0 -15 -8 -21 -29 -23 -33 -4 -51 10 -42 33 9 25 71 16 71 -10z m89 9 c9 -24 0 -32 -35 -30 -25 1 -33 7 -35 24 -3 19 1 22 30 22 22 0 36 -6 40 -16z m-255 -10 c27 -19 60 -88 61 -125 0 -36 -26 -84 -56 -104 -114 -75 -254 74 -179 189 34 51 128 72 174 40z m480 -2 c47 -23 70 -67 66 -126 -7 -96 -119 -153 -199 -101 -38 25 -54 65 -50 126 3 45 9 58 39 86 41 38 88 43 144 15z m-316 -49 c4 -2 7 -11 7 -19 0 -9 -11 -14 -34 -14 -37 0 -51 12 -42 36 5 13 42 12 69 -3z m92 7 c11 -18 -15 -40 -46 -40 -55 0 -29 38 33 49 4 0 10 -4 13 -9z"/>
 <path d="M963 1203 c4 -3 10 -3 14 0 3 4 0 7 -7 7 -7 0 -10 -3 -7 -7z"/>
 <path d="M1043 1203 c9 -2 25 -2 35 0 9 3 1 5 -18 5 -19 0 -27 -2 -17 -5z"/>
 </g>
<g id="layer110" fill="#fdfdfc" stroke="none">
 <path d="M621 1236 c-56 -16 -69 -72 -46 -206 11 -63 24 -154 23 -159 -3 -12 16 -87 29 -118 37 -90 172 -95 238 -9 l27 36 100 0 99 0 36 -40 c42 -47 85 -63 142 -54 40 6 91 37 91 54 0 5 5 21 11 37 7 15 13 39 15 53 2 14 6 39 8 55 3 17 7 48 10 70 3 22 8 54 10 70 12 73 15 134 7 161 -9 35 -63 65 -101 57 -32 -8 -69 -34 -70 -50 0 -7 -6 -16 -13 -20 -8 -4 -16 -16 -20 -25 -7 -21 -39 -23 -66 -6 -38 24 -122 -43 -105 -85 3 -10 -9 -13 -51 -13 -30 1 -54 5 -54 11 3 25 -27 73 -53 84 -25 11 -34 11 -56 0 -15 -7 -30 -14 -33 -16 -3 -1 -27 24 -52 56 -48 63 -71 73 -126 57z m269 -126 c28 -15 37 -76 15 -100 -26 -29 -69 -26 -94 7 -24 30 -20 58 11 86 23 19 41 21 68 7z m271 -1 c34 -18 42 -56 18 -90 -39 -55 -109 -29 -107 39 2 50 45 75 89 51z m-173 -157 c3 -21 0 -23 -35 -20 -31 2 -39 7 -41 26 -3 21 0 23 35 20 31 -2 39 -7 41 -26z m90 6 c-2 -19 -9 -23 -37 -23 -28 0 -35 4 -37 23 -4 20 0 22 37 22 36 0 40 -2 37 -22z m-244 -18 c66 -58 57 -175 -17 -220 -34 -21 -100 -21 -133 0 -54 34 -78 123 -49 179 39 77 135 97 199 41z m479 10 c38 -30 55 -72 52 -124 -5 -74 -45 -114 -118 -121 -30 -3 -52 1 -74 14 -31 19 -67 76 -58 92 3 4 1 10 -5 14 -6 4 -8 11 -4 16 3 6 7 21 9 35 1 14 19 41 39 60 31 29 43 34 85 34 33 0 56 -6 74 -20z m-323 -57 c0 -20 -5 -23 -40 -23 -32 0 -40 4 -40 18 0 25 4 28 45 28 30 0 35 -3 35 -23z m88 -1 c3 -20 -1 -22 -36 -22 -35 0 -39 3 -39 23 0 21 4 24 36 22 29 -1 37 -5 39 -23z"/>
 </g>

</svg>