<svg id="Layer_1" data-name="Layer 1" xmlns="http://www.w3.org/2000/svg" viewBox="0 0 94.64 81"><defs><style>.cls-1{fill:#2b1514;}.cls-2{fill:#5f2e21;}.cls-3{fill:#434140;}.cls-4{fill:#4f4f51;}.cls-5{fill:#8e382c;}.cls-6{fill:#a63224;}.cls-7{fill:#a24731;}.cls-8{fill:#616061;}.cls-9{fill:#db3927;}.cls-10{fill:#dd4d19;}.cls-11{fill:#d4492c;}.cls-12{fill:#6f7071;}.cls-13{fill:#946462;}.cls-14{fill:#ee4924;}.cls-15{fill:#d35548;}.cls-16{fill:#818182;}.cls-17{fill:#8f9091;}.cls-18{fill:#a3a0a0;}.cls-19{fill:#b0b1b2;}.cls-20{fill:#bebdbe;}.cls-21{fill:#baccc9;}.cls-22{fill:#d4d6d8;}.cls-23{fill:#dcdde1;}.cls-24{fill:#dce7e7;}.cls-25{fill:#f1f2f3;}</style></defs><title>incognito</title><ellipse cx="47.32" cy="40.53" rx="47.32" ry="40.42"/><g id="layer102"><path class="cls-1" d="M86.5,142.1c-4.6-1.2-13.7-5.2-17-7.5a49.05,49.05,0,0,1-14.7-17.5c-2.8-6.1-3-7-2.6-16.5s.5-10.4,4-16.1c5.1-8.4,10-12.7,19.8-17.7l8.5-4.3h14c14.7,0,14.2-.1,26.5,5.8,6.1,3,14.1,11.2,16.8,17.2,1.3,2.8,2.9,6.3,3.7,7.8,1.2,2.2,1.2,3.2.2,4.7-.6,1.1-1.5,2-1.9,2-1.1,0-3-3.9-2.3-5,1.1-1.8-4.5-11.7-9.9-17.1a47.6,47.6,0,0,0-9.4-7.7c-13.2-6.9-33-6.9-46.3,0C70.4,73,59.7,83.7,60.4,85.6c.3.7,0,1.3-.6,1.1-1.9-.4-3.6,7.3-3.7,16.4-.1,7.2.3,9.3,2.5,13.6,2.3,4.8,9.3,13.3,10.8,13.3a11.08,11.08,0,0,1,3.3,2.4c8.7,8.1,33.9,9.9,46.7,3.4,4.7-2.4,11.7-7.6,13-9.6a15,15,0,0,1,2.8-3.1c2.6-2.2,5.5-8.6,6.3-14.3a30.78,30.78,0,0,0,.5-5.4c-.2-.8,2.1-2.4,3.6-2.4s.9,7.4-1,12.6c-2.7,7.7-7.3,13.7-15.3,20.1-8.3,6.5-14.7,8.5-28.3,8.9C94.7,142.8,88.2,142.6,86.5,142.1Z" transform="translate(-51.8 -62)"/><path class="cls-1" d="M77.6,126.6c-2-1.8-3.6-4.2-3.6-5.2,0-1.4.3-1.5,1.2-.6,1.4,1.4,6.4,1.6,7.3.2.3-.5,2.6-1.8,5.1-2.9,4.4-2,8.3-1.7,9.8.7.4.6,2.2.2,4.6-.9,3.5-1.7,4.3-1.8,7.2-.6a16.58,16.58,0,0,1,4.7,3c1.6,2,7.7,2.3,8.4.5.3-.9.8-1,1.6-.2s.2,2.1-2.3,5c-3.3,3.8-3.5,3.9-10.9,4.1-6.3.2-7.8-.1-9.3-1.8-2.2-2.4-3-2.4-6.1.1-1.9,1.5-4.1,2-8.4,2C81.7,130,80.8,129.7,77.6,126.6Z" transform="translate(-51.8 -62)"/><path class="cls-1" d="M126.7,126.7a64.59,64.59,0,0,1-.3-9.5c.1-5.7-.3-8.2-1.1-8.2-.6,0-1.5.9-1.8,2-.7,2.3-5.3,5-8.5,5a9.42,9.42,0,0,1-9.3-10.1c.1-1.3-1.6-1.7-10.5-2.2-12.1-.7-16.4-1.7-24-5.5-5.5-2.7-10.6-7.6-9.9-9.6.2-.7,2.9-1.1,6.9-1,6,0,6.5-.1,6-1.9s-.2-1.9,2.4-1.3c9.9,2.4,14.1,2.8,24.9,2.3,6.6-.2,13.1-.9,14.5-1.6l2.5-1.2-2.5.7c-1.4.3-8.1.8-15,1.1-9.7.4-14,.1-19-1.1a48.5,48.5,0,0,1-6.8-2.1c-1.1-1.1,2.3-6.7,5.6-9.2,6.2-4.7,8.4-5.5,16.3-6,6.4-.5,8.2-.2,12,1.7,5.2,2.6,9.5,6.5,11.5,10.2,1.3,2.4,1.2,2.8-.4,3.7s-1.4,1,.7,1.1c1.8,0,2.2.4,1.8,1.9-.4,1.7.1,1.8,5.9,1.3,5.4-.4,6.5-.2,7,1.2.9,2.3-4.5,7.8-10.5,10.7l-4.7,2.2,2.3,2.3c1.3,1.3,3.3,2.3,4.6,2.1,2.1-.2,2.2.1,2.5,11.1.2,9.2,0,11.2-1.2,11.2A2.35,2.35,0,0,1,126.7,126.7ZM121,108.5c0-2.7-3.2-6.5-5.4-6.5-1.8,0-4.6,3.8-4.6,6.2a6.74,6.74,0,0,0,2,3.8c1.9,1.9,2.2,1.9,5,.5C120.1,111.4,121,110.2,121,108.5Z" transform="translate(-51.8 -62)"/></g><g id="layer103"><path class="cls-2" d="M84.5,141.2c-13.9-4.1-25.8-14.3-30.4-26-3.3-8.6-2.8-20.2,1.3-28.7S67.9,70.4,77.7,66c7.1-3.1,8.8-3.5,19.1-3.8,9.7-.4,12.3-.1,17.9,1.8,8.7,2.9,12.8,5.4,19.2,11.4a40.8,40.8,0,0,1,8.7,12.3c3.8,8,4,9.5,2,11.2-1.2,1-1.7.8-2.6-.9a3.94,3.94,0,0,1-.5-3c1.1-1.8-4.2-11.8-8.9-16.8-13.2-14.1-38.5-17.6-57.3-7.8-5.7,2.9-14.1,11.5-17,17.4-2.4,4.9-2.7,6.9-2.7,14.7,0,11.1,2.2,16.4,10.4,24.6,16.9,17,46.5,17.5,65.2,1,5.4-4.8,10.8-14.7,10.8-19.8,0-3.8,1.5-7.3,3.2-7.3.7,0,.9,1.9.6,5.8-1.3,14.1-13.9,28.4-29.8,33.7C108,143.1,92.2,143.5,84.5,141.2Z" transform="translate(-51.8 -62)"/><path class="cls-2" d="M79.3,128c-3.2-1.9-5.9-5.7-4.9-6.8.4-.3,1.2,0,1.8.6,1.9,1.9,3.9,1.4,8.7-1.8s8.5-3.8,11.9-1.4c2,1.4,2.4,1.4,4.4,0,3.4-2.4,6.9-1.9,12,1.4,3.9,2.6,5,2.9,7.3,2,3.5-1.3,4.1-.7,2.2,2.1-4.2,6-12.2,7.5-20,3.9l-4.3-2-3.9,2C89.5,130.5,83.4,130.6,79.3,128Z" transform="translate(-51.8 -62)"/><path class="cls-2" d="M127,118c0-5.5-.4-10-.9-10s-1.9,1.4-3.1,3.1c-2.9,4-6.3,5.3-10.7,3.8s-6.7-4.9-5.8-8.9l.7-3.2-4.5.7c-6.6,1-22.3-1.3-28.8-4.2-6.7-2.9-12.5-8.4-11.5-10.8.5-1.4,1.4-1.6,5.4-1a20.24,20.24,0,0,1,6,1.7c.9.8,1.2.3,1.2-2.2,0-2.7.3-3.1,1.8-2.5C80.9,86.1,92,88,97.7,88s18.7-2,22.6-3.5c1.3-.6,1.7-.2,1.7,1.5,0,2.2.2,2.2,6.5,1.5,5.5-.6,6.6-.4,7.1,1,.9,2.4-5,8.1-10.5,10.2-2.5.9-4.8,1.8-5,1.9-.9.7,4.7,5.3,6.9,5.6,2.5.3,2.5.4,2.8,11.1.2,9.1,0,10.7-1.3,10.7S127,126.3,127,118Zm-6.2-6.7c1.8-2.4,1.5-5-.8-7.3-5.3-5.3-11.6,1.3-7.9,8.2.9,1.6,1.7,1.9,4.2,1.4A8.33,8.33,0,0,0,120.8,111.3Z" transform="translate(-51.8 -62)"/><path class="cls-2" d="M87.5,85.5c-.5-.1-3.6-.8-6.8-1.6-5.1-1.1-5.7-1.5-5.1-3.3C77.5,74.1,89.2,67,98,67c9.8,0,20.9,6.4,22.5,13.2.6,2.5.5,2.6-6.4,4.2C108.1,85.8,90.7,86.5,87.5,85.5Z" transform="translate(-51.8 -62)"/></g><g id="layer104"><path class="cls-3" d="M84.5,141.2c-13.9-4.1-25.8-14.3-30.4-26-3.3-8.6-2.8-20.2,1.3-28.7S67.9,70.4,77.7,66c7.1-3.1,8.8-3.5,19.1-3.8,9.7-.4,12.3-.1,17.9,1.8,8.7,2.9,12.8,5.4,19.2,11.4a40.8,40.8,0,0,1,8.7,12.3c3.8,8,4,9.5,2,11.2-1.2,1-1.7.8-2.6-.9a3.94,3.94,0,0,1-.5-3c1.1-1.8-4.2-11.8-8.9-16.8-13.2-14.1-38.5-17.6-57.3-7.8-5.7,2.9-14.1,11.5-17,17.4-2.4,4.9-2.7,6.9-2.7,14.7,0,11.1,2.2,16.4,10.4,24.6,16.9,17,46.5,17.5,65.2,1,5.4-4.8,10.8-14.7,10.8-19.8,0-3.8,1.5-7.3,3.2-7.3.7,0,.9,1.9.6,5.8-1.3,14.1-13.9,28.4-29.8,33.7C108,143.1,92.2,143.5,84.5,141.2Z" transform="translate(-51.8 -62)"/><path class="cls-3" d="M79.3,128c-3.2-1.9-5.9-5.7-4.9-6.8.4-.3,1.2,0,1.8.6,1.9,1.9,3.9,1.4,8.7-1.8s8.5-3.8,11.9-1.4c2,1.4,2.4,1.4,4.4,0,3.4-2.4,6.9-1.9,12,1.4,3.9,2.6,5,2.9,7.3,2,3.5-1.3,4.1-.7,2.2,2.1-4.2,6-12.2,7.5-20,3.9l-4.3-2-3.9,2C89.5,130.5,83.4,130.6,79.3,128Z" transform="translate(-51.8 -62)"/><path class="cls-3" d="M127.7,127.3c-.4-.3-.7-4.8-.7-10,0-5.9-.4-9.3-1.1-9.3s-2.5,1.6-4.3,3.5c-4.9,5.2-11.3,4.7-14.4-1.1-1.5-2.9-.5-6.3,1.9-6.1,1.4.1,1.7.6,1.3,2a9.57,9.57,0,0,0,.6,4.8c.9,2.2,1.9,2.9,3.9,2.9,6.4,0,9.8-7.2,4.8-10.4-1.9-1.3-3.8-1.4-12.2-.5-18.3,1.9-35-1.9-42.5-9.6-4.6-4.8-3.6-7,2.8-6a20.24,20.24,0,0,1,6,1.7c.9.8,1.2.3,1.2-2v-3l4.8,1.5c7.6,2.3,24.4,2.8,33.2.9,9.2-2,9-2,9,0,0,1.4.9,1.5,6.5.9,8.2-.8,9.5.9,4.5,6-3.1,3.2-4.5,4-11.2,6.4l-2.7,1,2.6,3c1.8,2,3.3,2.8,4.8,2.5,2.1-.4,2.4.1,2.9,4.3.6,4.8.2,16-.6,16.9A.85.85,0,0,1,127.7,127.3Zm-18.6-19c-.4-2.8-.6-3.2-.9-1.5-.3,2.2.3,5.2,1.1,5.2A13.16,13.16,0,0,0,109.1,108.3Z" transform="translate(-51.8 -62)"/><path class="cls-3" d="M87.5,85.5c-.5-.1-3.6-.8-6.8-1.6-5.1-1.1-5.7-1.5-5.1-3.3C77.5,74.1,89.2,67,98,67c9.8,0,20.9,6.4,22.5,13.2.6,2.5.5,2.6-6.4,4.2C108.1,85.8,90.7,86.5,87.5,85.5Z" transform="translate(-51.8 -62)"/></g><g id="layer105"><path class="cls-4" d="M84.9,141.2C58.9,134.4,45,108.6,55.7,87c8-16.1,23.8-25,44.5-25,13.8,0,23.7,4.1,34.4,14.2,6.5,6.1,12.5,18.5,10.5,21.7-1.3,2.1-4.4-.5-3.6-3,1-3-4.2-12.3-9.8-17.7-14.6-13.7-35.4-16.7-54.4-7.7a38.9,38.9,0,0,0-19,18.3c-2.4,5-2.8,6.9-2.8,14.7s.4,9.7,2.8,14.7c3.8,7.8,12.6,15.7,21.3,19.3,8.9,3.7,24,4.6,32.8,2.1,16.2-4.7,26.9-15.7,30-30.8.7-3.4,1.8-6.4,2.4-6.6,1.8-.6,1.5,4.8-.8,11.9C137,135.2,110.4,147.8,84.9,141.2Z" transform="translate(-51.8 -62)"/><path class="cls-4" d="M80,128.2a11.47,11.47,0,0,1-4.7-4.2c-1.4-2.8-.9-4,.9-2.2s3.9,1.4,8.7-1.8c4.9-3.4,8-3.7,11.6-1.4,2.2,1.4,2.6,1.4,4.7,0,3.4-2.4,7-1.9,11.6,1.4,4.2,3,7.6,3.8,8.7,2,1.3-2.1,2.4-.9,1.3,1.5-2.8,6.2-12.7,8.4-19.8,4.4l-3.8-2.2-4.4,2.2C89.4,130.5,84.7,130.6,80,128.2Z" transform="translate(-51.8 -62)"/><path class="cls-4" d="M127.7,127.3c-.4-.3-.7-4.8-.7-10,0-5.9-.4-9.3-1.1-9.3s-2.5,1.6-4.3,3.5c-4.9,5.2-11.3,4.7-14.4-1.1-1.5-2.9-.5-6.3,1.9-6.1,1.4.1,1.7.6,1.3,2a9.57,9.57,0,0,0,.6,4.8c.9,2.2,1.9,2.9,3.9,2.9,6.4,0,9.8-7.2,4.8-10.4-1.9-1.3-3.8-1.4-12.2-.5-18.2,1.9-35.6-2.2-42.9-9.9-3-3.2-3-7,0-5.8a20.2,20.2,0,0,0,5.1.6c2.7,0,3.4.3,2.9,1.5-.3.9,0,1.5.9,1.5S75,90,75,88c0-3.4.2-3.5,8.5-1.5,7.7,1.9,21.1,1.9,30,0,8.7-1.9,8.5-1.9,8.5.3,0,1.6.8,1.7,7,1.4,5.8-.4,7-.2,7,1.1,0,2.8-11.4,10.7-15.5,10.7-2.1,0-1.9.4,1.3,3.8,1.7,1.9,3.4,2.8,4.9,2.6,1.9-.3,2.2.2,2.7,4.4.6,4.7.2,15.9-.6,16.8A.85.85,0,0,1,127.7,127.3Zm-18.6-19c-.4-2.8-.6-3.2-.9-1.5-.3,2.2.3,5.2,1.1,5.2A13.16,13.16,0,0,0,109.1,108.3Z" transform="translate(-51.8 -62)"/><path class="cls-4" d="M82.3,84.4c-7.8-1.9-8.1-3.6-1.9-9.9,8.2-8.2,20.7-9.6,31.3-3.5,5.1,2.9,10.3,9.5,8.7,10.9C116.4,85.5,92.9,87,82.3,84.4Z" transform="translate(-51.8 -62)"/></g><g id="layer106"><path class="cls-5" d="M86.3,141.6c-14.7-3.7-27.9-14.8-32.2-27C44.9,88.4,67.4,62,99,62c19.7,0,37.9,11.2,44.3,27.3,2.5,6.2,2.7,9.7.6,9.7-1.2,0-2.7-3.3-2.2-4.7.2-.6-.7-3.6-2.1-6.6-7.9-16.6-29.9-26.5-49.7-22.4C75.1,68.3,65,75.4,58.5,87.1c-2.7,4.9-3,6.2-3,14.9,0,8.4.3,10.2,2.8,15.2a40.75,40.75,0,0,0,20.6,19c6.6,2.8,9,3.3,17.8,3.6,15.4.6,25.2-2.8,34.8-11.9A33.87,33.87,0,0,0,142.3,108c.6-3.3,1.7-6.2,2.4-6.4,1.9-.8,1.6,4.1-.6,11.3-3.8,12.4-14.4,22.5-28.6,27.5C108.9,142.7,93.1,143.4,86.3,141.6Z" transform="translate(-51.8 -62)"/><path class="cls-5" d="M80.6,128.5c-5.2-2.8-7.4-7-3.1-5.9,1.8.4,3.7-.2,7.2-2.5,5.2-3.5,8.7-3.9,11.5-1.4,1.8,1.6,2.1,1.6,4.9-.1,3.8-2.2,7.9-1.6,12.5,1.9,3.6,2.7,6.3,3.2,8.2,1.3,2.4-2.4,2.2.1-.3,3.1-4.8,5.6-14.1,6.5-19.9,2l-2.6-2-3.1,2.2C91.9,130,84.5,130.6,80.6,128.5Z" transform="translate(-51.8 -62)"/><path class="cls-5" d="M127.7,127.3c-.4-.3-.7-4.8-.7-10,0-5.9-.4-9.3-1.1-9.3s-2.5,1.6-4.3,3.5c-4.9,5.2-11.3,4.7-14.4-1.1-1.5-2.9-.5-6.3,1.9-6.1,1.4.1,1.7.6,1.3,2a9.57,9.57,0,0,0,.6,4.8c.9,2.2,1.9,2.9,3.9,2.9,6.5,0,9.8-7.2,4.8-10.5-2-1.3-3.9-1.4-12-.5-12.9,1.3-28.2-.6-35.9-4.6-4-2.1-9.8-7.4-9.8-9,0-1,1.5-1.4,5.6-1.4,4.6,0,5.5.3,5,1.5-.3.9,0,1.5.9,1.5S75,90,75,88c0-3.4.2-3.5,8.5-1.5,7.7,1.9,21.1,1.9,30,0,8.7-1.9,8.5-1.9,8.5.4,0,1.7.7,1.8,7,1.3,3.9-.2,7-.1,7,.4,0,3.2-11,11.4-15.2,11.4-2.4,0-2.3.4,1,3.8,1.7,1.9,3.4,2.8,4.9,2.6,1.9-.3,2.2.2,2.7,4.4.6,4.7.2,15.9-.6,16.8A.85.85,0,0,1,127.7,127.3Zm-18.6-19c-.4-2.8-.6-3.2-.9-1.5-.3,2.2.3,5.2,1.1,5.2A13.16,13.16,0,0,0,109.1,108.3Z" transform="translate(-51.8 -62)"/><path class="cls-5" d="M88.5,85.5c-.5-.1-3.6-.8-6.7-1.5-7.3-1.4-7.5-3.3-1.5-9.3,7.5-7.5,19.9-9.3,30.2-4.2,5.7,2.7,11.6,9.8,9.8,11.6C117.8,84.6,93.8,87.2,88.5,85.5Z" transform="translate(-51.8 -62)"/></g><g id="layer107"><path class="cls-6" d="M86.3,141.6c-14.7-3.7-27.9-14.8-32.2-27C44.9,88.4,67.4,62,99,62c19.7,0,37.9,11.2,44.3,27.3,2.5,6.2,2.7,9.7.6,9.7-1.2,0-2.7-3.3-2.2-4.7.2-.6-.7-3.6-2.1-6.6-7.9-16.6-29.9-26.5-49.7-22.4C75.1,68.3,65,75.4,58.5,87.1c-2.7,4.9-3,6.2-3,14.9,0,8.4.3,10.2,2.8,15.2a40.75,40.75,0,0,0,20.6,19c6.6,2.8,9,3.3,17.8,3.6,15.4.6,25.2-2.8,34.8-11.9A33.87,33.87,0,0,0,142.3,108c.6-3.3,1.7-6.2,2.4-6.4,1.9-.8,1.6,4.1-.6,11.3-3.8,12.4-14.4,22.5-28.6,27.5C108.9,142.7,93.1,143.4,86.3,141.6Z" transform="translate(-51.8 -62)"/><path class="cls-6" d="M80.6,128.5c-5.2-2.8-7.4-7-3.1-5.9,1.8.4,3.7-.2,7.2-2.5,5.2-3.5,8.7-3.9,11.5-1.4,1.8,1.6,2.1,1.6,4.9-.1,3.8-2.2,7.9-1.6,12.5,1.9,3.6,2.7,6.3,3.2,8.2,1.3,2.4-2.4,2.2.1-.3,3.1-4.8,5.6-14.1,6.5-19.9,2l-2.6-2-3.1,2.2C91.9,130,84.5,130.6,80.6,128.5Z" transform="translate(-51.8 -62)"/><path class="cls-6" d="M128.1,127.8c-.7-1.7-.9-3.1-1-11.3-.1-9.6-.8-10.3-5.4-5.2-2.2,2.5-2.4,2.6-.8.4,2.1-2.9,1.9-4.9-.7-7.9-.8-1-1-1.8-.5-1.8s1.8,1.2,2.8,2.6c1.2,1.8,2.3,2.4,3.6,2.1a2.1,2.1,0,0,1,2.5.7C129.1,108.8,128.6,128.9,128.1,127.8Z" transform="translate(-51.8 -62)"/><path class="cls-6" d="M113.3,114.3a10.28,10.28,0,0,1,3.5,0c.9.3.1.5-1.8.5S112.3,114.6,113.3,114.3Z" transform="translate(-51.8 -62)"/><path class="cls-6" d="M108,111.6a3.47,3.47,0,0,1-1-2c0-.5.7-.1,1.6,1,1.4,1.7,1.5,1.7,1,.1a16.76,16.76,0,0,1-.6-4c0-1.8-.2-1.9-1.1-.7s-1,1.2-.7.1a2.85,2.85,0,0,1,2.1-1.7c1.3-.2,1.6.3,1.1,2.1a6.59,6.59,0,0,0,.5,4.2c.8,1.5.7,2-.4,2A4.07,4.07,0,0,1,108,111.6Z" transform="translate(-51.8 -62)"/><path class="cls-6" d="M92.5,103.3c-13.6-1.6-21-4.1-26.8-9.3-5.3-4.6-4.9-6,1.9-6,4.6,0,5.5.3,5,1.5-.4,1,.1,1.5,1.6,1.5,1.7,0,2-.4,1.5-3a9,9,0,0,1-.4-3c.1,0,3.4.7,7.2,1.5,8.9,1.9,23.3,1.9,31,0,3.3-.8,6.6-1.4,7.3-1.5,1.5,0,1.6,3.2,0,4.8-.8.8-.9,1.2-.1,1.2a1.69,1.69,0,0,0,1.5-1.2c.5-1.5,13.8-2.5,13.8-1.1,0,2.3-4.3,6.2-9.7,8.8-3.2,1.6-6.6,3.2-7.5,3.7-1.8.8-18.9,2.9-21.8,2.6C96.2,103.8,94.2,103.5,92.5,103.3Zm1.2-9a1.2,1.2,0,0,0-1.4,0c-.3.4,0,.7.7.7S94,94.7,93.7,94.3Zm12,0a1.2,1.2,0,0,0-1.4,0c-.3.4,0,.7.7.7S106,94.7,105.7,94.3Zm6-1a1.2,1.2,0,0,0-1.4,0c-.3.4,0,.7.7.7S112,93.7,111.7,93.3Z" transform="translate(-51.8 -62)"/><path class="cls-6" d="M88.5,85.5c-.5-.1-3.6-.8-6.7-1.5-7.3-1.4-7.5-3.3-1.5-9.3,7.5-7.5,19.9-9.3,30.2-4.2,5.7,2.7,11.6,9.8,9.8,11.6C117.8,84.6,93.8,87.2,88.5,85.5Z" transform="translate(-51.8 -62)"/></g><g id="layer108"><path class="cls-7" d="M86.3,141.6c-14.7-3.7-27.9-14.8-32.2-27C44.9,88.4,67.4,62,99,62c19.7,0,37.9,11.2,44.3,27.3,2.5,6.2,2.7,9.7.6,9.7-1.2,0-2.7-3.3-2.2-4.7.2-.6-.7-3.6-2.1-6.6-7.9-16.6-29.9-26.5-49.7-22.4C75.1,68.3,65,75.4,58.5,87.1c-2.7,4.9-3,6.2-3,14.9,0,8.4.3,10.2,2.8,15.2a40.75,40.75,0,0,0,20.6,19c6.6,2.8,9,3.3,17.8,3.6,15.4.6,25.2-2.8,34.8-11.9A33.87,33.87,0,0,0,142.3,108c.6-3.3,1.7-6.2,2.4-6.4,1.9-.8,1.6,4.1-.6,11.3-3.8,12.4-14.4,22.5-28.6,27.5C108.9,142.7,93.1,143.4,86.3,141.6Z" transform="translate(-51.8 -62)"/><path class="cls-7" d="M80.6,128.5c-5.2-2.8-7.4-7-3.1-5.9,1.8.4,3.7-.2,7.2-2.5,5.2-3.5,8.7-3.9,11.5-1.4,1.8,1.6,2.1,1.6,4.9-.1,3.8-2.2,7.9-1.6,12.5,1.9,3.6,2.7,6.3,3.2,8.2,1.3,2.4-2.4,2.2.1-.3,3.1-4.8,5.6-14.1,6.5-19.9,2l-2.6-2-3.1,2.2C91.9,130,84.5,130.6,80.6,128.5Z" transform="translate(-51.8 -62)"/><path class="cls-7" d="M127.2,117.9c0-5-.4-9.4-.7-9.7s-1.5,0-2.7.7-1.8.9-1.3.1-.2-2.5-1.4-4.1-1.7-2.9-1.2-2.9,1.6,1.1,2.5,2.5a5,5,0,0,0,4.1,2.5c2.5,0,2.5,0,2.5,10,0,5.5-.4,10-.8,10S127.3,122.9,127.2,117.9Z" transform="translate(-51.8 -62)"/><path class="cls-7" d="M116.3,114.3a1.2,1.2,0,0,1,1.4,0c.3.4,0,.7-.7.7S116,114.7,116.3,114.3Z" transform="translate(-51.8 -62)"/><path class="cls-7" d="M120.5,112c.3-.5.8-1,1.1-1s.2.5-.1,1-.8,1-1.1,1S120.2,112.6,120.5,112Z" transform="translate(-51.8 -62)"/><path class="cls-7" d="M109.2,108c0-1.4.2-1.9.5-1.2a5.28,5.28,0,0,1,0,2.5C109.4,109.9,109.2,109.4,109.2,108Z" transform="translate(-51.8 -62)"/><path class="cls-7" d="M107.5,105c.3-.5.8-1,1.1-1s.2.5-.1,1-.8,1-1.1,1S107.2,105.6,107.5,105Z" transform="translate(-51.8 -62)"/><path class="cls-7" d="M92.5,103.3c-13.6-1.6-21-4.1-26.8-9.3-5.3-4.6-4.9-6,1.9-6,4.6,0,5.5.3,5,1.5-.4,1,.1,1.5,1.6,1.5,1.7,0,2-.4,1.5-3a9,9,0,0,1-.4-3c.1,0,3.4.7,7.2,1.5a88.31,88.31,0,0,0,31.6,0c4-.9,7.4-1.3,7.7-1s0,1.6-.6,3-.8,2.5-.3,2.5a1.57,1.57,0,0,0,1.3-1.2c.5-1.5,13.8-2.5,13.8-1.1,0,2.3-4.3,6.2-9.7,8.8-3.2,1.6-6.6,3.2-7.5,3.7-1.8.8-18.9,2.9-21.8,2.6C96.2,103.8,94.2,103.5,92.5,103.3Zm10.3-9a47,47,0,0,0-7.5,0c-2.1.2-.4.4,3.7.4S104.8,94.5,102.8,94.3Zm-13.5-1a5.28,5.28,0,0,0-2.5,0c-.7.3-.2.5,1.2.5S89.9,93.6,89.3,93.3Zm22.4.1a2,2,0,0,0-1.9-.1c-.8.3-.5.6.6.6S112.1,93.7,111.7,93.4Zm-28-1a2,2,0,0,0-1.9-.1c-.8.3-.5.6.6.6S84.1,92.7,83.7,92.4Zm32-.1a1.2,1.2,0,0,0-1.4,0c-.3.4,0,.7.7.7S116,92.7,115.7,92.3Zm-36-.9a2,2,0,0,0-1.9-.1c-.8.3-.5.6.6.6S80.1,91.7,79.7,91.4Z" transform="translate(-51.8 -62)"/><path class="cls-7" d="M88.5,85.5c-.5-.1-3.6-.8-6.7-1.5-7.3-1.4-7.5-3.3-1.5-9.3,7.5-7.5,19.9-9.3,30.2-4.2,5.7,2.7,11.6,9.8,9.8,11.6C117.8,84.6,93.8,87.2,88.5,85.5Z" transform="translate(-51.8 -62)"/></g><g id="layer109"><path class="cls-8" d="M86.3,141.6c-14.7-3.7-27.9-14.8-32.2-27C44.9,88.4,67.4,62,99,62c19.7,0,37.9,11.2,44.3,27.3,2.5,6.2,2.7,9.7.6,9.7-1.2,0-2.7-3.3-2.2-4.7.2-.6-.7-3.6-2.1-6.6-7.9-16.6-29.9-26.5-49.7-22.4C75.1,68.3,65,75.4,58.5,87.1c-2.7,4.9-3,6.2-3,14.9,0,8.4.3,10.2,2.8,15.2a40.75,40.75,0,0,0,20.6,19c6.6,2.8,9,3.3,17.8,3.6,15.4.6,25.2-2.8,34.8-11.9A33.87,33.87,0,0,0,142.3,108c.6-3.3,1.7-6.2,2.4-6.4,1.9-.8,1.6,4.1-.6,11.3-3.8,12.4-14.4,22.5-28.6,27.5C108.9,142.7,93.1,143.4,86.3,141.6Z" transform="translate(-51.8 -62)"/><path class="cls-8" d="M80.6,128.5c-5.2-2.8-7.4-7-3.1-5.9,1.8.4,3.7-.2,7.2-2.5,5.2-3.5,8.7-3.9,11.5-1.4,1.8,1.6,2.1,1.6,4.9-.1,3.8-2.2,7.9-1.6,12.5,1.9,3.6,2.7,6.3,3.2,8.2,1.3,2.4-2.4,2.2.1-.3,3.1-4.8,5.6-14.1,6.5-19.9,2l-2.6-2-3.1,2.2C91.9,130,84.5,130.6,80.6,128.5Z" transform="translate(-51.8 -62)"/><path class="cls-8" d="M127.9,118.8c-.1-4.6-.1-8.9,0-9.5s-.9-1.3-2.2-1.3c-1.5,0-3.1-1.1-4.6-3.2l-2.2-3.3,2.5,2.8a8,8,0,0,0,5.1,2.7H129v10c0,5.5-.2,10-.5,10S127.9,123.3,127.9,118.8Z" transform="translate(-51.8 -62)"/><path class="cls-8" d="M109.2,108c0-1.4.2-1.9.5-1.2a5.28,5.28,0,0,1,0,2.5C109.4,109.9,109.2,109.4,109.2,108Z" transform="translate(-51.8 -62)"/><path class="cls-8" d="M107.5,105c.3-.5.8-1,1.1-1s.2.5-.1,1-.8,1-1.1,1S107.2,105.6,107.5,105Z" transform="translate(-51.8 -62)"/><path class="cls-8" d="M92.5,103.3c-13.6-1.6-21-4.1-26.8-9.3-5.3-4.6-4.9-6,1.9-6,4.6,0,5.5.3,5,1.5-.4,1,.1,1.5,1.4,1.5,1.6,0,2-.7,2-3.1,0-2.6.3-3,1.8-2.4,8.8,3.4,30,3.4,41.5-.1,1.3-.4,1.7,0,1.7,2a4.4,4.4,0,0,1-1.7,3.5c-1,.6-1.3,1.1-.6,1.1a6.47,6.47,0,0,0,2.9-1.7c1.9-1.9,14.4-3.3,14.4-1.6,0,2.3-4.3,6.2-9.7,8.8-3.2,1.6-6.6,3.2-7.5,3.7-1.8.8-18.9,2.9-21.8,2.6C96.2,103.8,94.2,103.5,92.5,103.3Zm10.3-9a53.39,53.39,0,0,0-8,0c-2.4.2-.7.4,3.7.4S104.8,94.5,102.8,94.3Zm-13.5-1a7.56,7.56,0,0,0-3,0c-1,.3-.4.5,1.2.5S89.9,93.6,89.3,93.3Zm22,0a5.28,5.28,0,0,0-2.5,0c-.7.3-.2.5,1.2.5S111.9,93.6,111.3,93.3ZM82,92c-3.4-1.1-6-1.1-3.5,0a11.4,11.4,0,0,0,4,.8C84.1,92.8,84,92.6,82,92Zm33.7.3a1.2,1.2,0,0,0-1.4,0c-.3.4,0,.7.7.7S116,92.7,115.7,92.3Z" transform="translate(-51.8 -62)"/><path class="cls-8" d="M88.5,85.5c-.5-.1-3.6-.8-6.7-1.5-7.3-1.4-7.5-3.3-1.5-9.3,7.5-7.5,19.9-9.3,30.2-4.2,5.7,2.7,11.6,9.8,9.8,11.6C117.8,84.6,93.8,87.2,88.5,85.5Z" transform="translate(-51.8 -62)"/></g><g id="layer110"><path class="cls-9" d="M86.8,141.4C65.2,136.2,50.9,119,52.2,99.9,53.7,78.8,74.3,62.1,98.5,62c19.8,0,36.5,10.1,44.1,26.6,3.2,6.9,3.4,7.8,2,9.2-1.7,1.8-2,1.4-3.1-5.1-.9-5.5-8.1-15.4-14.4-19.7-8.8-6.1-16.9-8.5-28.6-8.4-8.3,0-11.1.5-16.8,2.7C69.9,71.9,63.5,77.4,58.2,87.4c-2.4,4.6-2.7,6.2-2.7,15.1s.3,10.5,2.8,15.4c4,7.4,10.9,13.8,19.7,18,7.5,3.6,7.6,3.6,21.1,3.6h13.5l7.5-3.7c12.4-6.1,19.9-15.2,22.3-26.9,1.6-7.8,4.2-9.7,3.2-2.3C142.1,131.2,113.8,148,86.8,141.4Z" transform="translate(-51.8 -62)"/><path class="cls-9" d="M81.1,128.4c-3.2-1.3-6-4-6.1-5.6,0-.4,1.4-.5,3-.1a5.58,5.58,0,0,0,5.3-1.4c5-4.6,9.1-5.4,12.8-2.4,2.3,1.8,2.4,1.8,5-.1,3.4-2.6,8.1-1.9,12.3,1.7,3.1,2.7,6.5,3.2,8.4,1.3.9-.9,1.2-.8,1.2.4,0,.9-1.4,2.8-3,4.2-5.2,4.3-13.2,4.6-18.3.6-2.3-1.9-2.4-1.9-7.2.6C89,130.3,85.9,130.5,81.1,128.4Z" transform="translate(-51.8 -62)"/><path class="cls-9" d="M127.9,118.8c-.1-4.6-.1-8.9,0-9.5s-.9-1.3-2.2-1.3c-1.5,0-3.1-1.1-4.6-3.2l-2.2-3.3,2.5,2.8a8,8,0,0,0,5.1,2.7H129v10c0,5.5-.2,10-.5,10S127.9,123.3,127.9,118.8Z" transform="translate(-51.8 -62)"/><path class="cls-9" d="M109.2,108c0-1.4.2-1.9.5-1.2a5.28,5.28,0,0,1,0,2.5C109.4,109.9,109.2,109.4,109.2,108Z" transform="translate(-51.8 -62)"/><path class="cls-9" d="M107.5,105c.3-.5.8-1,1.1-1s.2.5-.1,1-.8,1-1.1,1S107.2,105.6,107.5,105Z" transform="translate(-51.8 -62)"/><path class="cls-9" d="M89.2,102.8a92,92,0,0,1-11.6-2.2C70.4,98.5,62,91.9,62,88.4c0-.3,2.4-.4,5.3-.2,3.5.2,5.1.7,5,1.6-.2.6.6,1.2,1.7,1.2,1.6,0,2-.7,2-3.1,0-2.6.3-3,1.8-2.4,8.8,3.4,30,3.4,41.5-.1,1.3-.4,1.7,0,1.7,2a4.4,4.4,0,0,1-1.7,3.5c-1,.6-1.3,1.1-.6,1.1a6.47,6.47,0,0,0,2.9-1.7c2-2.1,12.8-3.1,13.8-1.4s-4.5,6.5-10.2,9.1c-2.6,1.2-5.6,2.6-6.6,3.2C115.9,102.6,97,103.7,89.2,102.8Zm13.6-8.5a53.39,53.39,0,0,0-8,0c-2.4.2-.7.4,3.7.4S104.8,94.5,102.8,94.3Zm-13.5-1a7.56,7.56,0,0,0-3,0c-1,.3-.4.5,1.2.5S89.9,93.6,89.3,93.3Zm22,0a5.28,5.28,0,0,0-2.5,0c-.7.3-.2.5,1.2.5S111.9,93.6,111.3,93.3ZM82,92c-3.4-1.1-6-1.1-3.5,0a11.4,11.4,0,0,0,4,.8C84.1,92.8,84,92.6,82,92Zm33.7.3a1.2,1.2,0,0,0-1.4,0c-.3.4,0,.7.7.7S116,92.7,115.7,92.3Z" transform="translate(-51.8 -62)"/><path class="cls-9" d="M83.6,84.5c-3.8-.8-7.1-1.6-7.3-1.9s-.2-1.3.1-2.4c3.4-10.6,22-15.8,34.2-9.7,4.7,2.4,9.9,7.9,9.9,10.6C120.5,84.8,96.1,87.1,83.6,84.5Z" transform="translate(-51.8 -62)"/></g><g id="layer111"><path class="cls-10" d="M86.8,141.4C65.2,136.2,50.9,119,52.2,99.9,53.7,78.8,74.3,62.1,98.5,62c19.8,0,36.5,10.1,44.1,26.6,3.2,6.9,3.4,7.8,2,9.2-1.7,1.8-2,1.4-3.1-5.1-.9-5.5-8.1-15.4-14.4-19.7-8.8-6.1-16.9-8.5-28.6-8.4-8.3,0-11.1.5-16.8,2.7C69.9,71.9,63.5,77.4,58.2,87.4c-2.4,4.6-2.7,6.2-2.7,15.1s.3,10.5,2.8,15.4c4,7.4,10.9,13.8,19.7,18,7.5,3.6,7.6,3.6,21.1,3.6h13.5l7.5-3.7c12.4-6.1,19.9-15.2,22.3-26.9,1.6-7.8,4.2-9.7,3.2-2.3C142.1,131.2,113.8,148,86.8,141.4Z" transform="translate(-51.8 -62)"/><path class="cls-10" d="M81.1,128.4c-3.2-1.3-6-4-6.1-5.6,0-.4,1.4-.5,3-.1a5.58,5.58,0,0,0,5.3-1.4c5-4.6,9.1-5.4,12.8-2.4,2.3,1.8,2.4,1.8,5-.1,3.4-2.6,8.1-1.9,12.3,1.7,3.1,2.7,6.5,3.2,8.4,1.3.9-.9,1.2-.8,1.2.4,0,.9-1.4,2.8-3,4.2-5.2,4.3-13.2,4.6-18.3.6-2.3-1.9-2.4-1.9-7.2.6C89,130.3,85.9,130.5,81.1,128.4Z" transform="translate(-51.8 -62)"/><path class="cls-10" d="M127,108c-1.3-.8-1.2-1,.3-1,.9,0,1.7.5,1.7,1C129,109.2,128.9,109.2,127,108Z" transform="translate(-51.8 -62)"/><path class="cls-10" d="M123.3,107.3a1.2,1.2,0,0,1,1.4,0c.3.4,0,.7-.7.7S123,107.7,123.3,107.3Z" transform="translate(-51.8 -62)"/><path class="cls-10" d="M119.9,103.3c-1.3-1.6-1.2-1.7.4-.4a6.23,6.23,0,0,1,1.7,1.7C122,105.4,121.2,104.9,119.9,103.3Z" transform="translate(-51.8 -62)"/><path class="cls-10" d="M89.2,102.8a92,92,0,0,1-11.6-2.2C70.4,98.5,62,91.9,62,88.4c0-.3,2.4-.4,5.3-.2,3.5.2,5.1.7,5,1.6-.2.6.6,1.2,1.7,1.2,1.6,0,2-.7,2-3.1,0-2.6.3-3,1.8-2.4,8.8,3.4,30.1,3.3,41.5-.1,1.5-.5,1.8-.1,1.5,2.2-.3,2.5-.9,3-6.8,4.5-3.6.9-5.8,1.7-5,1.8,2.8.1,12.3-2.8,13.1-4,1-1.7,12.4-2.5,13.3-1s-4.5,6.5-10.2,9.1c-2.6,1.2-5.6,2.6-6.6,3.2C115.9,102.6,97,103.7,89.2,102.8Zm13.6-8.5a53.39,53.39,0,0,0-8,0c-2.4.2-.7.4,3.7.4S104.8,94.5,102.8,94.3ZM86.5,92.9c-2.2-.5-5.2-1.3-6.7-1.8S77,90.6,77,91c0,1,7.2,2.8,11,2.8C89.6,93.8,89,93.5,86.5,92.9Z" transform="translate(-51.8 -62)"/><path class="cls-10" d="M83.6,84.5c-3.8-.8-7.1-1.6-7.3-1.9s-.2-1.3.1-2.4c3.4-10.6,22-15.8,34.2-9.7,4.7,2.4,9.9,7.9,9.9,10.6C120.5,84.8,96.1,87.1,83.6,84.5Z" transform="translate(-51.8 -62)"/></g><g id="layer112"><path class="cls-11" d="M86.8,141.4C65.2,136.2,50.9,119,52.2,99.9,53.7,78.8,74.3,62.1,98.5,62c19.8,0,36.5,10.1,44.1,26.6,3.2,6.9,3.4,7.8,2,9.2-1.7,1.8-2,1.4-3.1-5.1-.9-5.5-8.1-15.4-14.4-19.7-8.8-6.1-16.9-8.5-28.6-8.4-8.3,0-11.1.5-16.8,2.7C69.9,71.9,63.5,77.4,58.2,87.4c-2.4,4.6-2.7,6.2-2.7,15.1s.3,10.5,2.8,15.4c4,7.4,10.9,13.8,19.7,18,7.5,3.6,7.6,3.6,21.1,3.6h13.5l7.5-3.7c12.4-6.1,19.9-15.2,22.3-26.9,1.6-7.8,4.2-9.7,3.2-2.3C142.1,131.2,113.8,148,86.8,141.4Z" transform="translate(-51.8 -62)"/><path class="cls-11" d="M81.1,128.4c-3.2-1.3-6-4-6.1-5.6,0-.4,1.4-.5,3-.1a5.58,5.58,0,0,0,5.3-1.4c5-4.6,9.1-5.4,12.8-2.4,2.3,1.8,2.4,1.8,5-.1,3.4-2.6,8.1-1.9,12.3,1.7,3.1,2.7,6.5,3.2,8.4,1.3.9-.9,1.2-.8,1.2.4,0,.9-1.4,2.8-3,4.2-5.2,4.3-13.2,4.6-18.3.6-2.3-1.9-2.4-1.9-7.2.6C89,130.3,85.9,130.5,81.1,128.4Z" transform="translate(-51.8 -62)"/><path class="cls-11" d="M127,108c-1.3-.8-1.2-1,.3-1,.9,0,1.7.5,1.7,1C129,109.2,128.9,109.2,127,108Z" transform="translate(-51.8 -62)"/><path class="cls-11" d="M123.3,107.3a1.2,1.2,0,0,1,1.4,0c.3.4,0,.7-.7.7S123,107.7,123.3,107.3Z" transform="translate(-51.8 -62)"/><path class="cls-11" d="M119.9,103.3c-1.3-1.6-1.2-1.7.4-.4a6.23,6.23,0,0,1,1.7,1.7C122,105.4,121.2,104.9,119.9,103.3Z" transform="translate(-51.8 -62)"/><path class="cls-11" d="M89.2,102.8a92,92,0,0,1-11.6-2.2C70.4,98.5,62,91.9,62,88.4c0-.3,2.4-.4,5.3-.2,3.5.2,5.1.7,5,1.6-.2.6.6,1.2,1.7,1.2,1.9,0,2.5-1.4,2.1-4.7-.2-1.6.2-1.6,4.4.1,1.8.8,3.5,1.2,3.8,1s3.2.2,6.6,1,5.9,1,5.5.5,1.3-.9,3.6-.9c3,0,3.9.3,3.4,1.3s-.4.9.7.1c.8-.6,4.3-1.7,7.8-2.3s6.9-1.5,7.7-1.8c1-.4,1.4.3,1.4,2,0,3.1-1.1,3.9-5.6,4-1.9.1-3.4.5-3.4.9s-1,.8-2.2.8-1.9.3-1.5.6c.9,1,11.8-1.8,13.4-3.5,1.9-1.9,12.7-2.8,13.7-1.2s-4.5,6.5-10.2,9.1c-2.6,1.2-5.6,2.6-6.6,3.2C115.9,102.6,97,103.7,89.2,102.8Zm13.6-8.5a53.39,53.39,0,0,0-8,0c-2.4.2-.7.4,3.7.4S104.8,94.5,102.8,94.3Zm-14.7-1c-1.9-.4-2.1-.7-1-1.4.9-.5.1-.6-2.2-.3a10.72,10.72,0,0,1-5.8-.5c-1.2-.7-2.1-.8-2.1-.2,0,1.1,7,2.9,11,2.9l2.5-.1Zm7.6-1a1.2,1.2,0,0,0-1.4,0c-.3.4,0,.7.7.7S96,92.7,95.7,92.3Z" transform="translate(-51.8 -62)"/><path class="cls-11" d="M83.6,84.5c-3.8-.8-7.1-1.6-7.3-1.9s-.2-1.3.1-2.4c3.4-10.6,22-15.8,34.2-9.7,4.7,2.4,9.9,7.9,9.9,10.6C120.5,84.8,96.1,87.1,83.6,84.5Z" transform="translate(-51.8 -62)"/></g><g id="layer113"><path class="cls-12" d="M86.8,141.4C65.2,136.2,50.9,119,52.2,99.9,53.7,78.8,74.3,62.1,98.5,62c19.8,0,36.5,10.1,44.1,26.6,3.2,6.9,3.4,7.8,2,9.2-1.7,1.8-2,1.4-3.1-5.1-.9-5.5-8.1-15.4-14.4-19.7-8.8-6.1-16.9-8.5-28.6-8.4-8.3,0-11.1.5-16.8,2.7C69.9,71.9,63.5,77.4,58.2,87.4c-2.4,4.6-2.7,6.2-2.7,15.1s.3,10.5,2.8,15.4c4,7.4,10.9,13.8,19.7,18,7.5,3.6,7.6,3.6,21.1,3.6h13.5l7.5-3.7c12.4-6.1,19.9-15.2,22.3-26.9,1.6-7.8,4.2-9.7,3.2-2.3C142.1,131.2,113.8,148,86.8,141.4Z" transform="translate(-51.8 -62)"/><path class="cls-12" d="M81.1,128.4c-3.2-1.3-6-4-6.1-5.6,0-.4,1.4-.5,3-.1a5.58,5.58,0,0,0,5.3-1.4c5-4.6,9.1-5.4,12.8-2.4,2.3,1.8,2.4,1.8,5-.1,3.4-2.6,8.1-1.9,12.3,1.7,3.1,2.7,6.5,3.2,8.4,1.3.9-.9,1.2-.8,1.2.4,0,.9-1.4,2.8-3,4.2-5.2,4.3-13.2,4.6-18.3.6-2.3-1.9-2.4-1.9-7.2.6C89,130.3,85.9,130.5,81.1,128.4Z" transform="translate(-51.8 -62)"/><path class="cls-12" d="M123.3,107.3a1.2,1.2,0,0,1,1.4,0c.3.4,0,.7-.7.7S123,107.7,123.3,107.3Z" transform="translate(-51.8 -62)"/><path class="cls-12" d="M127.3,107.3a1.2,1.2,0,0,1,1.4,0c.3.4,0,.7-.7.7S127,107.7,127.3,107.3Z" transform="translate(-51.8 -62)"/><path class="cls-12" d="M89.2,102.8a92,92,0,0,1-11.6-2.2C70.4,98.5,62,91.9,62,88.4c0-.3,2.4-.4,5.3-.2s5.1.8,5,1.4C72,91.4,87.9,94.5,98,94.5c10.5,0,21.3-2,23.7-4.3,1.9-2,12.7-2.9,13.7-1.3s-4.5,6.5-10.2,9.1c-2.6,1.2-5.6,2.6-6.6,3.2C115.9,102.6,97,103.7,89.2,102.8Z" transform="translate(-51.8 -62)"/><path class="cls-12" d="M89.6,93.3c-2.9-.3-3.6-.7-2.5-1.4q1.35-.9-1.8-.3c-4.6.9-8.8-1-8.9-4.1q-.15-2.4.9-1.8a10.79,10.79,0,0,0,2.7,1c.8.1,4.2.7,7.5,1.4,6.7,1.2,16.2,1.5,17.2.5a7.52,7.52,0,0,1,3.4-.6,17.05,17.05,0,0,0,5.1-.9c1.3-.4,3.5-1.1,5.1-1.5,2.4-.6,2.7-.4,2.7,1.9,0,2.7-1.3,3.6-5.7,3.8-1.6.1-3.1.5-3.4,1C111.2,93.3,95.2,94,89.6,93.3Zm6.1-1a1.2,1.2,0,0,0-1.4,0c-.3.4,0,.7.7.7S96,92.7,95.7,92.3Z" transform="translate(-51.8 -62)"/><path class="cls-12" d="M83.6,84.5c-3.8-.8-7.1-1.6-7.3-1.9s-.2-1.3.1-2.4c3.4-10.6,22-15.8,34.2-9.7,4.7,2.4,9.9,7.9,9.9,10.6C120.5,84.8,96.1,87.1,83.6,84.5Z" transform="translate(-51.8 -62)"/></g><g id="layer114"><path class="cls-13" d="M86.8,141.5c-11.4-2.9-20.2-8.5-26.8-17-7.5-9.8-9.8-22-6.1-32.8C60.1,73.8,78.1,62,99.3,62c17.9,0,36.4,10.9,42.6,25.2,1.3,2.9,2.8,6.1,3.3,7.1a2.86,2.86,0,0,1-.3,3.3c-1.6,2-2.9.8-2.9-2.7,0-4-4.2-12.1-8.8-16.8-7.9-8.1-17.9-12.6-30.5-13.7-19-1.6-37.3,7.9-44.9,23.4-3.1,6.4-3.8,19.4-1.3,26,6.3,16.7,22.6,26.7,43,26.5,21.9-.2,39.1-12.8,42.9-31.4,1.6-7.8,4.1-9.6,3.1-2.3-1.5,11-9.7,22.9-19.9,28.9C114.7,141.9,98.3,144.4,86.8,141.5Z" transform="translate(-51.8 -62)"/><path class="cls-13" d="M82,128.9c-2.7-1.1-7-4.8-7-6,0-.5,1.3-.6,2.9-.3,2.2.5,3.8,0,6.4-2C89,117,93,116.4,96,118.8c2.3,1.9,2.4,1.9,5.7,0,3.9-2.4,7.3-1.8,11.6,1.8,3.1,2.6,6.6,3.1,8.5,1.2s1.4.7-.8,3.5c-4,5-13.9,5.9-19.3,1.7-2.3-1.9-2.5-1.8-7.2.6C89.4,130.1,86.1,130.5,82,128.9Z" transform="translate(-51.8 -62)"/><path class="cls-13" d="M123.3,107.3a1.2,1.2,0,0,1,1.4,0c.3.4,0,.7-.7.7S123,107.7,123.3,107.3Z" transform="translate(-51.8 -62)"/><path class="cls-13" d="M127.3,107.3a1.2,1.2,0,0,1,1.4,0c.3.4,0,.7-.7.7S127,107.7,127.3,107.3Z" transform="translate(-51.8 -62)"/><path class="cls-13" d="M80.2,101C70.9,98.5,62,92.4,62,88.6c0-.8,7.4-.8,9.4,0,.9.3,1.4.9,1.2,1.3-1,1.5,16.1,4.6,25.4,4.6,10.3,0,21.3-2,23.6-4.3,1.8-1.7,12.9-2.9,13.8-1.4s-5.1,6.9-10.3,9.3a59.48,59.48,0,0,0-6.6,3.2c-1.1.6-8.3,1.2-16.5,1.4C90,103,86.2,102.7,80.2,101Z" transform="translate(-51.8 -62)"/><path class="cls-13" d="M89.6,93.3c-2.9-.3-3.6-.7-2.5-1.4q1.35-.9-1.8-.3c-4.6.9-8.8-1-8.9-4.1q-.15-2.4.9-1.8a10.79,10.79,0,0,0,2.7,1c.8.1,4.2.7,7.5,1.4,6.7,1.2,16.2,1.5,17.2.5a7.52,7.52,0,0,1,3.4-.6,17.05,17.05,0,0,0,5.1-.9c1.3-.4,3.5-1.1,5.1-1.5,2.4-.6,2.7-.4,2.7,1.9,0,2.7-1.3,3.6-5.7,3.8-1.6.1-3.1.5-3.4,1C111.2,93.3,95.2,94,89.6,93.3Zm6.1-1a1.2,1.2,0,0,0-1.4,0c-.3.4,0,.7.7.7S96,92.7,95.7,92.3Z" transform="translate(-51.8 -62)"/><path class="cls-13" d="M84.1,84.5c-8.1-1.8-8.9-2.6-6.6-6.2,7.9-12.5,28.6-14.1,39.3-3,4.8,5.1,4.6,6.8-1.3,8.4C107.9,85.8,91.6,86.2,84.1,84.5Z" transform="translate(-51.8 -62)"/></g><g id="layer115"><path class="cls-14" d="M86.8,141.5c-11.4-2.9-20.2-8.5-26.8-17-7.5-9.8-9.8-22-6.1-32.8C60.1,73.8,78.1,62,99.3,62c17.9,0,36.4,10.9,42.6,25.2,1.3,2.9,2.8,6.1,3.3,7.1a2.86,2.86,0,0,1-.3,3.3c-1.6,2-2.9.8-2.9-2.7,0-4-4.2-12.1-8.8-16.8-7.9-8.1-17.9-12.6-30.5-13.7-19-1.6-37.3,7.9-44.9,23.4-3.1,6.4-3.8,19.4-1.3,26,6.3,16.7,22.6,26.7,43,26.5,21.9-.2,39.1-12.8,42.9-31.4,1.6-7.8,4.1-9.6,3.1-2.3-1.5,11-9.7,22.9-19.9,28.9C114.7,141.9,98.3,144.4,86.8,141.5Z" transform="translate(-51.8 -62)"/><path class="cls-14" d="M82,128.9c-2.7-1.1-7-4.8-7-6,0-.5,1.3-.6,2.9-.3,2.2.5,3.8,0,6.4-2C89,117,93,116.4,96,118.8c2.3,1.9,2.4,1.9,5.7,0,3.9-2.4,7.3-1.8,11.6,1.8,3.1,2.6,6.6,3.1,8.5,1.2s1.4.7-.8,3.5c-4,5-13.9,5.9-19.3,1.7-2.3-1.9-2.5-1.8-7.2.6C89.4,130.1,86.1,130.5,82,128.9Z" transform="translate(-51.8 -62)"/><path class="cls-14" d="M123.3,107.3a1.2,1.2,0,0,1,1.4,0c.3.4,0,.7-.7.7S123,107.7,123.3,107.3Z" transform="translate(-51.8 -62)"/><path class="cls-14" d="M127.3,107.3a1.2,1.2,0,0,1,1.4,0c.3.4,0,.7-.7.7S127,107.7,127.3,107.3Z" transform="translate(-51.8 -62)"/><path class="cls-14" d="M80.2,101C70.9,98.5,62,92.5,62,88.6c0-.8,7.4-.8,9.4,0,.9.3,1.4.9,1.1,1.3s2.8,1.6,6.8,2.7c13.2,3.5,38.8,2.1,42.4-2.3,1.3-1.7,12.7-3,13.6-1.7,1.3,2.2-6.2,8.2-14.3,11.4S90.6,103.8,80.2,101Z" transform="translate(-51.8 -62)"/><path class="cls-14" d="M89.6,93.3c-2.9-.3-3.6-.7-2.5-1.4q1.35-.9-1.8-.3c-4.6.9-8.8-1-8.9-4.1q-.15-2.4.9-1.8a10.79,10.79,0,0,0,2.7,1c.8.1,4.2.7,7.5,1.4,6.7,1.2,16.2,1.5,17.2.5a7.52,7.52,0,0,1,3.4-.6,17.05,17.05,0,0,0,5.1-.9c1.3-.4,3.5-1.1,5.1-1.5,2.4-.6,2.7-.4,2.7,1.9,0,2.7-1.3,3.6-5.7,3.8-1.6.1-3.1.5-3.4,1C111.2,93.3,95.2,94,89.6,93.3Zm6.1-1a1.2,1.2,0,0,0-1.4,0c-.3.4,0,.7.7.7S96,92.7,95.7,92.3Z" transform="translate(-51.8 -62)"/><path class="cls-14" d="M84.1,84.5c-8.1-1.8-8.9-2.6-6.6-6.2,7.9-12.5,28.6-14.1,39.3-3,4.8,5.1,4.6,6.8-1.3,8.4C107.9,85.8,91.6,86.2,84.1,84.5Z" transform="translate(-51.8 -62)"/></g><g id="layer116"><path class="cls-15" d="M86.8,141.5c-11.4-2.9-20.2-8.5-26.8-17-7.5-9.8-9.8-22-6.1-32.8C60.1,73.8,78.1,62,99.3,62c17.9,0,36.4,10.9,42.6,25.2,1.3,2.9,2.8,6.1,3.3,7.1a2.86,2.86,0,0,1-.3,3.3c-1.6,2-2.9.8-2.9-2.7,0-4-4.2-12.1-8.8-16.8-7.9-8.1-17.9-12.6-30.5-13.7-19-1.6-37.3,7.9-44.9,23.4-3.1,6.4-3.8,19.4-1.3,26,6.3,16.7,22.6,26.7,43,26.5,21.9-.2,39.1-12.8,42.9-31.4,1.6-7.8,4.1-9.6,3.1-2.3-1.5,11-9.7,22.9-19.9,28.9C114.7,141.9,98.3,144.4,86.8,141.5Z" transform="translate(-51.8 -62)"/><path class="cls-15" d="M82,128.9c-2.7-1.1-7-4.8-7-6,0-.5,1.3-.6,2.9-.3,2.2.5,3.8,0,6.4-2C89,117,93,116.4,96,118.8c2.3,1.9,2.4,1.9,5.7,0,3.9-2.4,7.3-1.8,11.6,1.8,3.1,2.6,6.6,3.1,8.5,1.2s1.4.7-.8,3.5c-4,5-13.9,5.9-19.3,1.7-2.3-1.9-2.5-1.8-7.2.6C89.4,130.1,86.1,130.5,82,128.9Z" transform="translate(-51.8 -62)"/><path class="cls-15" d="M80.2,101C70.9,98.5,62,92.5,62,88.6c0-.8,7.4-.8,9.4,0,.9.3,1.4.9,1.1,1.3s2.8,1.6,6.8,2.7c13.2,3.5,38.8,2.1,42.4-2.3,1.3-1.7,12.7-3,13.6-1.7,1.3,2.2-6.2,8.2-14.3,11.4S90.6,103.8,80.2,101Z" transform="translate(-51.8 -62)"/><path class="cls-15" d="M79.3,86.3a1.2,1.2,0,0,1,1.4,0c.3.4,0,.7-.7.7S79,86.7,79.3,86.3Z" transform="translate(-51.8 -62)"/><path class="cls-15" d="M84.1,84.5c-8.1-1.8-8.9-2.6-6.6-6.2,7.9-12.5,28.6-14.1,39.3-3,4.8,5.1,4.6,6.8-1.3,8.4C107.9,85.8,91.6,86.2,84.1,84.5Z" transform="translate(-51.8 -62)"/><path class="cls-15" d="M119.3,85.3a1.2,1.2,0,0,1,1.4,0c.3.4,0,.7-.7.7S119,85.7,119.3,85.3Z" transform="translate(-51.8 -62)"/></g><g id="layer117"><path class="cls-16" d="M86.8,141.5c-11.4-2.9-20.2-8.5-26.8-17-7.5-9.8-9.8-22-6.1-32.8C60.1,73.8,78.1,62,99.3,62c17.9,0,36.4,10.9,42.6,25.2,1.3,2.9,2.8,6.1,3.3,7.1a2.86,2.86,0,0,1-.3,3.3c-1.6,2-2.9.8-2.9-2.7,0-4-4.2-12.1-8.8-16.8-7.9-8.1-17.9-12.6-30.5-13.7-19-1.6-37.3,7.9-44.9,23.4-3.1,6.4-3.8,19.4-1.3,26,6.3,16.7,22.6,26.7,43,26.5,21.9-.2,39.1-12.8,42.9-31.4,1.6-7.8,4.1-9.6,3.1-2.3-1.5,11-9.7,22.9-19.9,28.9C114.7,141.9,98.3,144.4,86.8,141.5Z" transform="translate(-51.8 -62)"/><path class="cls-16" d="M82,128.9c-2.7-1.1-7-4.8-7-6,0-.5,1.3-.6,2.9-.3,2.2.5,3.8,0,6.4-2C89,117,93,116.4,96,118.8c2.3,1.9,2.4,1.9,5.7,0,3.9-2.4,7.3-1.8,11.6,1.8,3.1,2.6,6.6,3.1,8.5,1.2s1.4.7-.8,3.5c-4,5-13.9,5.9-19.3,1.7-2.3-1.9-2.5-1.8-7.2.6C89.4,130.1,86.1,130.5,82,128.9Z" transform="translate(-51.8 -62)"/><path class="cls-16" d="M80.2,101C70.9,98.5,62,92.5,62,88.6c0-.8,7.4-.8,9.4,0,.9.3,1.4.9,1.1,1.3s2.8,1.6,6.8,2.7c13.2,3.5,38.8,2.1,42.4-2.3,1.3-1.7,12.7-3,13.6-1.7,1.3,2.2-6.2,8.2-14.3,11.4S90.6,103.8,80.2,101Z" transform="translate(-51.8 -62)"/><path class="cls-16" d="M84.1,84.5c-8.1-1.8-8.9-2.6-6.6-6.2,7.9-12.5,28.6-14.1,39.3-3,4.8,5.1,4.6,6.8-1.3,8.4C107.9,85.8,91.6,86.2,84.1,84.5Z" transform="translate(-51.8 -62)"/></g><g id="layer118"><path class="cls-17" d="M92,142.4c-14.4-2.6-24.2-8.1-31.8-17.9-10.4-13.4-10.7-29.9-.7-43.4,13.9-18.9,41.9-24.6,63.8-12.8,10.2,5.4,14.6,10.6,21.8,25.8a3.55,3.55,0,0,1-.6,3.5c-1.3,1.8-1.4,1.8-2,.2a3.38,3.38,0,0,1-.1-2.6c1.2-2-6.5-15.1-11.4-19.6C108.5,55.4,66.9,63.5,56.9,90c-2.8,7.5-2.4,20.4.9,27.1C65.1,132,80,140.5,99,140.5c11.8,0,20.5-2.7,28.9-9.1s13.6-14.6,15-24.3c.3-2.4,1.2-4.6,1.9-4.9,1.7-.5.7,6.3-2,13.5-2.1,5.8-9.2,14.2-15.7,18.7C118.6,140.3,101.7,144.2,92,142.4Z" transform="translate(-51.8 -62)"/><path class="cls-17" d="M82.7,129a10.7,10.7,0,0,1-6.8-5.1c-.8-1.6-.5-1.7,2.4-1.2,2.2.3,3.8,0,4.8-1,1.9-1.9,7.4-4.7,9.2-4.7.8,0,2.7,1,4.2,2.1,1.6,1.3,3,1.8,3.3,1.2.9-1.3,4.7-3.3,6.5-3.3.7,0,3.5,1.4,6.1,3.1,3.6,2.4,5.4,3,7.7,2.5,2.7-.5,2.9-.4,1.9,1.4-3,5.6-12.7,7.2-19.3,3.2-3.7-2.1-3.7-2.1-6.9-.2C91.7,129.3,86.4,130.2,82.7,129Z" transform="translate(-51.8 -62)"/><path class="cls-17" d="M81.7,101.4C72.3,99.2,63,93.4,63,89.9c0-1.5.7-1.9,4-1.9,2.3,0,4.2.6,4.7,1.4C73.1,91.7,88.5,95,98.2,95c10,0,22-2.3,24.4-4.8.9-.9,3.9-1.7,7-2,6.8-.6,7.2,1.1,1.2,6.2-6.8,5.8-17.2,8.6-31.6,8.5C92.8,102.9,84.9,102.2,81.7,101.4Z" transform="translate(-51.8 -62)"/><path class="cls-17" d="M84.6,84.5c-3.8-.8-7.4-1.9-7.9-2.4-1.4-1.4,2.1-6.7,6.4-9.6,9.1-6.4,23.1-6.1,31.4.7,4.3,3.6,7.2,8.6,5.3,9.3C110.1,85.7,94.6,86.6,84.6,84.5Z" transform="translate(-51.8 -62)"/></g><g id="layer119"><path class="cls-18" d="M88,141.5c-14.4-3.2-26.3-12.2-32.3-24.4-2.8-5.8-3.2-7.5-3.2-14.6,0-6.9.5-8.9,3.2-14.7,9.1-19.3,32.6-29.6,55.2-24.3,13.5,3.2,25.6,12.4,30.7,23.4,1.4,3.1,3,6.3,3.4,7.2a3.08,3.08,0,0,1-.5,3.5c-.8,1.1-1.5,1.5-1.6.9s-.3-2.2-.4-3.6c-1-8.3-10-19.8-19.3-24.7C99,57.3,68.5,65.5,57.9,87.7c-2.9,6-3.1,7.1-2.7,15.6.4,11.4,2.8,16.8,10.9,24.8,17,16.8,48,16.9,65.7.2,5.4-5.2,9.7-12.6,10.7-18.9,1-5.6,1.5-7.4,2.4-7.4,1.3,0-.6,10.5-2.7,15.3-2.5,5.7-9.8,13.6-16.3,17.8C115.8,141.5,100.1,144.2,88,141.5Z" transform="translate(-51.8 -62)"/><path class="cls-18" d="M83,128.8c-3.9-1.1-5.7-2.3-7-4.8-.7-1.4-.4-1.6,2.1-1.2,2.1.3,4.1-.4,7-2.3,4.6-3.2,9-3.6,11.8-1.1,1.9,1.8,2.1,1.7,4.8-.3,3.2-2.6,6-2.2,11.5,1.6,2.9,1.9,4.5,2.4,6.8,1.9,2.8-.5,3-.4,1.9,1.5-.6,1.2-3,3-5.4,4a15.54,15.54,0,0,1-15.1-1.6c-2.3-1.5-2.7-1.5-5.7.3C91.5,129.4,87.3,130.1,83,128.8Z" transform="translate(-51.8 -62)"/><path class="cls-18" d="M82.4,101.6C72.8,99.4,63,93.3,63,89.5c0-2.1,7.8-2.1,8.6-.1.4.9,4.3,2.4,10,3.7,7.9,1.8,11.4,2.1,20.7,1.6,10.9-.5,19.3-2.5,20.8-4.9.4-.6,3.2-1.3,6.3-1.6,4.4-.3,5.6-.1,5.6,1,0,3.1-6.8,7.9-16.1,11.4C112.8,102.8,90.7,103.4,82.4,101.6Z" transform="translate(-51.8 -62)"/><path class="cls-18" d="M85.3,84.6c-7.4-1.4-9.3-2.1-9.3-3.5,0-.5,1.8-2.9,4-5.4C90.3,64,112.7,66,119.6,79.3c1.2,2.2,1.2,2.8.2,3.2C110.3,85.6,95.5,86.5,85.3,84.6Z" transform="translate(-51.8 -62)"/></g><g id="layer120"><path class="cls-19" d="M90.5,141.9c-25.1-4.2-42.6-26.4-37.2-47.2,4-15.3,16.8-27.2,33.8-31.2,16-3.7,33,.5,44.8,11.1,5.9,5.3,10.8,12.5,11.7,17,.3,1.9,1,3.4,1.5,3.4s.5.9-.1,2.1c-1.4,2.6-2.1,1.9-2.6-2.3-1-8.8-10.8-20.9-20.6-25.7-19.4-9.3-43.4-5.7-56.9,8.6-7.4,7.8-10.3,14.8-10.2,24.9,0,6.9.5,9,3.1,14.6,7.9,16.5,28,26.1,48.6,23.1,18.9-2.7,33.9-16.1,36.5-32.5,1.1-6.8,2.5-7.4,1.8-.8-1.2,12.6-9.6,23.4-23.1,30C110.6,142.4,101.6,143.8,90.5,141.9Z" transform="translate(-51.8 -62)"/><path class="cls-19" d="M83.6,128.8c-4.2-.9-6.2-2.1-7.6-4.8-.7-1.4-.4-1.6,2.1-1.2a7.68,7.68,0,0,0,6-1.7c5.3-3.9,7.8-4.4,11.6-2.1l3.4,2,2.9-2.1c2.5-1.9,3.3-2,6.1-1a18.51,18.51,0,0,1,5.5,3.2c1.7,1.6,3.2,2,5.7,1.7,3.3-.4,3.4-.3,2.1,1.8-3.1,4.7-12.2,5.9-18.8,2.3-3.4-1.8-4-1.9-6-.6A18.14,18.14,0,0,1,83.6,128.8Z" transform="translate(-51.8 -62)"/><path class="cls-19" d="M81.5,101.2A70.26,70.26,0,0,1,72,98.1c-3.5-1.9-9-7.2-9-8.8,0-1.9,7.7-1.7,8.7.2C73.2,92.2,87.3,95,99.1,95c10.8,0,23.3-2.6,24.1-5.1.2-.5,2.9-1.3,6.1-1.6,4.6-.5,5.7-.3,5.7.9,0,2.6-5.6,6.8-13.1,10-6.7,2.8-8.6,3.1-20.4,3.4C91.3,102.9,87,102.6,81.5,101.2Z" transform="translate(-51.8 -62)"/><path class="cls-19" d="M85.5,84.5c-10.1-2.1-9.8-2-8.1-5.4,2.2-4.2,8.1-8.7,13.2-10.1,5.8-1.7,15-.8,20.2,1.9,4.6,2.3,9.7,8.4,8.9,10.5C118.4,84.8,96.6,86.8,85.5,84.5Z" transform="translate(-51.8 -62)"/></g><g id="layer121"><path class="cls-20" d="M89.3,141.6c-9.8-1.9-20.2-7.6-26.6-14.6C39.5,102,58.2,65.6,96,62.3c13.7-1.2,30.1,5.4,39.4,15.8,6.4,7.1,10.5,16.8,8.6,19.9-.9,1.3-1,1.3-1.1,0a12.18,12.18,0,0,1,0-2.7c.4-2.8-5.2-12.8-9.9-17.7-8.5-9-19.9-13.5-34-13.6-13.5,0-25.2,4.5-33.8,13.2C50.1,92.4,50.7,114.4,66.7,129c6.8,6.2,11.2,8.5,20,10.6,13.2,3.1,29.6.3,40-6.7,8.5-5.9,16.3-18.1,16.3-25.7a8.37,8.37,0,0,1,1.1-4.2c.8-1.1.9-.2.6,3.5-1.3,16.1-16.6,30.9-35.9,34.9C99.9,143.2,97.8,143.3,89.3,141.6Z" transform="translate(-51.8 -62)"/><path class="cls-20" d="M79.8,127.4a10,10,0,0,1-3.7-3.2c-.8-1.6-.5-1.7,2.5-1.4,2.6.3,4.1-.1,5.8-1.7,3.2-3,8.9-3.8,12.1-1.7,2.3,1.5,2.6,1.5,5.5-.3,3.7-2.2,6.2-1.8,10.8,1.6,2.4,1.8,4.3,2.4,6.6,2.1,3.2-.4,3.3-.3,2,1.8-3.2,4.7-12.2,5.9-18.8,2.3l-3.9-2.1-3.8,2.1C90.6,129.4,83.8,129.6,79.8,127.4Z" transform="translate(-51.8 -62)"/><path class="cls-20" d="M81.1,101c-7.9-2.1-10.9-3.6-15.3-7.8-3.4-3.1-3.6-5.2-.5-5.2,3.4,0,6.7,1.1,6.1,2.1-.2.5.8,1.1,2.3,1.5s5.3,1.3,8.3,2c12,3.1,36.1,1.2,40.4-3.1.8-.8,4-1.8,7.1-2.1,5.2-.6,5.7-.5,5.3,1.2-.5,2.8-7.9,7.9-15,10.4C110.5,103.3,91.3,103.8,81.1,101Z" transform="translate(-51.8 -62)"/><path class="cls-20" d="M88.2,84.7a42.8,42.8,0,0,1-9.3-2l-3-1.2L78.2,78c6.7-9.9,22.3-13,33.2-6.6,4.3,2.5,8.6,7.3,8.6,9.5C120,83.9,100.5,86.2,88.2,84.7Z" transform="translate(-51.8 -62)"/></g><g id="layer122"><path class="cls-21" d="M89.1,141.5c-15.1-3.3-26.6-11.7-32.6-23.8-3.1-6.2-3.6-8.2-3.7-14.7-.1-13.2,6.5-24.7,18.9-33,11.2-7.3,30.2-9.6,43.2-5.1C126.8,69,136.5,77,141.3,86.7c3.1,6.1,3.9,9.4,2.7,11.3-.5.8-1,1.1-1,.5-.5-5.5-1.1-7.7-3.3-12.1-3.6-7.1-11-13.9-19.5-18.1-6.6-3.1-8.5-3.6-17.6-4-11.9-.7-18.4.6-26.6,4.8-10.2,5.4-17.1,13.2-20.1,23-2.5,7.8-2.4,13.5.2,21.2,5.2,15.6,20.3,26.3,38.6,27.5,15,.9,27-3,36.9-12.1,6-5.5,11.4-15.3,11.4-20.8a11.63,11.63,0,0,1,1-4.9c1.9-2.9,1.1,5.7-1.1,11.5C135.7,133.8,111,146.2,89.1,141.5Z" transform="translate(-51.8 -62)"/><path class="cls-21" d="M80.4,127.6C76,125.7,75.2,123,79,123a14.32,14.32,0,0,0,6.6-2.5c4.2-2.9,8-3.2,11.2-.9,2,1.4,2.4,1.4,4.4,0,3.2-2.3,7-2,11.3,1,2.7,1.8,4.8,2.5,7.1,2.2,3.1-.4,3.1-.3,1.5,1.9-3.3,4.6-11.6,5.6-18.3,2.2l-4.1-2.1L95,126.9A17,17,0,0,1,80.4,127.6Z" transform="translate(-51.8 -62)"/><path class="cls-21" d="M83.4,101.6c-7.2-1.7-13.8-4.8-17.6-8.4-3.4-3.1-3.6-5.2-.5-5.1,3.5.2,6.8,1.3,6.8,2.4,0,1.9,15.1,4.6,26.4,4.7s21.8-1.9,24-4.7c.6-.7,3.7-1.6,6.9-2,5.3-.7,5.8-.6,5.4,1.1-.5,2.8-7.9,7.9-15,10.4C111.7,102.8,92.5,103.7,83.4,101.6Z" transform="translate(-51.8 -62)"/><path class="cls-21" d="M82,83.6c-2.7-.7-4.6-1.8-4.8-2.8-.5-2.7,7-9.4,12.7-11.3,10.4-3.4,22.8,0,27.8,7.7,3.1,4.6,2.7,5.1-5,6.8C106.3,85.3,87.7,85.1,82,83.6Z" transform="translate(-51.8 -62)"/></g><g id="layer123"><path class="cls-22" d="M91.4,141.9a44.6,44.6,0,0,1-7.5-1.9l-2.4-1.1,2.5.6a106.77,106.77,0,0,0,10.7,1.2c14.9,1.1,26.8-2.8,36.7-11.8,6-5.5,11.6-15.2,11.7-20.3a14.89,14.89,0,0,1,1-5.1c.7-1.4.8-.5.5,3.3-1.4,14.6-14,28.3-30.6,33.2A52.3,52.3,0,0,1,91.4,141.9Z" transform="translate(-51.8 -62)"/><path class="cls-22" d="M76.8,137.4c-3.9-2.1-3.5-2.8.5-.8,3.7,1.9,4.4,2.4,3.1,2.4A21,21,0,0,1,76.8,137.4Z" transform="translate(-51.8 -62)"/><path class="cls-22" d="M65.9,130.1c-5.4-4.8-10.9-13.5-12.3-19.4a41.48,41.48,0,0,1,1.5-21.2c3.2-8.6,13.8-19.1,23.2-22.8,8.4-3.4,19.5-5,26.2-3.8,4.6.8,4.3.9-4.5,1-10.9.1-17.6,1.7-25.1,5.7C50.2,83,47.1,114,68.7,131.1c4.8,3.9,4.8,3.9,3.7,3.9C71.8,135,68.9,132.8,65.9,130.1Z" transform="translate(-51.8 -62)"/><path class="cls-22" d="M81,127.9a8.61,8.61,0,0,1-3.8-2.9c-1.1-1.8-1-2,1.7-2a14.26,14.26,0,0,0,6.7-2.5c4.2-2.9,8-3.2,11.2-.9,2,1.4,2.4,1.4,4.4,0,3.2-2.3,6.8-2,11.2,1,2.8,1.9,4.7,2.5,7.2,2.2l3.5-.4-2.9,2.9c-4.2,4.1-10.4,4.7-16.8,1.6l-4.7-2.2-3.8,2.1A17.27,17.27,0,0,1,81,127.9Z" transform="translate(-51.8 -62)"/><path class="cls-22" d="M85,101.9a49.21,49.21,0,0,1-10.5-3.3c-9.1-4.1-14.9-10.7-9.2-10.5,3.5.2,6.8,1.3,6.7,2.4-.2,1.9,14.3,4.6,25.5,4.8,12.2.2,21.7-1.5,24.5-4.3,1.1-1.1,4.1-2.1,7.5-2.5,5.2-.7,5.7-.6,5.3,1.1-.5,2.8-7.9,7.9-15,10.3C112.5,102.4,94,103.5,85,101.9Z" transform="translate(-51.8 -62)"/><path class="cls-22" d="M142.9,98c0-.3-.2-1.9-.3-3.5-1.1-10.8-13.3-23.3-27.8-28.5-2.9-1.1-4.3-1.9-3.2-2,3.3,0,15.6,6.5,20.7,11,6.9,6.1,14.2,19.9,11.7,22.4C143.5,97.9,143,98.2,142.9,98Z" transform="translate(-51.8 -62)"/><path class="cls-22" d="M82.3,83.7c-5.3-1.5-5.7-2-4.3-4.9,6.7-13.1,30.9-14.2,39.5-1.7,1.6,2.1,2.6,4.2,2.3,4.5C116.7,84.7,91.1,86.1,82.3,83.7Z" transform="translate(-51.8 -62)"/></g><g id="layer124"><path class="cls-23" d="M99.5,142c-.3-.5-.2-1,.4-1a2.34,2.34,0,0,1,1.6,1c.3.6.2,1-.4,1A2,2,0,0,1,99.5,142Z" transform="translate(-51.8 -62)"/><path class="cls-23" d="M89.8,141.3a2,2,0,0,1,1.9.1c.4.3-.2.6-1.3.5S89,141.6,89.8,141.3Z" transform="translate(-51.8 -62)"/><path class="cls-23" d="M105.8,141.3a2,2,0,0,1,1.9.1c.4.3-.2.6-1.3.5S105,141.6,105.8,141.3Z" transform="translate(-51.8 -62)"/><path class="cls-23" d="M86.3,140.3a1.2,1.2,0,0,1,1.4,0c.3.4,0,.7-.7.7S86,140.7,86.3,140.3Z" transform="translate(-51.8 -62)"/><path class="cls-23" d="M114.5,139c2.7-1.2,4.3-1.2,2.5,0a6.91,6.91,0,0,1-3,.9C113,139.9,113.2,139.6,114.5,139Z" transform="translate(-51.8 -62)"/><path class="cls-23" d="M120,137.6c0-.3.9-1,2-1.6s2-.8,2-.6-.9,1-2,1.6S120,137.8,120,137.6Z" transform="translate(-51.8 -62)"/><path class="cls-23" d="M71.4,133.8c-.4-.7-.3-.8.4-.4,1.2.7,1.6,1.6.8,1.6C72.3,135,71.8,134.5,71.4,133.8Z" transform="translate(-51.8 -62)"/><path class="cls-23" d="M127.5,133c.3-.5.8-1,1.1-1s.2.5-.1,1-.8,1-1.1,1S127.2,133.6,127.5,133Z" transform="translate(-51.8 -62)"/><path class="cls-23" d="M65.5,130c-.3-.5-.1-1,.4-1a1.1,1.1,0,0,1,1.1,1c0,.6-.2,1-.4,1S65.8,130.6,65.5,130Z" transform="translate(-51.8 -62)"/><path class="cls-23" d="M131.5,129a6.31,6.31,0,0,1,2.8-2c.6,0,.1.9-1.1,2a8.54,8.54,0,0,1-2.8,2C130,131,130.5,130.1,131.5,129Z" transform="translate(-51.8 -62)"/><path class="cls-23" d="M86.4,127.9c-.3-.6-1.9-.9-3.4-.6-2.1.5-3.3,0-5-1.9L75.7,123h3.6a9.08,9.08,0,0,0,5.1-1.5c2-2,3.2-1.9,1.5.2-1.2,1.5-1.2,1.6.4,1,1.1-.4,1.6-.3,1.2.4a2.68,2.68,0,0,1-2.6.4c-1.4-.5-1.7-.3-1.3,1a1.66,1.66,0,0,0,2,1.1c.8-.3,1.4,0,1.4.7s1-.6,2-2.7,1.8-4.2,1.5-4.4-.5,0-.5.6a1.13,1.13,0,0,1-1.1,1.2c-.6,0-.9-.6-.7-1.2.6-1.8,5.8-1.8,8.5,0,1.9,1.2,2.5,1.2,4.5-.2a8.51,8.51,0,0,1,4.1-1.6c2.3,0,9.8,4.1,9.2,5-.2.4,1.6.4,4.1,0l4.6-.7-3,3c-4.1,4.1-10.4,4.8-16.7,1.7l-4.7-2.3-4.2,2.2C89.8,129.2,87.5,129.5,86.4,127.9Zm26.9-2.4c-.3-.9-.8-1.4-1-1.1s-.2.9.2,1.5C113.4,127.5,114,127.2,113.3,125.5Zm-30.3.1c0-.3-.5-.8-1.2-1.2s-.8-.3-.4.4C82.1,126,83,126.4,83,125.6Zm24.7-6.3a1.2,1.2,0,0,0-1.4,0c-.3.4,0,.7.7.7S108,119.7,107.7,119.3Z" transform="translate(-51.8 -62)"/><path class="cls-23" d="M61.2,125.2a43.86,43.86,0,0,1-5-8.2c-2.3-4.8-2.7-6.8-2.7-15s.4-10.2,2.5-14.4c4.6-9.1,15.4-18.9,23-21,1.4-.4-.4.9-4,2.8A42.76,42.76,0,0,0,57.1,88c-2.2,4.7-2.6,6.9-2.6,14.5,0,9.9,2.2,16.5,7.2,21.7,1.5,1.5,2.5,3,2.2,3.2S62.4,126.6,61.2,125.2Z" transform="translate(-51.8 -62)"/><path class="cls-23" d="M136.7,123.5a45.87,45.87,0,0,0,7-15.5l1.3-5.5-.5,4.6c-.5,5.8-4.4,14.7-7.5,17.4l-2.4,2Z" transform="translate(-51.8 -62)"/><path class="cls-23" d="M84,101.4c-8.5-1.8-11.9-3.3-10.1-4.4a2.48,2.48,0,0,0,.8-2.9c-.4-1.7-.2-2.1,1.2-1.6,5,1.5,18,3.5,23.6,3.5,8,0,20.2-2.7,22.6-5.1S135,87.1,135,89.2c0,1.8-4.4,6.1-5.3,5.1-.4-.3-.7-.1-.7.5,0,2.2-13.5,7.2-19.5,7.2-2.4,0-2.7-.2-1.5-1.1s.9-.9-1-.4a9.79,9.79,0,0,0-3.4,1.6C102.2,103.4,91.5,103.1,84,101.4Zm29.4-1.1a13.72,13.72,0,0,1-1.6-1.8c-.4-.6-.8-.2-.8.8a1.69,1.69,0,0,0,1.7,1.7C113.6,101,113.9,100.7,113.4,100.3Zm4.3-1a1.2,1.2,0,0,0-1.4,0c-.3.4,0,.7.7.7S118,99.7,117.7,99.3Zm-9-2a1.2,1.2,0,0,0-1.4,0c-.3.4,0,.7.7.7S109,97.7,108.7,97.3Zm8.3.3c0-.9-3-1.4-3.5-.6-.4.6.3,1,1.4,1S117,97.8,117,97.6Zm-5.3-1.3a1.2,1.2,0,0,0-1.4,0c-.3.4,0,.7.7.7S112,96.7,111.7,96.3Zm10.8-.3c.3-.5.4-1,.1-1s-.8.5-1.1,1-.4,1-.1,1S122.2,96.6,122.5,96Z" transform="translate(-51.8 -62)"/><path class="cls-23" d="M142.8,97.4c-.4-.3-.4-1.2-.2-1.9s-.2-3-1.1-5.1c-1.2-3-1.3-3.6-.2-2.4,2,2.1,3.9,8.2,2.9,9.2C143.7,97.7,143.1,97.8,142.8,97.4Z" transform="translate(-51.8 -62)"/><path class="cls-23" d="M66.2,93.2C62.4,90,62.1,88,65.3,88c3,0,7.4,4.4,5.5,5.6-.7.4-1,.4-.6,0,.7-.8-2.1-4.6-3.4-4.6-1.6,0,2.4,5.6,4.4,6.2s2.1.6.3.7C70.4,95.9,68,94.7,66.2,93.2Zm.5-1.9a1.2,1.2,0,0,0-1.4,0c-.3.4,0,.7.7.7S67,91.7,66.7,91.3Z" transform="translate(-51.8 -62)"/><path class="cls-23" d="M139.4,84.8c-.4-.7-.3-.8.4-.4,1.2.7,1.6,1.6.8,1.6C140.3,86,139.8,85.5,139.4,84.8Z" transform="translate(-51.8 -62)"/><path class="cls-23" d="M83.8,83.6c-2.1-.7-4-1.1-4.3-.8s-.5,0-.5-.6S80,81,81.3,81c1.7,0,1.9-.2.7-.9-.8-.6-1.7-.8-2.1-.5s-1.1-.1-1.5-.7c-.4-.8-.3-.9.4-.5s1.2.1,1.2-.8c0-2.2,6.2-6.8,7.2-5.3.5.8.8.7.8-.5,0-.9,1.3-2.1,3.1-2.7,7.6-2.6,18-.3,23.7,5.4,2,2.1,3.1,3.5,2.5,3.1s-1.3-.3-1.3.3-.6.9-1.2.7-1-.1-.5.1a1,1,0,0,1,.1,1.4c-.7,1.3,1,1.1,2.3-.2.8-.8,1.3-.8,1.7,0,.4.6,0,1.1-.9,1.1s-1.4.4-1.1.9-.9.8-2.9.7-3.2,0-3,.4C111.9,85.3,89.8,85.7,83.8,83.6Zm-.2-7.1c.2-2.1-.1-2.4-1.2-1.4-1.7,1.4-1.8,3.9-.1,3.9C82.9,79,83.6,77.9,83.6,76.5Zm32.4.1c0-.3-.5-.8-1.2-1.2s-.8-.3-.4.4C115.1,77,116,77.4,116,76.6ZM86.1,73.7c-1-.9-1.1-.8-.5.6.3,1,.9,1.5,1.2,1.2S86.8,74.4,86.1,73.7Z" transform="translate(-51.8 -62)"/><path class="cls-23" d="M137.5,81.9c-.4-.6-.5-1.2-.2-1.5s.7.2,1,1.1C139,83.2,138.4,83.5,137.5,81.9Z" transform="translate(-51.8 -62)"/><path class="cls-23" d="M135,79c0-.7.3-1,.7-.7a1.2,1.2,0,0,1,0,1.4C135.3,80,135,79.7,135,79Z" transform="translate(-51.8 -62)"/><path class="cls-23" d="M121.4,68.4c-1.8-1.4-1.8-1.4.6-.3,3.1,1.4,3.6,1.9,2.4,1.9A6.76,6.76,0,0,1,121.4,68.4Z" transform="translate(-51.8 -62)"/><path class="cls-23" d="M83,65a6.91,6.91,0,0,1,3-.9c1,0,.8.3-.5.9C82.8,66.2,81.2,66.2,83,65Z" transform="translate(-51.8 -62)"/><path class="cls-23" d="M112.3,64.3a1.2,1.2,0,0,1,1.4,0c.3.4,0,.7-.7.7S112,64.7,112.3,64.3Z" transform="translate(-51.8 -62)"/><path class="cls-23" d="M89.3,63.3a7.56,7.56,0,0,1,3,0c.6.3-.1.5-1.8.5S88.3,63.6,89.3,63.3Z" transform="translate(-51.8 -62)"/><path class="cls-23" d="M104.3,63.3a1.2,1.2,0,0,1,1.4,0c.3.4,0,.7-.7.7S104,63.7,104.3,63.3Z" transform="translate(-51.8 -62)"/><path class="cls-23" d="M97.3,62.3a7.56,7.56,0,0,1,3,0c.6.3-.1.5-1.8.5S96.3,62.6,97.3,62.3Z" transform="translate(-51.8 -62)"/></g><g id="layer125"><path class="cls-24" d="M114.3,139.3a1.2,1.2,0,0,1,1.4,0c.3.4,0,.7-.7.7S114,139.7,114.3,139.3Z" transform="translate(-51.8 -62)"/><path class="cls-24" d="M127.5,133c.3-.5.8-1,1.1-1s.2.5-.1,1-.8,1-1.1,1S127.2,133.6,127.5,133Z" transform="translate(-51.8 -62)"/><path class="cls-24" d="M131.7,128.9c1.2-1.2,2.5-2,2.8-1.7s-.7,1.3-2.2,2.3l-2.8,1.7Z" transform="translate(-51.8 -62)"/><path class="cls-24" d="M87.6,128.1c-.4-.6-.1-1.1.8-1.1s1.3-.8,1.1-2.6.1-2.4,1.2-2c.8.3,1.1.1.8-.4s.1-1.3.9-1.6,1.3-1.1.9-1.6.8-.3,2.5.7c2.5,1.5,3.4,1.6,4.5.6a14.61,14.61,0,0,1,4-1.7c2.3-.4,2.5-.2,2.1,2.3-.6,3.2-3.2,6.5-4.5,5.7a1.06,1.06,0,0,1-.5-1.3c.9-1.3-3.1-.5-5.7,1.2C92.3,128.5,88.4,129.4,87.6,128.1Z" transform="translate(-51.8 -62)"/><path class="cls-24" d="M111,128.1a2.22,2.22,0,0,1,1.2-1.7q1-.75.3.6c-.5.9-.4,1.1.4.6a1.44,1.44,0,0,0,.5-1.8c-.9-1.5,1.6-2.8,5.5-2.8,3,0,3.2.2,2,1.7-1.4,1.6-6.9,4.3-8.9,4.3A1,1,0,0,1,111,128.1Z" transform="translate(-51.8 -62)"/><path class="cls-24" d="M77,124.5c-1.1-1.3-.7-1.5,2.3-1.5,2,0,3.8.4,4.1.9s-.4.7-1.6.4c-1.9-.4-2-.3-.8.6s1.2,1.1-.6,1.1A5.1,5.1,0,0,1,77,124.5Z" transform="translate(-51.8 -62)"/><path class="cls-24" d="M136.5,124a7.65,7.65,0,0,1,2.3-2c.3,0-.3.9-1.3,2a7.65,7.65,0,0,1-2.3,2C134.9,126,135.5,125.1,136.5,124Z" transform="translate(-51.8 -62)"/><path class="cls-24" d="M85.3,123.3a1.2,1.2,0,0,1,1.4,0c.3.4,0,.7-.7.7S85,123.7,85.3,123.3Z" transform="translate(-51.8 -62)"/><path class="cls-24" d="M58.4,121.8c-.4-.7-.3-.8.4-.4,1.2.7,1.6,1.6.8,1.6C59.3,123,58.8,122.5,58.4,121.8Z" transform="translate(-51.8 -62)"/><path class="cls-24" d="M56.4,117.8c-.4-.7-.3-.8.4-.4,1.2.7,1.6,1.6.8,1.6C57.3,119,56.8,118.5,56.4,117.8Z" transform="translate(-51.8 -62)"/><path class="cls-24" d="M141.1,116c1.4-3.1,1.9-3.6,1.9-2.4a6.76,6.76,0,0,1-1.6,3C140,118.4,140,118.4,141.1,116Z" transform="translate(-51.8 -62)"/><path class="cls-24" d="M54.1,112.3a15.56,15.56,0,0,0-.7-3c-.5-1.4-.4-1.5.5-.7a3.27,3.27,0,0,1,.8,3C54.4,112.7,54.2,113,54.1,112.3Z" transform="translate(-51.8 -62)"/><path class="cls-24" d="M143.7,106.8c.8-4.4,1.3-4.8,1.3-1,0,1.7-.4,3.4-1,3.7S143.3,108.9,143.7,106.8Z" transform="translate(-51.8 -62)"/><path class="cls-24" d="M53.1,101.9C53,97,55.6,86.2,56.6,87.3c.3.2-.1,1.7-.7,3.3a64.47,64.47,0,0,0-1.9,9.9l-.7,7Z" transform="translate(-51.8 -62)"/><path class="cls-24" d="M89.5,102.3c-8.6-1.4-12.2-2.5-13.3-4.4s-1.1-2,.7-1.4c3.2,1,3.2-1,0-2.4-1.7-.7-2.9-1.4-2.7-1.6a88.28,88.28,0,0,1,9.3,1.6c11.6,2.4,21.3,2.4,30.9-.1,7.1-1.8,11.2-1.8,10.1,0-.3.4.2,1.1,1,1.4,1.3.4,1.3.2.5-1.4a7.77,7.77,0,0,0-2-2.5c-2.1-1.3-.9-2.3,2.5-2.1,1.9.2,3.2-.1,2.9-.5s.9-.9,2.5-.9c3.9,0,4.1,2.3.4,4.7a18.6,18.6,0,0,0-3.3,2.4c-1.9,2.4-7.8,3-6.4.7.4-.6.2-.8-.4-.4a1.28,1.28,0,0,1-1.7-.4c-.6-.9-6.5-.2-7.5.9a9.12,9.12,0,0,1-3.5.9c-1.6.2-3.1.8-3.3,1.3s-1.5.6-2.8.3c-1.8-.5-2.4-.2-2.4,1,0,.9.5,1.6,1,1.6a1,1,0,0,0,1-1.1c0-.5.5-.7,1.1-.4.6.5.3,1.2-1,2.1C101.3,102.9,95.2,103.2,89.5,102.3Zm32.2-9a1.2,1.2,0,0,0-1.4,0c-.3.4,0,.7.7.7S122,93.7,121.7,93.3Z" transform="translate(-51.8 -62)"/><path class="cls-24" d="M110.3,101.3c2.4-.3,3.5-.8,3.1-1.5s-.1-.9,1-.5a8.18,8.18,0,0,0,4.4,0l2.7-.6-2.9-1.2c-2.6-1.1-2.7-1.2-.8-1.7a3.6,3.6,0,0,1,3.7,1.2c1.6,1.8,1.4,1.9-3.6,3.4a29.75,29.75,0,0,1-8.3,1.4C106.9,101.7,107,101.6,110.3,101.3Z" transform="translate(-51.8 -62)"/><path class="cls-24" d="M142.5,96c.3-.5.8-1,1.1-1s.2.5-.1,1-.8,1-1.1,1S142.2,96.6,142.5,96Z" transform="translate(-51.8 -62)"/><path class="cls-24" d="M67,93.5c-.7-.8-.9-1.5-.4-1.6s-.1-.4-1.3-.9S63,89.6,63,89s1-1,2.3-.9c2,0,2.1.1.3.8s-1.9.8.1,1.3a4.36,4.36,0,0,1,2.6,2.7C68.9,95.4,68.7,95.5,67,93.5Z" transform="translate(-51.8 -62)"/><path class="cls-24" d="M142.3,92.3a1.2,1.2,0,0,1,1.4,0c.3.4,0,.7-.7.7S142,92.7,142.3,92.3Z" transform="translate(-51.8 -62)"/><path class="cls-24" d="M69.3,91.3a1.2,1.2,0,0,1,1.4,0c.3.4,0,.7-.7.7S69,91.7,69.3,91.3Z" transform="translate(-51.8 -62)"/><path class="cls-24" d="M58.1,84.1C59.4,81.4,67.9,72,69,72c.4,0-1.4,2.1-3.9,4.8A63.82,63.82,0,0,0,58.7,84l-1.8,2.5Z" transform="translate(-51.8 -62)"/><path class="cls-24" d="M84.5,83.5l-4-1.4,4,.5c3.5.4,3.7.3,1.8-.7-2.7-1.4-3.1-3.1-.6-2.2,1.5.6,1.6.5.3-.9-.8-.9-1.8-1.4-2.2-1.1s-.5-.3-.2-1.1c.5-1.4.8-1.4,2.1-.1,1.8,1.9,1.8,1.9,2-1,.4-5.3.6-5.5,2.6-4.9,1.2.4,1.7.2,1.3-.4-.9-1.5,5.6-2.6,10.6-1.8,4.3.7,9.3,3,11.7,5.4,1.7,1.6,2.2,5,.9,5.8q-.75.45-.6-.3c.3-.7-.5-1.3-1.7-1.3-.3,0-.1.9.5,2,1,1.9.7,2.2-1.6,1.9-.4,0-1,.5-1.5,1.2C108.7,85.1,89.7,85.4,84.5,83.5Z" transform="translate(-51.8 -62)"/><path class="cls-24" d="M115.3,82.3a1.2,1.2,0,0,1,1.4,0c.3.4,0,.7-.7.7S115,82.7,115.3,82.3Z" transform="translate(-51.8 -62)"/><path class="cls-24" d="M117,80c0-.7.3-1,.7-.7a1.2,1.2,0,0,1,0,1.4C117.3,81,117,80.7,117,80Z" transform="translate(-51.8 -62)"/><path class="cls-24" d="M86,72c0-.7.3-1,.7-.7a1.2,1.2,0,0,1,0,1.4C86.3,73,86,72.7,86,72Z" transform="translate(-51.8 -62)"/><path class="cls-24" d="M71.3,70.3a1.2,1.2,0,0,1,1.4,0c.3.4,0,.7-.7.7S71,70.7,71.3,70.3Z" transform="translate(-51.8 -62)"/><path class="cls-24" d="M82.3,65.3a1.2,1.2,0,0,1,1.4,0c.3.4,0,.7-.7.7S82,65.7,82.3,65.3Z" transform="translate(-51.8 -62)"/><path class="cls-24" d="M85.3,64.3a1.2,1.2,0,0,1,1.4,0c.3.4,0,.7-.7.7S85,64.7,85.3,64.3Z" transform="translate(-51.8 -62)"/><path class="cls-24" d="M98.3,62.3a1.2,1.2,0,0,1,1.4,0c.3.4,0,.7-.7.7S98,62.7,98.3,62.3Z" transform="translate(-51.8 -62)"/></g><g id="layer126"><path class="cls-25" d="M127.5,133c.3-.5.8-1,1.1-1s.2.5-.1,1-.8,1-1.1,1S127.2,133.6,127.5,133Z" transform="translate(-51.8 -62)"/><path class="cls-25" d="M89.9,127.6c.6-.7.8-1.6.3-2s.1-1.2,1-1.7a2,2,0,0,0,1.1-2.6c-.4-1-.2-1.4.4-1a1,1,0,0,0,1.5-.4c.3-.9,1-.8,2.5.2,1.7,1,2.4,1,3.6,0a14.05,14.05,0,0,1,4.1-1.7l2.6-.4-2,2c-1.2,1.2-2.6,1.8-3.3,1.4s-.3.2.7,1.4,1.6,2.5,1.3,2.9-.7.1-.7-.5a1.13,1.13,0,0,0-1.1-1.2c-.5,0-.7.6-.3,1.3s.2.7-.9-.2c-1.6-1.2-2.1-1.2-4.5.6C92.9,128.1,88.3,129.5,89.9,127.6Z" transform="translate(-51.8 -62)"/><path class="cls-25" d="M112.5,126.9c.6-3,1-3.3,5.8-3.5l4.2-.2-2.8,2.4c-1.6,1.3-3.2,2.2-3.7,1.9a1.1,1.1,0,0,0-1.5.5C113.4,129.8,112.1,129.1,112.5,126.9Z" transform="translate(-51.8 -62)"/><path class="cls-25" d="M133.3,127.3a1.2,1.2,0,0,1,1.4,0c.3.4,0,.7-.7.7S133,127.7,133.3,127.3Z" transform="translate(-51.8 -62)"/><path class="cls-25" d="M77.2,124.7c-.8-1-.6-1.3.8-1.4a2.41,2.41,0,0,1,2.4,1.3C81.1,126.4,78.6,126.5,77.2,124.7Z" transform="translate(-51.8 -62)"/><path class="cls-25" d="M136.5,124c.3-.5.8-1,1.1-1s.2.5-.1,1-.8,1-1.1,1S136.2,124.6,136.5,124Z" transform="translate(-51.8 -62)"/><path class="cls-25" d="M58.4,121.8c-.4-.7-.3-.8.4-.4,1.2.7,1.6,1.6.8,1.6C59.3,123,58.8,122.5,58.4,121.8Z" transform="translate(-51.8 -62)"/><path class="cls-25" d="M142,114c0-.7.3-1,.7-.7a1.2,1.2,0,0,1,0,1.4C142.3,115,142,114.7,142,114Z" transform="translate(-51.8 -62)"/><path class="cls-25" d="M53,109c0-.7.3-1,.7-.7a1.2,1.2,0,0,1,0,1.4C53.3,110,53,109.7,53,109Z" transform="translate(-51.8 -62)"/><path class="cls-25" d="M143.5,108c.3-.5.8-1,1.1-1s.2.5-.1,1-.8,1-1.1,1S143.2,108.6,143.5,108Z" transform="translate(-51.8 -62)"/><path class="cls-25" d="M53.1,104.4c0-1.1.3-1.4.6-.6a2,2,0,0,1-.1,1.9C53.3,106.1,53,105.5,53.1,104.4Z" transform="translate(-51.8 -62)"/><path class="cls-25" d="M91.5,102.3a81,81,0,0,1-9.5-1.4c-4.6-1-5.1-1.3-3.3-2,1.6-.6,2.1-1.4,1.8-3-.4-1.9-.2-2.1,3.3-1.4A131.06,131.06,0,0,0,98,96c5.8.4,9.2.8,7.5.9-4.9.2-7.2,2.4-4.4,4.2.8.4,1,1.2.5,1.6s-1.3,0-2-1c-1.6-2.1-2.7-2.2-2-.2.4.9.1,1.4-.7,1.3S93.7,102.5,91.5,102.3Z" transform="translate(-51.8 -62)"/><path class="cls-25" d="M112.3,101.3a1.2,1.2,0,0,1,1.4,0c.3.4,0,.7-.7.7S112,101.7,112.3,101.3Z" transform="translate(-51.8 -62)"/><path class="cls-25" d="M53,100c0-.7.3-1,.7-.7a1.2,1.2,0,0,1,0,1.4C53.3,101,53,100.7,53,100Z" transform="translate(-51.8 -62)"/><path class="cls-25" d="M115.3,100.3a1.2,1.2,0,0,1,1.4,0c.3.4,0,.7-.7.7S115,100.7,115.3,100.3Z" transform="translate(-51.8 -62)"/><path class="cls-25" d="M120.5,99c.3-.6.1-1-.6-1s-1-.3-.6-.6,1.3-.2,2.2.4c1.6.8,1.6.9.1,1.5C120.6,99.7,120.1,99.6,120.5,99Z" transform="translate(-51.8 -62)"/><path class="cls-25" d="M76.6,97.1c-.4-.5.3-.7,1.4-.4,2.3.6,2.6,1.3.6,1.3A2.53,2.53,0,0,1,76.6,97.1Z" transform="translate(-51.8 -62)"/><path class="cls-25" d="M53,96c0-.7.3-1,.7-.7a1.2,1.2,0,0,1,0,1.4C53.3,97,53,96.7,53,96Z" transform="translate(-51.8 -62)"/><path class="cls-25" d="M123.2,96.5c1.2-1.2-1.9-3.5-3.9-2.9-1.7.5-1.7.5,0-.6,1.9-1.2,6.1-.4,5.2,1.1-.4.5-.1.9.6.9s.9-.8.6-2.1c-.4-1.5-.2-1.9.9-1.5.8.3,1.4.1,1.4-.4s.5-1,1.2-1,.3.9-.7,2-1.3,2-.7,2c1.9,0,3.3-3.5,2-4.8-.9-.9-.4-1.2,2-1.2,4.1,0,4.2,2.3.2,4.7-1.6.9-3,2.1-3,2.6s-.6.7-1.2.4a5.3,5.3,0,0,0-3.3.6C123.4,96.8,122.8,96.9,123.2,96.5Z" transform="translate(-51.8 -62)"/><path class="cls-25" d="M110.3,95.3a1.2,1.2,0,0,1,1.4,0c.3.4,0,.7-.7.7S110,95.7,110.3,95.3Z" transform="translate(-51.8 -62)"/><path class="cls-25" d="M54.1,93.5c.1-1.9,1.8-5.1,1.8-3.5a6.91,6.91,0,0,1-.9,3C54.5,93.8,54.1,94.1,54.1,93.5Z" transform="translate(-51.8 -62)"/><path class="cls-25" d="M76.8,93.3a2,2,0,0,1,1.9.1c.4.3-.2.6-1.3.5S76,93.6,76.8,93.3Z" transform="translate(-51.8 -62)"/><path class="cls-25" d="M63.8,88.8a2.72,2.72,0,0,1,2.3-.6c.8.3.3.7-1,1.1C63.4,89.7,63,89.6,63.8,88.8Z" transform="translate(-51.8 -62)"/><path class="cls-25" d="M58,84c.6-1.1,1.3-2,1.6-2s0,.9-.6,2-1.3,2-1.6,2S57.4,85.1,58,84Z" transform="translate(-51.8 -62)"/><path class="cls-25" d="M88,84c-.8-.5-1-1-.5-1s.3-.5-.5-1c-1.2-.8-1.2-1-.1-1s1.2-.9.8-3.7S87.4,74,88,75c.9,1.3,1.1,1.3,2,0a3.46,3.46,0,0,0,.5-2.7c-.2-.7.3-1.3,1.3-1.3,1.4,0,1.4-.2.3-.9-2.1-1.4,4.9-2.5,10.3-1.7,3.9.6,13.6,5.8,13.6,7.4,0,.3-.3.2-.7-.1s-1.2-.2-2,.5c-1.1.9-1.2.7-.7-.8.6-1.8.5-1.7-.9.1a8,8,0,0,0-1.7,4.3c0,1.7-.6,2.2-2.5,2.2-1.6,0-2.5.6-2.5,1.5,0,1.2-1.5,1.5-7.7,1.5C93,85,88.8,84.5,88,84Zm20.7-3.7a1.2,1.2,0,0,0-1.4,0c-.3.4,0,.7.7.7S109,80.7,108.7,80.3Z" transform="translate(-51.8 -62)"/><path class="cls-25" d="M60.5,80c.3-.5.8-1,1.1-1s.2.5-.1,1-.8,1-1.1,1S60.2,80.6,60.5,80Z" transform="translate(-51.8 -62)"/><path class="cls-25" d="M86,78c0-.7.3-1,.7-.7a1.2,1.2,0,0,1,0,1.4C86.3,79,86,78.7,86,78Z" transform="translate(-51.8 -62)"/><path class="cls-25" d="M67.7,72.9c.7-.7,1.5-1,1.8-.7s-.2.9-1.2,1.2C66.9,74,66.8,73.9,67.7,72.9Z" transform="translate(-51.8 -62)"/></g></svg>