<svg id="Layer_1" data-name="Layer 1" xmlns="http://www.w3.org/2000/svg" viewBox="0 0 67.14 108.65"><defs><style>.prozone-1{fill:#13251c;}.prozone-2{fill:#1f1f22;}.prozone-3{fill:#78ae94;}.prozone-4{fill:#7ac59e;}.prozone-5{fill:#8abaa5;}.prozone-6{fill:#88caaa;}.prozone-7{fill:#fbfbfc;}</style></defs><title>inkling</title><ellipse cx="33.41" cy="71.84" rx="12.84" ry="29.31"/><g id="layer102"><path class="prozone-1" d="M94.5,149.4c-2.1-5.2-1.9-5.9,1.8-5.9,4.9,0,5.8,1,4.1,4.3a14.72,14.72,0,0,0-1.4,4C99,154.4,95.9,152.8,94.5,149.4Z" transform="translate(-63.75 -44.44)"/><path class="prozone-1" d="M91,140.6a4,4,0,0,1-1-2.5c0-.9-1.1-3.4-2.5-5.6-2.9-4.8-3-5.5-.9-5.5,1.2,0,1-.6-1-2.1-3-2.4-3.2-3.6-1-6,1.5-1.7,1.5-2,0-4.4-.9-1.4-1.4-3-1.1-3.5s-.7-2.8-2.4-4.9-3.1-4.4-3.1-5-.4-1.1-.8-1.1c-1.8,0-8.1-6.7-10.5-11-2.2-3.9-2.5-5.9-2.5-13,0-4.6.3-9.1.7-9.9C69,57.4,70.5,55,72,54.5a3.88,3.88,0,0,0,2.4-2.1A5.67,5.67,0,0,1,77.2,50c1.3-.6,3-1.4,3.8-1.9,5-3,8-3.6,16.4-3.6,8,0,9.8.4,14.9,2.9,3.3,1.6,6.1,3.5,6.4,4.3a2.35,2.35,0,0,0,1.9,1.3,2.6,2.6,0,0,1,2.1,1.6,18.76,18.76,0,0,0,2.9,4.2c1.3,1.4,2.4,3.2,2.4,4.1a4.34,4.34,0,0,0,1.3,2.9c.7.8,1.2,4.3,1.3,9,.2,10.1-1.7,14.3-10.6,23.7-3.8,4.1-7,8.1-7,8.9,0,2.4-2,2.9-4.1,1-1.8-1.6-1.9-1.6-1.3-.1.3.9.9,1.7,1.3,1.7.9,0,.8,4.2-.2,5.7-.4.7-.1,2.3.8,3.7,1.3,1.9,1.4,2.9.5,4.5-.6,1.2-1.6,2.1-2.3,2.1s-.8.3.1.9c1.4.8,1.2,1.5-2,7.1-.4.8-1.1,2.2-1.4,3-1.5,4-2.1,4.4-7.3,4.5C94.3,141.5,91.5,141.1,91,140.6Zm-3.3-33.3a1.2,1.2,0,0,0-1.4,0c-.3.4,0,.7.7.7S88,107.7,87.7,107.3ZM102,101c.3-.1,1.8-.3,3.4-.5,2.9-.4,9.6-4.4,9.6-5.7,0-.5.7-.8,1.5-.8a1.54,1.54,0,0,0,1.5-1.5c0-.8.4-1.5.8-1.5s1.9-2.1,3.2-4.7c3.4-6.9,3.1-14.2-.9-22.6-1.7-3.5-3.9-6.7-4.8-7.1a34.57,34.57,0,0,1-5.8-3.1c-2.2-1.4-5-2.5-6.2-2.5s-2.5-.4-2.8-1c-.9-1.5-7.6-1.2-10.5.5A13.66,13.66,0,0,1,86.4,52c-2.9,0-13.9,10.3-12.9,12,.5.8.4,1.1-.2.7-2-1.3-5,13.2-3.2,15.8a16.67,16.67,0,0,1,1.4,3.4c2.1,6.8,9.4,13.6,17.3,16.2C92.2,101.2,99.9,101.8,102,101Z" transform="translate(-63.75 -44.44)"/><path class="prozone-1" d="M89,96.4c-2.1-.6-4.2-.9-4.6-.5s-.4,0,0-.7-.2-1.5-1.7-2.1c-3-1.2-6.7-6.2-6.7-9.1,0-1.6-.4-2.1-1.6-1.6-1.4.5-1.5.4-.4-.9s1-1.9.2-2.7c-1.5-1.5-1.6-5.5-.1-6.3a1.93,1.93,0,0,0,.5-2.2c-.7-1.8,3.5-9.3,5.2-9.3a2.54,2.54,0,0,0,1.9-1.5c.5-1.4,6.4-4.8,8.8-5a5.38,5.38,0,0,0,2.2-.8c2-1.2,12,0,15.5,2,4.4,2.4,7.8,5.4,7.8,6.9a2.57,2.57,0,0,0,1.5,1.8,3.28,3.28,0,0,1,1.5,3,4.68,4.68,0,0,0,.8,3c1.5.9.6,12.5-1.2,14.4a6.34,6.34,0,0,0-1.6,2.8c-.1,2-10.5,9.6-12.8,9.3a2.36,2.36,0,0,0-1.2.1C101.4,97.8,92.4,97.4,89,96.4ZM98.5,94c.3-.5-.1-1-.9-1a2.82,2.82,0,0,0-2.1,1c-.3.6.1,1,.9,1A2.52,2.52,0,0,0,98.5,94Zm-10-3c-.5-.8-1.1-.8-2.1.1-1.2,1-1.2,1.4-.2,2C87.8,94.1,89.5,92.6,88.5,91ZM81,86.1c0-1.2-2-2.5-2.7-1.8s.6,2.7,1.8,2.7A.9.9,0,0,0,81,86.1Zm34.1-1.4c-1.3-1.3-2.6-.3-1.6,1.2a1.28,1.28,0,0,0,1.7.5C115.8,86,115.8,85.4,115.1,84.7ZM78,75a1,1,0,0,0-1-1,1.08,1.08,0,0,0-1,1,1,1,0,0,0,1,1A.94.94,0,0,0,78,75Zm18.5-1c.3-.5.1-1-.4-1A1.1,1.1,0,0,0,95,74c0,.6.2,1,.4,1S96.2,74.6,96.5,74ZM116,66.5a1.54,1.54,0,0,0-1.5-1.5c-1.6,0-2,1.2-.8,2.3S116,68.1,116,66.5Zm-35,.1c0-.3-.5-.8-1.2-1.2s-.8-.3-.4.4C80.1,67,81,67.4,81,66.6ZM108,60a1,1,0,0,0-1-1,1.08,1.08,0,0,0-1,1,1,1,0,0,0,1,1A.94.94,0,0,0,108,60Z" transform="translate(-63.75 -44.44)"/></g><g id="layer103"><path class="prozone-2" d="M95.7,149.3c-1.4-3.4-1.4-3.9,0-5,2.4-1.9,4.6-.5,3.7,2.6a19.16,19.16,0,0,0-.6,4.4C98.9,154.2,97.3,153.2,95.7,149.3Z" transform="translate(-63.75 -44.44)"/><path class="prozone-2" d="M89.9,137.2c-1.1-2.4-1.7-4.8-1.3-5.3s-.1-.9-.9-.9c-1.2,0-2.7-1.9-2.7-3.3,0-.1,5.4-.2,12-.2s12,.1,12,.2-1,1.9-2.2,4a45.49,45.49,0,0,0-3.3,6.7c-.9,2.8-1.3,3-6.4,3.1H91.7Z" transform="translate(-63.75 -44.44)"/><path class="prozone-2" d="M85.2,124.8A4.42,4.42,0,0,1,84,122c0-3.4,2.2-4,13.7-4,12.3,0,13.2.4,11.4,5.3-1,2.7-1.1,2.7-11.9,2.7C90.1,126,86,125.6,85.2,124.8Z" transform="translate(-63.75 -44.44)"/><path class="prozone-2" d="M84.8,114.3c-1.7-1.6-1.6-1.9,1-4.6l2.7-3-2.4.6c-1.8.5-3.1,0-4.8-1.9a11.8,11.8,0,0,1-2.3-3c0-.3-2.4-2.9-5.3-5.9-7.4-7.3-9.1-11.3-9.2-20.5,0-15.9,10-27.5,26.7-30.9,13.6-2.8,28.7,4.4,35.4,16.9a49.77,49.77,0,0,0,3,5c1.6,2.2,1.5,15.7-.2,17.1a3.4,3.4,0,0,0-1.4,2.3c0,1.9-7.1,11.5-9.1,12.1-1,.3-3.3,2.8-5,5.5-3,4.6-3.3,4.8-5.4,3.4-2.8-1.8-4-.7-1.5,1.5a6.67,6.67,0,0,1,2.2,4.1l.3,2.5-11.5.3C88.2,116,86.2,115.8,84.8,114.3Zm18.7-7.3c-.3-.5-1.9-1-3.5-1s-3.2.5-3.5,1,1,1,3.5,1S103.9,107.6,103.5,107Zm3.7-7c15.4-5.8,22.2-21.5,15.3-35.7-10-20.3-40.2-19.8-51.2,1-2.5,4.8-2.3,16.1.4,21.2A28.7,28.7,0,0,0,107.2,100Z" transform="translate(-63.75 -44.44)"/><path class="prozone-2" d="M91.5,97.2a25.64,25.64,0,0,1-6.3-3.3c-2.4-1.6-4.7-2.9-5.3-2.9s-.9-.6-.9-1.4a2.53,2.53,0,0,0-1.5-2A3,3,0,0,1,76,84.9a18,18,0,0,0-1.7-5.6c-1.3-2.9-1.4-3.9-.4-5.5a5.43,5.43,0,0,0,.6-3.7,3.1,3.1,0,0,1,1-3.1A4.29,4.29,0,0,0,77,64.8c0-2,7.1-7.7,11.1-8.9a36.09,36.09,0,0,0,5.6-2.1c.7-.6,2.7-.5,4.8.1a14.34,14.34,0,0,0,5,.5c.8-.3,2.9.6,4.8,2s3.9,2.6,4.5,2.6,1.4.9,1.7,2a5.45,5.45,0,0,0,2.6,3,4.17,4.17,0,0,1,1.9,3.5,4.55,4.55,0,0,0,.8,2.9c1.2.7.6,8.8-.9,12.1-3.8,8.5-9.1,13.3-15.4,14.2C99.2,97.4,93.4,97.6,91.5,97.2Zm7-3.2c.3-.5-.1-1-.9-1a2.82,2.82,0,0,0-2.1,1c-.3.6.1,1,.9,1A2.52,2.52,0,0,0,98.5,94Zm-10-3c-.5-.8-1.1-.8-2.1.1-1.2,1-1.2,1.4-.2,2C87.8,94.1,89.5,92.6,88.5,91ZM108,91c0-.5-.2-1-.4-1s-.8.5-1.1,1-.1,1,.4,1A1,1,0,0,0,108,91ZM81.4,86.1c.3-.5-.1-1.4-.8-2-1.6-1.3-3.2.2-2.1,1.9C79.3,87.2,80.7,87.3,81.4,86.1Zm33.7-1.4c-1.3-1.3-2.6-.3-1.6,1.2a1.28,1.28,0,0,0,1.7.5C115.8,86,115.8,85.4,115.1,84.7ZM100,77c0-.5-.2-1-.4-1s-.8.5-1.1,1-.1,1,.4,1A1,1,0,0,0,100,77Zm19-1a1,1,0,0,0-1-1,1.08,1.08,0,0,0-1,1,1,1,0,0,0,1,1A.94.94,0,0,0,119,76ZM78,75a1,1,0,0,0-1-1,1.08,1.08,0,0,0-1,1,1,1,0,0,0,1,1A.94.94,0,0,0,78,75Zm20.2-2.2A1.91,1.91,0,0,0,95,74c0,.4.9.6,2.1.3S98.8,73.4,98.2,72.8ZM81,67.2c0-1.3-1.2-2.2-2.2-1.6S78.7,68,80.1,68A.88.88,0,0,0,81,67.2Zm35-.7a1.54,1.54,0,0,0-1.5-1.5c-1.6,0-2,1.2-.8,2.3S116,68.1,116,66.5ZM88,60c0-.5-.7-1-1.6-1s-1.2.5-.9,1a1.9,1.9,0,0,0,1.6,1A.92.92,0,0,0,88,60Zm20,0a1,1,0,0,0-1-1,1.08,1.08,0,0,0-1,1,1,1,0,0,0,1,1A.94.94,0,0,0,108,60Zm-9.2-3.2c-.6-1.8-2.8-2.1-2.8-.4A1.58,1.58,0,0,0,97.6,58C98.5,58,99,57.5,98.8,56.8Z" transform="translate(-63.75 -44.44)"/></g><g id="layer104"><path class="prozone-3" d="M96.3,150.5c-2.2-4.1-2-5.8,1-5.9s3.2.5,1.3,4.9C97.4,152.3,97.3,152.4,96.3,150.5Z" transform="translate(-63.75 -44.44)"/><path class="prozone-3" d="M90.5,136.1c-.9-2.8-2.1-5.3-2.6-5.6-2.7-1.7.1-2.5,9.1-2.5,5.5,0,10,.1,10,.3s-1.1,2.9-2.4,6.2l-2.5,6-4.9.3-5,.3Z" transform="translate(-63.75 -44.44)"/><path class="prozone-3" d="M85.2,124.8A4.42,4.42,0,0,1,84,122c0-3.3,2.2-4,13.2-4,9.2,0,10.9.2,11.6,1.8a5,5,0,0,1,.1,4c-.8,2.1-1.4,2.2-11.7,2.2C90.1,126,86,125.6,85.2,124.8Z" transform="translate(-63.75 -44.44)"/><path class="prozone-3" d="M85.7,115.3c-1.1-1.1-.8-4.8.5-6.1.8-.8,4.7-1.2,10.9-1.2,10.7,0,12.6.9,11.5,5.5-.6,2.5-.7,2.5-11.5,2.5C91.2,116,86,115.7,85.7,115.3Z" transform="translate(-63.75 -44.44)"/><path class="prozone-3" d="M108.6,107.5c-2.4-1.8-19.6-2.1-22.9-.4-1.8,1-2.3.8-3.6-1.2a109.93,109.93,0,0,0-7.7-8.6c-7.3-7.4-9.5-11.7-10.1-19.7-.9-11.3,5.8-23.1,16.3-28.8,20.4-10.9,43.5-.5,49.6,22.4,1.1,4.3,1,5.5-1.1,11.9-2,6.1-3.3,8.1-8.8,13.8-3.6,3.6-7.1,7.8-7.9,9.4C110.7,109.4,111,109.3,108.6,107.5Zm-1.4-7.5c15.4-5.8,22.2-21.5,15.3-35.7-10-20.3-40.2-19.8-51.2,1-2.5,4.8-2.3,16.1.4,21.2A28.7,28.7,0,0,0,107.2,100Z" transform="translate(-63.75 -44.44)"/><path class="prozone-3" d="M88,95.4C82.4,93,77.1,87.2,75.5,81.6c-.8-2.7-1.5-5.1-1.5-5.3s1.2,0,2.6.3c2,.5,2.5.3,2.2-.7a2.42,2.42,0,0,0-2.5-1.2c-1.9.2-2-.1-1.1-4,2.6-11.5,14.7-18.6,27.1-15.8,10,2.2,16.4,9,17.4,18.4s-3.5,17.3-12.1,21.3C101.6,97.4,93.4,97.7,88,95.4Zm11-.9A1.45,1.45,0,0,0,97.6,93c-1.7,0-2.8,1.4-1.9,2.4C96.9,96.6,99,96,99,94.5ZM88.5,91c-.5-.8-1.1-.8-2.1.1-1.2,1-1.2,1.4-.2,2C87.8,94.1,89.5,92.6,88.5,91Zm20,0a1,1,0,0,0-1.7-.2,1.84,1.84,0,0,0-.3,2.2,1,1,0,0,0,1.7.2A1.84,1.84,0,0,0,108.5,91ZM81.4,86.1c.3-.5-.1-1.4-.8-2-1.6-1.3-3.2.2-2.1,1.9C79.3,87.2,80.7,87.3,81.4,86.1ZM115.5,84a1,1,0,0,0-1.7-.2,1.84,1.84,0,0,0-.3,2.2,1,1,0,0,0,1.7.2A1.84,1.84,0,0,0,115.5,84Zm-15.1-7.3c.9-1.5.7-2.1-1.3-3.6-1.6-1.2-2-2-1.2-2.5,1.5-1,1-10.8-.6-11.4-1-.3-1.3,1.4-1.3,6.2,0,3.7-.5,7.5-1.2,8.5-.9,1.5-.9,2.3.2,3.6C96.6,79.4,98.9,79.1,100.4,76.7Zm18.4-.9c-.6-1.8-2.8-2.1-2.8-.4a1.58,1.58,0,0,0,1.6,1.6C118.5,77,119,76.5,118.8,75.8ZM81.5,67.1c.7-1.2-1.2-2.4-2.5-1.6-1.1.7-.4,2.5,1,2.5A2.2,2.2,0,0,0,81.5,67.1Zm34.5-.6a1.54,1.54,0,0,0-1.5-1.5c-1.6,0-2,1.2-.8,2.3S116,68.1,116,66.5ZM88.5,59.9c1-1.5-.1-2.3-2-1.5-.9.3-1.3,1-1,1.6A1.62,1.62,0,0,0,88.5,59.9Zm20.3-.7c.2-.7-.3-1.2-1.2-1.2a1.58,1.58,0,0,0-1.6,1.6C106,61.3,108.2,61,108.8,59.2Zm-10-2.4c-.6-1.8-2.8-2.1-2.8-.4A1.58,1.58,0,0,0,97.6,58C98.5,58,99,57.5,98.8,56.8Z" transform="translate(-63.75 -44.44)"/><path class="prozone-3" d="M96,75.5c0-.8.5-1.5,1-1.5s1,.7,1,1.5S97.6,77,97,77,96,76.3,96,75.5Z" transform="translate(-63.75 -44.44)"/></g><g id="layer105"><path class="prozone-4" d="M96.3,150.5c-2.2-4.1-2-5.8,1-5.9s3.2.5,1.3,4.9C97.4,152.3,97.3,152.4,96.3,150.5Z" transform="translate(-63.75 -44.44)"/><path class="prozone-4" d="M90.5,136.1c-.9-2.8-2.1-5.3-2.6-5.6-2.7-1.7.1-2.5,9.1-2.5,5.5,0,10,.1,10,.3s-1.1,2.9-2.4,6.2l-2.5,6-4.9.3-5,.3Z" transform="translate(-63.75 -44.44)"/><path class="prozone-4" d="M85.7,124a9,9,0,0,1,0-4c.5-1.8,1.4-2,11.4-2,8,0,10.9.3,11,1.3.1.6.2,2.3.3,3.7l.1,2.5-11.1.3C86.9,126,86.2,125.9,85.7,124Z" transform="translate(-63.75 -44.44)"/><path class="prozone-4" d="M85.7,115.3c-1.1-1.1-.8-4.8.5-6.1.8-.8,4.7-1.2,10.9-1.2,10.7,0,12.6.9,11.5,5.5-.6,2.5-.7,2.5-11.5,2.5C91.2,116,86,115.7,85.7,115.3Z" transform="translate(-63.75 -44.44)"/><path class="prozone-4" d="M109.7,107.7c-.5-1.5-2.4-1.7-12.5-1.7-7.7,0-12.2.4-13,1.2s-1.5.3-2.7-2.6c-.9-2-2.3-4-3.1-4.3C73.7,98.5,65.7,88.1,65.8,84c0-1.6-.4-3.2-.9-3.5-1.2-.8-1.2-9.2.1-10a1.93,1.93,0,0,0,.8-1.8c-.4-2.1,4.9-12.1,7.9-14.8,4.7-4.5,15.8-9.1,21.6-9.1s8.6.4,10.5,1.6a2.28,2.28,0,0,0,2.1.2,1.61,1.61,0,0,1,1.9.7,14.05,14.05,0,0,0,4.4,2.6c4.1,1.6,13,12.2,13.4,15.8a20,20,0,0,0,1,4.2c1,2.6,1.3,12,.3,12.7-.5.3-.9,1.5-.9,2.8a6.4,6.4,0,0,1-2,4.1,5.77,5.77,0,0,0-2,3.2,1.44,1.44,0,0,1-1.5,1.3,1.37,1.37,0,0,0-1.5,1.2c0,.7-2,3.1-4.5,5.3s-4.8,5.2-5.3,6.5C110.5,108.9,110.2,109,109.7,107.7Zm2.2-9.8c3.9-2.2,7.3-4.9,7.6-6s1-1.9,1.5-1.9c3.5,0,6-16.8,3.3-22a11.88,11.88,0,0,1-1.3-4.1c0-1.8-8.4-9.9-12-11.6-6.9-3.1-9.3-3.6-15.9-2.9-7.2.6-11.5,2.5-18.4,8.1-2,1.7-3.7,3.4-3.7,3.9a6.14,6.14,0,0,1-1.6,2.7,9.54,9.54,0,0,0-1.8,4.1,9.85,9.85,0,0,1-.8,3.3c-.8,1.3-.5,7.2.5,8.1A6.63,6.63,0,0,1,70,83a6.06,6.06,0,0,0,1.5,4A4.29,4.29,0,0,1,73,89.2c0,3.3,15.4,13.9,17.9,12.3a1.39,1.39,0,0,1,1.7.6C94,104.4,104.6,102.2,111.9,97.9Z" transform="translate(-63.75 -44.44)"/><path class="prozone-4" d="M88,95.4C82.4,93,77.1,87.2,75.5,81.6c-.8-2.7-1.5-5.1-1.5-5.3s1.2,0,2.6.3c2,.5,2.5.3,2.2-.7a2.42,2.42,0,0,0-2.5-1.2c-1.9.2-2-.1-1.1-4,4.1-18.4,30.1-22.4,41.5-6.3,3.7,5.1,4.2,13.7,1.3,19.9C113.1,94.8,98.8,100.1,88,95.4Zm11-.9A1.45,1.45,0,0,0,97.6,93c-1.7,0-2.8,1.4-1.9,2.4C96.9,96.6,99,96,99,94.5ZM88.5,91c-.5-.8-1.1-.8-2.1.1-1.2,1-1.2,1.4-.2,2C87.8,94.1,89.5,92.6,88.5,91Zm19.7-.2c-.9-.9-1.5-.9-2.4,0s-1,1.5.2,2.2C108,94.2,109.8,92.4,108.2,90.8ZM81.4,86.1c.3-.5-.1-1.4-.8-2-1.6-1.3-3.2.2-2.1,1.9C79.3,87.2,80.7,87.3,81.4,86.1ZM115.5,84a1,1,0,0,0-1.7-.2,1.84,1.84,0,0,0-.3,2.2,1,1,0,0,0,1.7.2A1.84,1.84,0,0,0,115.5,84Zm-15.1-7.3c.8-1.4.8-2.1-.4-3s-1.5-3.1-1.5-7.6c0-4.2-.4-6.6-1.2-6.8-1-.4-1.3,1.3-1.3,6.3s-.4,7.2-1.7,8.7c-1.7,1.8-1.7,1.9.2,3.3C96.9,79.4,98.9,79.1,100.4,76.7Zm18.4-.9c-.6-1.8-2.8-2.1-2.8-.4a1.58,1.58,0,0,0,1.6,1.6C118.5,77,119,76.5,118.8,75.8ZM81.5,67.1c.7-1.2-1.2-2.4-2.5-1.6-1.1.7-.4,2.5,1,2.5A2.2,2.2,0,0,0,81.5,67.1Zm34.5-.6a1.54,1.54,0,0,0-1.5-1.5c-1.6,0-2,1.2-.8,2.3S116,68.1,116,66.5ZM88.5,59.9c1-1.5-.1-2.3-2-1.5-.9.3-1.3,1-1,1.6A1.62,1.62,0,0,0,88.5,59.9Zm20.3-.7c.2-.7-.3-1.2-1.2-1.2a1.58,1.58,0,0,0-1.6,1.6C106,61.3,108.2,61,108.8,59.2Zm-10-2.4c-.6-1.8-2.8-2.1-2.8-.4A1.58,1.58,0,0,0,97.6,58C98.5,58,99,57.5,98.8,56.8Z" transform="translate(-63.75 -44.44)"/><path class="prozone-4" d="M96,75.5c0-.8.5-1.5,1-1.5s1,.7,1,1.5S97.6,77,97,77,96,76.3,96,75.5Z" transform="translate(-63.75 -44.44)"/></g><g id="layer106"><path class="prozone-5" d="M96.2,150.4c-2.2-4.1-1.9-5.7,1.1-5.8,2-.1,2.7.2,2.4,1.4a1.46,1.46,0,0,1-1.7,1.2c-1-.2-1.1,0-.2,1a2.66,2.66,0,0,1,.3,2.7C97.4,152,97,151.9,96.2,150.4Z" transform="translate(-63.75 -44.44)"/><path class="prozone-5" d="M90.5,136.1c-.9-2.8-2.1-5.3-2.6-5.6-2.7-1.7.1-2.5,9.1-2.5,5.5,0,10,.1,10,.3s-1.1,2.9-2.4,6.2l-2.5,6-4.9.3-5,.3Z" transform="translate(-63.75 -44.44)"/><path class="prozone-5" d="M85.7,124a9,9,0,0,1,0-4c.5-1.8,1.4-2,11.4-2,8,0,10.9.3,11,1.3.1.6.2,2.3.3,3.7l.1,2.5-11.1.3C86.9,126,86.2,125.9,85.7,124Zm20.3-.4c0-.3-.5-.8-1.2-1.2s-.8-.3-.4.4C105.1,124,106,124.4,106,123.6Z" transform="translate(-63.75 -44.44)"/><path class="prozone-5" d="M85.7,115.3c-1.1-1.1-.8-4.8.5-6.1.8-.8,4.7-1.2,10.9-1.2,10.7,0,12.6.9,11.5,5.5-.6,2.5-.7,2.5-11.5,2.5C91.2,116,86,115.7,85.7,115.3Z" transform="translate(-63.75 -44.44)"/><path class="prozone-5" d="M109.7,107.7c-.5-1.5-2.4-1.7-12.5-1.7-7.7,0-12.2.4-13,1.2s-1.5.3-2.6-2.3c-.8-1.8-1.3-3.6-1.1-3.9s-.4-.6-1.4-.7C75,100,65.7,88.5,65.8,84c0-1.6-.4-3.2-.9-3.5-1.2-.8-1.2-9.2.1-10a1.93,1.93,0,0,0,.8-1.8C65.5,67.1,70,58,71.1,58c.5,0,.9-.6.9-1.3,0-2,3.9-5.2,9.5-7.8a57.57,57.57,0,0,1,6-2.5,10.37,10.37,0,0,0,3-1c3.2-1.3,12.5-.8,15.3,1a2.45,2.45,0,0,0,2.2.1c.6-.3,1.3.1,1.6.9a2.35,2.35,0,0,0,1.8,1.6c5,0,15.7,11.7,16.3,17.8a40.6,40.6,0,0,0,1.3,6.6c.6,1.7.6,3.3.1,4s-.9,3.1-.9,5.5c-.1,3-.7,5-2.1,6.5a7.34,7.34,0,0,0-2.1,3.4,1.13,1.13,0,0,1-1.1,1.2c-1.1,0-3.9,2.5-3.9,3.5a19.72,19.72,0,0,1-3.5,3.9,20.41,20.41,0,0,0-4.3,5.6C110.5,108.9,110.2,109.1,109.7,107.7ZM87,104.6c0-.3-.5-.8-1.2-1.2s-.8-.3-.4.4C86.1,105,87,105.4,87,104.6Zm-3-2c0-.3-.5-.8-1.2-1.2s-.8-.3-.4.4C83.1,103,84,103.4,84,102.6Zm27.1-4.2c3.5-2.1,6.8-3.7,7.5-3.7s1-.6.7-1.4-.1-1.3.4-1.3,2-1.8,3.2-4c2.9-5.2,3.8-18.5,1.4-21.2-.8-.9-1.2-2.1-.9-2.6.6-1.1-8.9-10.3-12.4-11.9-7-3.1-9.3-3.6-16.1-2.9-3.9.3-8.1,1.3-9.5,2.2-1.9,1.3-2.7,1.4-3.8.5s-1.6-.9-2.2,0c-.4.8-.3.9.4.5,2.8-1.7.9,1.5-2.6,4.6-2.1,1.8-4.2,4.1-4.5,5.1s-1.2,1.5-1.9,1.1-1-.4-.6,0,0,2.5-.7,4.7C68.1,72,68,78.3,69.3,79.6a6.8,6.8,0,0,1,.7,3.5c0,1.5.5,3.1,1.1,3.4,1.1.7,3.3,5.5,3.1,6.7-.1.4.5.5,1.2.2a2.34,2.34,0,0,1,2.5,1.3c.5,1.1,2.6,2.8,4.5,3.8s3.6,2.3,3.6,2.8.4.6.9.3,2-.2,3.3.4,5,.8,8.4.6C103.3,102.2,106.1,101.3,111.1,98.4Zm.6,3.9a1.2,1.2,0,0,0-1.4,0c-.3.4,0,.7.7.7S112,102.7,111.7,102.3Zm2-2a1.2,1.2,0,0,0-1.4,0c-.3.4,0,.7.7.7S114,100.7,113.7,100.3ZM71.1,89.7c-1-.9-1.1-.8-.5.6.3,1,.9,1.5,1.2,1.2S71.8,90.4,71.1,89.7ZM77.5,54c.3-.5.4-1,.1-1s-.8.5-1.1,1-.4,1-.1,1S77.2,54.6,77.5,54Zm38-2a2.53,2.53,0,0,0-1.8-1c-.7,0-.6.4.3,1C115.9,53.2,116.3,53.2,115.5,52Z" transform="translate(-63.75 -44.44)"/><path class="prozone-5" d="M88,95.4C82.4,93,77.1,87.2,75.5,81.6c-.8-2.7-1.5-5.1-1.5-5.3s1.2,0,2.6.3c2,.5,2.5.3,2.2-.7a2.42,2.42,0,0,0-2.5-1.2c-1.9.2-2-.1-1.1-4,4.1-18.4,30.1-22.4,41.5-6.3,3.7,5.1,4.2,13.7,1.3,19.9C113.1,94.8,98.8,100.1,88,95.4Zm11-.9A1.45,1.45,0,0,0,97.6,93c-1.7,0-2.8,1.4-1.9,2.4C96.9,96.6,99,96,99,94.5ZM88.5,91c-.5-.8-1.1-.8-2.1.1-1.2,1-1.2,1.4-.2,2C87.8,94.1,89.5,92.6,88.5,91Zm19.7-.2c-.9-.9-1.5-.9-2.4,0s-1,1.5.2,2.2C108,94.2,109.8,92.4,108.2,90.8ZM81.4,86.1c.3-.5-.1-1.4-.8-2-1.6-1.3-3.2.2-2.1,1.9C79.3,87.2,80.7,87.3,81.4,86.1ZM115.5,84a1,1,0,0,0-1.7-.2,1.84,1.84,0,0,0-.3,2.2,1,1,0,0,0,1.7.2A1.84,1.84,0,0,0,115.5,84Zm-15.1-7.3c.8-1.4.8-2.1-.4-3s-1.5-3.1-1.5-7.6c0-4.2-.4-6.6-1.2-6.8-1-.4-1.3,1.3-1.3,6.3s-.4,7.2-1.7,8.7c-1.7,1.8-1.7,1.9.2,3.3C96.9,79.4,98.9,79.1,100.4,76.7Zm18.4-.9c-.6-1.8-2.8-2.1-2.8-.4a1.58,1.58,0,0,0,1.6,1.6C118.5,77,119,76.5,118.8,75.8ZM81.5,67.1c.7-1.2-1.2-2.4-2.5-1.6-1.1.7-.4,2.5,1,2.5A2.2,2.2,0,0,0,81.5,67.1Zm34.5-.6a1.54,1.54,0,0,0-1.5-1.5c-1.6,0-2,1.2-.8,2.3S116,68.1,116,66.5ZM88.5,59.9c1-1.5-.1-2.3-2-1.5-.9.3-1.3,1-1,1.6A1.62,1.62,0,0,0,88.5,59.9Zm20.3-.7c.2-.7-.3-1.2-1.2-1.2a1.58,1.58,0,0,0-1.6,1.6C106,61.3,108.2,61,108.8,59.2Zm-10-2.4c-.6-1.8-2.8-2.1-2.8-.4A1.58,1.58,0,0,0,97.6,58C98.5,58,99,57.5,98.8,56.8Z" transform="translate(-63.75 -44.44)"/><path class="prozone-5" d="M96,75.5c0-.8.5-1.5,1-1.5s1,.7,1,1.5S97.6,77,97,77,96,76.3,96,75.5Z" transform="translate(-63.75 -44.44)"/></g><ellipse cx="32.36" cy="30.29" rx="32.36" ry="30.29"/><g id="layer107"><path class="prozone-6" d="M95.1,147.8a5.45,5.45,0,0,1-.5-3c.6-.9,4.4.3,4.4,1.4,0,.5-.5.6-1.1.2-.8-.4-.9,0-.4,1.5C98.4,150.8,96.2,150.7,95.1,147.8Z" transform="translate(-63.75 -44.44)"/><path class="prozone-6" d="M90.5,136c-.9-2.7-2.1-5.2-2.6-5.5-2.7-1.7.1-2.5,9.2-2.5,5.5,0,9.9.3,9.7.8s-1,2.4-1.8,4.5-1.8,3.7-2.2,3.7-.8.9-.8,2c0,1.7-.7,2-4.9,2H92.2Z" transform="translate(-63.75 -44.44)"/><path class="prozone-6" d="M86.4,123.8c-2.2-5.1-1.1-5.8,9.1-5.8,5.1,0,10,.3,10.9.6,1.7.7,2.2,4.9.6,5.9-.5.3-5.1.8-10.3,1.1C87.7,126,87.3,125.9,86.4,123.8Zm19.6-.2c0-.3-.5-.8-1.2-1.2s-.8-.3-.4.4C105.1,124,106,124.4,106,123.6Z" transform="translate(-63.75 -44.44)"/><path class="prozone-6" d="M85.7,115.3c-1.1-1.1-.8-4.8.5-6.1.8-.8,4.7-1.2,10.9-1.2,10.7,0,12.6.9,11.5,5.5-.6,2.5-.7,2.5-11.5,2.5C91.2,116,86,115.7,85.7,115.3Z" transform="translate(-63.75 -44.44)"/><path class="prozone-6" d="M83,105.7a5.59,5.59,0,0,0-1.5-2.4c-.8-.8-1.3-1.9-.9-2.4s.2-.9-.3-.7c-1.3.3-7.3-3.6-7.3-4.8A4,4,0,0,0,71.4,93C69.3,91.2,66,84.1,66,81.3A9.26,9.26,0,0,0,64.8,77c-.9-1.4-.9-2.5-.1-4.2.5-1.3,1.8-4.9,2.8-8.1s2.4-6.1,3-6.5a5.24,5.24,0,0,0,1.8-2.6A2,2,0,0,1,75,54.3a2.87,2.87,0,0,0,2.7-.5c.3-.7.1-.8-.5-.4s-1.2.3-1.2-.1c0-1.1,6-4.7,6-3.6,0,.4.4.2.9-.5,1-1.6,7.4-3.4,11.5-3.3a7.87,7.87,0,0,0,4.2-1c.7-.6,1.4-.6,1.8-.1s2.1,1.3,3.9,1.6a32,32,0,0,1,7.5,2.6c4.3,2.1,5.6,3.4,2.5,2.4-1.4-.5-1.5-.4-.4.4a3.26,3.26,0,0,0,2.6.6c1.1-.5,7.5,5.8,7.5,7.3,0,.5.9,1.4,2,2.1s1.9,1.6,1.6,2,0,2.7.4,5.2a53.43,53.43,0,0,1,.3,11.6c-.6,7.2-.6,7.2-6.9,13.8-4.6,4.8-6.7,6.4-8.1,6s-1.5-.4-.4.4,1.1,1.3-.2,3.2-2.3,2.2-15.6,2.3C89.3,106.4,83,106.1,83,105.7Zm4-1.1c0-.3-.5-.8-1.2-1.2s-.8-.3-.4.4C86.1,105,87,105.4,87,104.6Zm-3-2c0-.3-.5-.8-1.2-1.2s-.8-.3-.4.4C83.1,103,84,103.4,84,102.6Zm25.5-2.5c2.5-1.1,4.5-2.4,4.5-3,0-1,3.8-2.7,5.2-2.3q.75.15.6-.6c-.1-.4,1-2.8,2.6-5.4,2.3-3.9,2.8-6.2,3.1-12.7.2-4.5,0-8.3-.6-8.6a3.32,3.32,0,0,1-.9-2.4c0-1.5-2.8-4.7-8.8-10.1a17.23,17.23,0,0,0-4.7-2.9c-1.6-.8-4-1.8-5.1-2.3-2.2-1-14.8-.5-19.4.7a32.35,32.35,0,0,1-4.2.9,4.16,4.16,0,0,0-2.5,1.1c-.5.4-.2.5.5.1,2.4-1.4,1.1.6-2.9,4.5-2.2,2.1-4.5,3.7-5,3.4s-.6.1-.3.9c.4,1,.1,1.6-.7,1.6s-.9.3-.6.6a2.93,2.93,0,0,1-.4,2.6c-1.5,2.7-2.1,13.6-.8,14.3a1.15,1.15,0,0,1,.3,1.6c-.3.5.7,3.1,2.2,5.7s2.7,5,2.6,5.4.5.5,1.2.2c.9-.3,2,.5,2.9,2.3.9,1.5,1.7,2.6,1.9,2.5.6-.7,5.8,2.1,5.8,3.1,0,.6.3.8.6.5s1.7-.2,3.2.3C93.9,103.4,104.5,102.3,109.5,100.1Zm2.2,2.2a1.2,1.2,0,0,0-1.4,0c-.3.4,0,.7.7.7S112,102.7,111.7,102.3ZM71.1,89.7c-1-.9-1.1-.8-.5.6.3,1,.9,1.5,1.2,1.2S71.8,90.4,71.1,89.7Z" transform="translate(-63.75 -44.44)"/><path class="prozone-6" d="M88,95.4C82.4,93,77.1,87.2,75.5,81.6c-.8-2.7-1.5-5.1-1.5-5.3s1.2,0,2.6.3c2,.5,2.5.3,2.2-.7a2.42,2.42,0,0,0-2.5-1.2c-1.9.2-2-.1-1.1-3.9,1.2-5.6,1.8-6.2,3.3-4.1,1,1.3,1.7,1.5,2.5.7s.7-1.6-.6-2.9c-1.7-1.6-1.6-1.9,2.2-5.1,9.9-8.4,26.8-6,34.2,5,4.5,6.6,3.8,22.1-.9,19.6-2.5-1.4-3.7.9-1.3,2.7,1.8,1.3,1.7,1.5-1.1,3.9C106.2,96.8,95.7,98.7,88,95.4Zm11-.9A1.45,1.45,0,0,0,97.6,93c-1.7,0-2.8,1.4-1.9,2.4C96.9,96.6,99,96,99,94.5ZM88.5,91c-.5-.8-1.1-.8-2.1.1-1.2,1-1.2,1.4-.2,2C87.8,94.1,89.5,92.6,88.5,91Zm19.7-.2c-.9-.9-1.5-.9-2.4,0s-1,1.5.2,2.2C108,94.2,109.8,92.4,108.2,90.8ZM81.4,86.1c.3-.5-.1-1.4-.8-2-1.6-1.3-3.2.2-2.1,1.9C79.3,87.2,80.7,87.3,81.4,86.1Zm19-9.4c.9-1.4.8-2.1-.5-3s-1.4-2.4-.9-7.5c.3-3.5.3-6.5.1-6.8a3.86,3.86,0,0,1-.6-2.2A1.66,1.66,0,0,0,97,55.5c-1.2,0-1.4,1.5-1.1,8.3.2,7,0,8.7-1.5,10.4-1.8,1.9-1.8,2,.1,3.4C96.9,79.4,98.9,79.1,100.4,76.7Zm18.4-.9c-.6-1.8-2.8-2.1-2.8-.4a1.58,1.58,0,0,0,1.6,1.6C118.5,77,119,76.5,118.8,75.8ZM116,66.5a1.54,1.54,0,0,0-1.5-1.5c-1.6,0-2,1.2-.8,2.3S116,68.1,116,66.5ZM88.5,59.9c1-1.5-.1-2.3-2-1.5-.9.3-1.3,1-1,1.6A1.62,1.62,0,0,0,88.5,59.9Zm20.3-.7c.2-.7-.3-1.2-1.2-1.2a1.58,1.58,0,0,0-1.6,1.6C106,61.3,108.2,61,108.8,59.2Z" transform="translate(-63.75 -44.44)"/><path class="prozone-6" d="M96,75.5c0-.8.5-1.5,1-1.5s1,.7,1,1.5S97.6,77,97,77,96,76.3,96,75.5Z" transform="translate(-63.75 -44.44)"/></g><g id="layer108"><path class="prozone-7" d="M90.5,136c-.9-2.7-2.1-5.2-2.6-5.5-2.7-1.7.1-2.5,9.2-2.5,5.5,0,9.9.3,9.7.8s-1,2.4-1.8,4.5-1.8,3.7-2.2,3.7-.8.9-.8,2c0,1.7-.7,2-4.9,2H92.2Z" transform="translate(-63.75 -44.44)"/><path class="prozone-7" d="M85.7,115.3c-1.1-1.1-.8-4.8.5-6.1.8-.8,4.7-1.2,10.9-1.2,10.7,0,12.6.9,11.5,5.5-.6,2.5-.7,2.5-11.5,2.5C91.2,116,86,115.7,85.7,115.3Z" transform="translate(-63.75 -44.44)"/><path class="prozone-7" d="M88,95.4C82.4,93,77.1,87.2,75.5,81.6c-.8-2.7-1.5-5.1-1.5-5.3s1.2,0,2.6.3c2,.5,2.5.3,2.2-.7a2.42,2.42,0,0,0-2.5-1.2c-1.9.2-2-.1-1.1-3.9,1.2-5.6,1.8-6.2,3.3-4.1,1,1.3,1.7,1.5,2.5.7s.7-1.6-.6-2.9c-1.7-1.6-1.6-1.9,2.2-5.1,9.9-8.4,26.8-6,34.2,5,4.5,6.6,3.8,22.1-.9,19.6-2.5-1.4-3.7.9-1.3,2.7,1.8,1.3,1.7,1.5-1.1,3.9C106.2,96.8,95.7,98.7,88,95.4Zm11-.9A1.45,1.45,0,0,0,97.6,93c-1.7,0-2.8,1.4-1.9,2.4C96.9,96.6,99,96,99,94.5ZM88.5,91c-.5-.8-1.1-.8-2.1.1-1.2,1-1.2,1.4-.2,2C87.8,94.1,89.5,92.6,88.5,91Zm19.7-.2c-.9-.9-1.5-.9-2.4,0s-1,1.5.2,2.2C108,94.2,109.8,92.4,108.2,90.8ZM81.4,86.1c.3-.5-.1-1.4-.8-2-1.6-1.3-3.2.2-2.1,1.9C79.3,87.2,80.7,87.3,81.4,86.1Zm19-9.4c.9-1.4.8-2.1-.5-3s-1.4-2.4-.9-7.5c.3-3.5.3-6.5.1-6.8a3.86,3.86,0,0,1-.6-2.2A1.66,1.66,0,0,0,97,55.5c-1.2,0-1.4,1.5-1.1,8.3.2,7,0,8.7-1.5,10.4-1.8,1.9-1.8,2,.1,3.4C96.9,79.4,98.9,79.1,100.4,76.7Zm18.4-.9c-.6-1.8-2.8-2.1-2.8-.4a1.58,1.58,0,0,0,1.6,1.6C118.5,77,119,76.5,118.8,75.8ZM116,66.5a1.54,1.54,0,0,0-1.5-1.5c-1.6,0-2,1.2-.8,2.3S116,68.1,116,66.5ZM88.5,59.9c1-1.5-.1-2.3-2-1.5-.9.3-1.3,1-1,1.6A1.62,1.62,0,0,0,88.5,59.9Zm20.3-.7c.2-.7-.3-1.2-1.2-1.2a1.58,1.58,0,0,0-1.6,1.6C106,61.3,108.2,61,108.8,59.2Z" transform="translate(-63.75 -44.44)"/><path class="prozone-7" d="M96,75.5c0-.8.5-1.5,1-1.5s1,.7,1,1.5S97.6,77,97,77,96,76.3,96,75.5Z" transform="translate(-63.75 -44.44)"/></g></svg>