<!DOCTYPE svg PUBLIC "-//W3C//DTD SVG 20010904//EN" "http://www.w3.org/TR/2001/REC-SVG-20010904/DTD/svg10.dtd">
<svg version="1.0" xmlns="http://www.w3.org/2000/svg" width="200px" height="200px" viewBox="0 0 2000 2000" preserveAspectRatio="xMidYMid meet">
<g id="layer101" fill="#000000" stroke="none">
 <path d="M0 1000 l0 -1000 1000 0 1000 0 0 1000 0 1000 -1000 0 -1000 0 0 -1000z"/>
 </g>
<g id="layer102" fill="#1f2220" stroke="none">
 <path d="M1357 1273 c-9 -10 -27 -18 -40 -18 -17 0 -23 -7 -25 -27 -2 -16 -9 -28 -18 -28 -8 0 -14 -6 -14 -13 0 -27 -38 -50 -70 -43 -21 4 -30 2 -29 -7 4 -31 -1 -40 -15 -27 -8 6 -12 18 -9 26 4 12 0 14 -20 9 -14 -4 -28 -2 -31 4 -5 7 8 11 39 11 31 0 47 5 51 15 4 9 19 15 35 15 22 0 29 5 29 20 0 17 -5 19 -24 14 -18 -4 -27 -1 -36 15 -6 12 -20 21 -30 21 -16 0 -20 -7 -20 -30 l0 -30 -70 0 c-57 0 -70 -3 -70 -16 0 -9 10 -18 22 -22 l22 -5 -22 -8 c-28 -11 -28 -27 1 -39 l22 -9 -23 0 c-27 -1 -64 30 -44 37 6 2 12 17 12 33 0 27 -3 29 -37 29 -34 1 -36 2 -20 14 9 7 17 21 17 30 0 13 -11 16 -55 16 l-55 0 0 -80 0 -79 -97 -3 c-84 -3 -98 -6 -101 -20 -3 -15 4 -18 47 -18 28 0 51 -4 51 -10 0 -5 -11 -10 -25 -10 -31 0 -75 -27 -75 -46 0 -15 10 -17 48 -14 12 1 22 -3 22 -9 0 -6 -16 -11 -36 -11 -28 0 -35 -3 -32 -17 4 -24 78 -32 78 -9 0 26 18 18 22 -9 2 -14 8 -25 13 -23 6 1 12 -11 15 -28 5 -28 7 -29 75 -35 69 -5 69 -5 -27 -7 -81 -2 -98 1 -98 13 0 8 -7 15 -15 15 -14 0 -19 11 -16 38 1 7 -9 12 -24 12 -24 0 -25 -2 -25 -60 l0 -60 100 0 100 0 0 -80 c0 -78 1 -80 24 -80 19 0 25 6 28 28 3 25 6 27 51 25 40 -1 47 2 47 18 0 13 -7 19 -22 20 l-23 0 23 9 c12 5 22 14 22 20 0 5 7 10 15 10 8 0 15 7 15 15 0 8 5 15 10 15 6 0 10 -7 10 -15 0 -8 8 -16 18 -16 9 -1 1 -4 -18 -8 -31 -5 -35 -10 -35 -36 0 -23 5 -31 23 -33 15 -2 22 2 22 12 0 9 5 16 10 16 6 0 10 -6 10 -14 0 -8 8 -17 18 -19 16 -4 16 -5 0 -6 -10 0 -18 -9 -18 -18 0 -16 10 -18 75 -18 l75 0 0 77 0 77 98 3 c78 2 97 6 97 18 0 9 -11 16 -30 18 -16 2 -34 10 -38 18 -11 18 -36 18 -43 -1 -4 -8 -10 -15 -15 -15 -5 0 -9 7 -9 15 0 8 -7 15 -15 15 -17 0 -20 16 -5 25 6 3 10 1 10 -4 0 -6 11 -11 25 -11 20 0 25 5 25 24 0 22 5 25 47 28 49 3 71 25 34 35 -12 3 -21 12 -21 19 0 10 -13 14 -43 14 -39 0 -44 3 -55 32 -10 27 -9 35 3 47 13 14 15 11 15 -27 0 -38 2 -42 25 -42 21 0 25 5 25 30 0 20 5 30 15 30 8 0 15 4 15 9 0 5 9 11 20 14 16 4 20 14 20 44 0 21 -5 44 -10 49 -7 7 -1 19 20 37 16 15 30 36 30 46 0 34 -64 43 -93 14z m50 -10 c-4 -3 -10 -3 -14 0 -3 4 0 7 7 7 7 0 10 -3 7 -7z m-91 -92 c-39 -39 -72 -66 -74 -61 -5 13 127 142 137 135 5 -3 -23 -36 -63 -74z m-416 4 c0 -8 6 -15 13 -15 7 0 18 -9 25 -21 12 -19 11 -20 -6 -15 -38 12 -49 -33 -12 -47 9 -3 4 -6 -12 -6 -28 -1 -28 0 -28 59 0 33 4 60 10 60 6 0 10 -7 10 -15z m160 -45 c0 -5 -4 -10 -10 -10 -5 0 -10 5 -10 10 0 6 5 10 10 10 6 0 10 -4 10 -10z m167 -47 c-4 -3 -10 -3 -14 0 -3 4 0 7 7 7 7 0 10 -3 7 -7z m-120 -9 c-3 -3 -12 -4 -19 -1 -8 3 -5 6 6 6 11 1 17 -2 13 -5z m93 -16 c19 -13 36 -30 38 -38 3 -8 -4 -5 -14 8 -10 12 -37 29 -59 37 -25 9 -32 14 -19 15 12 0 36 -10 54 -22z m-340 -8 c0 -5 -13 -10 -30 -10 -23 0 -30 -4 -30 -20 0 -16 7 -20 33 -20 20 0 39 8 50 20 18 22 43 25 67 10 13 -8 12 -10 -2 -10 -21 0 -25 -36 -6 -42 9 -3 8 -9 -4 -21 -12 -12 -34 -17 -77 -17 -48 0 -61 -3 -61 -15 0 -8 -4 -15 -10 -15 -5 0 -10 11 -10 25 0 16 -6 25 -15 25 -10 0 -15 11 -15 35 0 24 5 35 15 35 8 0 15 7 15 15 0 11 11 15 40 15 22 0 40 -4 40 -10z m270 -14 c0 -11 -19 -15 -25 -6 -3 5 1 10 9 10 9 0 16 -2 16 -4z m-116 -115 c6 -8 25 -22 41 -33 33 -20 27 -25 -8 -7 -31 16 -57 50 -56 74 l1 20 5 -20 c3 -11 10 -26 17 -34z m141 29 c24 -26 5 -51 -39 -49 -27 2 -28 2 -6 6 34 7 42 24 23 45 -9 10 -12 18 -6 18 5 0 18 -9 28 -20z m75 -34 c0 -2 -8 -10 -17 -17 -16 -13 -17 -12 -4 4 13 16 21 21 21 13z m-360 -27 c0 -4 -10 -6 -21 -4 -32 6 -34 13 -4 13 14 0 25 -4 25 -9z m30 1 c0 -5 -4 -10 -10 -10 -5 0 -10 5 -10 10 0 6 5 10 10 10 6 0 10 -4 10 -10z m87 -7 c-4 -3 -7 0 -7 7 0 7 3 10 7 7 3 -4 3 -10 0 -14z m47 -44 c-10 -16 -24 -9 -24 12 0 18 2 19 15 9 8 -7 12 -16 9 -21z m156 1 c0 -5 -7 -10 -16 -10 -9 0 -14 -6 -11 -13 7 -19 -8 -41 -22 -32 -7 3 -9 16 -5 27 5 16 2 19 -17 16 -15 -2 -26 -12 -30 -28 -4 -14 -7 -19 -8 -12 -1 6 -11 12 -23 13 l-23 0 23 9 c12 5 22 14 22 19 0 6 24 12 53 14 28 2 53 4 55 5 1 1 2 -2 2 -8z m-233 -7 c-4 -3 -10 -3 -14 0 -3 4 0 7 7 7 7 0 10 -3 7 -7z m-30 -30 c-4 -3 -10 -3 -14 0 -3 4 0 7 7 7 7 0 10 -3 7 -7z m-30 -20 c-4 -3 -10 -3 -14 0 -3 4 0 7 7 7 7 0 10 -3 7 -7z m60 0 c-4 -3 -10 -3 -14 0 -3 4 0 7 7 7 7 0 10 -3 7 -7z m-60 -60 c-4 -3 -10 -3 -14 0 -3 4 0 7 7 7 7 0 10 -3 7 -7z m266 -8 c1 -6 -11 -11 -28 -12 -16 -1 -22 1 -12 3 9 3 17 10 17 16 0 12 21 6 23 -7z"/>
 <path d="M800 970 c0 -16 5 -21 23 -18 12 2 22 10 22 18 0 8 -10 16 -22 18 -18 3 -23 -2 -23 -18z"/>
 <path d="M637 1253 c-4 -3 -7 -36 -7 -72 l0 -66 87 0 88 0 0 73 0 72 -81 0 c-44 0 -84 -3 -87 -7z m121 -70 c-3 -35 -6 -38 -36 -41 -26 -3 -34 1 -41 19 -15 42 -3 59 41 59 l39 0 -3 -37z"/>
 <path d="M963 1244 c-9 -24 10 -30 78 -28 67 2 74 6 66 29 -9 22 -135 22 -144 -1z"/>
 <path d="M1360 1020 c0 -16 5 -21 23 -18 12 2 22 10 22 18 0 8 -10 16 -22 18 -18 3 -23 -2 -23 -18z"/>
 <path d="M1325 901 c-11 -19 3 -28 42 -26 26 0 38 5 38 15 0 18 -70 27 -80 11z"/>
 <path d="M637 773 c-4 -3 -7 -36 -7 -72 l0 -66 87 0 88 0 0 73 0 72 -81 0 c-44 0 -84 -3 -87 -7z"/>
 <path d="M1224 766 c-3 -7 -4 -39 -2 -71 l3 -58 90 0 90 0 3 48 c6 93 4 95 -94 95 -62 0 -86 -4 -90 -14z m136 -66 c0 -29 -2 -30 -44 -30 -42 0 -44 1 -42 30 1 28 3 30 43 30 41 0 43 -1 43 -30z"/>
 <path d="M930 652 c0 -14 8 -17 40 -17 32 0 40 3 40 17 0 14 -8 18 -40 18 -32 0 -40 -4 -40 -18z"/>
 </g>
<g id="layer103" fill="#2d2f2e" stroke="none">
 <path d="M1367 1273 c-10 -10 -30 -18 -45 -18 -22 0 -28 -5 -30 -27 -2 -17 -9 -28 -19 -28 -9 0 -13 -6 -10 -14 10 -25 -29 -49 -69 -43 -27 5 -35 3 -31 -7 3 -7 1 -19 -4 -27 -8 -12 -10 -12 -18 0 -5 8 -7 20 -4 27 3 8 -5 12 -24 11 -15 -1 -30 3 -33 8 -3 6 15 11 43 13 26 2 47 7 47 12 0 5 15 10 32 12 22 2 34 9 36 21 3 15 -1 17 -24 11 -21 -5 -30 -2 -44 16 -20 27 -40 19 -40 -16 0 -23 -3 -24 -65 -24 -51 0 -65 -3 -65 -15 0 -8 7 -15 15 -15 8 0 15 -4 15 -10 0 -5 -7 -10 -15 -10 -8 0 -15 -9 -15 -20 0 -11 7 -20 15 -20 8 0 15 -4 15 -10 0 -16 -47 -12 -54 5 -3 9 -19 15 -41 15 -24 0 -35 -4 -35 -15 0 -8 9 -15 21 -15 11 0 17 -4 14 -10 -3 -5 -17 -10 -31 -10 -23 0 -24 3 -24 60 0 33 4 60 10 60 6 0 10 -4 10 -10 0 -5 9 -10 20 -10 14 0 18 -5 13 -16 -4 -12 0 -15 18 -12 18 2 24 9 24 28 0 21 -5 26 -32 28 -33 3 -47 22 -17 22 9 0 14 7 12 18 -3 13 -14 17 -53 17 l-50 0 -3 -82 -3 -82 -94 -3 c-98 -3 -132 -21 -50 -26 47 -3 64 -22 20 -22 -27 0 -78 -38 -69 -52 3 -4 18 -8 35 -8 16 0 29 -4 29 -10 0 -5 -13 -10 -29 -10 -53 0 -47 -30 7 -38 13 -1 25 4 28 13 9 23 24 18 24 -9 0 -15 7 -26 20 -29 13 -3 20 -14 20 -31 0 -24 3 -25 68 -29 56 -3 51 -3 -30 -5 -60 -1 -98 2 -98 8 0 6 -7 10 -15 10 -13 0 -20 18 -16 43 2 12 -30 21 -38 9 -3 -5 -4 -33 -3 -61 l4 -51 94 0 94 0 0 -81 c0 -77 1 -80 22 -77 14 2 24 12 28 28 5 22 11 25 50 25 46 0 68 22 31 32 -23 6 -29 23 -7 23 7 0 25 11 40 25 26 24 27 24 46 5 20 -20 20 -20 -10 -20 -28 0 -30 -3 -30 -35 0 -28 4 -35 20 -35 11 0 20 7 20 15 0 20 16 19 24 -1 3 -8 10 -13 15 -9 5 3 12 1 15 -4 3 -5 -3 -11 -14 -14 -11 -3 -20 -11 -20 -19 0 -10 18 -13 72 -12 l73 1 3 76 3 76 92 3 c78 3 92 6 95 21 3 13 -3 17 -27 17 -17 0 -31 4 -31 9 0 18 -30 20 -46 3 -13 -12 -19 -13 -22 -4 -2 6 -10 12 -18 12 -19 0 -18 34 2 51 15 12 16 11 10 -9 -7 -21 -5 -23 16 -20 17 2 23 9 22 26 0 15 5 22 20 23 12 1 32 2 46 3 27 1 43 36 16 36 -9 0 -16 7 -16 15 0 22 -66 20 -79 -2 -9 -15 -10 -14 -11 10 0 15 -5 36 -12 46 -9 15 -9 23 3 37 13 16 14 14 19 -22 4 -31 9 -39 25 -39 14 0 21 8 23 28 2 15 9 27 18 27 8 0 14 7 14 15 0 8 7 15 15 15 11 0 15 11 15 40 0 24 -5 40 -12 40 -7 0 6 18 27 40 32 33 38 44 29 58 -15 24 -55 26 -77 5z m48 -3 c3 -5 -1 -10 -10 -10 -9 0 -13 5 -10 10 3 6 8 10 10 10 2 0 7 -4 10 -10z m-36 -46 c-6 -8 -8 -14 -4 -14 4 0 2 -7 -5 -15 -7 -8 -16 -13 -19 -10 -4 2 -27 -16 -51 -40 -44 -45 -60 -54 -60 -34 0 17 130 140 141 133 6 -4 6 -11 -2 -20z m-319 -94 c0 -5 -4 -10 -10 -10 -5 0 -10 5 -10 10 0 6 5 10 10 10 6 0 10 -4 10 -10z m265 -29 c-3 -6 -11 -11 -17 -11 -6 0 -6 6 2 15 14 17 26 13 15 -4z m-95 -21 c0 -5 -2 -10 -4 -10 -3 0 -8 5 -11 10 -3 6 -1 10 4 10 6 0 11 -4 11 -10z m-10 -35 c24 -23 30 -37 30 -71 0 -36 -5 -47 -35 -73 -20 -17 -43 -31 -53 -31 -10 1 -4 7 14 14 67 29 85 102 37 150 -31 31 -58 40 -112 34 -22 -2 -37 1 -34 5 3 5 32 7 64 5 48 -3 65 -10 89 -33z m-360 5 c0 -5 -14 -10 -31 -10 -24 0 -30 -4 -27 -17 5 -27 56 -29 79 -4 11 12 26 21 34 21 21 0 45 -11 45 -22 0 -5 -5 -6 -10 -3 -19 12 -23 -26 -4 -40 18 -14 18 -14 0 -15 -12 0 -16 -5 -12 -15 4 -12 -6 -15 -64 -15 -40 0 -70 -4 -70 -10 0 -5 -4 -10 -10 -10 -5 0 -10 11 -10 25 0 18 -5 25 -20 25 -16 0 -20 7 -20 35 0 25 4 35 15 35 9 0 18 7 21 15 7 17 84 22 84 5z m130 6 c0 -3 -5 -8 -12 -12 -7 -4 -8 -3 -4 4 7 12 16 16 16 8z m36 -27 c-35 -41 -34 -83 3 -120 16 -16 37 -29 46 -29 9 0 14 -4 11 -9 -20 -32 -96 42 -96 94 0 29 39 95 57 95 3 0 -7 -14 -21 -31z m104 0 c0 -5 -7 -9 -15 -9 -15 0 -20 12 -9 23 8 8 24 -1 24 -14z m37 -113 c-7 -18 -72 -23 -82 -6 -4 7 2 9 19 4 33 -8 46 19 22 45 -29 32 -17 36 15 4 20 -20 30 -37 26 -47z m-267 -26 c0 -5 -20 -10 -45 -10 -25 0 -45 5 -45 10 0 6 20 10 45 10 25 0 45 -4 45 -10z m95 0 c3 -5 1 -10 -4 -10 -6 0 -11 5 -11 10 0 6 2 10 4 10 3 0 8 -4 11 -10z m39 -51 c-10 -16 -24 -9 -24 12 0 18 2 19 15 9 8 -7 12 -16 9 -21z m99 24 c-7 -2 -19 -2 -25 0 -7 3 -2 5 12 5 14 0 19 -2 13 -5z m47 -33 c-15 -9 -16 -13 -19 -46 -2 -25 -26 -10 -26 17 0 33 -40 34 -40 2 -1 -24 -10 -27 -37 -9 -22 13 -23 26 -3 26 8 0 15 4 15 10 0 8 108 19 120 12 2 -2 -2 -7 -10 -12z m-223 3 c-4 -3 -10 -3 -14 0 -3 4 0 7 7 7 7 0 10 -3 7 -7z m-22 -23 c3 -5 -1 -10 -9 -10 -9 0 -16 5 -16 10 0 6 4 10 9 10 6 0 13 -4 16 -10z m-35 -30 c0 -5 -4 -10 -10 -10 -5 0 -10 5 -10 10 0 6 5 10 10 10 6 0 10 -4 10 -10z m60 0 c0 -5 -4 -10 -10 -10 -5 0 -10 5 -10 10 0 6 5 10 10 10 6 0 10 -4 10 -10z m-60 -50 c0 -5 -4 -10 -10 -10 -5 0 -10 5 -10 10 0 6 5 10 10 10 6 0 10 -4 10 -10z m270 -15 c0 -21 -5 -25 -30 -25 -16 0 -30 5 -30 10 0 6 7 10 15 10 8 0 15 7 15 15 0 8 7 15 15 15 9 0 15 -9 15 -25z"/>
 <path d="M800 970 c0 -13 7 -20 20 -20 13 0 20 7 20 20 0 13 -7 20 -20 20 -13 0 -20 -7 -20 -20z"/>
 <path d="M640 1253 c-1 -4 -2 -37 -3 -72 l-2 -64 85 -1 85 -1 -1 70 -1 70 -82 3 c-44 2 -81 -1 -81 -5z m128 -70 c-3 -36 -5 -38 -41 -41 -31 -3 -39 0 -46 20 -15 42 -3 58 46 58 l44 0 -3 -37z"/>
 <path d="M965 1250 c-13 -21 8 -30 76 -30 62 0 70 2 67 18 -3 14 -16 18 -70 20 -38 2 -69 -1 -73 -8z"/>
 <path d="M1362 1023 c2 -10 10 -18 18 -18 8 0 16 8 18 18 2 12 -3 17 -18 17 -15 0 -20 -5 -18 -17z"/>
 <path d="M1332 894 c2 -11 15 -18 36 -19 26 -2 32 1 32 16 0 15 -7 19 -36 19 -27 0 -35 -4 -32 -16z"/>
 <path d="M640 766 c-3 -2 -3 -32 0 -66 l5 -61 80 -2 80 -2 -2 65 -1 65 -79 3 c-43 1 -81 1 -83 -2z"/>
 <path d="M1230 703 l0 -68 85 0 85 0 0 68 0 67 -85 0 -85 0 0 -67z m128 0 c3 -33 3 -33 -42 -33 -44 0 -46 1 -46 28 0 38 7 44 50 40 31 -3 35 -6 38 -35z"/>
 <path d="M937 664 c-17 -18 -4 -29 33 -29 31 0 40 3 38 15 -3 16 -58 27 -71 14z"/>
 </g>
<g id="layer104" fill="#374d2e" stroke="none">
 <path d="M1365 1270 c-10 -11 -26 -20 -34 -19 -33 3 -41 -2 -41 -26 0 -16 -6 -25 -16 -25 -10 0 -14 -6 -11 -14 8 -21 -25 -46 -61 -46 -22 0 -32 -6 -37 -20 -8 -25 -22 -26 -30 -1 -3 12 -17 21 -32 23 -15 2 -28 9 -31 16 -2 8 11 12 47 12 28 0 51 4 51 9 0 6 15 11 33 13 36 3 40 21 5 26 -13 2 -31 13 -41 23 -22 23 -37 17 -37 -17 0 -23 -3 -24 -65 -24 -51 0 -65 -3 -65 -15 0 -8 7 -15 15 -15 8 0 15 -4 15 -10 0 -5 -7 -10 -15 -10 -8 0 -15 -9 -15 -20 0 -11 7 -20 15 -20 8 0 15 -4 15 -10 0 -16 -50 -12 -56 5 -4 9 -19 15 -40 15 -24 0 -34 -5 -34 -15 0 -8 9 -15 21 -15 11 0 17 -4 14 -10 -3 -5 -19 -10 -34 -10 -27 0 -27 1 -26 60 1 62 10 85 21 56 3 -9 15 -16 25 -16 12 0 16 -5 13 -15 -4 -10 0 -15 15 -15 17 0 21 6 21 30 0 27 -3 30 -30 30 -16 0 -30 5 -30 10 0 6 7 10 15 10 8 0 15 7 15 15 0 12 -13 15 -55 15 l-55 0 0 -80 0 -80 -95 0 c-78 0 -95 -3 -95 -15 0 -11 12 -15 44 -15 25 0 48 -4 51 -10 4 -6 -8 -10 -29 -10 -25 0 -36 -4 -36 -15 0 -8 -7 -15 -15 -15 -8 0 -15 -7 -15 -15 0 -10 10 -15 30 -15 17 0 30 -4 30 -10 0 -5 -13 -10 -30 -10 -20 0 -30 -5 -30 -15 0 -22 56 -19 80 5 11 11 20 33 20 50 0 20 5 30 15 30 9 0 18 7 21 15 7 17 94 22 94 5 0 -5 -16 -10 -35 -10 -24 0 -35 -5 -35 -15 0 -20 53 -20 85 1 16 11 34 14 55 9 34 -8 39 -20 10 -28 -23 -6 -27 -27 -5 -27 8 0 15 -4 15 -10 0 -5 -7 -10 -16 -10 -10 0 -14 -6 -10 -15 4 -12 -6 -15 -64 -15 -40 0 -70 -4 -70 -10 0 -5 -4 -10 -10 -10 -5 0 -10 9 -10 20 0 25 -29 38 -41 19 -14 -23 -10 -41 11 -46 14 -4 20 -14 20 -34 0 -28 1 -28 68 -32 56 -3 51 -3 -30 -5 -60 -1 -98 2 -98 8 0 6 -7 10 -15 10 -8 0 -16 7 -16 15 -1 8 -2 21 -3 27 0 7 -9 14 -18 16 -16 3 -18 -5 -18 -57 l0 -61 95 0 95 0 0 -74 c0 -58 3 -75 16 -80 24 -9 36 4 29 31 -6 25 -5 26 44 21 39 -4 51 -2 51 9 0 7 -7 16 -15 19 -8 4 -15 10 -15 15 0 5 7 9 15 9 8 0 15 5 15 10 0 6 7 10 15 10 7 0 19 8 25 18 10 16 10 16 20 0 6 -10 19 -19 28 -19 9 -1 1 -4 -18 -8 -31 -5 -35 -10 -38 -38 -4 -36 8 -42 33 -16 16 16 18 16 27 0 5 -10 13 -15 18 -12 5 3 11 1 14 -4 4 -5 -3 -12 -14 -16 -39 -12 -19 -25 40 -26 33 -1 65 -2 72 -3 9 -1 12 22 11 76 l0 77 96 3 c77 2 96 6 96 18 0 9 -11 16 -27 18 -16 2 -28 8 -28 13 0 16 -39 10 -49 -8 -9 -17 -10 -17 -16 0 -4 9 -13 17 -21 17 -18 0 -18 34 0 49 11 9 15 7 19 -11 7 -25 23 -16 29 17 2 16 12 21 51 23 33 2 47 7 47 18 0 7 -6 14 -14 14 -7 0 -19 7 -26 15 -17 21 -59 19 -67 -2 -6 -14 -9 -10 -16 17 -4 19 -10 44 -13 56 -4 15 4 27 30 48 25 19 36 23 36 13 0 -8 -9 -17 -20 -20 -15 -4 -20 -14 -20 -41 0 -32 3 -36 25 -36 20 0 25 5 25 25 0 16 6 25 15 25 8 0 15 7 15 15 0 8 7 15 15 15 17 0 22 76 5 82 -6 2 6 20 27 41 29 31 35 42 26 55 -15 25 -56 26 -78 2z m55 -10 c0 -5 -7 -7 -15 -4 -8 4 -12 10 -9 15 6 11 24 2 24 -11z m-30 -18 c0 -4 -5 -13 -12 -20 -7 -7 -8 -12 -4 -12 5 0 3 -7 -4 -15 -7 -8 -16 -13 -19 -10 -4 2 -27 -16 -51 -40 -39 -40 -70 -57 -70 -39 0 4 32 37 70 75 66 64 90 81 90 61z m-330 -112 c0 -5 -4 -10 -10 -10 -5 0 -10 5 -10 10 0 6 5 10 10 10 6 0 10 -4 10 -10z m170 -50 c0 -5 -4 -10 -9 -10 -6 0 -13 5 -16 10 -3 6 1 10 9 10 9 0 16 -4 16 -10z m-20 -22 c67 -49 55 -143 -22 -178 -79 -36 -144 -22 -184 38 -33 49 -20 109 31 142 44 28 137 27 175 -2z m-215 -8 c-3 -5 -10 -10 -16 -10 -5 0 -9 5 -9 10 0 6 7 10 16 10 8 0 12 -4 9 -10z m-95 -160 c0 -5 -20 -10 -45 -10 -25 0 -45 5 -45 10 0 6 20 10 45 10 25 0 45 -4 45 -10z m95 0 c3 -5 -1 -10 -9 -10 -9 0 -16 5 -16 10 0 6 4 10 9 10 6 0 13 -4 16 -10z m40 -40 c0 -7 -6 -15 -12 -17 -8 -3 -13 4 -13 17 0 13 5 20 13 18 6 -3 12 -11 12 -18z m165 -4 c0 -7 -9 -16 -20 -19 -11 -3 -20 -9 -19 -14 1 -4 1 -16 0 -26 -2 -27 -26 -14 -26 14 0 29 -28 33 -33 4 -6 -33 -19 -38 -41 -16 -25 25 -26 31 -6 31 8 0 15 5 15 10 0 6 21 10 48 10 26 0 54 5 62 10 19 13 20 12 20 -4z m-233 -12 c-3 -3 -12 -4 -19 -1 -8 3 -5 6 6 6 11 1 17 -2 13 -5z m-32 -24 c3 -5 -1 -10 -9 -10 -9 0 -16 5 -16 10 0 6 4 10 9 10 6 0 13 -4 16 -10z m-35 -30 c0 -5 -4 -10 -9 -10 -6 0 -13 5 -16 10 -3 6 1 10 9 10 9 0 16 -4 16 -10z m65 0 c-3 -5 -10 -10 -16 -10 -5 0 -9 5 -9 10 0 6 7 10 16 10 8 0 12 -4 9 -10z m-65 -50 c0 -5 -7 -10 -16 -10 -8 0 -12 5 -9 10 3 6 10 10 16 10 5 0 9 -4 9 -10z m270 -15 c0 -21 -5 -25 -30 -25 -16 0 -30 5 -30 10 0 6 7 10 15 10 8 0 15 7 15 15 0 8 7 15 15 15 9 0 15 -9 15 -25z"/>
 <path d="M1064 1061 c-32 -14 -64 -60 -64 -93 0 -37 46 -83 91 -92 45 -9 104 10 128 41 29 36 27 76 -7 114 -23 26 -37 32 -78 35 -27 2 -59 0 -70 -5z m66 -32 c0 -5 -7 -9 -15 -9 -15 0 -20 12 -9 23 8 8 24 -1 24 -14z m38 -104 c-2 -16 -10 -20 -42 -20 -26 0 -41 5 -44 15 -5 13 -3 13 11 1 19 -15 47 -8 47 12 0 8 -7 20 -15 27 -28 24 -15 31 15 8 20 -14 30 -30 28 -43z"/>
 <path d="M644 1251 c-2 -2 -4 -34 -4 -70 l0 -66 78 3 c42 2 78 5 79 6 1 0 3 28 4 61 l3 60 -78 5 c-43 3 -80 3 -82 1z m124 -68 c-3 -36 -5 -38 -41 -41 -31 -3 -39 0 -46 20 -15 42 -3 58 46 58 l44 0 -3 -37z"/>
 <path d="M965 1240 c-10 -16 17 -21 80 -18 36 2 60 8 63 16 5 15 -133 17 -143 2z"/>
 <path d="M1360 1025 c0 -8 9 -15 20 -15 11 0 20 7 20 15 0 8 -9 15 -20 15 -11 0 -20 -7 -20 -15z"/>
 <path d="M813 983 c-21 -8 -15 -33 7 -33 13 0 20 7 20 20 0 20 -5 23 -27 13z"/>
 <path d="M1332 894 c2 -11 14 -17 36 -19 47 -4 41 29 -6 33 -27 3 -33 0 -30 -14z"/>
 <path d="M642 704 l3 -67 75 2 c41 1 76 3 77 4 1 1 3 29 4 62 l3 60 -83 3 -82 3 3 -67z"/>
 <path d="M1230 703 l0 -68 85 0 85 0 0 68 0 67 -85 0 -85 0 0 -67z m130 2 c0 -35 0 -35 -45 -35 -45 0 -45 0 -45 35 0 35 0 35 45 35 45 0 45 0 45 -35z"/>
 <path d="M937 664 c-13 -13 5 -24 39 -24 24 0 34 4 32 13 -5 13 -60 22 -71 11z"/>
 </g>
<g id="layer105" fill="#404242" stroke="none">
 <path d="M1365 1270 c-10 -11 -26 -20 -34 -19 -33 3 -41 -2 -41 -26 0 -16 -6 -25 -16 -25 -10 0 -14 -6 -11 -14 8 -21 -25 -46 -61 -46 -22 0 -32 -6 -37 -20 -8 -25 -22 -26 -30 -1 -3 12 -17 21 -32 23 -15 2 -28 9 -31 16 -2 8 11 12 47 12 28 0 51 4 51 9 0 6 15 11 33 13 36 3 40 21 5 26 -13 2 -31 13 -41 23 -22 23 -37 17 -37 -17 0 -23 -3 -24 -65 -24 -51 0 -65 -3 -65 -15 0 -8 7 -15 15 -15 8 0 15 -4 15 -10 0 -5 -7 -10 -15 -10 -8 0 -15 -9 -15 -20 0 -11 7 -20 15 -20 8 0 15 -4 15 -10 0 -16 -50 -12 -56 5 -4 9 -19 15 -40 15 -24 0 -34 -5 -34 -15 0 -8 9 -15 21 -15 11 0 17 -4 14 -10 -3 -5 -19 -10 -34 -10 -27 0 -27 1 -26 60 1 62 10 85 21 56 3 -9 15 -16 25 -16 12 0 16 -5 13 -15 -4 -10 0 -15 15 -15 17 0 21 6 21 30 0 27 -3 30 -30 30 -16 0 -30 5 -30 10 0 6 7 10 15 10 8 0 15 7 15 15 0 12 -13 15 -55 15 l-55 0 0 -80 0 -80 -95 0 c-78 0 -95 -3 -95 -15 0 -11 12 -15 44 -15 25 0 48 -4 51 -10 4 -6 -8 -10 -29 -10 -25 0 -36 -4 -36 -15 0 -8 -7 -15 -15 -15 -8 0 -15 -7 -15 -15 0 -10 10 -15 30 -15 17 0 30 -4 30 -10 0 -5 -13 -10 -30 -10 -20 0 -30 -5 -30 -15 0 -22 56 -19 80 5 11 11 20 33 20 50 0 20 5 30 15 30 9 0 18 7 21 15 7 17 94 22 94 5 0 -5 -16 -10 -35 -10 -24 0 -35 -5 -35 -15 0 -20 53 -20 85 1 16 11 34 14 55 9 34 -8 39 -20 10 -28 -23 -6 -27 -27 -5 -27 8 0 15 -4 15 -10 0 -5 -7 -10 -16 -10 -10 0 -14 -6 -10 -15 4 -12 -6 -15 -64 -15 -40 0 -70 -4 -70 -10 0 -5 -4 -10 -10 -10 -5 0 -10 9 -10 20 0 25 -29 38 -41 19 -14 -23 -10 -41 11 -46 14 -4 20 -14 20 -34 0 -28 1 -28 68 -32 56 -3 51 -3 -30 -5 -60 -1 -98 2 -98 8 0 6 -7 10 -15 10 -8 0 -16 7 -16 15 -1 8 -2 21 -3 27 0 7 -9 14 -18 16 -16 3 -18 -5 -18 -57 l0 -61 95 0 95 0 0 -74 c0 -58 3 -75 16 -80 24 -9 36 4 29 31 -6 25 -5 26 44 21 39 -4 51 -2 51 9 0 7 -7 16 -15 19 -8 4 -15 10 -15 15 0 5 7 9 15 9 8 0 15 5 15 10 0 6 7 10 15 10 7 0 19 8 25 18 10 16 10 16 20 0 6 -10 19 -19 28 -19 9 -1 1 -4 -18 -8 -31 -5 -35 -10 -38 -38 -4 -36 8 -42 33 -16 16 16 18 16 27 0 5 -10 13 -15 18 -12 5 3 11 1 14 -4 4 -5 -3 -12 -14 -16 -39 -12 -19 -25 40 -26 33 -1 65 -2 72 -3 9 -1 12 22 11 76 l0 77 96 3 c77 2 96 6 96 18 0 9 -11 16 -27 18 -16 2 -28 8 -28 13 0 16 -39 10 -49 -8 -9 -17 -10 -17 -16 0 -4 9 -13 17 -21 17 -18 0 -18 34 0 49 11 9 15 7 19 -11 7 -25 23 -16 29 17 2 16 12 21 51 23 33 2 47 7 47 18 0 7 -6 14 -14 14 -7 0 -19 7 -26 15 -17 21 -59 19 -67 -2 -6 -14 -9 -10 -16 17 -4 19 -10 44 -13 56 -4 15 4 27 30 48 25 19 36 23 36 13 0 -8 -9 -17 -20 -20 -15 -4 -20 -14 -20 -41 0 -32 3 -36 25 -36 20 0 25 5 25 25 0 16 6 25 15 25 8 0 15 7 15 15 0 8 7 15 15 15 17 0 22 76 5 82 -6 2 6 20 27 41 29 31 35 42 26 55 -15 25 -56 26 -78 2z m55 -10 c0 -5 -7 -7 -15 -4 -8 4 -12 10 -9 15 6 11 24 2 24 -11z m-30 -18 c0 -4 -5 -13 -12 -20 -7 -7 -8 -12 -4 -12 5 0 3 -7 -4 -15 -7 -8 -16 -13 -19 -10 -4 2 -27 -16 -51 -40 -39 -40 -70 -57 -70 -39 0 4 32 37 70 75 66 64 90 81 90 61z m-330 -112 c0 -5 -4 -10 -10 -10 -5 0 -10 5 -10 10 0 6 5 10 10 10 6 0 10 -4 10 -10z m170 -50 c0 -5 -4 -10 -9 -10 -6 0 -13 5 -16 10 -3 6 1 10 9 10 9 0 16 -4 16 -10z m-20 -22 c67 -49 55 -143 -22 -178 -79 -36 -144 -22 -184 38 -33 49 -20 109 31 142 44 28 137 27 175 -2z m-215 -8 c-3 -5 -10 -10 -16 -10 -5 0 -9 5 -9 10 0 6 7 10 16 10 8 0 12 -4 9 -10z m-95 -160 c0 -5 -20 -10 -45 -10 -25 0 -45 5 -45 10 0 6 20 10 45 10 25 0 45 -4 45 -10z m95 0 c3 -5 -1 -10 -9 -10 -9 0 -16 5 -16 10 0 6 4 10 9 10 6 0 13 -4 16 -10z m40 -40 c0 -7 -6 -15 -12 -17 -8 -3 -13 4 -13 17 0 13 5 20 13 18 6 -3 12 -11 12 -18z m165 -4 c0 -7 -9 -16 -20 -19 -11 -3 -20 -9 -19 -14 1 -4 1 -16 0 -26 -2 -27 -26 -14 -26 14 0 29 -28 33 -33 4 -6 -33 -19 -38 -41 -16 -25 25 -26 31 -6 31 8 0 15 5 15 10 0 6 21 10 48 10 26 0 54 5 62 10 19 13 20 12 20 -4z m-233 -12 c-3 -3 -12 -4 -19 -1 -8 3 -5 6 6 6 11 1 17 -2 13 -5z m-32 -24 c3 -5 -1 -10 -9 -10 -9 0 -16 5 -16 10 0 6 4 10 9 10 6 0 13 -4 16 -10z m-35 -30 c0 -5 -4 -10 -9 -10 -6 0 -13 5 -16 10 -3 6 1 10 9 10 9 0 16 -4 16 -10z m65 0 c-3 -5 -10 -10 -16 -10 -5 0 -9 5 -9 10 0 6 7 10 16 10 8 0 12 -4 9 -10z m-65 -50 c0 -5 -7 -10 -16 -10 -8 0 -12 5 -9 10 3 6 10 10 16 10 5 0 9 -4 9 -10z m270 -15 c0 -21 -5 -25 -30 -25 -16 0 -30 5 -30 10 0 6 7 10 15 10 8 0 15 7 15 15 0 8 7 15 15 15 9 0 15 -9 15 -25z"/>
 <path d="M1065 1057 c-53 -25 -74 -70 -54 -118 15 -37 55 -59 109 -59 109 0 159 103 79 162 -33 25 -96 32 -134 15z m65 -22 c0 -8 -6 -15 -14 -15 -17 0 -28 14 -19 24 12 12 33 6 33 -9z m9 -64 c37 -35 39 -58 7 -72 -25 -12 -66 2 -66 23 0 7 4 7 14 -1 16 -13 46 -4 46 14 0 6 -9 20 -20 30 -18 16 -27 35 -16 35 2 0 18 -13 35 -29z"/>
 <path d="M644 1251 c-2 -2 -4 -34 -4 -70 l0 -66 78 3 c42 2 78 5 79 6 1 0 3 28 4 61 l3 60 -78 5 c-43 3 -80 3 -82 1z m124 -68 c-3 -36 -5 -38 -41 -41 -31 -3 -39 0 -46 20 -15 42 -3 58 46 58 l44 0 -3 -37z"/>
 <path d="M965 1240 c-10 -16 17 -21 80 -18 36 2 60 8 63 16 5 15 -133 17 -143 2z"/>
 <path d="M1360 1025 c0 -8 9 -15 20 -15 11 0 20 7 20 15 0 8 -9 15 -20 15 -11 0 -20 -7 -20 -15z"/>
 <path d="M813 983 c-21 -8 -15 -33 7 -33 13 0 20 7 20 20 0 20 -5 23 -27 13z"/>
 <path d="M1332 894 c2 -11 14 -17 36 -19 47 -4 41 29 -6 33 -27 3 -33 0 -30 -14z"/>
 <path d="M642 704 l3 -67 75 2 c41 1 76 3 77 4 1 1 3 29 4 62 l3 60 -83 3 -82 3 3 -67z"/>
 <path d="M1230 703 l0 -68 85 0 85 0 0 68 0 67 -85 0 -85 0 0 -67z m130 2 c0 -35 0 -35 -45 -35 -45 0 -45 0 -45 35 0 35 0 35 45 35 45 0 45 0 45 -35z"/>
 <path d="M937 664 c-13 -13 5 -24 39 -24 24 0 34 4 32 13 -5 13 -60 22 -71 11z"/>
 </g>
<g id="layer106" fill="#45702c" stroke="none">
 <path d="M1361 1266 c-14 -15 -30 -22 -42 -19 -15 4 -19 0 -19 -21 0 -16 -5 -26 -15 -26 -8 0 -15 -6 -15 -13 0 -23 -35 -47 -68 -47 -25 0 -32 -4 -32 -20 0 -11 -6 -20 -14 -20 -8 0 -18 9 -21 20 -4 14 -15 20 -36 20 -16 0 -29 -4 -29 -10 0 -5 -7 -10 -15 -10 -8 0 -15 5 -15 10 0 6 7 10 15 10 8 0 15 7 15 15 0 11 12 15 50 15 38 0 50 4 50 15 0 10 10 15 30 15 17 0 30 5 30 10 0 6 -11 10 -25 10 -14 0 -28 7 -31 15 -4 8 -15 15 -25 15 -14 0 -19 -7 -19 -25 0 -24 -2 -25 -65 -25 -51 0 -65 -3 -65 -15 0 -8 7 -15 15 -15 20 0 19 -17 -2 -30 -17 -10 -17 -10 0 -20 26 -16 20 -30 -13 -30 -20 0 -30 5 -30 15 0 10 -11 15 -35 15 -24 0 -35 -5 -35 -15 0 -9 9 -15 21 -15 12 0 19 -5 17 -12 -3 -7 -18 -13 -34 -13 -29 0 -29 0 -32 65 l-3 66 36 14 c52 21 45 40 -15 40 l-50 0 0 -80 0 -80 -100 0 c-82 0 -100 -3 -100 -15 0 -11 12 -15 50 -15 28 0 50 -4 50 -10 0 -5 7 -10 15 -10 8 0 15 5 15 10 0 6 23 10 50 10 28 0 50 -4 50 -10 0 -5 23 -10 50 -10 28 0 50 5 50 10 0 6 8 10 18 10 16 -1 16 -1 0 -14 -10 -7 -18 -18 -18 -25 0 -6 -7 -11 -15 -11 -18 0 -20 -26 -2 -34 10 -5 10 -7 0 -12 -7 -3 -13 -12 -13 -20 0 -11 -16 -14 -70 -14 -56 0 -70 -3 -70 -15 0 -11 12 -15 50 -15 28 0 50 -4 50 -10 0 -14 -71 -12 -103 3 -20 9 -27 19 -27 40 0 17 -5 27 -15 27 -10 0 -15 -10 -15 -30 0 -20 5 -30 15 -30 9 0 15 -9 15 -25 0 -24 2 -25 65 -25 49 0 65 -3 65 -14 0 -7 10 -17 23 -21 14 -4 18 -8 9 -12 -8 -3 -19 0 -25 6 -6 6 -49 11 -104 11 -76 0 -93 3 -93 15 0 8 -9 15 -20 15 -15 0 -20 7 -20 25 0 16 -6 25 -15 25 -12 0 -15 -13 -15 -55 l0 -55 100 0 99 0 3 -77 c3 -75 20 -107 26 -50 3 25 6 27 53 27 47 0 66 14 34 26 -8 4 -15 10 -15 15 0 5 7 9 15 9 8 0 15 7 15 15 0 8 -7 15 -15 15 -8 0 -15 5 -15 10 0 6 7 10 15 10 8 0 15 -4 15 -10 0 -14 27 -13 32 2 3 8 12 8 36 -3 43 -19 41 -39 -3 -39 -31 0 -35 -3 -35 -25 0 -18 5 -25 20 -25 11 0 20 5 20 10 0 6 7 10 15 10 8 0 15 -4 15 -10 0 -5 7 -10 15 -10 8 0 15 5 15 10 0 6 7 10 15 10 9 0 18 7 21 15 10 25 34 17 34 -10 0 -22 -4 -25 -35 -25 -24 0 -35 -5 -35 -15 0 -8 -7 -15 -15 -15 -8 0 -15 -4 -15 -9 0 -9 118 -20 126 -12 2 2 4 37 4 77 l0 73 97 3 c66 2 98 7 101 16 2 8 -8 12 -32 12 -25 0 -36 4 -36 15 0 8 -7 15 -15 15 -8 0 -15 -7 -15 -15 0 -8 -7 -15 -15 -15 -8 0 -15 7 -15 15 0 8 -9 15 -20 15 -25 0 -26 22 -1 44 17 16 19 16 24 -5 7 -27 27 -15 27 17 0 22 4 24 50 24 56 0 67 17 23 38 -32 15 -73 16 -73 2 0 -5 -4 -10 -10 -10 -5 0 -10 10 -10 23 0 12 -7 33 -16 46 -16 22 -15 24 17 57 36 37 49 42 49 19 0 -8 -7 -15 -15 -15 -11 0 -15 -11 -15 -40 0 -29 4 -40 15 -40 9 0 15 9 15 25 0 18 5 25 20 25 11 0 20 7 20 15 0 8 7 15 15 15 11 0 15 11 15 40 0 31 -4 40 -17 40 -12 0 -4 13 27 46 43 44 44 46 26 60 -28 20 -49 17 -75 -10z m60 -2 c12 -14 11 -16 -5 -13 -11 2 -21 10 -24 17 -5 17 13 15 29 -4z m-25 -25 c7 -12 -123 -149 -143 -149 -32 0 -18 27 47 90 72 71 84 78 96 59z m-236 -155 c17 -4 47 -21 66 -39 47 -45 47 -91 0 -143 -34 -36 -36 -37 -105 -37 -66 0 -72 2 -105 34 -59 57 -46 126 33 168 47 25 60 27 111 17z m85 -3 c10 -17 -11 -21 -31 -6 -18 14 -18 14 3 15 12 0 24 -4 28 -9z m-250 -191 c3 -5 -1 -10 -9 -10 -9 0 -16 5 -16 10 0 6 4 10 9 10 6 0 13 -4 16 -10z m43 -48 c4 -24 32 -31 32 -7 0 11 7 13 28 9 16 -3 45 -1 65 4 33 9 37 8 37 -9 0 -10 -7 -19 -15 -19 -9 0 -15 -10 -15 -26 0 -33 -33 -30 -38 4 -5 31 -32 28 -32 -3 0 -14 -5 -25 -10 -25 -6 0 -21 11 -34 25 -13 14 -31 25 -40 25 -11 0 -16 9 -16 26 0 33 33 30 38 -4z m-68 -7 c0 -8 -7 -15 -15 -15 -8 0 -15 7 -15 15 0 8 7 15 15 15 8 0 15 -7 15 -15z m-70 -55 c0 -5 -7 -10 -15 -10 -8 0 -15 5 -15 10 0 6 7 10 15 10 8 0 15 -4 15 -10z m0 -50 c0 -5 -7 -10 -15 -10 -8 0 -15 5 -15 10 0 6 7 10 15 10 8 0 15 -4 15 -10z"/>
 <path d="M1065 1057 c-53 -25 -74 -70 -54 -118 15 -37 55 -59 109 -59 109 0 159 103 79 162 -33 25 -96 32 -134 15z m65 -22 c0 -8 -6 -15 -14 -15 -17 0 -28 14 -19 24 12 12 33 6 33 -9z m9 -64 c37 -35 39 -58 7 -72 -25 -12 -66 2 -66 23 0 7 4 7 14 -1 16 -13 46 -4 46 14 0 6 -9 20 -20 30 -18 16 -27 35 -16 35 2 0 18 -13 35 -29z"/>
 <path d="M640 1185 l0 -65 79 0 79 0 4 61 c1 33 1 63 -1 65 -2 2 -40 4 -83 4 l-78 0 0 -65z m128 -2 c-3 -38 -3 -38 -48 -38 -45 0 -45 0 -48 38 l-3 37 51 0 51 0 -3 -37z"/>
 <path d="M970 1235 c0 -12 14 -15 65 -15 51 0 65 3 65 15 0 12 -14 15 -65 15 -51 0 -65 -3 -65 -15z"/>
 <path d="M900 1185 c0 -8 9 -15 20 -15 11 0 19 -5 18 -12 -2 -6 5 -14 15 -16 13 -3 17 3 17 27 0 29 -3 31 -35 31 -24 0 -35 -5 -35 -15z"/>
 <path d="M670 1025 c0 -8 -7 -15 -15 -15 -8 0 -15 -7 -15 -15 0 -10 10 -15 30 -15 17 0 30 -4 30 -10 0 -5 -13 -10 -30 -10 -20 0 -30 -5 -30 -15 0 -22 56 -19 80 5 12 12 20 33 20 55 0 33 -2 35 -35 35 -24 0 -35 -5 -35 -15z"/>
 <path d="M800 1025 c0 -10 11 -15 35 -15 24 0 35 5 35 15 0 10 -11 15 -35 15 -24 0 -35 -5 -35 -15z"/>
 <path d="M1360 1025 c0 -8 9 -15 20 -15 11 0 20 7 20 15 0 8 -9 15 -20 15 -11 0 -20 -7 -20 -15z"/>
 <path d="M800 972 c0 -14 11 -21 26 -15 21 8 17 23 -6 23 -11 0 -20 -4 -20 -8z"/>
 <path d="M1332 888 c3 -7 17 -12 33 -12 16 0 30 5 33 12 2 8 -9 12 -33 12 -24 0 -35 -4 -33 -12z"/>
 <path d="M642 704 l3 -67 75 2 c41 1 76 3 77 4 1 1 3 29 4 62 l3 60 -83 3 -82 3 3 -67z"/>
 <path d="M1230 705 l0 -65 85 0 85 0 0 65 0 65 -85 0 -85 0 0 -65z m130 -5 l0 -40 -45 0 -45 0 0 40 0 40 45 0 45 0 0 -40z"/>
 <path d="M940 650 c0 -5 14 -10 30 -10 17 0 30 5 30 10 0 6 -13 10 -30 10 -16 0 -30 -4 -30 -10z"/>
 </g>
<g id="layer107" fill="#519229" stroke="none">
 <path d="M1361 1266 c-14 -15 -30 -22 -42 -19 -15 4 -19 0 -19 -21 0 -16 -5 -26 -15 -26 -8 0 -15 -6 -15 -13 0 -23 -35 -47 -68 -47 -25 0 -32 -4 -32 -20 0 -11 -6 -20 -14 -20 -8 0 -18 9 -21 20 -4 14 -15 20 -36 20 -16 0 -29 -4 -29 -10 0 -5 -7 -10 -15 -10 -8 0 -15 5 -15 10 0 6 7 10 15 10 8 0 15 7 15 15 0 11 12 15 50 15 38 0 50 4 50 15 0 10 10 15 30 15 17 0 30 5 30 10 0 6 -11 10 -25 10 -14 0 -28 7 -31 15 -4 8 -15 15 -25 15 -14 0 -19 -7 -19 -25 0 -24 -2 -25 -65 -25 -51 0 -65 -3 -65 -15 0 -8 7 -15 15 -15 20 0 19 -17 -2 -30 -17 -10 -17 -10 0 -20 26 -16 20 -30 -13 -30 -20 0 -30 5 -30 15 0 10 -11 15 -35 15 -24 0 -35 -5 -35 -15 0 -9 9 -15 21 -15 12 0 19 -5 17 -12 -3 -7 -18 -13 -34 -13 -29 0 -29 0 -32 65 l-3 66 36 14 c52 21 45 40 -15 40 l-50 0 0 -80 0 -80 -100 0 c-82 0 -100 -3 -100 -15 0 -11 12 -15 50 -15 28 0 50 -4 50 -10 0 -5 7 -10 15 -10 8 0 15 5 15 10 0 6 23 10 50 10 28 0 50 -4 50 -10 0 -5 23 -10 50 -10 28 0 50 5 50 10 0 6 8 10 18 10 16 -1 16 -1 0 -14 -10 -7 -18 -18 -18 -25 0 -6 -7 -11 -15 -11 -18 0 -20 -26 -2 -34 10 -5 10 -7 0 -12 -7 -3 -13 -12 -13 -20 0 -11 -16 -14 -70 -14 -56 0 -70 -3 -70 -15 0 -11 12 -15 50 -15 28 0 50 -4 50 -10 0 -14 -71 -12 -103 3 -20 9 -27 19 -27 40 0 17 -5 27 -15 27 -10 0 -15 -10 -15 -30 0 -20 5 -30 15 -30 9 0 15 -9 15 -25 0 -24 2 -25 65 -25 49 0 65 -3 65 -14 0 -7 10 -17 23 -21 14 -4 18 -8 9 -12 -8 -3 -19 0 -25 6 -6 6 -49 11 -104 11 -76 0 -93 3 -93 15 0 8 -9 15 -20 15 -15 0 -20 7 -20 25 0 16 -6 25 -15 25 -12 0 -15 -13 -15 -55 l0 -55 100 0 99 0 3 -77 c3 -75 20 -107 26 -50 3 25 6 27 53 27 47 0 66 14 34 26 -8 4 -15 10 -15 15 0 5 7 9 15 9 8 0 15 7 15 15 0 8 -7 15 -15 15 -8 0 -15 5 -15 10 0 6 7 10 15 10 8 0 15 -4 15 -10 0 -14 27 -13 32 2 3 8 12 8 36 -3 43 -19 41 -39 -3 -39 -31 0 -35 -3 -35 -25 0 -18 5 -25 20 -25 11 0 20 5 20 10 0 6 7 10 15 10 8 0 15 -4 15 -10 0 -5 7 -10 15 -10 8 0 15 5 15 10 0 6 7 10 15 10 9 0 18 7 21 15 10 25 34 17 34 -10 0 -22 -4 -25 -35 -25 -24 0 -35 -5 -35 -15 0 -8 -7 -15 -15 -15 -8 0 -15 -4 -15 -9 0 -9 118 -20 126 -12 2 2 4 37 4 77 l0 73 97 3 c66 2 98 7 101 16 2 8 -8 12 -32 12 -25 0 -36 4 -36 15 0 8 -7 15 -15 15 -8 0 -15 -7 -15 -15 0 -8 -7 -15 -15 -15 -8 0 -15 7 -15 15 0 8 -9 15 -20 15 -25 0 -26 22 -1 44 17 16 19 16 24 -5 7 -27 27 -15 27 17 0 22 4 24 50 24 56 0 67 17 23 38 -32 15 -73 16 -73 2 0 -5 -4 -10 -10 -10 -5 0 -10 10 -10 23 0 12 -7 33 -16 46 -16 22 -15 24 17 57 36 37 49 42 49 19 0 -8 -7 -15 -15 -15 -11 0 -15 -11 -15 -40 0 -29 4 -40 15 -40 9 0 15 9 15 25 0 18 5 25 20 25 11 0 20 7 20 15 0 8 7 15 15 15 11 0 15 11 15 40 0 31 -4 40 -17 40 -12 0 -4 13 27 46 43 44 44 46 26 60 -28 20 -49 17 -75 -10z m60 -2 c12 -14 11 -16 -5 -13 -11 2 -21 10 -24 17 -5 17 13 15 29 -4z m-25 -25 c7 -12 -123 -149 -143 -149 -32 0 -18 27 47 90 72 71 84 78 96 59z m-236 -155 c17 -4 47 -21 66 -39 47 -45 47 -91 0 -143 -34 -36 -36 -37 -105 -37 -66 0 -72 2 -105 34 -59 57 -46 126 33 168 47 25 60 27 111 17z m85 -3 c10 -17 -11 -21 -31 -6 -18 14 -18 14 3 15 12 0 24 -4 28 -9z m-250 -191 c3 -5 -1 -10 -9 -10 -9 0 -16 5 -16 10 0 6 4 10 9 10 6 0 13 -4 16 -10z m43 -48 c4 -24 32 -31 32 -7 0 11 7 13 28 9 16 -3 45 -1 65 4 33 9 37 8 37 -9 0 -10 -7 -19 -15 -19 -9 0 -15 -10 -15 -26 0 -33 -33 -30 -38 4 -5 31 -32 28 -32 -3 0 -14 -5 -25 -10 -25 -6 0 -21 11 -34 25 -13 14 -31 25 -40 25 -11 0 -16 9 -16 26 0 33 33 30 38 -4z m-68 -7 c0 -8 -7 -15 -15 -15 -8 0 -15 7 -15 15 0 8 7 15 15 15 8 0 15 -7 15 -15z m-70 -55 c0 -5 -7 -10 -15 -10 -8 0 -15 5 -15 10 0 6 7 10 15 10 8 0 15 -4 15 -10z m0 -50 c0 -5 -7 -10 -15 -10 -8 0 -15 5 -15 10 0 6 7 10 15 10 8 0 15 -4 15 -10z"/>
 <path d="M1071 1055 c-45 -20 -60 -42 -61 -86 0 -56 36 -84 110 -84 63 0 94 18 112 64 28 74 -77 143 -161 106z m63 -14 c3 -5 0 -13 -7 -19 -15 -13 -42 1 -33 17 9 13 33 15 40 2z m11 -74 c38 -35 40 -61 3 -73 -27 -8 -65 3 -72 21 -4 12 0 14 19 9 38 -9 48 4 25 33 -19 24 -26 43 -16 43 3 0 21 -15 41 -33z"/>
 <path d="M640 1185 l0 -65 79 0 79 0 4 61 c1 33 1 63 -1 65 -2 2 -40 4 -83 4 l-78 0 0 -65z m128 -2 c-3 -38 -3 -38 -48 -38 -45 0 -45 0 -48 38 l-3 37 51 0 51 0 -3 -37z"/>
 <path d="M970 1235 c0 -12 14 -15 65 -15 51 0 65 3 65 15 0 12 -14 15 -65 15 -51 0 -65 -3 -65 -15z"/>
 <path d="M900 1185 c0 -8 9 -15 20 -15 11 0 19 -5 18 -12 -2 -6 5 -14 15 -16 13 -3 17 3 17 27 0 29 -3 31 -35 31 -24 0 -35 -5 -35 -15z"/>
 <path d="M670 1025 c0 -8 -7 -15 -15 -15 -8 0 -15 -7 -15 -15 0 -10 10 -15 30 -15 17 0 30 -4 30 -10 0 -5 -13 -10 -30 -10 -20 0 -30 -5 -30 -15 0 -22 56 -19 80 5 12 12 20 33 20 55 0 33 -2 35 -35 35 -24 0 -35 -5 -35 -15z"/>
 <path d="M800 1025 c0 -10 11 -15 35 -15 24 0 35 5 35 15 0 10 -11 15 -35 15 -24 0 -35 -5 -35 -15z"/>
 <path d="M1360 1025 c0 -8 9 -15 20 -15 11 0 20 7 20 15 0 8 -9 15 -20 15 -11 0 -20 -7 -20 -15z"/>
 <path d="M800 972 c0 -14 11 -21 26 -15 21 8 17 23 -6 23 -11 0 -20 -4 -20 -8z"/>
 <path d="M1332 888 c3 -7 17 -12 33 -12 16 0 30 5 33 12 2 8 -9 12 -33 12 -24 0 -35 -4 -33 -12z"/>
 <path d="M642 704 l3 -67 75 2 c41 1 76 3 77 4 1 1 3 29 4 62 l3 60 -83 3 -82 3 3 -67z"/>
 <path d="M1230 705 l0 -65 85 0 85 0 0 65 0 65 -85 0 -85 0 0 -65z m130 -5 l0 -40 -45 0 -45 0 0 40 0 40 45 0 45 0 0 -40z"/>
 <path d="M940 650 c0 -5 14 -10 30 -10 17 0 30 5 30 10 0 6 -13 10 -30 10 -16 0 -30 -4 -30 -10z"/>
 </g>
<g id="layer108" fill="#5eaf1a" stroke="none">
 <path d="M1361 1266 c-14 -15 -30 -22 -42 -19 -15 4 -19 0 -19 -21 0 -16 -5 -26 -15 -26 -8 0 -15 -6 -15 -13 0 -23 -35 -47 -68 -47 -25 0 -32 -4 -32 -20 0 -11 -6 -20 -14 -20 -8 0 -18 9 -21 20 -4 14 -15 20 -36 20 -16 0 -29 -4 -29 -10 0 -5 -7 -10 -15 -10 -8 0 -15 5 -15 10 0 6 7 10 15 10 8 0 15 7 15 15 0 11 12 15 50 15 38 0 50 4 50 15 0 10 10 15 30 15 17 0 30 5 30 10 0 6 -11 10 -25 10 -14 0 -28 7 -31 15 -4 8 -15 15 -25 15 -14 0 -19 -7 -19 -25 0 -24 -2 -25 -65 -25 -51 0 -65 -3 -65 -15 0 -8 7 -15 15 -15 20 0 19 -17 -2 -30 -17 -10 -17 -10 0 -20 26 -16 20 -30 -13 -30 -20 0 -30 5 -30 15 0 10 -11 15 -35 15 -24 0 -35 -5 -35 -15 0 -9 9 -15 21 -15 12 0 19 -5 17 -12 -3 -7 -18 -13 -34 -13 -29 0 -29 0 -32 65 l-3 66 36 14 c52 21 45 40 -15 40 l-50 0 0 -80 0 -80 -100 0 c-82 0 -100 -3 -100 -15 0 -11 12 -15 50 -15 28 0 50 -4 50 -10 0 -5 7 -10 15 -10 8 0 15 5 15 10 0 6 23 10 50 10 28 0 50 -4 50 -10 0 -5 23 -10 50 -10 28 0 50 5 50 10 0 6 8 10 18 10 16 -1 16 -1 0 -14 -10 -7 -18 -18 -18 -25 0 -6 -7 -11 -15 -11 -18 0 -20 -26 -2 -34 10 -5 10 -7 0 -12 -7 -3 -13 -12 -13 -20 0 -11 -16 -14 -70 -14 -56 0 -70 -3 -70 -15 0 -11 12 -15 50 -15 28 0 50 -4 50 -10 0 -14 -71 -12 -103 3 -20 9 -27 19 -27 40 0 17 -5 27 -15 27 -10 0 -15 -10 -15 -30 0 -20 5 -30 15 -30 9 0 15 -9 15 -25 0 -24 2 -25 65 -25 49 0 65 -3 65 -14 0 -7 10 -17 23 -21 14 -4 18 -8 9 -12 -8 -3 -19 0 -25 6 -6 6 -49 11 -104 11 -76 0 -93 3 -93 15 0 8 -9 15 -20 15 -15 0 -20 7 -20 25 0 16 -6 25 -15 25 -12 0 -15 -13 -15 -55 l0 -55 100 0 99 0 3 -77 c3 -75 20 -107 26 -50 3 25 6 27 53 27 47 0 66 14 34 26 -8 4 -15 10 -15 15 0 5 7 9 15 9 8 0 15 7 15 15 0 8 -7 15 -15 15 -8 0 -15 5 -15 10 0 6 7 10 15 10 8 0 15 -4 15 -10 0 -14 27 -13 32 2 3 8 12 8 36 -3 43 -19 41 -39 -3 -39 -31 0 -35 -3 -35 -25 0 -18 5 -25 20 -25 11 0 20 5 20 10 0 6 7 10 15 10 8 0 15 -4 15 -10 0 -5 7 -10 15 -10 8 0 15 5 15 10 0 6 7 10 15 10 9 0 18 7 21 15 10 25 34 17 34 -10 0 -22 -4 -25 -35 -25 -24 0 -35 -5 -35 -15 0 -8 -7 -15 -15 -15 -8 0 -15 -4 -15 -9 0 -9 118 -20 126 -12 2 2 4 37 4 77 l0 73 97 3 c66 2 98 7 101 16 2 8 -8 12 -32 12 -25 0 -36 4 -36 15 0 8 -7 15 -15 15 -8 0 -15 -7 -15 -15 0 -8 -7 -15 -15 -15 -8 0 -15 7 -15 15 0 8 -9 15 -20 15 -25 0 -26 22 -1 44 17 16 19 16 24 -5 7 -27 27 -15 27 17 0 22 4 24 50 24 56 0 67 17 23 38 -32 15 -73 16 -73 2 0 -5 -4 -10 -10 -10 -5 0 -10 10 -10 23 0 12 -7 33 -16 46 -16 22 -15 24 17 57 36 37 49 42 49 19 0 -8 -7 -15 -15 -15 -11 0 -15 -11 -15 -40 0 -29 4 -40 15 -40 9 0 15 9 15 25 0 18 5 25 20 25 11 0 20 7 20 15 0 8 7 15 15 15 11 0 15 11 15 40 0 31 -4 40 -17 40 -12 0 -4 13 27 46 43 44 44 46 26 60 -28 20 -49 17 -75 -10z m60 -2 c12 -14 11 -16 -5 -13 -11 2 -21 10 -24 17 -5 17 13 15 29 -4z m-25 -25 c7 -12 -123 -149 -143 -149 -32 0 -18 27 47 90 72 71 84 78 96 59z m-236 -155 c17 -4 47 -21 66 -39 47 -45 47 -91 0 -143 -34 -36 -36 -37 -105 -37 -66 0 -72 2 -105 34 -59 57 -46 126 33 168 47 25 60 27 111 17z m85 -3 c10 -17 -11 -21 -31 -6 -18 14 -18 14 3 15 12 0 24 -4 28 -9z m-250 -191 c3 -5 -1 -10 -9 -10 -9 0 -16 5 -16 10 0 6 4 10 9 10 6 0 13 -4 16 -10z m43 -48 c4 -24 32 -31 32 -7 0 11 7 13 28 9 16 -3 45 -1 65 4 33 9 37 8 37 -9 0 -10 -7 -19 -15 -19 -9 0 -15 -10 -15 -26 0 -33 -33 -30 -38 4 -5 31 -32 28 -32 -3 0 -14 -5 -25 -10 -25 -6 0 -21 11 -34 25 -13 14 -31 25 -40 25 -11 0 -16 9 -16 26 0 33 33 30 38 -4z m-68 -7 c0 -8 -7 -15 -15 -15 -8 0 -15 7 -15 15 0 8 7 15 15 15 8 0 15 -7 15 -15z m-70 -55 c0 -5 -7 -10 -15 -10 -8 0 -15 5 -15 10 0 6 7 10 15 10 8 0 15 -4 15 -10z m0 -50 c0 -5 -7 -10 -15 -10 -8 0 -15 5 -15 10 0 6 7 10 15 10 8 0 15 -4 15 -10z"/>
 <path d="M1039 1031 c-55 -55 -26 -131 55 -146 75 -15 136 24 136 85 0 55 -43 90 -112 90 -41 0 -54 -5 -79 -29z m101 5 c0 -8 -4 -18 -10 -21 -18 -11 -11 -31 15 -45 34 -18 43 -50 19 -67 -25 -18 -74 -13 -88 9 -13 21 0 36 16 20 16 -16 38 -15 38 2 0 7 -7 19 -16 27 -8 7 -13 21 -11 31 3 10 1 21 -4 24 -19 11 -9 34 16 34 15 0 25 -6 25 -14z"/>
 <path d="M640 1185 l0 -65 79 0 79 0 4 61 c1 33 1 63 -1 65 -2 2 -40 4 -83 4 l-78 0 0 -65z m128 -2 c-3 -38 -3 -38 -48 -38 -45 0 -45 0 -48 38 l-3 37 51 0 51 0 -3 -37z"/>
 <path d="M970 1235 c0 -12 14 -15 65 -15 51 0 65 3 65 15 0 12 -14 15 -65 15 -51 0 -65 -3 -65 -15z"/>
 <path d="M900 1185 c0 -8 9 -15 20 -15 11 0 19 -5 18 -12 -2 -6 5 -14 15 -16 13 -3 17 3 17 27 0 29 -3 31 -35 31 -24 0 -35 -5 -35 -15z"/>
 <path d="M670 1025 c0 -8 -7 -15 -15 -15 -8 0 -15 -7 -15 -15 0 -10 10 -15 30 -15 17 0 30 -4 30 -10 0 -5 -13 -10 -30 -10 -20 0 -30 -5 -30 -15 0 -22 56 -19 80 5 12 12 20 33 20 55 0 33 -2 35 -35 35 -24 0 -35 -5 -35 -15z"/>
 <path d="M800 1025 c0 -10 11 -15 35 -15 24 0 35 5 35 15 0 10 -11 15 -35 15 -24 0 -35 -5 -35 -15z"/>
 <path d="M1360 1025 c0 -8 9 -15 20 -15 11 0 20 7 20 15 0 8 -9 15 -20 15 -11 0 -20 -7 -20 -15z"/>
 <path d="M800 972 c0 -14 11 -21 26 -15 21 8 17 23 -6 23 -11 0 -20 -4 -20 -8z"/>
 <path d="M1332 888 c3 -7 17 -12 33 -12 16 0 30 5 33 12 2 8 -9 12 -33 12 -24 0 -35 -4 -33 -12z"/>
 <path d="M642 704 l3 -67 75 2 c41 1 76 3 77 4 1 1 3 29 4 62 l3 60 -83 3 -82 3 3 -67z"/>
 <path d="M1230 705 l0 -65 85 0 85 0 0 65 0 65 -85 0 -85 0 0 -65z m130 -5 l0 -40 -45 0 -45 0 0 40 0 40 45 0 45 0 0 -40z"/>
 <path d="M940 650 c0 -5 14 -10 30 -10 17 0 30 5 30 10 0 6 -13 10 -30 10 -16 0 -30 -4 -30 -10z"/>
 </g>
<g id="layer109" fill="#6ab83a" stroke="none">
 <path d="M1361 1266 c-14 -15 -30 -22 -42 -19 -15 4 -19 0 -19 -21 0 -16 -5 -26 -15 -26 -8 0 -15 -6 -15 -13 0 -23 -35 -47 -68 -47 -25 0 -32 -4 -32 -20 0 -11 -6 -20 -14 -20 -8 0 -18 9 -21 20 -4 14 -15 20 -36 20 -16 0 -29 -4 -29 -10 0 -5 -7 -10 -15 -10 -8 0 -15 5 -15 10 0 6 7 10 15 10 8 0 15 7 15 15 0 11 12 15 50 15 38 0 50 4 50 15 0 10 10 15 30 15 17 0 30 5 30 10 0 6 -11 10 -25 10 -14 0 -28 7 -31 15 -4 8 -15 15 -25 15 -14 0 -19 -7 -19 -25 0 -24 -2 -25 -65 -25 -51 0 -65 -3 -65 -15 0 -8 7 -15 15 -15 20 0 19 -17 -2 -30 -17 -10 -17 -10 0 -20 26 -16 20 -30 -13 -30 -20 0 -30 5 -30 15 0 10 -11 15 -35 15 -24 0 -35 -5 -35 -15 0 -9 9 -15 21 -15 12 0 19 -5 17 -12 -3 -7 -18 -13 -34 -13 -29 0 -29 0 -32 65 l-3 66 36 14 c52 21 45 40 -15 40 l-50 0 0 -80 0 -80 -100 0 c-82 0 -100 -3 -100 -15 0 -11 12 -15 50 -15 28 0 50 -4 50 -10 0 -5 7 -10 15 -10 8 0 15 5 15 10 0 6 23 10 50 10 28 0 50 -4 50 -10 0 -5 23 -10 50 -10 28 0 50 5 50 10 0 6 8 10 18 10 16 -1 16 -1 0 -14 -10 -7 -18 -18 -18 -25 0 -6 -7 -11 -15 -11 -18 0 -20 -26 -2 -34 10 -5 10 -7 0 -12 -7 -3 -13 -12 -13 -20 0 -11 -16 -14 -70 -14 -56 0 -70 -3 -70 -15 0 -11 12 -15 50 -15 28 0 50 -4 50 -10 0 -14 -71 -12 -103 3 -20 9 -27 19 -27 40 0 17 -5 27 -15 27 -10 0 -15 -10 -15 -30 0 -20 5 -30 15 -30 9 0 15 -9 15 -25 0 -24 2 -25 65 -25 49 0 65 -3 65 -14 0 -7 10 -17 23 -21 14 -4 18 -8 9 -12 -8 -3 -19 0 -25 6 -6 6 -49 11 -104 11 -76 0 -93 3 -93 15 0 8 -9 15 -20 15 -15 0 -20 7 -20 25 0 16 -6 25 -15 25 -12 0 -15 -13 -15 -55 l0 -55 100 0 99 0 3 -77 c3 -75 20 -107 26 -50 3 25 6 27 53 27 47 0 66 14 34 26 -8 4 -15 10 -15 15 0 5 7 9 15 9 8 0 15 7 15 15 0 8 -7 15 -15 15 -8 0 -15 5 -15 10 0 6 7 10 15 10 8 0 15 -4 15 -10 0 -14 27 -13 32 2 3 8 12 8 36 -3 43 -19 41 -39 -3 -39 -31 0 -35 -3 -35 -25 0 -18 5 -25 20 -25 11 0 20 5 20 10 0 6 7 10 15 10 8 0 15 -4 15 -10 0 -5 7 -10 15 -10 8 0 15 5 15 10 0 6 7 10 15 10 9 0 18 7 21 15 10 25 34 17 34 -10 0 -22 -4 -25 -35 -25 -24 0 -35 -5 -35 -15 0 -8 -7 -15 -15 -15 -8 0 -15 -4 -15 -9 0 -9 118 -20 126 -12 2 2 4 37 4 77 l0 73 97 3 c66 2 98 7 101 16 2 8 -8 12 -32 12 -25 0 -36 4 -36 15 0 8 -7 15 -15 15 -8 0 -15 -7 -15 -15 0 -8 -7 -15 -15 -15 -8 0 -15 7 -15 15 0 8 -9 15 -20 15 -25 0 -26 22 -1 44 17 16 19 16 24 -5 7 -27 27 -15 27 17 0 22 4 24 50 24 56 0 67 17 23 38 -32 15 -73 16 -73 2 0 -5 -4 -10 -10 -10 -5 0 -10 10 -10 23 0 12 -7 33 -16 46 -16 22 -15 24 17 57 36 37 49 42 49 19 0 -8 -7 -15 -15 -15 -11 0 -15 -11 -15 -40 0 -29 4 -40 15 -40 9 0 15 9 15 25 0 18 5 25 20 25 11 0 20 7 20 15 0 8 7 15 15 15 11 0 15 11 15 40 0 31 -4 40 -17 40 -12 0 -4 13 27 46 43 44 44 46 26 60 -28 20 -49 17 -75 -10z m60 -2 c12 -14 11 -16 -5 -13 -11 2 -21 10 -24 17 -5 17 13 15 29 -4z m-25 -25 c7 -12 -123 -149 -143 -149 -32 0 -18 27 47 90 72 71 84 78 96 59z m-236 -155 c17 -4 47 -21 66 -39 47 -45 47 -91 0 -143 -34 -36 -36 -37 -105 -37 -66 0 -72 2 -105 34 -59 57 -46 126 33 168 47 25 60 27 111 17z m85 -3 c10 -17 -11 -21 -31 -6 -18 14 -18 14 3 15 12 0 24 -4 28 -9z m-250 -191 c3 -5 -1 -10 -9 -10 -9 0 -16 5 -16 10 0 6 4 10 9 10 6 0 13 -4 16 -10z m43 -48 c4 -24 32 -31 32 -7 0 11 7 13 28 9 16 -3 45 -1 65 4 33 9 37 8 37 -9 0 -10 -7 -19 -15 -19 -9 0 -15 -10 -15 -26 0 -33 -33 -30 -38 4 -5 31 -32 28 -32 -3 0 -14 -5 -25 -10 -25 -6 0 -21 11 -34 25 -13 14 -31 25 -40 25 -11 0 -16 9 -16 26 0 33 33 30 38 -4z m-68 -7 c0 -8 -7 -15 -15 -15 -8 0 -15 7 -15 15 0 8 7 15 15 15 8 0 15 -7 15 -15z m-70 -55 c0 -5 -7 -10 -15 -10 -8 0 -15 5 -15 10 0 6 7 10 15 10 8 0 15 -4 15 -10z m0 -50 c0 -5 -7 -10 -15 -10 -8 0 -15 5 -15 10 0 6 7 10 15 10 8 0 15 -4 15 -10z"/>
 <path d="M640 1185 l0 -65 79 0 79 0 4 61 c1 33 1 63 -1 65 -2 2 -40 4 -83 4 l-78 0 0 -65z m128 -2 c-3 -38 -3 -38 -48 -38 -45 0 -45 0 -48 38 l-3 37 51 0 51 0 -3 -37z"/>
 <path d="M970 1235 c0 -12 14 -15 65 -15 51 0 65 3 65 15 0 12 -14 15 -65 15 -51 0 -65 -3 -65 -15z"/>
 <path d="M900 1185 c0 -8 9 -15 20 -15 11 0 19 -5 18 -12 -2 -6 5 -14 15 -16 13 -3 17 3 17 27 0 29 -3 31 -35 31 -24 0 -35 -5 -35 -15z"/>
 <path d="M670 1025 c0 -8 -7 -15 -15 -15 -8 0 -15 -7 -15 -15 0 -10 10 -15 30 -15 17 0 30 -4 30 -10 0 -5 -13 -10 -30 -10 -20 0 -30 -5 -30 -15 0 -22 56 -19 80 5 12 12 20 33 20 55 0 33 -2 35 -35 35 -24 0 -35 -5 -35 -15z"/>
 <path d="M800 1025 c0 -10 11 -15 35 -15 24 0 35 5 35 15 0 10 -11 15 -35 15 -24 0 -35 -5 -35 -15z"/>
 <path d="M1360 1025 c0 -8 9 -15 20 -15 11 0 20 7 20 15 0 8 -9 15 -20 15 -11 0 -20 -7 -20 -15z"/>
 <path d="M800 972 c0 -14 11 -21 26 -15 21 8 17 23 -6 23 -11 0 -20 -4 -20 -8z"/>
 <path d="M1332 888 c3 -7 17 -12 33 -12 16 0 30 5 33 12 2 8 -9 12 -33 12 -24 0 -35 -4 -33 -12z"/>
 <path d="M642 704 l3 -67 75 2 c41 1 76 3 77 4 1 1 3 29 4 62 l3 60 -83 3 -82 3 3 -67z m61 28 c2 7 9 -3 15 -22 l10 -35 1 31 c1 27 5 32 26 30 21 -1 25 -6 25 -33 0 -31 -2 -33 -35 -33 -21 0 -35 5 -36 13 0 10 -2 10 -6 0 -11 -28 -33 -13 -33 23 0 30 2 34 14 25 11 -9 15 -9 19 1z"/>
 <path d="M1230 705 l0 -65 85 0 85 0 0 65 0 65 -85 0 -85 0 0 -65z m130 -5 l0 -40 -45 0 -45 0 0 40 0 40 45 0 45 0 0 -40z"/>
 <path d="M940 650 c0 -5 14 -10 30 -10 17 0 30 5 30 10 0 6 -13 10 -30 10 -16 0 -30 -4 -30 -10z"/>
 </g>
<g id="layer110" fill="#83807f" stroke="none">
 <path d="M1361 1266 c-14 -15 -30 -22 -42 -19 -15 4 -19 0 -19 -21 0 -16 -5 -26 -15 -26 -8 0 -15 -6 -15 -13 0 -23 -35 -47 -68 -47 -25 0 -32 -4 -32 -20 0 -11 -6 -20 -14 -20 -8 0 -18 9 -21 20 -4 14 -15 20 -36 20 -16 0 -29 -4 -29 -10 0 -5 -7 -10 -15 -10 -8 0 -15 5 -15 10 0 6 7 10 15 10 8 0 15 7 15 15 0 11 12 15 50 15 38 0 50 4 50 15 0 10 10 15 30 15 17 0 30 5 30 10 0 6 -11 10 -25 10 -14 0 -28 7 -31 15 -4 8 -15 15 -25 15 -14 0 -19 -7 -19 -25 0 -24 -2 -25 -65 -25 -51 0 -65 -3 -65 -15 0 -8 7 -15 15 -15 20 0 19 -17 -2 -30 -17 -10 -17 -10 0 -20 26 -16 20 -30 -13 -30 -20 0 -30 5 -30 15 0 10 -11 15 -35 15 -24 0 -35 -5 -35 -15 0 -9 9 -15 21 -15 12 0 19 -5 17 -12 -3 -7 -18 -13 -34 -13 -29 0 -29 0 -32 65 l-3 66 36 14 c52 21 45 40 -15 40 l-50 0 0 -80 0 -80 -100 0 c-82 0 -100 -3 -100 -15 0 -11 12 -15 50 -15 28 0 50 -4 50 -10 0 -5 7 -10 15 -10 8 0 15 5 15 10 0 6 23 10 50 10 28 0 50 -4 50 -10 0 -5 23 -10 50 -10 28 0 50 5 50 10 0 6 8 10 18 10 16 -1 16 -1 0 -14 -10 -7 -18 -18 -18 -25 0 -6 -7 -11 -15 -11 -18 0 -20 -26 -2 -34 10 -5 10 -7 0 -12 -7 -3 -13 -12 -13 -20 0 -11 -16 -14 -70 -14 -56 0 -70 -3 -70 -15 0 -11 12 -15 50 -15 28 0 50 -4 50 -10 0 -14 -71 -12 -103 3 -20 9 -27 19 -27 40 0 17 -5 27 -15 27 -10 0 -15 -10 -15 -30 0 -20 5 -30 15 -30 9 0 15 -9 15 -25 0 -24 2 -25 65 -25 49 0 65 -3 65 -14 0 -7 10 -17 23 -21 14 -4 18 -8 9 -12 -8 -3 -19 0 -25 6 -6 6 -49 11 -104 11 -76 0 -93 3 -93 15 0 8 -9 15 -20 15 -15 0 -20 7 -20 25 0 16 -6 25 -15 25 -12 0 -15 -13 -15 -55 l0 -55 100 0 99 0 3 -77 c3 -75 20 -107 26 -50 3 25 6 27 53 27 47 0 66 14 34 26 -8 4 -15 10 -15 15 0 5 7 9 15 9 8 0 15 7 15 15 0 8 -7 15 -15 15 -8 0 -15 5 -15 10 0 6 7 10 15 10 8 0 15 -4 15 -10 0 -14 27 -13 32 2 3 8 12 8 36 -3 43 -19 41 -39 -3 -39 -31 0 -35 -3 -35 -25 0 -18 5 -25 20 -25 11 0 20 5 20 10 0 6 7 10 15 10 8 0 15 -4 15 -10 0 -5 7 -10 15 -10 8 0 15 5 15 10 0 6 7 10 15 10 9 0 18 7 21 15 10 25 34 17 34 -10 0 -22 -4 -25 -35 -25 -24 0 -35 -5 -35 -15 0 -8 -7 -15 -15 -15 -8 0 -15 -4 -15 -9 0 -9 118 -20 126 -12 2 2 4 37 4 77 l0 73 97 3 c66 2 98 7 101 16 2 8 -8 12 -32 12 -25 0 -36 4 -36 15 0 8 -7 15 -15 15 -8 0 -15 -7 -15 -15 0 -8 -7 -15 -15 -15 -8 0 -15 7 -15 15 0 8 -9 15 -20 15 -25 0 -26 22 -1 44 17 16 19 16 24 -5 7 -27 27 -15 27 17 0 22 4 24 50 24 56 0 67 17 23 38 -32 15 -73 16 -73 2 0 -5 -4 -10 -10 -10 -5 0 -10 10 -10 23 0 12 -7 33 -16 46 -16 22 -15 24 17 57 36 37 49 42 49 19 0 -8 -7 -15 -15 -15 -11 0 -15 -11 -15 -40 0 -29 4 -40 15 -40 9 0 15 9 15 25 0 18 5 25 20 25 11 0 20 7 20 15 0 8 7 15 15 15 11 0 15 11 15 40 0 31 -4 40 -17 40 -12 0 -4 13 27 46 43 44 44 46 26 60 -28 20 -49 17 -75 -10z m60 -2 c12 -14 11 -16 -5 -13 -11 2 -21 10 -24 17 -5 17 13 15 29 -4z m-25 -25 c7 -12 -123 -149 -143 -149 -32 0 -18 27 47 90 72 71 84 78 96 59z m-236 -155 c17 -4 47 -21 66 -39 47 -45 47 -91 0 -143 -34 -36 -36 -37 -105 -37 -66 0 -72 2 -105 34 -59 57 -46 126 33 168 47 25 60 27 111 17z m85 -3 c10 -17 -11 -21 -31 -6 -18 14 -18 14 3 15 12 0 24 -4 28 -9z m-250 -191 c3 -5 -1 -10 -9 -10 -9 0 -16 5 -16 10 0 6 4 10 9 10 6 0 13 -4 16 -10z m43 -48 c4 -24 32 -31 32 -7 0 11 7 13 28 9 16 -3 45 -1 65 4 33 9 37 8 37 -9 0 -10 -7 -19 -15 -19 -9 0 -15 -10 -15 -26 0 -33 -33 -30 -38 4 -5 31 -32 28 -32 -3 0 -14 -5 -25 -10 -25 -6 0 -21 11 -34 25 -13 14 -31 25 -40 25 -11 0 -16 9 -16 26 0 33 33 30 38 -4z m-68 -7 c0 -8 -7 -15 -15 -15 -8 0 -15 7 -15 15 0 8 7 15 15 15 8 0 15 -7 15 -15z m-70 -55 c0 -5 -7 -10 -15 -10 -8 0 -15 5 -15 10 0 6 7 10 15 10 8 0 15 -4 15 -10z m0 -50 c0 -5 -7 -10 -15 -10 -8 0 -15 5 -15 10 0 6 7 10 15 10 8 0 15 -4 15 -10z"/>
 <path d="M640 1185 l0 -65 79 0 79 0 4 61 c1 33 1 63 -1 65 -2 2 -40 4 -83 4 l-78 0 0 -65z m128 -2 c-3 -38 -3 -38 -48 -38 -45 0 -45 0 -48 38 l-3 37 51 0 51 0 -3 -37z"/>
 <path d="M970 1235 c0 -12 14 -15 65 -15 51 0 65 3 65 15 0 12 -14 15 -65 15 -51 0 -65 -3 -65 -15z"/>
 <path d="M900 1185 c0 -8 9 -15 20 -15 11 0 19 -5 18 -12 -2 -6 5 -14 15 -16 13 -3 17 3 17 27 0 29 -3 31 -35 31 -24 0 -35 -5 -35 -15z"/>
 <path d="M670 1025 c0 -8 -7 -15 -15 -15 -8 0 -15 -7 -15 -15 0 -10 10 -15 30 -15 17 0 30 -4 30 -10 0 -5 -13 -10 -30 -10 -20 0 -30 -5 -30 -15 0 -22 56 -19 80 5 12 12 20 33 20 55 0 33 -2 35 -35 35 -24 0 -35 -5 -35 -15z"/>
 <path d="M800 1025 c0 -10 11 -15 35 -15 24 0 35 5 35 15 0 10 -11 15 -35 15 -24 0 -35 -5 -35 -15z"/>
 <path d="M1360 1025 c0 -8 9 -15 20 -15 11 0 20 7 20 15 0 8 -9 15 -20 15 -11 0 -20 -7 -20 -15z"/>
 <path d="M800 972 c0 -14 11 -21 26 -15 21 8 17 23 -6 23 -11 0 -20 -4 -20 -8z"/>
 <path d="M1332 888 c3 -7 17 -12 33 -12 16 0 30 5 33 12 2 8 -9 12 -33 12 -24 0 -35 -4 -33 -12z"/>
 <path d="M642 704 l3 -67 75 2 c41 1 76 3 77 4 1 1 3 29 4 62 l3 60 -83 3 -82 3 3 -67z m79 5 c7 -23 7 -23 8 3 1 23 5 27 26 26 22 -2 25 -7 25 -38 0 -32 -3 -35 -32 -37 -18 -2 -36 3 -40 10 -6 9 -8 9 -8 0 0 -7 -7 -10 -15 -7 -9 4 -15 19 -15 40 0 29 3 33 22 30 14 -2 25 -13 29 -27z"/>
 <path d="M1230 705 l0 -65 85 0 85 0 0 65 0 65 -85 0 -85 0 0 -65z m130 -5 l0 -40 -45 0 -45 0 0 40 0 40 45 0 45 0 0 -40z"/>
 <path d="M940 650 c0 -5 14 -10 30 -10 17 0 30 5 30 10 0 6 -13 10 -30 10 -16 0 -30 -4 -30 -10z"/>
 </g>
<g id="layer111" fill="#8ab867" stroke="none">
 <path d="M1361 1266 c-14 -15 -30 -22 -42 -19 -15 4 -19 0 -19 -21 0 -16 -5 -26 -15 -26 -8 0 -15 -6 -15 -13 0 -23 -35 -47 -68 -47 -25 0 -32 -4 -32 -20 0 -13 -7 -20 -20 -20 -13 0 -20 7 -20 20 0 16 -7 20 -30 20 -16 0 -30 -4 -30 -10 0 -5 -7 -10 -15 -10 -9 0 -18 -7 -21 -15 -4 -9 -19 -15 -35 -15 -19 0 -29 5 -29 15 0 10 -11 15 -35 15 -24 0 -35 -5 -35 -15 0 -9 9 -15 21 -15 12 0 19 -5 17 -12 -3 -7 -18 -13 -34 -13 -29 0 -29 0 -32 68 -2 53 0 67 11 67 8 0 17 7 21 15 3 8 12 15 21 15 8 0 15 5 15 10 0 6 -22 10 -50 10 l-50 0 0 -80 0 -80 -100 0 c-82 0 -100 -3 -100 -15 0 -11 12 -15 50 -15 28 0 50 -4 50 -10 0 -5 7 -10 15 -10 8 0 15 5 15 10 0 6 23 10 50 10 28 0 50 -4 50 -10 0 -5 23 -10 50 -10 28 0 50 5 50 10 0 6 8 10 18 10 16 -1 16 -1 0 -14 -10 -7 -18 -18 -18 -25 0 -6 -7 -11 -15 -11 -18 0 -20 -26 -2 -34 10 -5 10 -7 0 -12 -7 -3 -13 -12 -13 -20 0 -11 -16 -14 -70 -14 -56 0 -70 -3 -70 -15 0 -11 12 -15 50 -15 36 0 50 -4 50 -14 0 -10 -10 -13 -35 -11 -57 6 -95 27 -95 52 0 14 -6 23 -15 23 -9 0 -15 -9 -15 -25 0 -16 6 -25 15 -25 9 0 15 -9 15 -25 0 -24 2 -25 65 -25 49 0 65 -3 65 -14 0 -7 10 -17 23 -21 14 -4 18 -8 9 -12 -8 -3 -19 0 -25 6 -6 6 -49 11 -104 11 -76 0 -93 3 -93 15 0 8 -9 15 -20 15 -15 0 -20 7 -20 25 0 16 -6 25 -15 25 -12 0 -15 -13 -15 -55 l0 -55 100 0 99 0 3 -77 c3 -75 20 -107 26 -50 3 25 6 27 53 27 47 0 66 14 34 26 -8 4 -15 10 -15 15 0 5 7 9 15 9 8 0 15 7 15 15 0 8 -7 15 -15 15 -8 0 -15 5 -15 10 0 6 7 10 15 10 8 0 15 -4 15 -10 0 -15 17 -12 40 7 24 21 26 33 5 33 -9 0 -15 10 -15 26 0 33 33 30 38 -4 4 -24 32 -31 32 -7 0 11 7 13 28 9 16 -3 45 -1 65 4 33 9 37 8 37 -9 0 -10 -7 -19 -15 -19 -9 0 -15 -10 -15 -26 0 -33 -33 -30 -38 4 -5 31 -32 28 -32 -3 0 -28 -17 -33 -34 -10 -8 10 -15 12 -26 5 -13 -8 -11 -11 8 -16 36 -10 27 -34 -13 -34 -31 0 -35 -3 -35 -25 0 -16 6 -25 15 -25 8 0 15 5 15 10 0 6 9 10 20 10 11 0 20 -4 20 -10 0 -5 7 -10 15 -10 8 0 15 5 15 10 0 6 7 10 15 10 9 0 18 7 21 15 10 25 34 17 34 -10 0 -22 -4 -25 -35 -25 -24 0 -35 -5 -35 -15 0 -8 -7 -15 -15 -15 -8 0 -15 -4 -15 -9 0 -9 118 -20 126 -12 2 2 4 37 4 77 l0 73 97 3 c66 2 98 7 101 16 2 8 -8 12 -32 12 -25 0 -36 4 -36 15 0 8 -7 15 -15 15 -8 0 -15 -7 -15 -15 0 -8 -7 -15 -15 -15 -8 0 -15 7 -15 15 0 8 -9 15 -20 15 -25 0 -26 22 -1 44 17 16 19 16 24 -5 7 -27 27 -15 27 17 0 22 4 24 50 24 28 0 50 5 50 10 0 6 -7 10 -15 10 -9 0 -18 7 -21 15 -8 21 -54 19 -70 -2 -12 -16 -13 -15 -14 12 0 17 -7 41 -16 54 -16 22 -15 24 17 57 36 37 49 42 49 19 0 -8 -7 -15 -15 -15 -11 0 -15 -11 -15 -40 0 -29 4 -40 15 -40 9 0 15 9 15 25 0 18 5 25 20 25 11 0 20 7 20 15 0 8 7 15 15 15 11 0 15 11 15 40 0 31 -4 40 -17 40 -12 0 -4 13 27 45 42 43 43 45 25 60 -28 21 -48 18 -74 -9z m58 5 c7 -5 10 -14 6 -20 -5 -9 -10 -9 -21 0 -26 22 -14 38 15 20z m-23 -32 c7 -12 -123 -149 -143 -149 -32 0 -18 27 47 90 72 71 84 78 96 59z m-236 -155 c47 -10 100 -64 100 -104 0 -77 -65 -125 -157 -118 -44 4 -60 11 -88 38 -62 61 -42 136 48 175 37 16 52 18 97 9z m85 -3 c10 -17 -11 -21 -31 -6 -18 14 -18 14 3 15 12 0 24 -4 28 -9z m-250 -191 c3 -5 -1 -10 -9 -10 -9 0 -16 5 -16 10 0 6 4 10 9 10 6 0 13 -4 16 -10z m-25 -55 c0 -8 -7 -15 -15 -15 -8 0 -15 7 -15 15 0 8 7 15 15 15 8 0 15 -7 15 -15z m-70 -55 c0 -5 -7 -10 -15 -10 -8 0 -15 5 -15 10 0 6 7 10 15 10 8 0 15 -4 15 -10z m0 -50 c0 -5 -7 -10 -15 -10 -8 0 -15 5 -15 10 0 6 7 10 15 10 8 0 15 -4 15 -10z"/>
 <path d="M640 1185 l0 -65 79 0 79 0 4 61 c1 33 1 63 -1 65 -2 2 -40 4 -83 4 l-78 0 0 -65z m125 0 l0 -40 -45 0 c-42 0 -45 2 -48 28 -6 49 3 58 50 55 43 -3 43 -3 43 -43z"/>
 <path d="M970 1238 c0 -9 20 -13 65 -13 45 0 65 4 65 13 0 8 -20 12 -65 12 -45 0 -65 -4 -65 -12z"/>
 <path d="M1130 1225 c0 -24 -2 -25 -65 -25 -51 0 -65 -3 -65 -15 0 -8 6 -15 14 -15 8 0 16 -7 20 -15 3 -8 12 -15 21 -15 8 0 15 7 15 15 0 11 12 15 45 15 31 0 47 5 51 15 4 9 19 15 35 15 16 0 29 5 29 10 0 6 -11 10 -25 10 -14 0 -28 7 -31 15 -4 8 -15 15 -25 15 -14 0 -19 -7 -19 -25z"/>
 <path d="M900 1185 c0 -8 9 -15 20 -15 11 0 19 -5 18 -12 -2 -6 5 -14 15 -16 13 -3 17 3 17 27 0 29 -3 31 -35 31 -24 0 -35 -5 -35 -15z"/>
 <path d="M1000 1130 c0 -5 7 -10 15 -10 8 0 15 5 15 10 0 6 -7 10 -15 10 -8 0 -15 -4 -15 -10z"/>
 <path d="M670 1025 c0 -8 -7 -15 -16 -15 -25 0 -10 -25 17 -28 13 -2 28 -8 33 -13 22 -21 36 -9 36 31 0 39 -1 40 -35 40 -24 0 -35 -5 -35 -15z"/>
 <path d="M800 1025 c0 -10 11 -15 35 -15 24 0 35 5 35 15 0 10 -11 15 -35 15 -24 0 -35 -5 -35 -15z"/>
 <path d="M1360 1025 c0 -8 9 -15 20 -15 11 0 20 7 20 15 0 8 -9 15 -20 15 -11 0 -20 -7 -20 -15z"/>
 <path d="M800 972 c0 -14 11 -21 26 -15 21 8 17 23 -6 23 -11 0 -20 -4 -20 -8z"/>
 <path d="M640 946 c0 -12 9 -16 35 -16 19 0 35 5 35 10 0 6 -6 10 -12 10 -7 0 -23 3 -35 6 -17 5 -23 2 -23 -10z"/>
 <path d="M1332 888 c3 -7 17 -12 33 -12 16 0 30 5 33 12 2 8 -9 12 -33 12 -24 0 -35 -4 -33 -12z"/>
 <path d="M642 704 l3 -67 75 2 c41 1 76 3 77 4 1 1 3 29 4 62 l3 60 -83 3 -82 3 3 -67z m79 5 c7 -23 7 -23 8 3 1 23 5 27 26 26 22 -2 25 -7 25 -38 0 -32 -3 -35 -32 -37 -18 -2 -36 3 -40 10 -6 9 -8 9 -8 0 0 -7 -7 -10 -15 -7 -9 4 -15 19 -15 40 0 29 3 33 22 30 14 -2 25 -13 29 -27z"/>
 <path d="M1230 705 l0 -65 85 0 85 0 0 65 0 65 -85 0 -85 0 0 -65z m130 -5 l0 -40 -45 0 -45 0 0 40 0 40 45 0 45 0 0 -40z"/>
 <path d="M940 650 c0 -5 14 -10 30 -10 17 0 30 5 30 10 0 6 -13 10 -30 10 -16 0 -30 -4 -30 -10z"/>
 </g>
<g id="layer112" fill="#8f8f90" stroke="none">
 <path d="M1361 1266 c-14 -15 -30 -22 -42 -19 -15 4 -19 0 -19 -21 0 -16 -5 -26 -15 -26 -8 0 -15 -6 -15 -13 0 -23 -35 -47 -68 -47 -25 0 -32 -4 -32 -20 0 -13 -7 -20 -20 -20 -13 0 -20 7 -20 20 0 16 -7 20 -30 20 -16 0 -30 -4 -30 -10 0 -5 -7 -10 -15 -10 -9 0 -18 -7 -21 -15 -4 -9 -19 -15 -35 -15 -19 0 -29 5 -29 15 0 10 -11 15 -35 15 -24 0 -35 -5 -35 -15 0 -9 9 -15 21 -15 12 0 19 -5 17 -12 -3 -7 -18 -13 -34 -13 -29 0 -29 0 -32 68 -2 53 0 67 11 67 8 0 17 7 21 15 3 8 12 15 21 15 8 0 15 5 15 10 0 6 -22 10 -50 10 l-50 0 0 -80 0 -80 -100 0 c-82 0 -100 -3 -100 -15 0 -11 12 -15 50 -15 28 0 50 -4 50 -10 0 -5 7 -10 15 -10 8 0 15 5 15 10 0 6 23 10 50 10 28 0 50 -4 50 -10 0 -5 23 -10 50 -10 28 0 50 5 50 10 0 6 8 10 18 10 16 -1 16 -1 0 -14 -10 -7 -18 -18 -18 -25 0 -6 -7 -11 -15 -11 -18 0 -20 -26 -2 -34 10 -5 10 -7 0 -12 -7 -3 -13 -12 -13 -20 0 -11 -16 -14 -70 -14 -56 0 -70 -3 -70 -15 0 -11 12 -15 50 -15 36 0 50 -4 50 -14 0 -10 -10 -13 -35 -11 -57 6 -95 27 -95 52 0 14 -6 23 -15 23 -9 0 -15 -9 -15 -25 0 -16 6 -25 15 -25 9 0 15 -9 15 -25 0 -24 2 -25 65 -25 49 0 65 -3 65 -14 0 -7 10 -17 23 -21 14 -4 18 -8 9 -12 -8 -3 -19 0 -25 6 -6 6 -49 11 -104 11 -76 0 -93 3 -93 15 0 8 -9 15 -20 15 -15 0 -20 7 -20 25 0 16 -6 25 -15 25 -12 0 -15 -13 -15 -55 l0 -55 100 0 99 0 3 -77 c3 -75 20 -107 26 -50 3 25 6 27 53 27 47 0 66 14 34 26 -8 4 -15 10 -15 15 0 5 7 9 15 9 8 0 15 7 15 15 0 8 -7 15 -15 15 -8 0 -15 5 -15 10 0 6 7 10 15 10 8 0 15 -4 15 -10 0 -15 17 -12 40 7 24 21 26 33 5 33 -9 0 -15 10 -15 26 0 33 33 30 38 -4 4 -24 32 -31 32 -7 0 11 7 13 28 9 16 -3 45 -1 65 4 33 9 37 8 37 -9 0 -10 -7 -19 -15 -19 -9 0 -15 -10 -15 -26 0 -33 -33 -30 -38 4 -5 31 -32 28 -32 -3 0 -28 -17 -33 -34 -10 -8 10 -15 12 -26 5 -13 -8 -11 -11 8 -16 36 -10 27 -34 -13 -34 -31 0 -35 -3 -35 -25 0 -16 6 -25 15 -25 8 0 15 5 15 10 0 6 9 10 20 10 11 0 20 -4 20 -10 0 -5 7 -10 15 -10 8 0 15 5 15 10 0 6 7 10 15 10 9 0 18 7 21 15 10 25 34 17 34 -10 0 -22 -4 -25 -35 -25 -24 0 -35 -5 -35 -15 0 -8 -7 -15 -15 -15 -8 0 -15 -4 -15 -9 0 -9 118 -20 126 -12 2 2 4 37 4 77 l0 73 97 3 c66 2 98 7 101 16 2 8 -8 12 -32 12 -25 0 -36 4 -36 15 0 8 -7 15 -15 15 -8 0 -15 -7 -15 -15 0 -8 -7 -15 -15 -15 -8 0 -15 7 -15 15 0 8 -9 15 -20 15 -25 0 -26 22 -1 44 17 16 19 16 24 -5 7 -27 27 -15 27 17 0 22 4 24 50 24 28 0 50 5 50 10 0 6 -7 10 -15 10 -9 0 -18 7 -21 15 -8 21 -54 19 -70 -2 -12 -16 -13 -15 -14 12 0 17 -7 41 -16 54 -16 22 -15 24 17 57 36 37 49 42 49 19 0 -8 -7 -15 -15 -15 -11 0 -15 -11 -15 -40 0 -29 4 -40 15 -40 9 0 15 9 15 25 0 18 5 25 20 25 11 0 20 7 20 15 0 8 7 15 15 15 11 0 15 11 15 40 0 31 -4 40 -17 40 -12 0 -4 13 27 45 42 43 43 45 25 60 -28 21 -48 18 -74 -9z m58 5 c7 -5 10 -14 6 -20 -5 -9 -10 -9 -21 0 -26 22 -14 38 15 20z m-23 -32 c7 -12 -123 -149 -143 -149 -32 0 -18 27 47 90 72 71 84 78 96 59z m-236 -155 c47 -10 100 -64 100 -104 0 -77 -65 -125 -157 -118 -44 4 -60 11 -88 38 -62 61 -42 136 48 175 37 16 52 18 97 9z m85 -3 c10 -17 -11 -21 -31 -6 -18 14 -18 14 3 15 12 0 24 -4 28 -9z m-250 -191 c3 -5 -1 -10 -9 -10 -9 0 -16 5 -16 10 0 6 4 10 9 10 6 0 13 -4 16 -10z m-25 -55 c0 -8 -7 -15 -15 -15 -8 0 -15 7 -15 15 0 8 7 15 15 15 8 0 15 -7 15 -15z m-70 -55 c0 -5 -7 -10 -15 -10 -8 0 -15 5 -15 10 0 6 7 10 15 10 8 0 15 -4 15 -10z m0 -50 c0 -5 -7 -10 -15 -10 -8 0 -15 5 -15 10 0 6 7 10 15 10 8 0 15 -4 15 -10z"/>
 <path d="M640 1185 l0 -65 79 0 79 0 4 61 c1 33 1 63 -1 65 -2 2 -40 4 -83 4 l-78 0 0 -65z m125 0 l0 -40 -45 0 c-42 0 -45 2 -48 28 -6 49 3 58 50 55 43 -3 43 -3 43 -43z"/>
 <path d="M970 1238 c0 -9 20 -13 65 -13 45 0 65 4 65 13 0 8 -20 12 -65 12 -45 0 -65 -4 -65 -12z"/>
 <path d="M1130 1225 c0 -24 -2 -25 -65 -25 -51 0 -65 -3 -65 -15 0 -8 6 -15 14 -15 8 0 16 -7 20 -15 3 -8 12 -15 21 -15 8 0 15 7 15 15 0 11 12 15 45 15 31 0 47 5 51 15 4 9 19 15 35 15 16 0 29 5 29 10 0 6 -11 10 -25 10 -14 0 -28 7 -31 15 -4 8 -15 15 -25 15 -14 0 -19 -7 -19 -25z"/>
 <path d="M900 1185 c0 -8 9 -15 20 -15 11 0 19 -5 18 -12 -2 -6 5 -14 15 -16 13 -3 17 3 17 27 0 29 -3 31 -35 31 -24 0 -35 -5 -35 -15z"/>
 <path d="M1000 1130 c0 -5 7 -10 15 -10 8 0 15 5 15 10 0 6 -7 10 -15 10 -8 0 -15 -4 -15 -10z"/>
 <path d="M670 1025 c0 -8 -7 -15 -16 -15 -25 0 -10 -25 17 -28 13 -2 28 -8 33 -13 22 -21 36 -9 36 31 0 39 -1 40 -35 40 -24 0 -35 -5 -35 -15z"/>
 <path d="M800 1025 c0 -10 11 -15 35 -15 24 0 35 5 35 15 0 10 -11 15 -35 15 -24 0 -35 -5 -35 -15z"/>
 <path d="M1360 1025 c0 -8 9 -15 20 -15 11 0 20 7 20 15 0 8 -9 15 -20 15 -11 0 -20 -7 -20 -15z"/>
 <path d="M800 972 c0 -14 11 -21 26 -15 21 8 17 23 -6 23 -11 0 -20 -4 -20 -8z"/>
 <path d="M640 946 c0 -12 9 -16 35 -16 19 0 35 5 35 10 0 6 -6 10 -12 10 -7 0 -23 3 -35 6 -17 5 -23 2 -23 -10z"/>
 <path d="M1332 888 c3 -7 17 -12 33 -12 16 0 30 5 33 12 2 8 -9 12 -33 12 -24 0 -35 -4 -33 -12z"/>
 <path d="M642 704 l3 -67 75 2 c41 1 76 3 77 4 1 1 3 29 4 62 l3 60 -83 3 -82 3 3 -67z m79 24 c0 -10 2 -10 6 0 2 6 16 12 29 12 21 0 24 -4 24 -40 l0 -40 -60 1 c-33 1 -60 5 -60 9 0 4 3 22 6 39 5 24 12 31 30 31 13 0 24 -6 25 -12z"/>
 <path d="M1230 705 l0 -65 85 0 85 0 0 65 0 65 -85 0 -85 0 0 -65z m130 -5 l0 -40 -45 0 -45 0 0 40 0 40 45 0 45 0 0 -40z"/>
 <path d="M940 650 c0 -5 14 -10 30 -10 17 0 30 5 30 10 0 6 -13 10 -30 10 -16 0 -30 -4 -30 -10z"/>
 </g>
<g id="layer113" fill="#b3b3b4" stroke="none">
 <path d="M1367 1265 c-14 -19 -24 -24 -43 -19 -21 5 -24 3 -24 -20 0 -16 -6 -26 -15 -26 -8 0 -15 -6 -15 -14 0 -25 -30 -46 -66 -46 -27 0 -34 -4 -34 -20 0 -13 -7 -20 -20 -20 -13 0 -20 7 -20 20 0 15 -7 20 -29 20 -16 0 -31 -6 -35 -15 -3 -8 -9 -15 -13 -14 -21 3 -24 -2 -12 -18 12 -15 12 -16 -4 -10 -10 4 -30 7 -43 7 -14 0 -24 6 -24 15 0 10 -10 14 -35 13 -38 -1 -47 -17 -15 -25 35 -9 24 -33 -15 -33 -19 0 -35 -4 -35 -10 0 -18 92 -12 106 7 7 10 15 15 19 11 9 -9 -27 -57 -42 -58 -15 0 -18 -30 -3 -30 15 0 12 -19 -4 -36 -10 -9 -36 -14 -75 -14 -48 0 -61 -3 -61 -15 0 -11 12 -15 51 -15 66 0 62 -24 -4 -28 -36 -2 -49 1 -53 12 -3 9 -12 16 -20 16 -8 0 -14 10 -14 25 0 16 -6 25 -15 25 -9 0 -15 -9 -15 -25 0 -16 6 -25 15 -25 9 0 15 -9 15 -25 0 -24 2 -25 65 -25 50 0 66 -4 75 -17 10 -17 10 -17 20 0 13 21 40 23 40 2 0 -8 -7 -15 -15 -15 -8 0 -15 -4 -15 -10 0 -5 7 -10 15 -10 8 0 15 -7 15 -15 0 -18 -36 -20 -44 -2 -5 10 -7 10 -12 0 -8 -18 -44 -16 -44 2 0 8 7 15 15 15 8 0 15 5 15 10 0 6 -38 10 -95 10 -76 0 -97 3 -101 15 -4 8 -12 15 -20 15 -8 0 -14 10 -14 25 0 16 -6 25 -15 25 -11 0 -15 -12 -15 -50 0 -56 -3 -54 100 -51 98 2 99 2 102 -87 3 -74 20 -106 26 -49 3 25 6 27 53 27 36 0 49 4 47 13 -3 6 -11 12 -18 12 -7 0 -15 6 -17 13 -3 6 3 12 11 12 9 0 19 7 22 15 4 8 10 15 15 15 12 0 49 32 49 42 0 5 -7 8 -15 8 -10 0 -15 10 -15 30 0 17 4 30 8 30 14 0 32 -23 32 -42 0 -21 18 -24 26 -4 4 10 22 15 60 15 29 0 58 2 64 6 5 3 10 -3 10 -14 0 -12 -7 -21 -15 -21 -9 0 -15 -10 -15 -26 0 -33 -33 -30 -38 4 -5 31 -32 28 -32 -3 0 -28 -17 -33 -34 -10 -8 10 -15 12 -26 5 -13 -8 -11 -11 8 -16 33 -9 27 -32 -10 -36 -25 -2 -34 -8 -36 -25 -4 -27 15 -30 34 -5 13 16 15 16 28 0 17 -23 20 -23 52 7 34 32 54 32 54 0 0 -21 -5 -25 -30 -25 -18 0 -33 -6 -36 -15 -4 -8 -12 -15 -20 -15 -8 0 -14 -4 -14 -9 0 -9 118 -20 126 -12 2 2 4 40 4 84 l0 79 65 -7 c68 -7 125 0 125 16 0 5 -13 9 -30 9 -20 0 -30 5 -30 15 0 8 -5 15 -10 15 -6 0 -13 -7 -16 -15 -4 -8 -13 -15 -20 -15 -8 0 -17 7 -20 15 -4 8 -12 15 -20 15 -21 0 -17 33 5 47 16 10 20 9 24 -9 7 -26 27 -14 27 18 0 22 4 24 44 24 25 0 48 5 51 10 3 6 -1 10 -10 10 -8 0 -18 7 -21 15 -4 9 -19 15 -35 15 -19 0 -29 -5 -29 -15 0 -30 -18 -14 -25 23 -4 20 -12 43 -17 50 -8 10 -3 22 22 47 37 38 50 43 50 20 0 -8 -7 -15 -15 -15 -11 0 -15 -11 -15 -40 0 -29 4 -40 15 -40 9 0 15 9 15 23 0 22 31 57 50 57 6 0 10 18 10 40 0 25 -5 40 -12 40 -7 0 8 20 32 45 42 43 43 45 25 60 -28 21 -47 18 -68 -10z m58 5 c3 -5 4 -14 0 -20 -8 -13 -35 -1 -35 16 0 16 26 19 35 4z m-90 -110 c-38 -39 -75 -70 -82 -70 -32 0 -18 27 49 95 64 65 75 73 88 60 13 -13 6 -23 -55 -85z m-149 -86 c69 -33 94 -104 57 -161 -45 -69 -199 -70 -247 -2 -9 13 -16 40 -16 60 0 90 114 147 206 103z m62 -1 c5 -18 -23 -16 -39 3 -11 14 -10 15 11 12 13 -1 25 -9 28 -15z m-250 -185 c-6 -18 -28 -21 -28 -4 0 9 7 16 16 16 9 0 14 -5 12 -12z m-95 -163 c1 -5 -6 -11 -15 -13 -11 -2 -18 3 -18 13 0 17 30 18 33 0z"/>
 <path d="M640 1185 l0 -65 79 0 79 0 4 61 c1 33 1 63 -1 65 -2 2 -40 4 -83 4 l-78 0 0 -65z m128 3 l-3 -43 -47 -3 -48 -3 0 39 c0 21 3 42 7 45 3 4 26 7 50 7 l44 0 -3 -42z"/>
 <path d="M840 1170 l0 -80 -100 0 c-78 0 -100 -3 -100 -14 0 -10 12 -12 45 -10 34 3 47 0 51 -11 8 -20 30 -19 38 1 4 10 17 15 38 14 59 -3 58 -4 58 65 0 49 3 65 14 65 8 0 16 7 20 15 3 8 13 15 21 15 9 0 13 5 10 10 -3 6 -26 10 -51 10 l-44 0 0 -80z"/>
 <path d="M970 1240 c0 -6 28 -10 65 -10 37 0 65 4 65 10 0 6 -28 10 -65 10 -37 0 -65 -4 -65 -10z"/>
 <path d="M1136 1225 c6 -25 6 -25 -66 -25 -77 0 -86 -9 -36 -38 22 -13 30 -14 33 -4 3 7 23 12 49 12 30 0 46 5 50 15 4 9 19 15 35 15 16 0 29 5 29 10 0 6 -11 10 -24 10 -13 0 -29 7 -36 15 -21 25 -41 19 -34 -10z"/>
 <path d="M907 1194 c-13 -13 -7 -24 13 -24 11 0 20 -4 20 -10 0 -5 7 -10 16 -10 28 0 13 45 -16 48 -14 2 -29 0 -33 -4z"/>
 <path d="M1000 1130 c0 -5 7 -10 15 -10 8 0 15 5 15 10 0 6 -7 10 -15 10 -8 0 -15 -4 -15 -10z"/>
 <path d="M662 1016 c-27 -13 -23 -30 9 -34 13 -2 28 -8 33 -13 21 -20 36 -9 36 26 0 32 -3 35 -27 34 -16 -1 -38 -6 -51 -13z"/>
 <path d="M810 1020 c0 -5 14 -10 30 -10 17 0 30 5 30 10 0 6 -13 10 -30 10 -16 0 -30 -4 -30 -10z"/>
 <path d="M1370 1020 c0 -5 7 -10 15 -10 8 0 15 5 15 10 0 6 -7 10 -15 10 -8 0 -15 -4 -15 -10z"/>
 <path d="M810 970 c0 -5 7 -10 15 -10 8 0 15 5 15 10 0 6 -7 10 -15 10 -8 0 -15 -4 -15 -10z"/>
 <path d="M640 940 c0 -5 14 -10 30 -10 17 0 30 5 30 10 0 6 -13 10 -30 10 -16 0 -30 -4 -30 -10z"/>
 <path d="M1332 889 c2 -6 7 -10 11 -10 4 1 16 1 27 1 11 0 20 5 20 10 0 6 -14 10 -31 10 -17 0 -29 -5 -27 -11z"/>
 <path d="M644 757 c-3 -8 -4 -38 -2 -67 l3 -53 75 2 c41 1 76 3 77 4 1 1 3 29 4 62 l3 60 -77 3 c-59 2 -79 0 -83 -11z m77 -29 c0 -10 2 -10 6 0 2 6 16 12 29 12 21 0 24 -4 24 -40 l0 -40 -60 1 c-33 1 -60 5 -60 9 0 4 3 22 6 39 5 24 12 31 30 31 13 0 24 -6 25 -12z"/>
 <path d="M1234 705 l0 -65 81 0 80 0 -3 65 -4 65 -77 0 -77 0 0 -65z m131 -5 l0 -40 -52 0 -53 0 0 40 0 40 53 0 52 0 0 -40z"/>
 <path d="M940 650 c0 -5 14 -10 30 -10 17 0 30 5 30 10 0 6 -13 10 -30 10 -16 0 -30 -4 -30 -10z"/>
 </g>
<g id="layer114" fill="#bdbfc2" stroke="none">
 <path d="M1370 1265 c-12 -13 -32 -23 -43 -22 -14 1 -22 -5 -25 -18 -2 -11 -9 -25 -15 -30 -7 -6 -17 -19 -23 -30 -8 -14 -24 -21 -53 -23 -33 -3 -41 -7 -41 -23 0 -12 -7 -19 -20 -19 -13 0 -20 7 -20 20 0 15 -7 20 -25 20 -27 0 -69 -35 -60 -50 3 -5 -11 -6 -32 -3 -21 3 -39 10 -41 15 -5 12 -62 10 -62 -2 0 -5 7 -10 15 -10 8 0 15 -7 15 -15 0 -10 -11 -15 -35 -15 -19 0 -35 -4 -35 -10 0 -5 23 -10 50 -10 38 0 50 4 50 15 0 8 7 15 15 15 8 0 15 -3 15 -7 -1 -13 -38 -53 -49 -53 -16 0 -13 -11 7 -26 16 -12 16 -14 -5 -33 -17 -17 -35 -21 -83 -21 -33 0 -60 -4 -60 -10 0 -5 8 -10 18 -11 9 0 31 -2 47 -2 19 -1 30 -7 30 -17 0 -23 -85 -27 -101 -5 -15 20 -33 12 -30 -13 2 -14 15 -18 69 -20 51 -2 67 -6 67 -17 0 -8 5 -15 10 -15 6 0 10 7 10 15 0 8 9 15 20 15 11 0 20 -7 20 -15 0 -8 -7 -15 -15 -15 -8 0 -15 -4 -15 -10 0 -5 7 -10 15 -10 8 0 15 -7 15 -15 0 -8 7 -15 15 -15 8 0 15 7 15 15 0 8 7 15 15 15 8 0 15 5 15 10 0 6 -7 10 -15 10 -10 0 -15 10 -15 30 0 17 4 30 8 30 14 0 32 -23 32 -42 0 -22 16 -24 24 -3 3 8 16 15 28 16 14 0 5 6 -24 15 -59 18 -88 53 -88 106 0 78 93 135 182 111 38 -10 43 -7 39 24 -1 7 10 2 24 -11 30 -28 32 -40 5 -33 -18 5 -18 3 5 -25 17 -20 25 -42 25 -67 0 -58 -33 -93 -105 -113 -27 -7 -26 -7 8 -3 31 3 37 1 37 -16 0 -10 -7 -19 -15 -19 -9 0 -15 -10 -15 -26 0 -33 -33 -29 -38 4 -4 26 -27 25 -27 -1 0 -24 -41 -57 -70 -57 -20 0 -25 -5 -25 -25 0 -27 15 -34 24 -10 3 8 12 15 21 15 8 0 15 -7 15 -15 0 -8 7 -15 15 -15 8 0 15 7 15 15 0 8 5 15 11 15 7 0 18 8 25 18 17 22 37 4 32 -29 -2 -19 -10 -25 -35 -27 -18 -2 -33 -7 -33 -13 0 -5 -7 -9 -15 -9 -8 0 -15 -4 -15 -9 0 -9 118 -20 126 -12 2 2 4 40 4 84 l0 79 65 -7 c68 -7 125 0 125 16 0 5 -13 9 -29 9 -18 0 -31 6 -36 18 -6 16 -7 16 -19 0 -17 -23 -30 -23 -56 -1 -23 20 -26 43 -8 61 17 17 25 15 31 -9 7 -27 27 -15 27 17 0 22 4 24 45 24 25 0 45 2 45 5 0 3 -9 14 -20 25 -24 24 -70 27 -70 5 0 -31 -19 -14 -26 23 -4 20 -11 43 -17 50 -16 20 57 92 75 74 10 -10 8 -14 -10 -18 -18 -5 -22 -13 -22 -45 0 -28 4 -39 15 -39 10 0 15 10 15 30 0 20 5 30 15 30 8 0 15 5 15 10 0 6 7 10 15 10 11 0 15 11 15 40 0 25 -5 40 -12 40 -7 0 7 19 30 43 41 42 42 44 24 60 -25 23 -34 21 -62 -8z m59 1 c13 -16 -2 -32 -19 -21 -6 4 -9 2 -8 -4 4 -14 -131 -151 -148 -151 -35 0 -20 29 57 106 46 46 89 84 95 84 6 0 17 -6 23 -14z m-431 -378 c-6 -18 -28 -21 -28 -4 0 9 7 16 16 16 9 0 14 -5 12 -12z"/>
 <path d="M647 1243 c-4 -3 -7 -33 -7 -65 l0 -58 79 0 79 0 4 61 c1 33 1 63 -1 65 -7 7 -147 4 -154 -3z m128 -58 l0 -40 -52 -3 -53 -3 0 46 0 46 53 -3 52 -3 0 -40z"/>
 <path d="M840 1170 l0 -80 -94 0 c-53 0 -98 -4 -101 -10 -4 -6 13 -10 44 -10 39 0 51 -4 51 -15 0 -8 7 -15 15 -15 8 0 15 7 15 15 0 11 12 15 50 15 l50 0 0 65 c0 51 3 65 15 65 8 0 15 7 15 15 0 8 7 15 15 15 8 0 15 5 15 10 0 6 -20 10 -45 10 l-45 0 0 -80z"/>
 <path d="M975 1240 c-4 -6 18 -10 59 -10 37 0 66 4 66 10 0 6 -26 10 -59 10 -33 0 -63 -4 -66 -10z"/>
 <path d="M1138 1223 c-3 -28 -4 -28 -70 -27 -38 1 -68 -2 -68 -6 0 -15 54 -44 58 -32 2 7 24 12 52 12 33 0 50 5 54 15 3 9 18 15 36 15 16 0 30 5 30 10 0 6 -14 10 -30 10 -18 0 -33 6 -36 15 -10 24 -22 17 -26 -12z"/>
 <path d="M910 1183 c0 -7 7 -13 15 -13 8 0 15 -4 15 -10 0 -5 7 -10 16 -10 10 0 14 7 12 22 -2 16 -10 22 -30 23 -17 0 -28 -5 -28 -12z"/>
 <path d="M1000 1130 c0 -5 7 -10 15 -10 8 0 15 5 15 10 0 6 -7 10 -15 10 -8 0 -15 -4 -15 -10z"/>
 <path d="M680 1021 c0 -5 -10 -12 -22 -16 -21 -7 -20 -8 10 -12 18 -2 36 -11 39 -19 11 -29 33 -15 33 21 0 32 -2 35 -30 35 -16 0 -30 -4 -30 -9z"/>
 <path d="M810 1020 c0 -5 14 -10 30 -10 17 0 30 5 30 10 0 6 -13 10 -30 10 -16 0 -30 -4 -30 -10z"/>
 <path d="M1370 1020 c0 -5 5 -10 10 -10 6 0 10 5 10 10 0 6 -4 10 -10 10 -5 0 -10 -4 -10 -10z"/>
 <path d="M810 970 c0 -5 7 -10 16 -10 8 0 12 5 9 10 -3 6 -10 10 -16 10 -5 0 -9 -4 -9 -10z"/>
 <path d="M640 940 c0 -5 14 -10 30 -10 17 0 30 5 30 10 0 6 -13 10 -30 10 -16 0 -30 -4 -30 -10z"/>
 <path d="M742 928 c2 -13 8 -23 13 -23 6 0 11 10 13 23 2 15 -2 22 -13 22 -11 0 -15 -7 -13 -22z"/>
 <path d="M640 850 c0 -57 -7 -54 122 -51 l77 2 3 -83 c2 -49 7 -82 13 -81 6 1 11 14 13 28 3 23 7 25 53 25 36 0 49 4 47 13 -3 6 -11 12 -19 12 -8 0 -14 7 -14 15 0 8 5 15 12 15 21 0 26 14 7 22 -10 3 -22 11 -26 16 -4 6 -13 4 -23 -6 -9 -10 -21 -15 -26 -12 -15 10 -10 35 6 35 8 0 15 5 15 10 0 6 -40 10 -100 10 -82 0 -100 3 -100 15 0 8 -6 14 -12 13 -8 -2 -14 9 -16 25 -2 15 -9 27 -18 27 -10 0 -14 -13 -14 -50z m265 -121 c0 -7 -8 -15 -17 -17 -18 -3 -25 18 -11 32 10 10 28 1 28 -15z"/>
 <path d="M1340 890 c0 -5 11 -10 25 -10 14 0 25 5 25 10 0 6 -11 10 -25 10 -14 0 -25 -4 -25 -10z"/>
 <path d="M1041 791 c-10 -7 -10 -10 -1 -16 6 -4 16 -3 22 3 13 13 -4 23 -21 13z"/>
 <path d="M643 754 c-7 -18 1 -119 10 -116 4 1 39 2 77 2 l71 0 -3 61 -3 61 -74 2 c-46 0 -75 -3 -78 -10z m78 -26 c0 -10 2 -10 6 0 2 6 16 12 29 12 21 0 24 -4 24 -40 l0 -40 -60 1 c-33 1 -60 5 -60 9 0 4 3 22 6 39 5 24 12 31 30 31 13 0 24 -6 25 -12z"/>
 <path d="M1240 704 l0 -64 75 0 75 0 0 63 0 62 -75 1 -75 1 0 -63z m125 -2 l1 -42 -53 0 -53 0 0 39 c0 44 8 50 64 47 40 -2 40 -2 41 -44z"/>
 <path d="M940 650 c0 -5 14 -10 30 -10 17 0 30 5 30 10 0 6 -13 10 -30 10 -16 0 -30 -4 -30 -10z"/>
 </g>
<g id="layer115" fill="#bfd0b5" stroke="none">
 <path d="M1370 1265 c-14 -15 -33 -24 -44 -23 -14 2 -22 -4 -24 -17 -2 -11 -9 -25 -15 -30 -7 -6 -17 -19 -23 -30 -8 -14 -24 -21 -53 -23 -38 -3 -41 -5 -41 -33 0 -17 5 -29 13 -29 7 0 60 47 118 105 59 58 103 105 99 105 -3 0 -17 -11 -30 -25z m-150 -149 c0 -3 -4 -8 -10 -11 -5 -3 -10 -1 -10 4 0 6 5 11 10 11 6 0 10 -2 10 -4z"/>
 <path d="M1429 1267 c6 -8 7 -18 3 -22 -4 -5 -1 -5 6 -1 10 6 10 11 1 22 -6 8 -14 14 -16 14 -3 0 0 -6 6 -13z"/>
 <path d="M649 1246 c-2 -2 -2 -32 -1 -65 l4 -61 73 0 73 0 4 61 c1 33 1 63 -1 65 -2 2 -37 4 -76 4 -39 0 -74 -2 -76 -4z m126 -61 l0 -40 -52 -3 -53 -3 0 46 0 46 53 -3 52 -3 0 -40z"/>
 <path d="M840 1170 l0 -80 -95 0 c-57 0 -95 -4 -95 -10 0 -5 20 -10 45 -10 33 0 45 -4 45 -15 0 -8 7 -15 15 -15 8 0 15 7 15 15 0 11 12 15 50 15 l50 0 0 65 c0 51 3 65 15 65 8 0 15 7 15 15 0 8 7 15 15 15 8 0 15 5 15 10 0 6 -20 10 -45 10 l-45 0 0 -80z"/>
 <path d="M975 1240 c-4 -6 18 -10 60 -10 42 0 64 4 60 10 -3 6 -30 10 -60 10 -30 0 -57 -4 -60 -10z"/>
 <path d="M1138 1223 c-3 -27 -6 -28 -65 -31 -68 -3 -76 -9 -41 -31 16 -10 23 -10 26 -2 2 6 25 11 53 11 37 0 49 4 49 15 0 10 11 15 35 15 19 0 35 5 35 10 0 6 -14 10 -30 10 -18 0 -33 6 -36 15 -10 24 -22 17 -26 -12z"/>
 <path d="M1405 1241 c6 -10 -15 -35 -70 -87 -42 -41 -81 -71 -86 -68 -5 3 -6 -2 -3 -10 4 -9 1 -16 -6 -16 -9 0 -7 -7 4 -25 9 -13 16 -42 16 -64 0 -49 -29 -86 -85 -107 -37 -14 -37 -15 -7 -10 27 5 32 2 32 -14 0 -11 -6 -20 -14 -20 -9 0 -16 -12 -18 -27 -2 -17 -9 -28 -18 -28 -9 0 -16 11 -18 28 -4 34 -22 36 -22 1 0 -17 -6 -28 -20 -31 -11 -3 -20 -9 -20 -14 0 -5 -13 -9 -30 -9 -25 0 -30 -4 -30 -25 0 -27 15 -34 24 -10 3 8 12 15 21 15 8 0 15 -7 15 -15 0 -8 7 -15 15 -15 8 0 15 7 15 15 0 8 5 15 11 15 7 0 17 7 24 17 16 22 35 8 35 -28 0 -25 -4 -29 -27 -29 -16 0 -39 -9 -52 -19 l-25 -19 63 -4 c34 -1 65 -1 67 1 2 2 4 40 4 84 l0 79 65 -7 c68 -7 125 0 125 16 0 5 -13 9 -30 9 -16 0 -30 5 -30 10 0 6 -7 10 -15 10 -8 0 -15 -4 -15 -10 0 -16 -28 -12 -50 7 -25 22 -25 45 0 68 19 18 20 17 20 -3 0 -29 18 -28 22 1 3 19 10 22 51 25 26 2 47 7 47 13 0 5 -7 9 -15 9 -8 0 -15 7 -15 15 0 10 -10 15 -30 15 -21 0 -30 -5 -30 -16 0 -25 -25 -10 -28 17 -2 13 -8 34 -14 47 -10 20 -8 27 24 59 20 19 41 32 47 29 17 -11 13 -23 -10 -29 -16 -4 -20 -12 -17 -39 4 -40 22 -44 26 -5 2 15 9 27 18 27 8 0 14 5 14 10 0 6 7 10 15 10 11 0 15 11 15 40 0 24 -5 40 -12 40 -6 0 1 14 17 30 24 25 27 32 15 43 -10 10 -11 9 -5 -2z"/>
 <path d="M910 1180 c0 -5 7 -10 15 -10 8 0 15 -4 15 -10 0 -5 6 -10 14 -10 9 0 12 7 9 20 -5 21 -53 30 -53 10z"/>
 <path d="M1010 1130 c0 -5 5 -10 10 -10 6 0 10 5 10 10 0 6 -4 10 -10 10 -5 0 -10 -4 -10 -10z"/>
 <path d="M1070 1125 c0 -8 -7 -15 -16 -15 -10 0 -14 -6 -11 -14 5 -12 -2 -13 -31 -9 -20 3 -38 10 -40 15 -5 12 -62 10 -62 -2 0 -5 7 -10 15 -10 8 0 15 -7 15 -15 0 -10 -11 -15 -35 -15 -19 0 -35 -4 -35 -10 0 -17 87 -12 94 5 6 17 36 21 36 5 0 -5 -9 -19 -20 -30 -11 -11 -24 -20 -30 -20 -15 0 -12 -11 8 -26 16 -12 15 -14 -7 -35 -20 -18 -34 -22 -82 -20 -71 2 -81 -17 -11 -21 34 -2 47 -7 47 -18 0 -11 -14 -16 -52 -18 -43 -2 -53 0 -53 12 0 9 -4 16 -10 16 -5 0 -10 -11 -10 -25 0 -24 2 -25 64 -25 42 0 66 -4 70 -12 5 -10 7 -10 12 0 8 17 44 15 44 -3 0 -8 -7 -15 -15 -15 -8 0 -15 -4 -15 -10 0 -5 6 -10 14 -10 8 0 16 -7 20 -15 3 -8 10 -15 16 -15 5 0 10 7 10 15 0 8 7 15 15 15 8 0 15 5 15 10 0 6 -7 10 -15 10 -9 0 -15 9 -15 25 0 15 -6 25 -14 25 -20 0 -31 19 -18 32 14 14 71 -30 71 -54 1 -18 21 -26 21 -9 0 5 10 12 23 14 19 4 19 4 -5 6 -15 0 -42 15 -62 35 -30 27 -36 40 -36 73 0 68 60 122 137 124 21 0 32 3 26 6 -7 2 -13 13 -13 24 0 14 -7 19 -30 19 -20 0 -30 -5 -30 -15z"/>
 <path d="M680 1021 c0 -5 -10 -12 -22 -16 -21 -7 -20 -8 10 -12 18 -2 36 -11 39 -19 10 -26 23 -14 23 21 0 31 -3 35 -25 35 -14 0 -25 -4 -25 -9z"/>
 <path d="M810 1020 c0 -5 11 -10 24 -10 14 0 28 5 31 10 4 6 -7 10 -24 10 -17 0 -31 -4 -31 -10z"/>
 <path d="M1370 1020 c0 -5 5 -10 10 -10 6 0 10 5 10 10 0 6 -4 10 -10 10 -5 0 -10 -4 -10 -10z"/>
 <path d="M810 970 c0 -5 5 -10 10 -10 6 0 10 5 10 10 0 6 -4 10 -10 10 -5 0 -10 -4 -10 -10z"/>
 <path d="M645 940 c3 -5 17 -10 31 -10 13 0 24 5 24 10 0 6 -14 10 -31 10 -17 0 -28 -4 -24 -10z"/>
 <path d="M740 930 c0 -11 7 -20 15 -20 8 0 15 9 15 20 0 11 -7 20 -15 20 -8 0 -15 -9 -15 -20z"/>
 <path d="M650 850 c0 -57 -7 -54 112 -51 l77 2 3 -83 c2 -49 7 -82 13 -81 6 1 11 14 13 27 3 22 9 25 50 28 27 2 45 7 42 13 -2 6 -10 9 -17 7 -23 -5 -14 28 10 38 16 6 17 9 5 9 -9 1 -21 9 -27 19 -9 16 -11 16 -24 -2 -8 -11 -19 -16 -25 -12 -17 10 -15 36 3 36 8 0 15 5 15 10 0 6 -38 10 -95 10 -104 0 -135 13 -135 57 0 13 -4 23 -10 23 -5 0 -10 -22 -10 -50z m258 -123 c2 -12 -3 -17 -17 -17 -15 0 -21 6 -21 21 0 25 33 22 38 -4z"/>
 <path d="M1340 890 c0 -5 11 -10 25 -10 14 0 25 5 25 10 0 6 -11 10 -25 10 -14 0 -25 -4 -25 -10z"/>
 <path d="M1035 780 c3 -5 10 -10 16 -10 5 0 9 5 9 10 0 6 -7 10 -16 10 -8 0 -12 -4 -9 -10z"/>
 <path d="M646 700 c0 -33 4 -60 7 -60 4 0 39 0 77 0 l70 0 0 60 0 60 -77 0 -78 0 1 -60z m75 28 c0 -10 2 -10 6 0 2 6 16 12 29 12 21 0 24 -4 24 -40 l0 -40 -60 1 c-33 1 -60 5 -60 9 0 4 3 22 6 39 5 24 12 31 30 31 13 0 24 -6 25 -12z"/>
 <path d="M1240 700 l0 -60 75 0 75 0 0 60 0 60 -75 0 -75 0 0 -60z m125 3 l1 -43 -53 0 -53 0 0 38 c0 21 3 42 7 46 4 4 27 6 52 4 l45 -3 1 -42z"/>
 <path d="M940 650 c0 -5 14 -10 30 -10 17 0 30 5 30 10 0 6 -13 10 -30 10 -16 0 -30 -4 -30 -10z"/>
 </g>
<g id="layer116" fill="#cfcfd2" stroke="none">
 <path d="M1370 1265 c-14 -15 -33 -24 -44 -23 -14 2 -22 -4 -24 -17 -2 -11 -9 -25 -15 -30 -7 -6 -17 -19 -23 -30 -8 -14 -24 -21 -53 -23 -38 -3 -41 -5 -41 -33 0 -17 5 -29 13 -29 7 0 60 47 118 105 59 58 103 105 99 105 -3 0 -17 -11 -30 -25z m-150 -149 c0 -3 -4 -8 -10 -11 -5 -3 -10 -1 -10 4 0 6 5 11 10 11 6 0 10 -2 10 -4z"/>
 <path d="M1429 1267 c6 -8 7 -18 3 -22 -4 -5 -1 -5 6 -1 10 6 10 11 1 22 -6 8 -14 14 -16 14 -3 0 0 -6 6 -13z"/>
 <path d="M649 1246 c-2 -2 -2 -32 -1 -65 l4 -61 73 0 73 0 4 61 c1 33 1 63 -1 65 -2 2 -37 4 -76 4 -39 0 -74 -2 -76 -4z m126 -61 l0 -40 -52 -3 -53 -3 0 46 0 46 53 -3 52 -3 0 -40z"/>
 <path d="M840 1170 l0 -80 -95 0 c-57 0 -95 -4 -95 -10 0 -5 20 -10 45 -10 33 0 45 -4 45 -15 0 -8 7 -15 15 -15 8 0 15 7 15 15 0 11 12 15 50 15 l50 0 0 65 c0 51 3 65 15 65 8 0 15 7 15 15 0 8 7 15 15 15 8 0 15 5 15 10 0 6 -20 10 -45 10 l-45 0 0 -80z"/>
 <path d="M975 1240 c-4 -6 18 -10 60 -10 42 0 64 4 60 10 -3 6 -30 10 -60 10 -30 0 -57 -4 -60 -10z"/>
 <path d="M1138 1223 c-3 -27 -6 -28 -65 -31 -68 -3 -76 -9 -41 -31 16 -10 23 -10 26 -2 2 6 25 11 53 11 37 0 49 4 49 15 0 10 11 15 35 15 19 0 35 5 35 10 0 6 -14 10 -30 10 -18 0 -33 6 -36 15 -10 24 -22 17 -26 -12z"/>
 <path d="M1405 1241 c6 -10 -15 -35 -70 -87 -42 -41 -81 -71 -86 -68 -5 3 -6 -2 -3 -10 4 -9 1 -16 -6 -16 -9 0 -8 -7 3 -24 20 -30 24 -84 9 -112 -15 -28 -35 -44 -79 -61 -37 -14 -37 -14 -5 -9 27 5 32 2 32 -14 0 -11 -6 -20 -14 -20 -9 0 -16 -12 -18 -27 -2 -17 -9 -28 -18 -28 -9 0 -16 11 -18 28 -4 34 -22 36 -22 1 0 -17 -6 -28 -20 -31 -11 -3 -20 -9 -20 -14 0 -5 -13 -9 -30 -9 -25 0 -30 -4 -30 -25 0 -27 15 -34 24 -10 3 8 12 15 21 15 8 0 15 -7 15 -15 0 -8 7 -15 15 -15 8 0 15 7 15 15 0 8 5 15 11 15 7 0 17 7 24 17 16 22 35 8 35 -28 0 -25 -4 -29 -27 -29 -16 0 -39 -9 -52 -19 l-25 -19 63 -4 c34 -1 65 -1 67 1 2 2 4 40 4 84 l0 79 65 -7 c68 -7 125 0 125 16 0 5 -13 9 -30 9 -16 0 -30 5 -30 10 0 6 -7 10 -15 10 -8 0 -15 -4 -15 -10 0 -16 -28 -12 -50 7 -25 22 -25 45 0 68 19 18 20 17 20 -3 0 -29 18 -28 22 1 3 19 10 22 51 25 26 2 47 7 47 13 0 5 -7 9 -15 9 -8 0 -15 7 -15 15 0 10 -10 15 -30 15 -21 0 -30 -5 -30 -16 0 -25 -25 -10 -28 17 -2 13 -8 34 -14 47 -10 20 -8 27 24 59 20 19 41 32 47 29 17 -11 13 -23 -10 -29 -16 -4 -20 -12 -17 -39 4 -40 22 -44 26 -5 2 15 9 27 18 27 8 0 14 5 14 10 0 6 7 10 15 10 11 0 15 11 15 40 0 24 -5 40 -12 40 -6 0 1 14 17 30 24 25 27 32 15 43 -10 10 -11 9 -5 -2z"/>
 <path d="M910 1180 c0 -5 7 -10 15 -10 8 0 15 -4 15 -10 0 -5 6 -10 14 -10 9 0 12 7 9 20 -5 21 -53 30 -53 10z"/>
 <path d="M1010 1130 c0 -5 5 -10 10 -10 6 0 10 5 10 10 0 6 -4 10 -10 10 -5 0 -10 -4 -10 -10z"/>
 <path d="M1070 1125 c0 -8 -7 -15 -16 -15 -10 0 -14 -6 -11 -14 5 -12 -2 -13 -31 -9 -20 3 -38 10 -40 15 -5 12 -62 10 -62 -2 0 -5 7 -10 15 -10 8 0 15 -7 15 -15 0 -10 -11 -15 -35 -15 -19 0 -35 -4 -35 -10 0 -17 87 -12 94 5 6 17 36 21 36 5 0 -5 -9 -19 -20 -30 -11 -11 -24 -20 -30 -20 -15 0 -12 -11 8 -26 16 -12 15 -14 -7 -35 -20 -18 -34 -22 -82 -20 -71 2 -81 -17 -11 -21 34 -2 47 -7 47 -18 0 -11 -14 -16 -52 -18 -43 -2 -53 0 -53 12 0 9 -4 16 -10 16 -5 0 -10 -11 -10 -25 0 -24 2 -25 64 -25 42 0 66 -4 70 -12 5 -10 7 -10 12 0 8 17 44 15 44 -3 0 -8 -7 -15 -15 -15 -8 0 -15 -4 -15 -10 0 -5 6 -10 14 -10 8 0 16 -7 20 -15 3 -8 10 -15 16 -15 5 0 10 7 10 15 0 8 7 15 15 15 8 0 15 5 15 10 0 6 -7 10 -15 10 -9 0 -15 9 -15 25 0 15 -6 25 -14 25 -20 0 -31 19 -18 32 14 14 71 -30 71 -54 1 -18 21 -26 21 -9 0 5 10 12 23 14 19 4 19 4 -5 6 -15 0 -42 15 -62 35 -30 27 -36 40 -36 73 0 68 60 122 137 124 21 0 32 3 26 6 -7 2 -13 13 -13 24 0 14 -7 19 -30 19 -20 0 -30 -5 -30 -15z"/>
 <path d="M680 1021 c0 -5 -10 -12 -22 -16 -21 -7 -20 -8 10 -12 18 -2 36 -11 39 -19 10 -26 23 -14 23 21 0 31 -3 35 -25 35 -14 0 -25 -4 -25 -9z"/>
 <path d="M810 1020 c0 -5 11 -10 24 -10 14 0 28 5 31 10 4 6 -7 10 -24 10 -17 0 -31 -4 -31 -10z"/>
 <path d="M1370 1020 c0 -5 5 -10 10 -10 6 0 10 5 10 10 0 6 -4 10 -10 10 -5 0 -10 -4 -10 -10z"/>
 <path d="M810 970 c0 -5 5 -10 10 -10 6 0 10 5 10 10 0 6 -4 10 -10 10 -5 0 -10 -4 -10 -10z"/>
 <path d="M645 940 c3 -5 17 -10 31 -10 13 0 24 5 24 10 0 6 -14 10 -31 10 -17 0 -28 -4 -24 -10z"/>
 <path d="M740 930 c0 -11 7 -20 15 -20 8 0 15 9 15 20 0 11 -7 20 -15 20 -8 0 -15 -9 -15 -20z"/>
 <path d="M650 850 c0 -57 -7 -54 112 -51 l77 2 3 -83 c2 -49 7 -82 13 -81 6 1 11 14 13 27 3 22 9 25 50 28 27 2 45 7 42 13 -2 6 -10 9 -17 7 -23 -5 -14 28 10 38 16 6 17 9 5 9 -9 1 -21 9 -27 19 -9 16 -11 16 -24 -2 -8 -11 -19 -16 -25 -12 -17 10 -15 36 3 36 8 0 15 5 15 10 0 6 -38 10 -95 10 -104 0 -135 13 -135 57 0 13 -4 23 -10 23 -5 0 -10 -22 -10 -50z m258 -123 c2 -12 -3 -17 -17 -17 -15 0 -21 6 -21 21 0 25 33 22 38 -4z"/>
 <path d="M1340 890 c0 -5 11 -10 25 -10 14 0 25 5 25 10 0 6 -11 10 -25 10 -14 0 -25 -4 -25 -10z"/>
 <path d="M1035 780 c3 -5 10 -10 16 -10 5 0 9 5 9 10 0 6 -7 10 -16 10 -8 0 -12 -4 -9 -10z"/>
 <path d="M646 700 c0 -33 4 -60 7 -60 4 0 39 0 77 0 l70 0 0 60 0 60 -77 0 -78 0 1 -60z m137 4 l0 -39 -61 -3 -62 -3 0 39 c0 21 2 41 5 44 3 3 31 4 62 3 l56 -1 0 -40z"/>
 <path d="M1240 700 l0 -60 75 0 75 0 0 60 0 60 -75 0 -75 0 0 -60z m125 3 l1 -43 -53 0 -53 0 0 38 c0 21 3 42 7 46 4 4 27 6 52 4 l45 -3 1 -42z"/>
 <path d="M940 650 c0 -5 14 -10 30 -10 17 0 30 5 30 10 0 6 -13 10 -30 10 -16 0 -30 -4 -30 -10z"/>
 </g>
<g id="layer117" fill="#dce5dd" stroke="none">
 <path d="M1393 1283 c4 -3 10 -3 14 0 3 4 0 7 -7 7 -7 0 -10 -3 -7 -7z"/>
 <path d="M1425 1270 c3 -5 8 -10 11 -10 3 0 2 5 -1 10 -3 6 -8 10 -11 10 -3 0 -2 -4 1 -10z"/>
 <path d="M1356 1251 c-10 -11 -25 -17 -37 -14 -15 4 -19 0 -19 -21 0 -14 -6 -26 -13 -26 -7 0 -17 -10 -22 -22 -8 -18 -20 -24 -52 -26 -40 -3 -43 -5 -43 -33 0 -31 15 -37 40 -16 30 26 174 177 169 177 -3 0 -14 -9 -23 -19z m-136 -135 c0 -11 -19 -15 -25 -6 -3 5 1 10 9 10 9 0 16 -2 16 -4z"/>
 <path d="M650 1180 l0 -60 75 0 75 0 0 60 0 60 -75 0 -75 0 0 -60z m128 3 l3 -43 -55 0 -56 0 0 46 0 45 53 -3 52 -3 3 -42z"/>
 <path d="M840 1165 l0 -75 -95 0 c-57 0 -95 -4 -95 -10 0 -5 20 -10 45 -10 33 0 45 -4 45 -15 0 -8 7 -15 15 -15 8 0 15 7 15 15 0 11 12 15 48 15 l47 0 -3 61 c-4 54 -2 61 17 66 12 3 21 11 21 18 0 8 8 16 18 18 9 3 -4 5 -30 6 l-48 1 0 -75z"/>
 <path d="M997 1233 c18 -2 50 -2 70 0 21 2 7 4 -32 4 -38 0 -55 -2 -38 -4z"/>
 <path d="M1138 1218 c-3 -21 -9 -23 -65 -26 l-62 -3 21 -21 c19 -19 22 -19 30 -4 6 11 23 16 53 16 25 0 45 5 45 10 0 6 16 10 35 10 19 0 35 5 35 10 0 6 -16 10 -35 10 -19 0 -35 5 -35 10 0 20 -19 9 -22 -12z"/>
 <path d="M1394 1208 c-4 -7 -3 -8 4 -4 12 7 16 16 8 16 -3 0 -8 -5 -12 -12z"/>
 <path d="M930 1170 c11 -11 22 -20 25 -20 3 0 5 9 5 20 0 15 -7 20 -25 20 l-25 0 20 -20z"/>
 <path d="M1330 1145 c-28 -29 -30 -33 -11 -28 14 4 21 1 21 -10 0 -8 -8 -17 -18 -20 -14 -3 -19 -13 -18 -36 1 -37 20 -42 24 -6 2 14 10 25 18 25 8 0 14 5 14 10 0 6 7 10 15 10 20 0 21 76 1 83 -7 3 -28 -10 -46 -28z"/>
 <path d="M1010 1130 c0 -5 5 -10 10 -10 6 0 10 5 10 10 0 6 -4 10 -10 10 -5 0 -10 -4 -10 -10z"/>
 <path d="M1070 1126 c0 -8 -7 -16 -15 -18 -32 -7 2 -24 41 -20 37 3 40 6 36 28 -3 19 -11 24 -33 24 -18 0 -29 -5 -29 -14z"/>
 <path d="M910 1100 c0 -5 7 -10 15 -10 8 0 15 -7 15 -15 0 -10 -10 -15 -30 -15 -16 0 -30 -4 -30 -10 0 -17 77 -12 84 5 6 17 36 21 36 5 0 -7 7 -7 20 0 28 15 16 30 -26 30 -19 0 -34 5 -34 10 0 6 -11 10 -25 10 -14 0 -25 -4 -25 -10z"/>
 <path d="M1243 1065 c-7 -8 -9 -16 -5 -19 4 -3 13 4 20 15 14 22 3 25 -15 4z"/>
 <path d="M967 1016 c-18 -16 -22 -26 -14 -29 7 -3 20 8 29 24 21 35 18 36 -15 5z"/>
 <path d="M668 1009 c-17 -18 -17 -19 12 -19 20 0 30 -5 30 -15 0 -8 5 -15 10 -15 6 0 10 16 10 35 0 30 -3 35 -22 34 -13 0 -31 -9 -40 -20z"/>
 <path d="M810 1020 c0 -13 30 -13 50 0 11 7 7 10 -17 10 -18 0 -33 -4 -33 -10z"/>
 <path d="M1257 1009 c4 -13 8 -18 11 -10 2 7 -1 18 -6 23 -8 8 -9 4 -5 -13z"/>
 <path d="M1375 1020 c3 -5 8 -10 11 -10 2 0 4 5 4 10 0 6 -5 10 -11 10 -5 0 -7 -4 -4 -10z"/>
 <path d="M810 970 c0 -5 5 -10 10 -10 6 0 10 5 10 10 0 6 -4 10 -10 10 -5 0 -10 -4 -10 -10z"/>
 <path d="M1303 964 c-3 -8 -12 -13 -20 -10 -8 3 -17 -4 -22 -18 -5 -12 -24 -35 -41 -49 -17 -15 -27 -27 -21 -27 19 0 12 -29 -9 -40 -12 -6 -20 -21 -20 -35 0 -18 -5 -25 -20 -25 -16 0 -20 7 -20 30 0 17 -4 30 -10 30 -5 0 -10 -12 -10 -26 0 -17 -6 -28 -20 -31 -11 -3 -20 -9 -20 -14 0 -5 -13 -9 -30 -9 -25 0 -30 -4 -30 -25 0 -14 5 -25 10 -25 6 0 10 7 10 15 0 21 36 19 45 -2 6 -17 7 -17 16 0 6 9 17 17 24 17 8 0 15 7 15 15 0 8 9 15 20 15 16 0 20 -7 20 -35 0 -32 -2 -35 -30 -35 -16 0 -30 -4 -30 -10 0 -5 -6 -10 -14 -10 -8 0 -18 -4 -21 -10 -4 -6 16 -10 54 -10 l60 0 3 78 3 77 65 -3 c75 -3 130 5 130 18 0 6 -13 10 -29 10 -16 0 -31 6 -34 13 -4 10 -7 10 -18 0 -16 -15 -49 -17 -49 -3 0 6 -7 10 -15 10 -22 0 -19 44 5 65 19 18 20 17 20 -3 0 -12 5 -22 10 -22 6 0 10 11 10 25 0 23 3 25 50 25 28 0 50 5 50 10 0 6 -7 10 -15 10 -8 0 -15 7 -15 15 0 20 -49 20 -57 -1z"/>
 <path d="M943 940 c-14 -16 -31 -20 -78 -22 l-60 -1 50 -6 c37 -4 51 -11 53 -23 3 -15 -5 -18 -52 -18 -43 0 -56 3 -56 15 0 8 -4 15 -10 15 -5 0 -10 -11 -10 -25 0 -24 2 -25 64 -25 42 0 66 -4 70 -12 5 -10 7 -10 12 0 7 15 40 16 49 1 4 -6 -2 -13 -14 -16 -24 -6 -28 -23 -6 -23 9 0 18 -7 21 -15 4 -8 10 -15 15 -15 5 0 9 7 9 15 0 8 7 15 15 15 8 0 15 5 15 10 0 6 -7 10 -15 10 -9 0 -15 9 -15 25 0 15 -6 25 -14 25 -20 0 -30 20 -17 33 8 8 18 4 38 -14 l28 -24 -27 31 c-16 16 -28 35 -28 41 0 22 -20 24 -37 3z"/>
 <path d="M650 940 c0 -5 11 -10 25 -10 14 0 25 5 25 10 0 6 -11 10 -25 10 -14 0 -25 -4 -25 -10z"/>
 <path d="M740 930 c0 -11 7 -20 15 -20 8 0 15 9 15 20 0 11 -7 20 -15 20 -8 0 -15 -9 -15 -20z"/>
 <path d="M650 850 c0 -57 -7 -54 112 -51 l77 2 3 -83 c2 -47 7 -82 13 -80 5 1 10 12 10 25 0 19 6 22 48 25 26 2 47 7 47 13 0 5 -7 9 -15 9 -23 0 -18 30 8 40 16 6 17 9 5 9 -9 1 -21 9 -27 19 -9 16 -11 16 -24 -2 -9 -12 -20 -17 -31 -13 -22 9 -20 28 4 34 48 13 12 23 -80 23 -60 0 -100 4 -100 10 0 6 -7 10 -15 10 -10 0 -15 10 -15 30 0 17 -4 30 -10 30 -5 0 -10 -22 -10 -50z m258 -123 c2 -11 -3 -17 -17 -17 -23 0 -35 15 -26 31 10 15 39 6 43 -14z"/>
 <path d="M1340 890 c0 -5 11 -10 25 -10 14 0 25 5 25 10 0 6 -11 10 -25 10 -14 0 -25 -4 -25 -10z"/>
 <path d="M1040 850 c0 -23 15 -27 23 -6 3 8 -1 17 -9 20 -9 4 -14 -1 -14 -14z"/>
 <path d="M1035 780 c3 -5 10 -10 16 -10 5 0 9 5 9 10 0 6 -7 10 -16 10 -8 0 -12 -4 -9 -10z"/>
 <path d="M650 700 l0 -60 75 0 75 0 0 60 0 60 -75 0 -75 0 0 -60z m133 4 l0 -39 -61 -3 -62 -3 0 39 c0 21 2 41 5 44 3 3 31 4 62 3 l56 -1 0 -40z"/>
 <path d="M1240 700 l0 -60 75 0 75 0 0 60 0 60 -75 0 -75 0 0 -60z m125 0 c0 -43 -2 -45 -30 -46 -62 -3 -75 5 -75 45 0 21 3 41 7 45 4 4 28 6 52 4 l46 -3 0 -45z"/>
 <path d="M944 648 c-3 -4 9 -8 26 -8 17 0 29 4 25 9 -6 11 -44 10 -51 -1z"/>
 </g>
<g id="layer118" fill="#f8f9f9" stroke="none">
 <path d="M1356 1251 c-10 -11 -24 -17 -32 -14 -9 3 -14 -2 -14 -17 0 -13 -8 -24 -18 -27 -10 -2 -22 -14 -27 -26 -7 -16 -21 -23 -50 -27 -34 -4 -40 -8 -40 -29 0 -14 6 -26 14 -29 9 -3 11 2 6 17 -5 17 -2 21 17 21 16 0 48 24 98 75 41 41 72 75 69 75 -3 0 -14 -9 -23 -19z"/>
 <path d="M650 1180 l0 -60 75 0 75 0 0 60 0 60 -75 0 -75 0 0 -60z m130 5 l0 -46 -57 3 -57 3 -1 35 c-1 19 1 38 3 43 2 4 28 7 58 7 l54 0 0 -45z"/>
 <path d="M840 1160 l0 -80 -97 -2 c-54 -1 -78 -3 -53 -5 25 -2 50 -11 56 -19 10 -13 12 -13 18 1 4 10 19 15 51 15 l45 0 0 65 c0 58 2 65 20 65 11 0 20 6 20 14 0 8 8 17 18 19 9 3 -4 5 -30 6 l-48 1 0 -80z"/>
 <path d="M1008 1233 c17 -2 47 -2 65 0 17 2 3 4 -33 4 -36 0 -50 -2 -32 -4z"/>
 <path d="M1140 1215 c0 -24 -2 -25 -65 -25 l-65 0 21 -21 c20 -20 23 -20 31 -5 6 11 23 16 53 16 25 0 45 5 45 10 0 6 16 10 35 10 19 0 35 5 35 10 0 6 -16 10 -35 10 -19 0 -35 5 -35 10 0 6 -4 10 -10 10 -5 0 -10 -11 -10 -25z"/>
 <path d="M923 1183 c9 -2 17 -11 17 -19 0 -8 5 -14 10 -14 6 0 10 9 10 20 0 15 -6 20 -27 19 -17 -1 -21 -3 -10 -6z"/>
 <path d="M1335 1150 c-22 -23 -25 -30 -12 -30 21 0 22 -29 2 -36 -16 -7 -21 -64 -6 -64 5 0 7 9 4 20 -4 13 1 22 13 27 32 12 54 42 54 74 0 16 -4 28 -9 25 -5 -4 -11 -1 -13 4 -2 6 -16 -3 -33 -20z"/>
 <path d="M1010 1130 c0 -5 5 -10 10 -10 6 0 10 5 10 10 0 6 -4 10 -10 10 -5 0 -10 -4 -10 -10z"/>
 <path d="M1076 1125 c-3 -8 -13 -15 -22 -15 -12 0 -14 -3 -6 -13 7 -8 26 -11 50 -9 35 3 38 6 34 28 -5 28 -46 34 -56 9z"/>
 <path d="M923 1103 c9 -2 17 -13 17 -24 0 -14 -7 -19 -30 -19 -16 0 -30 -4 -30 -10 0 -5 18 -10 40 -10 29 0 40 4 40 15 0 12 9 15 35 13 19 -1 37 1 41 5 4 4 -9 7 -30 7 -23 0 -39 5 -42 15 -4 9 -17 15 -33 14 -17 -1 -20 -3 -8 -6z"/>
 <path d="M668 1009 c-17 -18 -17 -19 12 -19 20 0 30 -5 30 -15 0 -8 5 -15 10 -15 6 0 10 16 10 35 0 30 -3 35 -22 34 -13 0 -31 -9 -40 -20z"/>
 <path d="M823 1023 c9 -2 23 -2 30 0 6 3 -1 5 -18 5 -16 0 -22 -2 -12 -5z"/>
 <path d="M1373 1023 c4 -3 10 -3 14 0 3 4 0 7 -7 7 -7 0 -10 -3 -7 -7z"/>
 <path d="M956 1001 c-17 -6 -17 -8 -4 -14 10 -3 19 0 22 9 3 8 4 14 3 13 -1 0 -11 -4 -21 -8z"/>
 <path d="M810 970 c0 -5 5 -10 10 -10 6 0 10 5 10 10 0 6 -4 10 -10 10 -5 0 -10 -4 -10 -10z"/>
 <path d="M1310 970 c0 -6 -12 -15 -26 -20 -18 -7 -24 -15 -20 -26 3 -9 6 -22 6 -30 0 -26 19 -14 22 14 3 24 8 28 53 33 28 3 42 7 33 7 -10 1 -18 9 -18 17 0 9 -9 15 -25 15 -14 0 -25 -5 -25 -10z"/>
 <path d="M663 943 c9 -2 23 -2 30 0 6 3 -1 5 -18 5 -16 0 -22 -2 -12 -5z"/>
 <path d="M747 930 c-3 -11 -1 -20 4 -20 5 0 9 9 9 20 0 11 -2 20 -4 20 -2 0 -6 -9 -9 -20z"/>
 <path d="M940 935 c0 -12 -15 -15 -67 -17 -64 -2 -65 -2 -15 -5 44 -3 52 -7 52 -24 0 -16 -7 -19 -55 -19 -42 0 -55 3 -55 15 0 8 -4 15 -10 15 -5 0 -10 -9 -10 -20 0 -18 7 -20 60 -20 46 0 61 -4 69 -17 9 -17 11 -17 24 1 9 12 20 17 31 13 23 -9 20 -34 -5 -42 -20 -7 -19 -8 7 -22 19 -9 30 -11 32 -4 2 6 10 11 18 11 8 0 14 5 14 12 0 6 -3 8 -7 5 -10 -11 -33 13 -33 34 0 11 -7 19 -15 19 -17 0 -20 26 -4 35 5 4 20 -1 31 -12 14 -11 10 -4 -8 19 -30 39 -54 49 -54 23z"/>
 <path d="M1224 889 c-10 -12 -17 -31 -16 -44 2 -16 -3 -25 -17 -30 -14 -4 -20 -14 -18 -28 1 -16 -4 -23 -20 -25 -20 -3 -23 1 -23 28 0 18 -4 29 -10 25 -5 -3 -10 -13 -10 -22 0 -23 -47 -63 -76 -63 -17 0 -24 -5 -24 -20 0 -11 5 -20 10 -20 6 0 10 7 10 15 0 20 37 19 48 -1 8 -15 10 -15 15 0 4 9 13 16 22 16 8 0 15 7 15 16 0 10 7 14 22 12 21 -3 24 -12 19 -58 0 -5 -14 -10 -31 -10 -16 0 -30 -5 -30 -10 0 -6 -10 -15 -22 -20 -18 -7 -8 -9 40 -9 l62 -1 0 81 0 81 73 -6 c72 -7 127 -1 127 14 0 4 -11 6 -25 5 -15 -2 -29 3 -34 13 -8 14 -10 14 -25 -1 -16 -16 -46 -13 -46 4 0 5 -6 9 -14 9 -21 0 -26 25 -10 49 19 27 13 27 -12 0z"/>
 <path d="M650 850 c0 -57 -7 -54 113 -51 l77 2 0 -80 c0 -47 4 -81 10 -81 6 0 10 11 10 25 0 27 4 28 63 25 21 -1 37 3 37 9 0 6 -7 11 -15 11 -21 0 -19 38 3 43 16 4 16 5 0 6 -10 0 -18 8 -18 16 0 8 -4 15 -10 15 -5 0 -10 -7 -10 -16 0 -10 -7 -14 -22 -12 -30 4 -34 26 -6 37 28 12 20 13 -92 16 -52 1 -86 7 -88 14 -2 6 -10 11 -18 11 -14 0 -18 11 -15 43 1 9 -3 17 -8 17 -6 0 -11 -21 -11 -50z m260 -120 c0 -15 -7 -20 -25 -20 -24 0 -34 18 -18 33 15 15 43 7 43 -13z"/>
 <path d="M1340 890 c0 -5 11 -10 25 -10 14 0 25 5 25 10 0 6 -11 10 -25 10 -14 0 -25 -4 -25 -10z"/>
 <path d="M1040 850 c0 -23 15 -27 23 -6 3 8 -1 17 -9 20 -9 4 -14 -1 -14 -14z"/>
 <path d="M1043 783 c4 -3 10 -3 14 0 3 4 0 7 -7 7 -7 0 -10 -3 -7 -7z"/>
 <path d="M650 700 l0 -60 75 0 75 0 0 60 0 60 -75 0 -75 0 0 -60z m138 3 l-3 -48 -62 -2 -63 -2 0 50 0 49 66 0 65 0 -3 -47z"/>
 <path d="M1240 700 l0 -60 75 0 75 0 0 60 0 60 -75 0 -75 0 0 -60z m126 0 l0 -51 -50 3 -51 3 -3 48 -3 47 54 0 53 0 0 -50z"/>
 <path d="M953 643 c9 -2 25 -2 35 0 9 3 1 5 -18 5 -19 0 -27 -2 -17 -5z"/>
 </g>

</svg>