<?xml version="1.0" encoding="utf-8"?>
<!-- Generator: Adobe Illustrator 24.0.1, SVG Export Plug-In . SVG Version: 6.00 Build 0)  -->
<svg version="1.1" id="Layer_1" xmlns="http://www.w3.org/2000/svg" xmlns:xlink="http://www.w3.org/1999/xlink" x="0px" y="0px"
	 viewBox="0 0 1920 1080" style="enable-background:new 0 0 1920 1080;" xml:space="preserve">
<style type="text/css">
	.st0{fill:#FFFFFF;stroke:#000000;stroke-width:6;stroke-linecap:round;stroke-miterlimit:10;}
	.st1{fill:none;}
</style>
<g>
	<g>
		<path class="st0" d="M529.67,441.86v167.08h-23.75V441.86H529.67z"/>
		<path class="st0" d="M576.22,608.94V441.86h25.98l58.61,84.44c13.37,19.6,24,37.16,32.64,54.41l0.6-0.26
			c-2.15-22.3-2.57-42.68-2.57-68.56v-70.03h22.25v167.08h-24l-58.15-84.69c-12.6-18.72-24.9-37.78-34.04-55.94l-0.81,0.26
			c1.41,21.17,1.74,41.31,1.74,68.93v71.44H576.22z"/>
		<path class="st0" d="M760.27,441.86h98.54v17.98h-74.78v55.63h69.1v17.86h-69.1v75.61h-23.75V441.86z"/>
		<path class="st0" d="M921.65,441.86v167.08H897.9V441.86H921.65z"/>
		<path class="st0" d="M968.21,608.94V441.86h25.98l58.61,84.44c13.37,19.6,24,37.16,32.64,54.41l0.6-0.26
			c-2.15-22.3-2.57-42.68-2.57-68.56v-70.03h22.25v167.08h-24l-58.15-84.69c-12.6-18.72-24.9-37.78-34.04-55.94l-0.81,0.26
			c1.41,21.17,1.74,41.31,1.74,68.93v71.44H968.21z"/>
		<path class="st0" d="M1176.01,441.86v167.08h-23.75V441.86H1176.01z"/>
		<path class="st0" d="M1257.48,460.09h-55.73v-18.23h135.48v18.23h-56v148.85h-23.75V460.09z"/>
		<path class="st0" d="M1403.83,608.94v-70.83l-58.02-96.25h27.06l25.69,46.15c6.97,12.67,12.57,22.78,18.19,34.48h0.54
			c5.04-10.99,11.29-21.93,18.36-34.61l26.39-46.02h26.77l-61.23,95.92v71.16H1403.83z"/>
	</g>
</g>
<rect x="1604.2" y="374.87" class="st1" width="2.82" height="1.41"/>
</svg>
