<?xml version="1.0" encoding="utf-8"?>
<!-- Generator: Adobe Illustrator 24.0.1, SVG Export Plug-In . SVG Version: 6.00 Build 0)  -->
<svg version="1.1" id="Layer_1" xmlns="http://www.w3.org/2000/svg" xmlns:xlink="http://www.w3.org/1999/xlink" x="0px" y="0px"
	 viewBox="0 0 1920 1080" style="enable-background:new 0 0 1920 1080;" xml:space="preserve">
<style type="text/css">
	.st0{fill:#FFFFFF;stroke:#000000;stroke-width:6;stroke-linecap:round;stroke-miterlimit:10;}
	.st1{fill:none;}
</style>
<g>
	<g>
		<path class="st0" d="M479.12,453.28v170.73h-26.91V453.28H479.12z"/>
		<path class="st0" d="M528.16,624.02V453.28h29.43l66.39,86.29c15.15,20.03,27.19,37.97,36.98,55.59l0.68-0.27
			c-2.43-22.79-2.92-43.61-2.92-70.06v-71.56h25.21v170.73h-27.19l-65.88-86.54c-14.27-19.13-28.21-38.6-38.56-57.17l-0.92,0.27
			c1.6,21.63,1.97,42.21,1.97,70.43v73.01H528.16z"/>
		<path class="st0" d="M732.96,453.28h111.63v18.37h-84.72v56.85h78.28v18.25h-78.28v77.26h-26.91V453.28z"/>
		<path class="st0" d="M912.08,453.28v170.73h-26.91V453.28H912.08z"/>
		<path class="st0" d="M961.12,624.02V453.28h29.43l66.39,86.29c15.15,20.03,27.19,37.97,36.98,55.59l0.68-0.27
			c-2.43-22.79-2.92-43.61-2.92-70.06v-71.56h25.21v170.73h-27.19l-65.88-86.54c-14.27-19.13-28.21-38.6-38.56-57.17l-0.92,0.27
			c1.6,21.63,1.97,42.21,1.97,70.43v73.01H961.12z"/>
		<path class="st0" d="M1192.83,453.28v170.73h-26.91V453.28H1192.83z"/>
		<path class="st0" d="M1281.43,471.91h-63.14v-18.63h153.48v18.63h-63.44v152.1h-26.91V471.91z"/>
		<path class="st0" d="M1443.53,624.02v-72.37l-65.72-98.36h30.65l29.11,47.16c7.89,12.94,14.24,23.28,20.6,35.23h0.61
			c5.71-11.23,12.79-22.41,20.79-35.36l29.89-47.03h30.33l-69.36,98.02v72.71H1443.53z"/>
	</g>
</g>
<rect x="1604.2" y="374.87" class="st1" width="2.82" height="1.41"/>
</svg>
